<svg width="294" height="272" viewBox="0 0 216 276" fill="none" xmlns="http://www.w3.org/2000/svg">
<path d="M7.53121 0C6.37256 6.15833 5.21391 7.39 -5.52486e-07 9.2375C5.21391 11.085 6.37256 12.3167 7.53121 18.475C8.68986 12.3167 9.8485 11.085 15.0624 9.2375C10.4278 7.39 9.26918 6.15833 7.53121 0Z" transform="translate(7.89258 14.2685)" fill="white" fill-opacity="0.6"/>
<path d="M7.53123 0C6.37258 6.15833 5.21391 7.39 0 9.2375C5.21391 11.085 6.37258 12.3167 7.53123 18.475C8.68987 12.3167 9.84849 11.085 15.0624 9.2375C9.84849 7.39 8.68987 6.15833 7.53123 0Z" transform="translate(200.381 60.0742)" fill="white"/>
<path opacity="0.3" d="M5.02082 0C4.24839 3.91894 3.47594 4.70273 0 5.87841C3.47594 7.05409 4.24839 7.83788 5.02082 11.7568C5.79325 7.83788 6.56566 7.05409 10.0416 5.87841C6.56566 4.70273 5.79325 3.91894 5.02082 0Z" transform="translate(143.207 0.908569)" fill="white"/>
<path d="M-3.15599e-06 0.358307C0.180974 0.230338 3.43856 3.12425e-06 3.43856 3.12425e-06L5.2742 8.08765L-3.15599e-06 0.358307Z" transform="translate(160.252 183.553)" fill="#619E97"/>
<path d="M-7.88998e-07 7.11572C0.0775609 6.83418 2.27514 -0.0761464 2.48198 0.000635091C2.68881 0.0774166 5.40347 1.56185 5.40347 1.56185L-7.88998e-07 7.11572Z" transform="translate(34.9644 183.757)" fill="#619E97"/>
<path d="M26.9656 6.75676L26.7588 3.12425e-06C26.7588 3.12425e-06 14.3231 1.38206 9.51423 0.998153C8.40251 0.895778 7.13568 0.66544 5.79127 0.33272C1.73221 3.58314 0 11.722 0 11.722L3.28345 14.8956C4.03321 14.4093 4.60199 14.0766 4.91224 13.8974C4.91224 13.8974 17.7358 8.34358 26.9656 6.75676Z" transform="translate(65.55 236.661)" fill="#6A6A61"/>
<path d="M28.2842 1.58682C26.4227 1.12613 24.4061 0.537474 22.4153 3.12425e-06C21.9241 1.22851 19.3646 7.65255 18.0977 9.70005C16.7016 11.9779 10.1864 16.1497 8.76447 17.0455C7.36836 17.9413 3.41271 25.3635 2.45612 28.358C1.29269 31.9411 0.387808 36.3688 0 38.877L1.37026 40.3615C1.37026 40.3615 6.43762 31.6084 7.57519 30.0471C9.82448 26.9759 21.226 19.0674 25.8022 16.1497L22.5187 12.9761C22.4929 12.9761 24.2251 4.83724 28.2842 1.58682Z" transform="translate(43.0569 235.381)" fill="#28241C"/>
<path d="M9.48614 18.3573C10.8822 17.4615 17.3974 13.2897 18.8194 11.0118C20.0862 8.96433 22.6458 2.54029 23.137 1.31178C20.3189 0.543967 17.5526 -0.070294 15.3033 0.00648749L12.692 7.35192L18.6126 8.14534C18.6126 8.14534 17.9145 12.5219 9.09833 17.2823C4.03096 20.0209 -1.16567 39.7793 0.230442 39.6769L0.695809 40.1888C1.10947 37.6806 1.9885 33.2529 3.15193 29.6697C4.13438 26.6753 8.09003 19.253 9.48614 18.3573Z" transform="translate(42.3352 234.069)" fill="#3D3933"/>
<path d="M120.712 13.5135C115.127 9.85363 100.856 6.24849e-06 100.856 6.24849e-06L46.899 0.563058C46.899 0.563058 38.057 6.39846 35.2647 7.95968C32.4725 9.5209 7.65276 22.5226 5.35176 23.5719C4.36931 24.0326 2.19758 25.2611 0 26.6688C11.5308 26.0545 25.7505 26.8735 31.3608 27.2574C39.1687 25.082 60.705 19.4001 72.029 19.3745C86.016 19.3489 116.679 32.5553 116.679 32.5553C116.679 32.5553 84.8784 39.3121 80.7418 40.0799C76.6051 40.8478 62.1786 43.2024 62.1786 43.2024L62.6699 55.0523C62.6699 55.0523 96.4868 49.0634 103.959 48.0396C111.43 47.0159 139.999 43.9702 141.809 43.5863C143.618 43.2024 149.099 29.2281 149.099 29.2281C149.099 29.2281 126.322 17.1735 120.712 13.5135Z" transform="translate(27.6736 190.386)" fill="#332F27"/>
<path d="M1.75807 12.2083L-3.15599e-06 5.68183C-3.15599e-06 5.68183 12.3065 3.48076 16.805 1.71479C17.8392 1.30529 18.9768 0.716624 20.1919 -3.12425e-06C25.0266 1.94513 29.0339 9.26497 29.0339 9.26497L26.8105 13.232C25.9573 12.9761 25.311 12.8225 24.9749 12.7457C24.949 12.7713 11.0396 11.1077 1.75807 12.2083Z" transform="translate(92.1279 214.548)" fill="#6A6A61"/>
<path d="M-3.15599e-06 3.19923C1.65465 2.22667 3.41271 1.07495 5.17078 6.24849e-06C5.9981 1.04935 10.3157 6.44965 12.1255 8.06206C14.1421 9.85363 21.588 11.9779 23.191 12.4386C24.7939 12.8993 30.7144 18.8626 32.5242 21.4732C34.6701 24.5701 36.816 28.5627 37.9535 30.8406L37.0745 32.6577C37.0745 32.6577 29.6803 25.7218 28.129 24.5445C25.1041 22.241 11.8669 17.9157 6.64445 16.4312L8.86789 12.4642C8.84204 12.4642 4.83468 5.14437 -3.15599e-06 3.19923Z" transform="translate(112.294 211.373)" fill="#28241C"/>
<path d="M18.0202 15.9194C16.4172 15.4587 8.97131 13.3344 6.9547 11.5428C5.14493 9.93041 0.827322 4.50452 -3.15599e-06 3.48077C2.48197 1.94514 4.9381 0.563061 7.13568 -3.12425e-06L11.7635 6.29609L6.3342 8.7275C6.3342 8.7275 8.27325 12.7201 18.0977 14.7676C23.7339 15.945 34.4633 33.4 33.093 33.7071L32.7827 34.3469C31.671 32.0691 29.5252 28.0764 27.3534 24.9796C25.5437 22.369 19.6231 16.3801 18.0202 15.9194Z" transform="translate(117.465 207.893)" fill="#3D3933"/>
<path d="M6.68868 2.01739C3.74134 3.91133 0.71643 6.08681 0.25106 7.13616C-0.524557 8.97891 0.664722 16.8618 1.54375 18.1415C2.42279 19.4468 30.0606 19.7027 37.8685 18.8581C45.6764 17.988 82.3372 11.7687 82.3372 11.7687L80.9411 2.58046C80.9411 2.58046 43.5046 4.70474 35.1538 3.42505C35.1538 3.42505 36.2397 3.11794 38.0753 2.60606C34.4041 -0.234855 20.3395 -1.20743 6.68868 2.01739Z" transform="translate(21.0107 215.038)" fill="#332F27"/>
<path d="M50.7771 0.998158L48.7863 6.93593C48.7863 6.93593 30.9471 15.8938 26.8622 19.1442C26.8622 19.1442 22.4929 43.7654 21.6139 48.7562C20.7348 53.7214 17.0894 66.5439 14.504 71.9442C13.0304 75.0155 4.70541 88.2987 4.70541 88.2987L-1.578e-06 93.3663L8.16983 100.405C8.16983 100.405 20.6056 88.2219 24.3285 84.1781C28.0515 80.1343 35.9369 60.9389 35.9369 60.9389C35.9369 60.9389 36.5316 77.3957 36.5833 79.0593C36.635 81.1324 36.6867 83.2055 36.7643 85.2786C36.8677 88.1195 36.0662 93.7502 36.0662 93.7502C36.0662 93.7502 40.1253 96.4631 43.0209 96.7959C50.0273 97.5893 57.0596 98.2291 64.0918 98.1267C72.2358 98.0244 88.4979 96.9494 88.4979 96.9494L94.7804 95.7209C94.7804 95.7209 93.0223 83.5382 93.9014 79.2129C94.6253 75.5786 95.1165 61.7067 95.1165 61.7067L95.3492 57.9188C95.3492 57.9188 101.502 76.3976 103.984 82.2586C106.466 88.1195 114.61 99.4576 114.61 99.4576L123.452 93.4687C123.452 93.4687 116.808 81.7467 115.334 76.0137C113.861 70.2806 108.871 48.2444 107.733 42.8185C106.596 37.4182 104.295 18.8115 104.295 18.8115L79.992 4.40214L78.7768 0L50.7771 0.998158Z" transform="translate(37.7307 96.0992)" fill="#C6F7F1"/>
<path d="M0 10.8262C0 10.8262 6.10151 1.91953 10.8845 -3.12425e-06L16.9602 9.72565C16.9602 9.72565 7.83373 17.3782 5.84298 17.7621C3.87808 18.146 0 10.8262 0 10.8262Z" transform="translate(149.446 182.811)" fill="white"/>
<path d="M7.88998e-07 8.54834C7.88998e-07 8.54834 1.93904 12.9505 2.45612 13.4368C2.9732 13.923 8.60935 18.8883 8.60935 18.8883L17.3738 9.93041C17.3738 9.93041 13.8835 4.40213 12.5391 3.45516C11.1689 2.50819 6.12737 -6.24849e-06 6.12737 -6.24849e-06L7.88998e-07 8.54834Z" transform="translate(33.9563 183.145)" fill="white"/>
<path d="M1.6288 0C1.6288 0 6.23079 23.2904 6.64445 25.5938C7.03226 27.8973 8.55764 34.9356 8.55764 34.9356C8.55764 34.9356 5.58444 36.3432 5.40347 35.6778C5.22249 35.0124 3.15599e-06 1.17732 3.15599e-06 1.17732L1.6288 0Z" transform="translate(103.348 136.41)" fill="#33A35C"/>
<path d="M0.0244179 1.2207e-05H0H0.0244179Z" transform="translate(92.1792 112.532)" fill="#C44E18"/>
<path d="M11.6343 13.7951L11.0396 13.232C9.15228 11.4404 4.29175 3.30161 2.35271 3.12425e-06L1.578e-06 2.25226L8.60935 14.4349L11.8669 14.179C11.7118 14.1022 11.6343 13.9742 11.6343 13.7951Z" transform="translate(90.6538 113.939)" fill="#4FC87B"/>
<path d="M9.85033 3.12425e-06L8.53179 0.563063C5.81713 4.86283 0.698057 12.9505 0.103417 14.1022C0.0258555 14.2558 3.15599e-06 14.3581 3.15599e-06 14.4605L0.361956 14.8188H0.232687C0.956596 15.1771 3.15417 14.5373 3.15417 14.5373L11.8152 2.35463L9.85033 3.12425e-06Z" transform="translate(102.314 113.3)" fill="#4FC87B"/>
<path d="M3.15599e-06 0C0.413666 0.614252 1.3444 1.91954 2.37856 3.3272L3.15599e-06 0Z" transform="translate(112.526 111.201)" fill="#C44E18"/>
<path d="M1.578e-06 1.56212e-06C1.578e-06 0.179158 0.0775617 0.281532 0.232685 0.358314H0.361955L1.578e-06 1.56212e-06Z" transform="translate(102.288 127.735)" fill="#C44E18"/>
<path d="M9.54009 8.2924L1.57709 16.1753C1.88734 15.0236 3.59369 -3.12425e-06 3.59369 -3.12425e-06L1.578e-06 19.5537L8.01471 11.9267L7.13568 10.6726L9.54009 8.2924Z" transform="translate(82.6387 104.238)" fill="#99CCC6"/>
<path d="M1.08586 2.27785L4.34345 5.22114L1.13757 -3.12425e-06L1.578e-06 1.12613C1.578e-06 1.12613 0.310244 1.6636 0.827322 2.53379L1.08586 2.27785Z" transform="translate(92.2048 111.405)" fill="#99CCC6"/>
<path d="M2.43027 3.12425e-06L3.15599e-06 2.40582L0.879034 3.65992L3.23174 1.40766C2.74052 0.537473 2.43027 3.12425e-06 2.43027 3.12425e-06Z" transform="translate(89.7747 112.532)" fill="#46B86F"/>
<path d="M-1.578e-06 14.0766L6.3342 21.6012L3.74881 -3.12425e-06C3.74881 -3.12425e-06 5.35176 17.7109 5.04151 18.2228C4.86053 18.5043 2.66295 15.561 0.775615 13.0017L-1.578e-06 14.0766Z" transform="translate(114.129 101.552)" fill="#99CCC6"/>
<path d="M3.12833 0.358314C2.9732 0.127969 2.86979 1.56212e-06 2.86979 1.56212e-06L1.578e-06 3.60873L1.42197 2.99447C2.43027 1.43325 3.10247 0.358314 3.12833 0.358314Z" transform="translate(109.398 110.841)" fill="#99CCC6"/>
<path d="M3.28344 4.42773L4.05906 3.3272C3.02491 1.89394 2.12002 0.588658 1.68051 0C1.68051 0 1.00831 1.07494 3.15599e-06 2.66176L1.31855 2.0987L3.28344 4.42773Z" transform="translate(110.845 111.201)" fill="#46B86F"/>
<path d="M2.12002 0.281531C2.12002 0.281531 1.06001 29.4329 0.801471 32.5809C0.542932 35.729 -1.578e-06 46.9391 -1.578e-06 46.9391L6.23079 56.1017L12.6943 47.5277C12.6943 47.5277 9.66936 25.1843 9.46253 23.6999C9.2557 22.2154 7.08397 -3.12425e-06 7.08397 -3.12425e-06L2.12002 0.281531Z" transform="translate(98.0999 132.137)" fill="#4FC87B"/>
<path d="M3.33515 33.016C3.33515 33.016 0.491226 5.4259 1.578e-06 3.12425e-06C1.578e-06 3.12425e-06 2.24929 34.3469 1.62879 36.9831L3.33515 33.016Z" transform="translate(70.3586 124.049)" fill="#A3E3DB"/>
<path d="M-3.15599e-06 33.5535C-3.15599e-06 33.5535 0.904883 5.27233 2.32685 -3.12425e-06C2.32685 -3.12425e-06 2.17173 28.4859 2.48198 31.7363C2.79223 34.9868 1.49952 37.8789 1.49952 37.8789L-3.15599e-06 33.5535Z" transform="translate(133.105 120.49)" fill="#A3E3DB"/>
<path d="M0 0.204751L3.3093 3.12425e-06C3.3093 3.12425e-06 2.81807 6.70558 2.81807 6.60321C2.81807 6.50083 0.0258539 1.33088 0 0.204751Z" transform="translate(88.689 97.3021)" fill="#6CB0A8"/>
<path d="M1.47626 6.09133C1.47626 6.09133 3.13091 1.91954 2.92408 1.56212e-06C2.92408 1.56212e-06 -0.10082 0.0767784 0.00259567 0.179154C0.106011 0.281529 1.47626 6.09133 1.47626 6.09133Z" transform="translate(113.299 96.6368)" fill="#6CB0A8"/>
<path d="M24.949 18.3069C24.949 15.4404 24.1475 12.5739 24.1734 9.6562C24.1734 8.86279 24.4319 0.775136 24.5095 0.775136C20.5021 0.928698 16.4689 0.186477 12.4616 0.0585076C8.2991 -0.0694615 4.13662 0.00732151 -1.578e-06 0.340041C0.310245 3.59046 0.594638 6.86647 0.904885 10.1169C1.06001 11.7293 1.39611 13.4185 1.3444 15.0309C1.31855 16.1826 0.672201 17.6415 1.18928 18.7676C2.89564 22.4531 7.83373 32.7162 12.5391 38.9867C12.5391 38.9867 20.9417 26.4201 24.949 18.3069Z" transform="translate(89.9558 84.319)" fill="#F0AC9A"/>
<path d="M37.1096 1.80791C38.1438 2.01266 39.0487 2.37098 39.6175 2.98523C40.3414 3.77864 40.8326 4.7512 41.2721 5.72377C43.9351 11.7895 44.297 17.6761 44.0385 24.1257C43.8834 28.1184 43.4438 32.2902 43.6765 36.2572C43.9092 40.0963 44.0902 44.652 43.0043 48.3887C42.1253 51.4855 39.3072 54.4288 37.0321 56.6299C33.0764 60.469 29.0174 67.0722 26.2251 67.3281C20.046 67.9168 5.8264 54.6336 2.72393 49.1053C1.56051 47.0322 1.8449 43.9866 1.63807 41.6575C1.37953 38.8422 1.12099 36.0013 0.862455 33.186C0.474646 28.9886 -0.456099 24.5096 0.26781 20.3634C0.940012 16.4988 0.759034 12.4805 1.43124 8.56468C1.81904 6.26124 2.25857 2.52454 4.35273 1.0145C5.92982 -0.137219 8.74789 0.0419383 10.5835 0.0163444C14.0479 -0.0604371 17.5124 0.144314 20.9509 0.400252C24.3636 0.65619 27.7505 0.963316 31.1374 1.34722C32.7662 1.52638 35.1706 1.39841 37.1096 1.80791Z" transform="translate(79.9927 32.7131)" fill="#F3BDA2"/>
<path d="M0.574961 1.94783C0.0578831 2.97158 -0.123093 4.17449 0.0837386 5.30062C0.342278 6.70828 1.14375 7.96238 2.07449 9.06291C3.23792 10.3938 4.63403 11.5455 6.18526 12.4157C6.57307 9.31885 6.46965 6.17081 5.90087 3.12515C5.69404 1.97342 5.28037 0.668137 4.19451 0.181855C3.52231 -0.125271 2.69498 -0.0228963 2.04864 0.335417C1.40229 0.693731 0.911062 1.28239 0.574961 1.94783Z" transform="translate(75.2646 58.8069)" fill="#F3BDA2"/>
<path d="M0.977704 14.3101C0.564042 14.2589 0.227942 13.9006 0.0986729 13.4911C-0.0305966 13.0816 -0.00474744 12.6721 0.0211065 12.237C0.279645 8.62824 0.538184 5.04511 0.796724 1.43638C1.46892 0.950098 2.14113 0.438221 2.9426 0.182283C3.71822 -0.0736556 4.64896 -0.0992502 5.34701 0.361439C6.17434 0.924503 6.48459 1.99944 6.588 2.9976C7.00167 7.04143 5.26945 11.2388 2.11527 13.7982C1.80503 14.0797 1.41722 14.3613 0.977704 14.3101Z" transform="translate(121.839 55.8378)" fill="#F3BDA2"/>
<path d="M0.956596 2.22666C5.84298 1.15172 10.7811 0.409501 15.7709 -3.90531e-07C15.6416 0.793408 15.4865 1.58682 15.3572 2.40582C9.90204 2.78973 4.55029 4.60689 -1.578e-06 7.60137C0.336099 5.8098 0.646349 4.01823 0.956596 2.22666Z" transform="translate(83.363 47.1135)" fill="#66340A"/>
<path d="M13.2372 0.358314C8.81618 0.486284 4.39517 0.358314 3.15599e-06 3.90531e-07C0.18098 0.767815 0.336104 1.56122 0.517081 2.32904C5.58445 1.58682 11.0138 2.8921 14.9177 5.8098C14.7109 3.91586 14.1421 2.0731 13.2372 0.358314Z" transform="translate(105.804 46.8068)" fill="#66340A"/>
<path d="M12.203 -3.90531e-07C12.203 -3.90531e-07 12.203 0.153564 12.2289 0.435096C12.2289 0.563065 12.2289 0.742222 12.203 0.946972C12.1772 1.15172 12.1513 1.38207 12.0996 1.638C11.9962 2.14988 11.8152 2.78973 11.4533 3.45517C11.1172 4.12061 10.626 4.83723 9.9279 5.50267C9.2557 6.14252 8.37667 6.75677 7.34251 7.16627C6.30835 7.57577 5.11908 7.78052 3.87809 7.60137C3.25759 7.49899 2.66296 7.31983 2.09417 6.98711C1.52538 6.65439 1.06001 6.14252 0.749763 5.57945C0.439516 5.01639 0.258542 4.40214 0.155127 3.78789C0.051711 3.17363 0.0258555 2.55938 1.578e-06 1.91954C0.180979 2.68735 0.336101 3.45517 0.620494 4.17179C0.775617 4.53011 0.930741 4.86283 1.13757 5.16995C1.3444 5.47708 1.60294 5.75861 1.88733 5.96336C2.17173 6.1937 2.50783 6.34727 2.84393 6.47524C3.18003 6.6032 3.54198 6.67999 3.92979 6.73117C4.67955 6.83355 5.42932 6.75677 6.17908 6.57761C7.65276 6.2193 9.04887 5.4003 10.1347 4.24857C11.2206 3.12245 12.0221 1.638 12.203 -3.90531e-07Z" transform="translate(84.4487 55.1757)" fill="#1D2326"/>
<path d="M1.578e-06 -7.81062e-07C1.578e-06 -7.81062e-07 0.0517094 0.153564 0.129271 0.409502C0.206833 0.66544 0.336102 1.07494 0.51708 1.56122C0.698057 2.04751 0.930739 2.63616 1.24099 3.27601C1.57709 3.91586 2.0166 4.5813 2.6371 5.16995C3.25759 5.75861 4.03321 6.27049 4.96395 6.50083C5.89469 6.73118 6.9547 6.70558 7.98886 6.39846C8.99716 6.09133 9.95375 5.42589 10.5225 4.42773C11.1172 3.45517 11.324 2.17548 10.9103 0.972565C11.2982 1.6636 11.4791 2.50819 11.3757 3.3272C11.2723 4.1462 10.9621 4.9652 10.4191 5.65624C10.1606 5.98896 9.82448 6.29608 9.48838 6.55202C9.12643 6.80796 8.73862 7.01271 8.32495 7.16627C7.91129 7.31983 7.49763 7.42221 7.05811 7.49899C6.6186 7.55018 6.17908 7.57577 5.73956 7.55018C5.30005 7.52458 4.86053 7.42221 4.44687 7.29424C4.03321 7.14068 3.61955 6.96152 3.23174 6.73118C2.48198 6.24489 1.86148 5.60505 1.42197 4.86283C0.956596 4.1462 0.646344 3.3272 0.439513 2.5082C0.258536 1.6636 0.129271 0.844596 1.578e-06 -7.81062e-07Z" transform="translate(107.459 55.2012)" fill="#1D2326"/>
<path d="M5.89469 -3.90531e-07C5.89469 -3.90531e-07 6.12737 1.12613 6.48933 3.09685C6.85128 5.06758 7.36836 7.90849 7.98885 11.3381C8.60935 14.7676 9.3074 18.7603 10.0572 23.1112C10.1089 23.4184 10.1606 23.7255 10.2123 24.0326C10.264 24.2885 10.2899 24.5445 10.3416 24.8004C10.3933 24.8772 10.264 24.8772 10.2123 24.9028L10.0055 24.954L9.61765 25.0564L9.43667 25.1075L9.2557 25.1331L9.02301 25.1843C8.86788 25.2099 8.71277 25.2355 8.5835 25.2355C8.27325 25.2611 7.98886 25.2867 7.67861 25.2611C6.46348 25.2355 5.22249 24.954 4.13662 24.3909C3.02491 23.8279 2.06832 23.0089 1.37026 22.0107C0.646351 21.0125 0.180976 19.8608 -1.578e-06 18.6835C0.413661 20.1423 1.26684 21.4476 2.37856 22.4202C3.49028 23.3928 4.88639 24.007 6.3342 24.2118C7.05811 24.3141 7.80787 24.3141 8.50593 24.2118C8.68691 24.1862 8.86789 24.1606 9.04886 24.1094C9.10057 24.1094 9.07472 24.1094 9.10057 24.0838H9.12643C9.12643 24.0582 9.12643 24.0582 9.10057 24.0326L8.99716 23.4695C8.68691 21.9595 8.40252 20.4239 8.14398 18.8882C7.03226 12.6945 6.30836 6.39846 5.89469 -3.90531e-07Z" transform="translate(99.5217 51.7196)" fill="#D57768"/>
<path d="M1.578e-06 0.4095C1.578e-06 0.4095 0.12927 0.614252 0.361955 1.02375C0.46537 1.2285 0.646346 1.45885 0.853177 1.71479C0.956593 1.84276 1.06001 1.99632 1.18928 2.14988C1.31855 2.30344 1.44782 2.45701 1.60294 2.61057C2.19758 3.22482 2.9732 3.94145 4.00736 4.5557C5.04151 5.16995 6.2825 5.73302 7.70446 6.11692C9.12643 6.50083 10.7294 6.70558 12.4357 6.6544C12.5391 6.6544 12.6426 6.6544 12.746 6.6544L13.0562 6.6288C13.2631 6.60321 13.4957 6.60321 13.7026 6.57761C13.9094 6.55202 14.1421 6.50083 14.3489 6.47524L14.685 6.42405L15.0211 6.34727C15.9002 6.19371 16.805 5.93777 17.6841 5.65623C21.2778 4.50451 24.8197 2.35463 28.2325 7.81062e-07C26.2417 1.68919 24.0958 3.3016 21.7431 4.60689C19.3904 5.91217 16.805 6.91033 14.0645 7.26865C11.324 7.62696 8.42837 7.24305 5.89469 6.11692C4.62785 5.55386 3.41271 4.78604 2.40441 3.81348C1.3444 2.86651 0.542933 1.68919 1.578e-06 0.4095Z" transform="translate(89.1023 78.7715)" fill="#D57768"/>
<path d="M3.15599e-06 0.085188C3.15599e-06 0.085188 0.0258555 0.0851864 0.103417 0.0595926C0.155125 0.0595926 0.258542 0.00840571 0.387812 0.00840571C0.620497 -0.0171881 0.982449 0.00840493 1.37026 0.187562C1.75807 0.341125 2.17173 0.673846 2.48197 1.10894C2.6371 1.33929 2.74051 1.59522 2.79222 1.87676C2.84393 2.15829 2.84393 2.43982 2.79222 2.72135C2.76637 2.00473 2.40442 1.39047 1.93905 0.90419C1.42197 0.443501 0.749767 0.085188 3.15599e-06 0.085188Z" transform="translate(116.017 77.4081)" fill="#D57768"/>
<path d="M3.67125 7.81062e-07C3.67125 7.81062e-07 3.6454 -1.56174e-06 3.56784 0.0255923C3.49028 0.0511861 3.38686 0.0767823 3.25759 0.12797C2.99906 0.204751 2.6371 0.383907 2.22344 0.614251C1.42197 1.10053 0.491226 1.99632 1.578e-06 3.25042C0.103417 2.40582 0.568783 1.58682 1.21513 0.998158C1.86148 0.4095 2.76636 0.0255946 3.67125 7.81062e-07Z" transform="translate(87.293 76.7255)" fill="#D57768"/>
<path d="M5.50688 -3.12425e-06C5.50688 -3.12425e-06 5.55859 0.076783 5.68786 0.204752C5.79127 0.332721 5.97225 0.53747 6.15323 0.819003C6.33421 1.10053 6.56689 1.43325 6.77372 1.84276C6.98055 2.27785 7.16153 2.78973 7.13568 3.37839C7.13568 3.68551 7.08397 3.99264 6.9547 4.29977C6.82543 4.60689 6.64445 4.88842 6.41177 5.14436C5.9464 5.65623 5.27419 6.01455 4.52443 6.16811C3.77467 6.34727 2.99905 6.29609 2.24929 6.11693C1.47367 5.96337 0.74976 5.68183 -3.15599e-06 5.4003C0.956591 5.68183 1.93905 5.96336 2.94735 6.01455C3.43857 6.04014 3.95565 6.01455 4.42102 5.91217C4.91224 5.7842 5.35176 5.60505 5.76542 5.32352C6.15323 5.04199 6.51519 4.65807 6.69616 4.22298C6.903 3.78788 6.92884 3.27601 6.85128 2.78973C6.6703 1.76598 6.10152 0.870187 5.50688 -3.12425e-06Z" transform="translate(101.693 93.2331)" fill="#D57768"/>
<path d="M4.39517 -7.81062e-07C4.39517 -7.81062e-07 4.36931 0.0511869 4.34345 0.127968C4.3176 0.20475 4.26589 0.332719 4.21418 0.511876C4.08492 0.844596 3.87808 1.27969 3.54198 1.79157C3.20588 2.30344 2.74051 2.84092 2.12002 3.30161C1.80977 3.53195 1.47367 3.76229 1.13757 3.96704C0.775617 4.1462 0.38781 4.32536 1.578e-06 4.45333C1.83563 3.42958 3.36101 1.94513 4.39517 -7.81062e-07Z" transform="translate(93.1101 59.552)" fill="#D57768"/>
<path d="M3.15599e-06 -3.90531e-07C3.15599e-06 -3.90531e-07 0.0258523 0.0767823 0.0517062 0.179158C0.103414 0.307127 0.12927 0.486283 0.206831 0.716628C0.361955 1.17732 0.646348 1.79157 1.11172 2.45701C1.57709 3.12245 2.27514 3.81348 3.12832 4.37654C3.56784 4.65808 4.03321 4.91402 4.55028 5.11877C5.06736 5.32352 5.6103 5.45148 6.20494 5.52827C4.73127 5.55386 3.23174 4.93961 2.09416 3.94145C0.956591 2.94329 0.129273 1.53563 3.15599e-06 -3.90531e-07Z" transform="translate(107.743 59.2698)" fill="#D57768"/>
<path d="M3.02491 1.1213C3.02491 1.1213 3.07661 1.04452 3.07661 0.91655C3.10247 0.788581 3.02491 0.558237 2.84393 0.37908C2.76637 0.276705 2.6371 0.199923 2.48197 0.174329C2.35271 0.148735 2.17173 0.148736 2.01661 0.199924C1.68051 0.302299 1.39611 0.609425 1.24099 0.993332C1.08587 1.37724 1.03416 1.86352 0.956596 2.40099C0.879034 2.91287 0.801473 3.47593 0.698057 4.039C0.51708 5.16513 0.284391 6.39363 -1.578e-06 7.62213C0.155122 6.03532 0.336102 4.4485 0.568787 2.83609C0.620495 2.42659 0.698054 2.04268 0.775616 1.63318C0.853177 1.22367 1.0083 0.788582 1.31855 0.455862C1.47367 0.302299 1.65465 0.17433 1.86148 0.071955C2.06831 -0.00482652 2.32685 -0.0304219 2.53369 0.0463596C2.74052 0.123141 2.92149 0.302299 3.02491 0.481456C3.12832 0.686206 3.15418 0.942145 3.02491 1.1213Z" transform="translate(123.307 58.9938)" fill="#D57768"/>
<path d="M-1.578e-06 1.35751C-1.578e-06 1.35751 0.0258571 1.28073 0.0775649 1.17835C0.129273 1.05038 0.206834 0.89682 0.336104 0.692069C0.465374 0.487318 0.646351 0.231382 0.982452 0.0778185C1.13758 0.00103702 1.37026 -0.024556 1.57709 0.0266316C1.78392 0.0778193 1.99075 0.205789 2.14588 0.359352C2.45612 0.692072 2.6371 1.12717 2.81807 1.56226C2.99905 1.99736 3.15418 2.48364 3.3093 2.99551C3.5937 4.01927 3.77467 5.1454 3.77467 6.27153C3.56784 4.83827 3.20588 3.45621 2.71466 2.07414C2.58539 1.74142 2.45612 1.3831 2.301 1.05038C2.14587 0.743259 1.93904 0.410539 1.65465 0.28257C1.49952 0.205788 1.3444 0.205789 1.16342 0.231383C1.0083 0.256977 0.853181 0.359352 0.698057 0.487321C0.38781 0.717666 0.180976 1.02479 -1.578e-06 1.35751Z" transform="translate(75.9949 61.3419)" fill="#D57768"/>
<path d="M7.72581 4.09926C7.72581 4.09926 8.0102 9.21803 7.13116 10.8048C6.25213 12.3917 3.43406 17.0753 3.30479 19.7115C3.14967 22.3477 4.33895 39.2908 4.33895 39.2908L1.67599 31.9454C1.67599 31.9454 2.27063 25.1118 1.67599 24.088C0.693541 22.3989 0.538424 19.8907 0.357447 18.0223C0.0213461 14.7463 0.357447 11.5471 0.0989078 8.27106C-0.0562156 6.37711 -0.13378 4.3808 0.693544 2.66601C1.41745 1.15597 4.28724 -1.19866 5.63164 0.720878C6.3814 1.79582 7.02775 2.97314 7.72581 4.09926Z" transform="translate(77.6538 33.4423)" fill="#66340A"/>
<path d="M0.131161 3.12424C-0.101524 4.58309 0.00188993 6.16991 0.234575 7.0401C0.829215 9.0876 1.91508 10.956 2.66484 12.9523C3.95754 16.3307 4.21607 21.8333 4.19022 26.0819C4.19022 27.5152 4.47461 39.058 4.47461 39.058L6.36195 32.0965L5.43121 26.4146C5.43121 26.4146 4.68144 23.6249 5.87072 20.8864C7.3961 17.4056 7.08586 14.5135 7.11171 12.5172C7.21513 6.68178 8.55953 2.91949 3.93168 0.411297C1.55312 -0.842801 0.467262 0.974361 0.131161 3.12424Z" transform="translate(118.833 32.7025)" fill="#66340A"/>
<path d="M0.811392 4.87068C0.165045 5.86884 -0.171053 7.09735 0.087486 8.24907C0.346025 9.40079 1.30262 10.4245 2.4919 10.6293C3.96557 10.8852 5.33582 9.86148 6.70608 9.24723C10.8944 7.37888 15.6774 9.17045 20.1501 10.0918C28.6043 11.8322 37.7049 10.2966 45.0733 5.86884C38.8942 3.89812 32.6893 1.92739 26.3033 0.826856C19.9174 -0.248085 13.273 -0.427242 6.99047 1.21076C4.63777 1.82502 2.1558 2.82318 0.811392 4.87068Z" transform="translate(81.5435 27.6286)" fill="#66340A"/>
<path d="M7.88998e-07 1.30668C7.88998e-07 1.30668 0.0517082 1.2299 0.155124 1.10193C0.258539 0.97396 0.439517 0.820384 0.646348 0.641227C1.08586 0.308508 1.83563 -0.0242122 2.6371 0.00138163C1.73221 0.359695 0.904887 0.769206 7.88998e-07 1.30668Z" transform="translate(18.1855 217.695)" fill="#D57768"/>
<path d="M3.28345 4.5813C3.02491 4.70926 2.81808 4.91401 2.66295 5.16995C2.27514 4.53011 2.12002 3.78789 2.22343 3.04567C1.88733 3.71111 1.37026 4.24858 0.723911 4.60689C0.413664 3.96704 0.310244 3.25042 0.387805 2.53379C0.258536 2.73854 0.129266 2.96888 -3.15599e-06 3.17363C-3.15599e-06 1.97072 0.594643 0.767815 1.52538 -9.76327e-08C1.47368 0.793409 1.42197 1.61241 1.39611 2.40582C1.86148 1.86835 2.32685 1.30529 2.79222 0.767815C2.79222 1.35647 2.81808 1.94513 2.81808 2.53379C2.81808 2.73854 2.84393 2.96888 2.9732 3.12245C3.15417 3.3016 3.49028 3.3016 3.69711 3.14804C3.92979 2.99448 4.05906 2.76413 4.18833 2.53379C4.03321 3.91586 3.87809 5.29792 3.72296 6.67999C3.43857 6.09133 3.28345 5.34911 3.28345 4.5813Z" transform="translate(78.8127 35.673)" fill="#8B4C26"/>
<path d="M3.87809 1.63801C5.6103 0.921378 7.49764 0.537471 9.35912 0.460689C8.48008 0.716627 7.73032 1.33088 7.36836 2.14988C9.22984 2.0731 11.0913 1.97072 12.9787 1.89394C12.4099 2.27785 11.8411 2.66176 11.2723 3.02007C13.1079 3.22482 14.9436 3.27601 16.7792 3.19923C13.9353 3.76229 11.0396 4.04383 8.14398 4.01823C8.76447 3.55754 9.41082 3.09685 10.0313 2.63616C8.55764 3.09685 6.98055 3.3272 5.42932 3.3272C5.73957 2.73854 6.04982 2.14988 6.36006 1.56122C5.17078 2.30344 3.85223 2.84092 2.50783 3.12245C2.6371 2.53379 2.74052 1.97072 2.86979 1.38207C1.73221 1.61241 0.672202 2.30344 0 3.25042C1.13757 1.27969 3.361 4.88164e-08 5.63615 4.88164e-08C4.88638 0.383908 4.29175 0.946972 3.87809 1.63801Z" transform="translate(84.0352 29.6324)" fill="#8B4C26"/>
<path d="M1.578e-06 1.10616C1.578e-06 1.10616 0.206831 1.05497 0.620494 0.952594C0.827325 0.901407 1.06001 0.824625 1.37026 0.773437C1.65465 0.696656 1.99075 0.619874 2.37856 0.568687C3.90394 0.261561 6.12737 -0.0455651 8.84203 0.00562251C10.1864 0.0312163 11.6601 0.133592 13.2113 0.38953C13.3923 0.415124 13.5992 0.440718 13.7801 0.491905C13.987 0.517499 14.1679 0.568687 14.3748 0.594281C14.7626 0.671062 15.1762 0.773437 15.564 0.850219C16.3655 1.02938 17.167 1.28531 17.9943 1.51566C19.6231 1.97635 21.3295 2.48822 23.1134 2.66738C24.0183 2.74416 24.9232 2.74416 25.8281 2.61619C26.7329 2.48822 27.612 2.20669 28.4393 1.7716C27.431 2.38585 26.2676 2.71857 25.0783 2.84654C23.889 2.97451 22.6997 2.89773 21.5104 2.66738C19.1577 2.25788 16.8826 1.41328 14.5299 0.952594C9.79863 -0.0711589 4.80883 -0.0199714 1.578e-06 1.10616Z" transform="translate(95.8245 27.6819)" fill="#611427"/>
<path d="M-1.578e-06 4.9908C-1.578e-06 4.9908 0.439516 4.91401 1.18928 4.78605C1.93904 4.65808 3.02491 4.45333 4.3176 4.19739C5.6103 3.91586 7.10983 3.58314 8.71277 3.12245C9.51424 2.8921 10.3157 2.61057 11.0396 2.12429C11.7377 1.638 12.3582 0.895784 12.5391 9.76327e-08C12.4616 0.563064 12.2289 1.12613 11.8411 1.58682C11.4791 2.04751 10.9879 2.43141 10.4708 2.71295C9.41082 3.3016 8.2474 3.55754 7.10982 3.86467C4.80883 4.42773 2.43027 4.81164 -1.578e-06 4.9908Z" transform="translate(116.844 31.8852)" fill="#611427"/>
<path d="M-1.578e-06 0.127968L8.16983 -1.56212e-06C8.16983 -1.56212e-06 7.60105 5.32352 7.34251 5.8354C7.08397 6.34727 1.6805 5.96336 1.6805 5.96336L-1.578e-06 0.127968Z" transform="translate(98.229 127.171)" fill="#33A35C"/>
<path d="M1.578e-06 -6.24849e-06L3.49028 0.435092C3.49028 0.435092 5.35176 0.870184 6.54104 2.55938C7.75617 4.24857 8.73862 7.14068 8.2474 9.75125C8.2474 9.72566 0.698057 2.53378 1.578e-06 -6.24849e-06Z" transform="translate(34.5505 191.847)" fill="#619E97"/>
<path d="M42.3738 5.60505C42.3738 5.60505 33.7386 12.9249 28.6971 17.1735C28.6971 17.1735 27.2234 24.3141 26.2668 25.7986C25.3102 27.3086 20.0877 31.8899 17.7609 31.9667C15.434 32.0179 9.04813 29.8936 7.98812 28.102C7.98812 28.102 1.78318 26.1313 0.697319 23.6743C-0.0265899 22.0107 -0.130006 19.9632 0.128533 18.1716C0.335365 16.636 1.03342 14.4861 2.81734 14.179C4.29101 13.923 5.60956 14.9468 5.1959 16.4568C4.73053 18.1204 3.61881 19.4769 3.64466 20.9613C3.67052 21.8827 4.65297 22.6505 5.35102 23.1368C5.58371 23.316 6.10079 23.8023 6.41103 23.8279C6.95396 23.879 6.97982 23.2904 7.26421 22.8297C7.98812 21.6268 9.12569 20.4751 10.4184 19.8864C11.1423 19.5537 11.8921 19.1954 12.6677 18.9906C13.4174 18.8115 14.1414 19.0418 14.8394 18.8882C15.8477 18.6835 17.3731 17.4038 17.3472 16.3033C17.3214 14.9724 16.0804 12.3874 14.917 12.8993C13.7535 13.4112 11.5043 16.4568 9.66863 16.508C8.68618 16.5336 7.80714 15.8938 7.08323 15.3051C4.8598 13.4368 8.97057 11.466 10.3667 10.4679C12.073 9.23937 14.1414 6.91034 16.5199 7.75493C17.7092 8.16444 18.8985 8.85546 20.0102 9.44412C20.8117 9.87922 21.8975 10.3655 22.518 11.0821C23.2161 11.9011 28.7488 7.29424 32.4976 4.06942C36.2464 0.844596 37.0479 -6.24849e-06 37.0479 -6.24849e-06C40.1762 0.383901 41.7275 2.4826 42.3738 5.60505Z" transform="translate(0.269287 192.614)" fill="#F3BDA2"/>
<path d="M1.61645 9.89201C1.61645 9.89201 1.51304 9.73845 1.35791 9.45691C1.17694 9.17538 0.94425 8.76589 0.659857 8.20282C0.401318 7.63976 0.0910711 6.94872 0.0135094 6.05294C-0.0123445 5.61784 -0.0123441 5.13156 0.116925 4.64528C0.246195 4.15899 0.504734 3.67272 0.892543 3.26322C1.28035 2.85372 1.74572 2.521 2.23695 2.18828C2.75402 1.88115 3.2711 1.57402 3.83989 1.29249C4.40867 0.985366 4.97746 0.703827 5.59795 0.422295C5.9082 0.294326 6.21845 0.140772 6.5804 0.0639908C6.9165 -0.0127907 7.33017 -0.0383907 7.69212 0.0895784C8.41603 0.294329 9.01067 0.857396 9.32092 1.54843C9.65702 2.23946 9.73458 3.03288 9.5536 3.7751C9.37262 4.51732 8.93311 5.20835 8.31261 5.69463C8.00237 5.95057 7.66627 6.15531 7.30431 6.30888C7.12334 6.38566 6.94236 6.46244 6.73553 6.51362C6.63211 6.53922 6.55455 6.56482 6.45113 6.59042C6.39942 6.59042 6.34772 6.616 6.29601 6.616L6.11503 6.64159L5.98576 6.51362L5.85649 6.38565C5.77893 6.30887 5.70137 6.23209 5.62381 6.12972C5.49454 5.95056 5.36527 5.74581 5.26185 5.54106C5.05502 5.13156 4.92575 4.67087 4.8999 4.18459C4.95161 4.64528 5.08088 5.08038 5.31356 5.46428C5.41698 5.66903 5.54625 5.84819 5.70137 6.02735C5.77893 6.10413 5.85649 6.20651 5.93405 6.28329L6.06332 6.41126L6.16674 6.51362L6.32186 6.48804C6.37357 6.48804 6.42528 6.46244 6.50284 6.43685C6.60626 6.41125 6.73553 6.36007 6.83894 6.33448C7.07163 6.2577 7.27846 6.15531 7.48529 6.05294C7.89895 5.82259 8.26091 5.54107 8.57115 5.18276C8.8814 4.82444 9.11409 4.41494 9.24336 3.97984C9.37263 3.54475 9.39848 3.05846 9.34677 2.59777C9.26921 2.13708 9.11409 1.70199 8.85555 1.31808C8.59701 0.934172 8.23505 0.627055 7.82139 0.447898C7.61456 0.371117 7.38187 0.31992 7.17504 0.294326C6.94236 0.294326 6.70967 0.319926 6.50284 0.396707C6.06332 0.524677 5.62381 0.755024 5.15844 0.959775C4.2794 1.36928 3.40037 1.82996 2.54719 2.31624C2.13353 2.57218 1.71987 2.82812 1.35791 3.13525C0.995958 3.44238 0.685712 3.82627 0.478881 4.26137C0.0910719 5.13156 0.116925 6.18092 0.375464 7.10229C0.634004 8.15164 1.12523 9.02182 1.61645 9.89201Z" transform="translate(13.5959 214.255)" fill="#D57768"/>
<path d="M1.23977 9.44691C1.23977 9.44691 1.16221 9.34454 1.0588 9.1142C0.929526 8.90945 0.748549 8.60232 0.567571 8.16722C0.386594 7.75772 0.153909 7.22025 0.0504933 6.5804C-0.0529223 5.94056 -0.027069 5.14716 0.412447 4.43053C0.82611 3.7139 1.57587 3.17642 2.35149 2.69014C3.10125 2.17826 3.92858 1.6408 4.7559 1.10333C5.16957 0.8218 5.60908 0.565861 6.10031 0.335517C6.59153 0.130766 7.13446 -0.0228094 7.6774 0.00278446C8.22033 0.0283783 8.78911 0.207541 9.17692 0.617043C9.56473 1.00095 9.77156 1.58961 9.64229 2.12708C9.77156 1.43605 9.33204 0.770612 8.76326 0.463486C8.16862 0.15636 7.44471 0.156354 6.79836 0.361104C6.15201 0.565855 5.55738 0.924165 4.96274 1.33367C4.3681 1.71757 3.79931 2.12708 3.20467 2.51099C2.61003 2.92049 1.98954 3.27879 1.4466 3.71389C0.903672 4.14898 0.464156 4.71205 0.309032 5.37749C0.153909 6.04293 0.205616 6.78516 0.412447 7.4506C0.593425 8.14163 0.903672 8.80707 1.23977 9.44691Z" transform="translate(9.11157 212.702)" fill="#D57768"/>
<path d="M1.05217 8.84834C1.05217 8.84834 0.974613 8.77155 0.845344 8.5924C0.716074 8.41324 0.535096 8.1573 0.379973 7.77339C0.22485 7.38949 0.0697263 6.92879 0.0180185 6.34013C-0.0336893 5.77707 0.0180185 5.11163 0.276558 4.42059C0.405827 4.08787 0.586804 3.75516 0.793636 3.42244C1.02632 3.08972 1.28486 2.78259 1.56925 2.50106C2.16389 1.93799 2.8878 1.42612 3.68927 1.01662C4.07708 0.811868 4.49074 0.607126 4.93026 0.402376C5.36978 0.223219 5.80929 0.0696562 6.30052 0.0184686C6.79174 -0.032719 7.28297 0.0184655 7.74834 0.223216C8.18785 0.427967 8.57566 0.786271 8.75664 1.22137C8.4981 0.658302 7.92931 0.325582 7.33467 0.197613C6.74003 0.0696437 6.11954 0.197625 5.55075 0.402376C4.98197 0.607126 4.43904 0.91424 3.8961 1.22137C3.35317 1.52849 2.83609 1.86121 2.34487 2.24512C1.85365 2.62903 1.41413 3.06412 1.05217 3.576C0.69022 4.08788 0.431681 4.65094 0.302412 5.2396C0.0438725 6.4681 0.302411 7.82458 1.05217 8.84834Z" transform="translate(6.68799 211.484)" fill="#D57768"/>
<path d="M0.168822 5.11877C0.168822 5.11877 0.168821 5.06758 0.142967 4.9908C0.117113 4.91402 0.0912601 4.78604 0.0654062 4.63248C0.0136984 4.32535 -0.0380091 3.86466 0.0395527 3.3016C0.117114 2.73853 0.323946 2.12428 0.6859 1.51003C0.866878 1.2029 1.09956 0.921374 1.38395 0.665436C1.66835 0.409498 1.97859 0.17916 2.3147 3.12425e-06C1.59079 0.614255 1.022 1.40765 0.634191 2.27784C0.272237 3.14803 0.0912605 4.12061 0.168822 5.11877Z" transform="translate(22.4116 206.332)" fill="#D57768"/>
<path d="M0.723909 1.43326C1.12371 1.43326 1.44782 1.11242 1.44782 0.716633C1.44782 0.320851 1.12371 -6.24849e-06 0.723909 -6.24849e-06C0.324104 -6.24849e-06 0 0.320851 0 0.716633C0 1.11242 0.324104 1.43326 0.723909 1.43326Z" transform="translate(39.282 184.809)" fill="#619E97"/>
<path d="M0.767255 8.4436C0.948233 8.39242 9.68685 2.53144 11.5225 0.842249C11.5225 0.842249 10.3591 -0.667793 6.92048 0.35596C4.90388 0.970212 0.276034 4.19504 0.0433493 5.96101C-0.21519 7.70139 0.767255 8.4436 0.767255 8.4436Z" transform="translate(154.496 191.721)" fill="#619E97"/>
<path d="M-3.15599e-06 4.9396C-3.15599e-06 4.9396 11.1689 17.8389 12.5391 18.965C13.9094 20.0912 13.806 22.5482 15.1762 24.1862C16.5465 25.7986 21.3812 31.9411 22.8807 31.8899C24.3802 31.8387 33.5842 27.0015 35.032 25.4659C36.4799 23.9558 36.1179 22.8041 36.1179 22.8041C36.1179 22.8041 39.4789 17.2758 39.4531 16.6104C39.4272 15.945 34.4633 10.647 34.1013 9.64887C33.455 9.77684 32.4725 10.0072 32.0588 10.4935C31.5676 11.0821 31.671 12.0035 31.9037 12.6689C32.4208 14.1534 33.5325 15.6122 34.5925 16.7384C35.394 17.583 35.032 18.7859 34.3598 19.6561C33.6618 20.5262 33.0413 19.912 32.3691 19.3745C31.671 18.7859 30.9471 18.2228 30.1974 17.7109C29.732 17.4038 29.0598 16.8663 28.4652 16.8919C27.3276 16.9175 26.4227 15.6378 25.8798 14.8444C25.13 13.7439 25.0783 12.413 25.13 11.1077C25.13 11.0053 25.1558 10.903 25.2076 10.8262C25.3368 10.6726 25.5695 10.7494 25.7246 10.8518C26.6037 11.4404 28.5686 12.8225 29.6803 12.4386C30.6627 12.0803 31.4384 9.26497 31.4384 9.26497C31.4384 9.26497 25.3627 5.96337 24.6646 5.47708C24.0441 5.04199 22.4412 6.83356 22.0792 7.19187C21.0451 8.16444 20.5021 9.46971 19.8558 10.6982C19.5714 11.2357 18.9509 12.7201 18.2012 12.7457C17.1928 12.7713 8.94545 2.58497 7.21324 -3.12425e-06C3.9815 1.04934 1.6805 2.76413 -3.15599e-06 4.9396Z" transform="translate(155.211 192.027)" fill="#F3BDA2"/>
<path d="M5.78481 9.54167C5.78481 9.54167 5.81067 9.51607 5.88823 9.49048C5.96579 9.43929 6.0692 9.3881 6.17262 9.28573C6.4053 9.08098 6.71554 8.72267 6.89652 8.1852C7.0775 7.64773 7.07751 6.93109 6.87067 6.16328C6.66384 5.39546 6.25017 4.55087 5.7331 3.70628C5.21602 2.86168 4.51796 2.01709 3.66478 1.24928C3.45795 1.07012 3.22527 0.865366 2.99259 0.686209C2.7599 0.507052 2.52721 0.35348 2.24282 0.276699C1.69989 0.123136 1.13111 0.481459 0.76916 0.942147C0.407205 1.42843 0.252069 2.06827 0.303777 2.68252C0.329631 3.32237 0.562322 3.93662 0.924277 4.49968C1.28623 5.06274 1.77745 5.54904 2.29453 5.98413C2.4238 6.08651 2.55307 6.21447 2.68234 6.31685L2.7599 6.39363L2.81161 6.41922V6.39363L2.91503 6.18888C3.07015 5.88175 3.22527 5.57462 3.3804 5.26749C3.19942 5.677 3.01845 6.0865 2.83747 6.5216C2.83747 6.57279 2.78575 6.5216 2.7599 6.5216L2.68234 6.47041L2.52722 6.36804L2.26868 6.16328C2.08771 6.03531 1.90673 5.88176 1.7516 5.7282C1.0794 5.13954 0.484754 4.42291 0.174508 3.55272C0.0193841 3.11763 -0.0323174 2.65692 0.0193904 2.19624C0.0452443 1.73555 0.200371 1.27486 0.45891 0.890957C0.717449 0.507049 1.10525 0.174333 1.59647 0.0463635C1.82916 -0.030418 2.11356 -0.00483042 2.34624 0.071951C2.57893 0.148733 2.78576 0.276699 2.99259 0.404668C4.46626 1.5052 5.65554 2.96406 6.43116 4.65325C6.81896 5.49785 7.12922 6.39363 7.10337 7.3406C7.07751 7.80129 6.97409 8.28757 6.74141 8.69707C6.56043 9.0042 6.22432 9.36251 5.78481 9.54167Z" transform="translate(173.34 213.709)" fill="#D57768"/>
<path d="M0 2.68735C0 2.68735 0.0258507 2.55938 0.0775586 2.32903C0.129266 2.09869 0.232688 1.76598 0.439519 1.38207C0.646351 0.998165 1.0083 0.53747 1.57708 0.255938C1.86147 0.102375 2.19759 0 2.55954 0C2.9215 0 3.30929 0.102369 3.64539 0.281526C4.00735 0.460683 4.3176 0.716624 4.6537 0.972562C4.96395 1.2285 5.30005 1.51003 5.6103 1.81716C6.25665 2.43141 6.90299 3.09685 7.52348 3.83907C8.14397 4.58129 8.76447 5.4003 9.07471 6.39846C9.22984 6.88474 9.28154 7.42221 9.20398 7.93409C9.12642 8.44596 8.91959 8.95784 8.55764 9.34175C8.9713 8.82987 9.15228 8.16443 9.12642 7.49899C9.10057 6.85914 8.86789 6.21929 8.53179 5.65623C8.19569 5.09316 7.78203 4.55571 7.34251 4.06942C6.903 3.55755 6.43762 3.07125 5.97225 2.58497C5.50687 2.09869 4.98981 1.63801 4.49859 1.20291C3.98151 0.767818 3.43857 0.332726 2.79222 0.230351C2.14587 0.127975 1.47367 0.409507 0.982445 0.870196C0.491221 1.38207 0.180977 2.02191 0 2.68735Z" transform="translate(176.074 211.271)" fill="#D57768"/>
<path d="M6.31199e-06 2.95812C6.31199e-06 2.95812 6.31199e-06 2.93253 6.31199e-06 2.88134C6.31199e-06 2.83015 0 2.72778 0.0258539 2.6254C0.0517078 2.39506 0.129273 2.06233 0.336104 1.67843C0.542935 1.29452 0.853176 0.859414 1.39611 0.5011C1.91319 0.16838 2.63709 -0.0619546 3.41271 0.0148269C4.18833 0.0916083 4.96395 0.5011 5.662 1.01298C6.36006 1.52485 7.08397 2.06233 7.83374 2.65099C8.22155 2.93252 8.58349 3.23965 8.9713 3.52118C9.35911 3.82831 9.74692 4.16103 10.0572 4.54494C10.3933 4.92884 10.6777 5.36393 10.8328 5.8758C10.9879 6.36209 11.0138 6.89956 10.8328 7.38585C10.9879 6.746 10.8586 6.10615 10.5484 5.54309C10.2381 4.98002 9.77277 4.51934 9.28155 4.10984C8.76447 3.70034 8.22155 3.31642 7.70447 2.93251C7.16153 2.54861 6.64445 2.13911 6.10152 1.7552C5.55859 1.3457 5.04151 0.936205 4.44687 0.654673C3.87808 0.347547 3.20588 0.219581 2.55953 0.321956C1.91319 0.424331 1.29269 0.731457 0.827319 1.21774C0.361948 1.65283 0.0517141 2.29268 6.31199e-06 2.95812Z" transform="translate(179.927 208.747)" fill="#D57768"/>
<path d="M1.65465 1.97073C1.65465 1.97073 1.57708 1.94513 1.42196 1.91953C1.29269 1.86835 1.08587 1.79157 0.879036 1.63801C0.672205 1.48445 0.439523 1.25409 0.284399 0.972559C0.103422 0.691027 -3.15599e-06 0.358311 -3.15599e-06 -3.12425e-06C0.206828 0.383904 0.43951 0.742221 0.723903 1.07494C0.982442 1.38207 1.2927 1.68919 1.65465 1.97073Z" transform="translate(179.126 200.728)" fill="#D57768"/>
<path d="M0.310247 3.83908C0.310247 3.83908 0.232691 3.71111 0.15513 3.48076C0.077568 3.25042 -3.15599e-06 2.91769 -3.15599e-06 2.4826C-3.15599e-06 2.0475 0.129276 1.53562 0.413669 1.07493C0.698062 0.614246 1.16343 0.204757 1.70636 6.24849e-06C0.542938 0.89579 -0.0258539 2.32904 0.310247 3.83908Z" transform="translate(168.525 208.048)" fill="#D57768"/>
<path d="M-3.15599e-06 0C-3.15599e-06 0 0.0775554 0.0511814 0.206825 0.153557C0.336094 0.255932 0.491231 0.409501 0.672208 0.639846C1.00831 1.07494 1.37026 1.74038 1.39611 2.50819C0.930744 1.6636 0.517075 0.87019 -3.15599e-06 0Z" transform="translate(175.635 217.669)" fill="#D57768"/>
<path d="M0.853176 1.6892C1.32437 1.6892 1.70635 1.31105 1.70635 0.84459C1.70635 0.378132 1.32437 -3.12425e-06 0.853176 -3.12425e-06C0.381978 -3.12425e-06 0 0.378132 0 0.84459C0 1.31105 0.381978 1.6892 0.853176 1.6892Z" transform="translate(159.399 184.348)" fill="#619E97"/>
</svg>
