<svg width="294" height="272" viewBox="0 0 237 286" fill="none" xmlns="http://www.w3.org/2000/svg">
<path d="M7.76157 0C6.56749 6.34271 5.3734 7.61125 -5.69386e-07 9.51407C5.3734 11.4169 6.56749 12.6854 7.76157 19.0281C8.95566 12.6854 10.1498 11.4169 15.5231 9.51407C10.7468 7.61125 9.55271 6.34271 7.76157 0Z" transform="translate(69.9563 8.64943)" fill="white" fill-opacity="0.6"/>
<path d="M7.76159 0C6.5675 6.34271 5.3734 7.61125 0 9.51407C5.3734 11.4169 6.5675 12.6854 7.76159 19.0281C8.95568 12.6854 10.1497 11.4169 15.5231 9.51407C10.1497 7.61125 8.95568 6.34271 7.76159 0Z" transform="translate(204.969 62.9029)" fill="white"/>
<path opacity="0.3" d="M5.1744 0C4.37834 4.03627 3.58226 4.84353 0 6.05441C3.58226 7.26529 4.37834 8.07254 5.1744 12.1088C5.97045 8.07254 6.76649 7.26529 10.3488 6.05441C6.76649 4.84353 5.97045 4.03627 5.1744 0Z" transform="translate(169.994)" fill="white"/>
<path d="M27.0235 10.3687C24.8854 11.765 17.2238 11.557 15.3529 14.1418L17.9068 16.5482L12.2942 21.0938C12.2942 21.0938 7.92888 17.7069 7.12708 14.7657C7.06769 14.5577 6.97861 14.3497 6.88952 14.1121C5.4938 10.8737 0 4.54558 0 4.54558L1.98965 1.87171L3.38537 -7.25332e-06C3.38537 -7.25332e-06 3.41506 0.059412 3.50415 0.148541C4.15746 1.09925 7.69131 5.97164 10.3937 6.7738C11.0767 6.98176 12.2645 7.13031 13.6899 7.21944C18.4413 7.51654 25.8951 7.1006 27.172 5.76366C28.835 4.0108 30.2901 0.356512 30.884 1.2478C31.5077 2.1688 29.1617 8.9723 27.0235 10.3687Z" transform="translate(204.439 211.587)" fill="#101114"/>
<path d="M13.6899 7.1006C13.1554 8.19985 11.8488 10.6955 10.6906 11.6759C9.53247 12.6563 7.69131 13.5773 6.88951 13.9635C5.49379 10.7252 -7.25004e-06 4.39703 -7.25004e-06 4.39703L1.98964 1.72316L3.50416 -7.25332e-06C4.15747 0.9507 7.6913 5.82309 10.3937 6.62525C11.0767 6.86293 12.2645 7.01147 13.6899 7.1006Z" transform="translate(204.469 211.735)" fill="#3B3F4A"/>
<path d="M3.08841 -3.62666e-06L20.0746 50.239H14.076L-3.62502e-06 0.386218L3.08841 -3.62666e-06Z" transform="translate(189.383 214.32)" fill="#183F47"/>
<path d="M18.5007 0L9.06256e-07 54.7548H6.50346L21.8861 0.415942L18.5007 0Z" transform="translate(25.0154 230.274)" fill="#286875"/>
<path d="M3.35567 0L21.8861 54.7548H15.3529L-1.81251e-06 0.415942L3.35567 0Z" transform="translate(100.771 230.274)" fill="#286875"/>
<path d="M17.0159 -3.62666e-06L0 50.239H5.99863L20.1043 0.386218L17.0159 -3.62666e-06Z" transform="translate(119.805 214.32)" fill="#183F47"/>
<path d="M5.6641e-08 8.22956C5.6641e-08 8.22956 22.7176 5.91221 22.7176 5.49627C22.7176 5.05063 20.6388 0.326804 20.6388 0.326804L9.85913 -3.62666e-06L3.47445 3.14922L5.6641e-08 6.12018V8.22956Z" transform="translate(3.18848 155.049)" fill="#183F47"/>
<path d="M190.65 71.5238L189.759 71.8803L80.447 89.8844C80.15 84.7446 77.8634 80.407 74.2999 76.8418L67.4103 77.4658L59.5706 78.1788L42.7922 83.6156L25.806 84.299L18.1147 74.3462L13.3633 58.0357L9.50278 17.69L3.62293 9.99522L-4.53128e-07 9.10394L2.16782 7.11339L119.884 0.13163C121.843 -0.224886 123.893 0.10192 125.942 1.61711C128.911 3.81562 129.772 11.0053 131.049 23.5725C131.97 32.8419 133.039 43.3591 135.504 51.5887C137.256 57.4118 139.513 61.3037 142.304 63.3537C143.789 64.4232 145.422 64.9877 147.204 65.0471C154.361 65.2551 161.191 62.9675 167.219 60.9769C169.684 60.1748 172.089 59.3726 174.435 58.7784C176.455 58.2733 178.385 57.9762 180.226 57.9465C185.304 57.9465 189.58 60.3233 192.253 68.1369C192.728 69.5036 192.016 71.0188 190.65 71.5238Z" transform="translate(10.9985 145.44)" fill="#286875"/>
<path d="M124.813 10.1904C124.13 8.19985 123.358 6.56582 122.467 5.22888C119.913 1.33693 116.558 0 112.786 0L106.995 0.831865L106.015 0.980413L74.8641 5.40715L54.0174 8.37811L40.2383 10.3389L32.6658 11.4085L16.6893 13.6664L0.207871 16.0135L3.62502e-06 19.4895L6.88951 18.8656C10.4234 22.4308 12.7397 26.7684 13.0366 31.9081L112.103 15.5975L122.319 13.9041L123.209 13.5476C123.477 13.4584 123.714 13.3099 123.922 13.1316C124.813 12.478 125.199 11.2896 124.813 10.1904Z" transform="translate(78.4385 203.387)" fill="#348899"/>
<path d="M90.8348 82.7844C87.0634 68.4644 80.0848 70.0984 65.89 74.8223C58.6738 77.2287 50.5371 79.9323 41.7173 79.6946C24.4935 79.2193 21.4942 49.4503 19.2967 27.7325C18.3761 18.6711 17.2476 7.38145 15.2877 5.92568C10.7442 2.56849 6.05218 7.14377 3.82497 9.93647C3.05286 10.8872 1.62745 11.006 0.706866 10.1742C-0.0949307 9.43142 -0.243412 8.21332 0.409904 7.35174C3.88436 2.65762 10.6848 -3.01692 17.307 1.88517C20.7221 4.41048 21.7318 12.7292 23.1869 27.1978C24.2559 37.8635 25.4735 49.985 28.3243 59.4624C31.4127 69.7419 35.8078 74.7925 41.8064 74.9708C50.0619 75.2085 57.9017 72.594 64.8506 70.2767C76.9073 66.2659 88.3106 62.4631 93.7747 78.8034C94.2498 80.2294 93.5074 81.804 92.1117 82.3388L90.8348 82.7844Z" transform="translate(0.699707 152.57)" fill="#3D9EB3"/>
<path d="M29.8447 13.2505C30.0228 14.6171 20.4904 18.1823 16.7783 16.4888C13.0366 14.7954 7.95858 15.4787 7.95858 15.4787L9.3246 18.8656L1.69268 19.7272C1.69268 19.7272 0.148488 12.0918 0.68302 9.68533C1.18785 7.30856 -7.25005e-06 1.69345 -7.25005e-06 1.69345L5.79075 0L7.48343 4.24847C8.46341 5.79337 10.3046 7.30856 12.3833 8.61579C17.1347 11.6165 23.1036 13.7555 23.1036 13.7555C23.1036 13.7555 29.6665 11.8838 29.8447 13.2505Z" transform="translate(206.548 257.309)" fill="#101114"/>
<path d="M12.3833 8.61579C11.1955 9.23969 9.26522 10.0121 7.12709 10.1013C5.01866 10.1904 2.43509 9.923 0.683016 9.68533C1.18785 7.30856 7.25004e-06 1.69345 7.25004e-06 1.69345L5.79076 0L7.48343 4.24847C8.4634 5.79337 10.3046 7.27885 12.3833 8.61579Z" transform="translate(206.489 257.309)" fill="#3B3F4A"/>
<path d="M41.8572 57.1316L40.8179 58.1417L35.9774 62.8061C35.9774 62.8061 19.2287 36.5131 10.8247 29.264C8.35994 27.1249 1.08438 20.6482 1.08438 20.6482C1.08438 20.6482 -0.548907 12.2701 0.193497 10.2201C0.728029 8.73462 2.27222 6.38757 3.72733 4.30789C5.39032 1.99054 6.99391 0 6.99391 0C6.99391 0 34.1362 50.0904 41.8572 57.1316Z" transform="translate(170.303 158.079)" fill="#343642"/>
<path d="M38.1299 57.1316L37.0905 58.1417C27.1126 46.1093 3.68232 10.0121 -7.25004e-06 4.30789C1.66298 1.99054 3.26657 0 3.26657 0C3.26657 0 30.4089 50.0904 38.1299 57.1316Z" transform="translate(174.031 158.079)" fill="#444757"/>
<path d="M104.679 82.6797L102.214 83.1551L95.3841 84.492C95.3841 84.492 94.2557 76.3219 91.5236 68.1814C89.92 63.3388 84.0402 49.6723 79.4076 38.9175C76.2598 31.5792 73.6762 25.6076 73.409 24.6866C73.3793 24.5677 73.3496 24.4489 73.3496 24.3003C73.0526 21.7156 75.6956 15.6251 75.6956 15.6251C75.6956 15.6251 67.7667 16.9918 53.0374 22.1909C45.8806 24.7163 32.8737 28.4894 21.3516 31.698L7.57253 33.6589L3.62502e-06 34.7284C3.32598 27.509 12.8881 9.89116 28.8053 5.43472C32.6955 4.33547 37.1499 3.44418 41.8419 2.70144C48.4642 1.66161 55.5022 0.948569 61.9462 0.502925C68.4497 0.0572811 74.3592 -0.0615501 78.5761 0.0275787C82.5257 0.116708 85.0202 0.413802 85.1983 0.889156C85.6141 1.9587 87.4552 15.0904 89.8012 28.5488C90.2764 31.2227 90.7515 33.8965 91.2564 36.4813C92.4442 42.7203 93.7212 48.5137 94.9387 52.5542C99.2447 66.8148 104.679 82.6797 104.679 82.6797Z" transform="translate(111.104 180.096)" fill="#24262E"/>
<path d="M23.4303 3.62666e-06L20.3419 3.20864L-1.81251e-06 5.13976L3.29628 2.22822C9.91852 1.15868 16.9862 0.445648 23.4303 3.62666e-06Z" transform="translate(149.62 180.57)" fill="#444757"/>
<path d="M100.997 3.32748L97.7599 8.0513C97.7599 8.0513 96.7502 14.2012 96.0969 14.7657C83.0899 26.2039 58.056 46.4064 43.594 55.6758L20.0449 59.033C16.4814 57.6664 13.6306 55.6758 11.7894 53.507C7.92888 48.9614 9.06256e-07 31.0763 9.06256e-07 31.0763C9.06256e-07 31.0763 10.6312 20.2025 17.2238 17.4693C23.7866 14.736 43.5049 14.2903 43.5049 14.2903L46.8903 19.9351C69.0733 7.93247 102.155 -1.81333e-06 102.155 -1.81333e-06C102.155 -1.81333e-06 103.996 1.96083 104.471 4.30789C104.679 5.08034 100.997 3.32748 100.997 3.32748Z" transform="translate(75.0532 158.049)" fill="#343642"/>
<path d="M86.0298 4.30789C79.5561 6.65495 50.1569 17.4098 36.6154 24.243C21.3813 31.9675 1.81251e-06 42.871 1.81251e-06 42.871C1.81251e-06 42.871 0.712707 38.058 6.47377 33.6907C6.47377 33.6907 16.7783 27.2437 28.4489 19.9352C50.632 7.93247 83.7135 0 83.7135 0C83.7135 0 85.5547 1.96083 86.0298 4.30789Z" transform="translate(93.5542 158.079)" fill="#444757"/>
<path d="M1.09876 3.34339L-3.62502e-06 1.35285C0.445439 1.11517 4.48413 -1.02392 6.91921 0.610108C7.33496 0.907205 7.83979 1.44198 8.25554 3.07601C7.45374 3.13543 6.65195 3.25426 5.99863 3.34339C5.87984 2.89775 5.76106 2.57094 5.61258 2.4521C4.63261 1.79849 2.13813 2.77891 1.09876 3.34339Z" transform="translate(125.982 79.9276)" fill="#A12A3E"/>
<path d="M14.1719 24.7481L12.1823 24.9264L10.638 25.0749L7.72783 16.2214C5.94605 15.5975 5.02547 13.3099 5.02547 13.3099L4.28307 13.5179C3.45157 13.2208 1.87768 11.1114 1.46193 10.0716C1.25406 9.5962 0.98679 8.17014 0.719524 6.68466C0.600739 6.00134 0.481951 5.28831 0.363166 4.69412C0.214685 3.80283 0.06621 3.0898 0.00681762 2.88183C-0.111967 2.49561 1.34315 1.84199 2.70917 1.33693C3.03583 1.21809 3.36248 1.09925 3.65944 0.980416C3.68914 0.980416 3.68914 0.980419 3.71884 0.950709C3.74854 0.950709 3.77823 0.920998 3.80793 0.920998C5.11456 0.534773 7.04481 0.0297101 8.61871 4.53333e-07C9.95504 4.27818 11.8556 11.0817 12.212 12.5672C12.7168 14.736 14.1719 24.7481 14.1719 24.7481Z" transform="translate(128.44 80.6565)" fill="#ECA58C"/>
<path d="M12.1823 23.9459L10.638 24.0945L7.72782 15.241C5.94605 14.6171 5.02547 12.3295 5.02547 12.3295L4.28306 12.5375C3.45157 12.2404 1.87767 10.131 1.46193 9.09114C1.25405 8.61579 0.986788 7.18972 0.719522 5.70424C0.600738 5.02092 0.481958 4.30789 0.363174 3.7137C0.214693 2.82241 0.0662082 2.10938 0.00681581 1.90142C-0.111969 1.51519 1.34315 0.861577 2.70917 0.356514C3.03583 0.237675 3.36248 0.118838 3.65944 -9.06665e-07L5.11456 10.3687C5.11456 10.3687 8.61871 11.2005 8.79689 11.3788C8.97507 11.557 10.3114 14.9142 10.3114 14.9142L12.1823 23.9459Z" transform="translate(128.41 81.6369)" fill="#EC8F6F"/>
<path d="M0.0299411 0.119825C0.0299411 0.0898689 -3.65514e-06 0.059912 -3.65514e-06 -9.14199e-07C0.0299393 0.059912 0.0598877 0.149783 0.0898306 0.209696C0.0299448 0.179739 0.0299411 0.149782 0.0299411 0.119825Z" transform="translate(129.843 80.1513)" fill="#ECA58C"/>
<path d="M5.04836 0.267388C4.63261 0.178259 4.12777 0.118838 3.68233 -9.06665e-07C3.38537 0.207966 2.52418 0.326807 1.5739 0.326807C1.15815 0.326807 0.71271 0.297096 0.267267 0.237677L3.62502e-06 2.4659C0.41575 2.52532 1.21754 2.61445 2.10843 2.55503H2.22722C3.44476 2.49561 4.81078 2.19851 5.52349 1.33693C5.70166 1.12896 5.82046 0.831868 5.93924 0.445643C5.61258 0.415934 5.31562 0.326807 5.04836 0.267388Z" transform="translate(128.625 93.5205)" fill="#A12A3E"/>
<path d="M19.6433 19.9399L13.1992 21.871L7.11149 23.713L0.103202 5.85753C-0.164063 5.1445 0.103195 4.37205 0.726815 3.95611C2.50859 2.85686 4.40914 2.02499 6.39879 1.40109C8.80418 0.658347 11.3581 0.212702 14.0307 0.00473478C14.8028 -0.0546844 15.5155 0.450378 15.664 1.22283L19.6433 19.9399Z" transform="translate(111.743 79.2256)" fill="#C23A50"/>
<path d="M13.1992 20.4699L7.1115 22.3119L0.103195 4.45644C-0.164071 3.74341 0.103197 2.97096 0.726817 2.55503C2.50859 1.45577 4.40915 0.623902 6.39879 4.53333e-07L13.1992 20.4699Z" transform="translate(111.774 80.6565)" fill="#B5364B"/>
<path d="M6.5631 2.37668C10.1878 2.37668 13.1262 1.84464 13.1262 1.18834C13.1262 0.53204 10.1878 0 6.5631 0C2.9384 0 -3.62516e-06 0.53204 -3.62516e-06 1.18834C-3.62516e-06 1.84464 2.9384 2.37668 6.5631 2.37668Z" transform="matrix(0.957464 -0.28852 0.288281 0.957536 118.496 101.817)" fill="#A12A3E"/>
<path d="M42.4665 47.5651C42.4665 47.5651 41.1302 51.1005 39.4672 51.9918C39.2297 52.1107 38.9921 52.1998 38.7248 52.1998C36.7352 52.1998 11.7013 42.5442 0.713706 34.1958C0.713706 34.1958 -2.01834 20.1728 3.20818 13.2505C3.92089 12.3295 4.75239 11.5273 5.76206 10.9034C5.76206 10.9034 22.2137 32.1161 29.9644 36.7211C30.0238 36.7508 30.0832 36.7805 30.1426 36.8102C30.1426 36.8102 27.1136 12.3295 25.124 1.12897L28.6875 0.356515L30.3208 9.06665e-07C30.3208 9.06665e-07 34.7455 24.3025 37.8042 32.8588C40.9223 41.4152 42.4665 47.5651 42.4665 47.5651Z" transform="translate(111.816 99.4922)" fill="#DBD5B2"/>
<path d="M28.4786 30.7494C14.9372 23.0844 4.00898 8.3484 0 2.34706C0.712708 1.42606 1.5442 0.6239 2.55387 -1.81333e-06C2.55387 -1.81333e-06 19.0056 21.2127 26.7563 25.8176C27.6768 28.3133 28.4489 30.6603 28.4786 30.7494Z" transform="translate(115.053 110.366)" fill="#F2EBC7"/>
<path d="M13.7493 47.5651C13.7493 47.5651 12.413 51.1005 10.75 51.9918C9.74035 47.8919 8.22584 41.8608 7.30526 38.979C5.99863 34.9682 1.21754 7.36798 -3.62502e-06 0.356515L1.63329 9.06665e-07C1.63329 9.06665e-07 6.05802 24.3025 9.11673 32.8588C12.2051 41.4152 13.7493 47.5651 13.7493 47.5651Z" transform="translate(140.533 99.4922)" fill="#F2EBC7"/>
<path d="M74.8967 75.6211C74.1246 76.0667 66.7599 75.7399 57.0789 78.1464C47.398 80.5529 39.7067 85.6629 35.4304 89.4955C33.8862 90.8918 32.6687 91.9911 31.7481 92.8526C30.6493 93.8628 28.8973 93.5063 28.3033 92.1396C26.967 89.0795 24.3834 83.5238 19.8696 75.324C13.2474 63.2619 6.20938 49.3281 3.12097 37.2065C2.76462 35.8696 2.49736 34.5624 2.25979 33.2849C2.1113 32.4233 1.96282 31.5914 1.81434 30.7596C-0.234694 18.6677 -0.68014 7.14042 1.16102 4.08033C1.16102 4.08033 19.7211 -0.851465 32.5796 0.128952C45.438 1.10937 61.0582 2.56514 72.0458 11.1512C72.0458 11.1512 74.8373 25.1147 72.4319 41.1876C72.3131 41.9601 72.1943 42.7622 72.0458 43.5347C68.9574 60.5583 69.9374 64.5097 70.7986 66.9162C71.6895 69.3226 73.9464 72.9769 73.9464 72.9769C73.9464 72.9769 75.6688 75.1754 74.8967 75.6211Z" transform="translate(45.2646 97.3133)" fill="#E7E0BC"/>
<path d="M73.0526 44.8912C72.2805 45.3369 64.9159 45.0101 55.2349 47.4165C45.554 49.823 37.8626 54.9331 33.5864 58.7656C31.9828 60.2214 30.7356 61.3503 29.815 62.2119C28.7756 63.1626 27.1126 62.8358 26.5484 61.5286C25.2418 58.4982 22.6285 52.9128 18.0553 44.5644C11.433 32.5023 4.39504 18.5685 1.30663 6.44699C0.95028 5.11006 0.683011 3.80283 0.445442 2.52532C0.296961 1.66374 0.14848 0.831867 -9.06256e-07 -1.81333e-06C11.6112 2.43619 33.3191 11.4976 45.0194 12.4483C56.3931 13.3693 65.688 7.30856 70.5878 10.4281C70.469 11.2005 70.3503 12.0027 70.2018 12.7751C67.1134 29.7987 68.0934 33.7501 68.9545 36.1566C69.8454 38.5631 72.1023 42.2174 72.1023 42.2174C72.1023 42.2174 73.8247 44.4456 73.0526 44.8912Z" transform="translate(47.1089 128.043)" fill="#E0D9B6"/>
<path d="M26.8053 1.29006C26.8053 1.29006 31.2004 9.78701 33.2494 17.1253C35.5063 25.2063 36.6942 32.7823 36.6942 32.7823L38.179 35.159C38.179 35.159 37.0505 37.7735 32.8931 38.7539C32.8931 38.7539 33.7839 45.1117 35.833 51.8855C35.833 51.8855 35.9815 55.6587 33.9621 56.6094C31.9131 57.5601 15.4614 48.2907 15.4614 48.2907C15.4614 48.2907 13.5905 37.1496 12.0166 34.3272C12.0166 34.3272 9.9379 31.1482 8.06704 30.1678C4.56289 28.3555 0.435124 18.6999 0.108466 16.8282C-0.218192 14.9565 0.0787723 9.04427 2.60295 6.69721C5.06773 4.35015 22.2321 -2.9287 26.8053 1.29006Z" transform="translate(61.4026 45.6163)" fill="#ECA58C"/>
<path d="M16.1547 28.1647C16.0062 27.9567 14.9372 24.8372 11.8191 22.401C9.91852 20.7967 8.64159 19.4895 7.42405 18.8062C6.65195 18.3902 6.2065 18.0932 5.79076 17.291C5.34531 16.4591 5.40471 15.3599 4.6623 14.7063C4.09807 14.2012 3.47445 14.2309 3.1181 13.4585C2.67266 12.4483 3.20719 11.6759 2.16782 10.9034C1.36602 10.3092 0.623618 10.3389 0.386049 9.18027C0.356352 9.09114 0.356353 9.00201 0.326657 8.91288C0.207872 8.28898 0.0890904 7.63537 1.81251e-06 6.95205C1.81251e-06 6.89263 -9.0714e-07 6.86292 0.0296953 6.8035C0.267265 5.11005 1.69268 2.40648 2.73205 1.60432C4.15747 0.505063 14.1057 2.26666e-07 14.1057 2.26666e-07C14.6105 0.80216 14.8778 2.07967 14.9669 3.32748C15.0263 4.0108 15.056 4.69412 15.056 5.31802C15.056 5.46657 15.056 5.61512 15.0263 5.76366C14.8481 7.51653 13.6899 10.1607 13.6899 11.7353C13.6899 13.399 15.5608 17.291 15.6796 17.6178L12.3536 14.6765C12.3536 14.6765 10.75 13.7258 9.65126 14.6765C8.5525 15.6273 9.17612 17.3207 10.4531 18.7171C11.7003 20.1431 14.4323 21.0938 14.4323 21.0938L16.1547 28.1647Z" transform="translate(58.3633 54.8979)" fill="#343642"/>
<path d="M33.4721 7.64147C33.1455 6.89873 32.8782 5.53209 31.8389 6.27483C30.7995 6.98786 30.1462 8.14653 28.7505 7.70089C26.8202 7.1067 26.3154 3.03648 23.7912 4.43283C23.227 4.75964 22.7815 5.2647 22.3658 5.79947C21.8609 6.42337 21.267 7.25524 20.4355 7.34437C19.0992 7.49292 17.0502 7.1364 15.9811 7.76031C14.9417 8.38421 14.5557 9.54288 13.5757 10.761C12.7145 11.8305 8.40857 13.524 8.40857 13.524C6.32983 13.8508 3.41961 15.0689 1.34087 15.3957C1.04391 15.4551 0.717257 15.4848 0.420295 15.4551C-0.559679 15.3065 0.717256 13.7616 0.331206 12.9001C0.123333 12.4247 0.00454597 11.9494 0.00454597 11.474C-0.0251502 10.9689 0.0936372 10.4639 0.271814 9.98853C0.628168 8.9784 1.34087 8.08711 2.08328 7.49292C5.37955 4.87847 7.90373 4.16544 11.6158 3.0959C15.4466 1.96693 17.3174 1.28361 21.1482 0.273484C22.0985 0.0358075 23.4348 -0.0830309 24.8009 0.0655171C26.5529 0.243775 28.305 0.837967 29.1365 2.05606C29.2553 2.23432 29.3741 2.44229 29.4632 2.67996C29.7898 3.60096 29.5819 6.03715 30.7995 5.94802C30.948 5.94802 31.0667 5.8886 31.1855 5.79947C31.7795 5.47267 33.1158 4.52196 33.5909 5.53209C33.8582 6.12628 33.68 7.04728 33.4721 7.64147Z" transform="translate(61.4175 43.2457)" fill="#343642"/>
<path d="M8.58219 4.53333e-07L8.5525 2.31735C8.5525 2.31735 3.97929 3.89196 2.88053 4.81296C1.78177 5.76366 0 7.69479 0 7.69479L2.01934 3.80283C1.98964 3.83254 7.15678 0.534773 8.58219 4.53333e-07Z" transform="translate(74.9634 57.7797)" fill="#343642"/>
<path d="M0 0.980417L0.059396 3.47602C0.059396 3.47602 3.74172 1.27751 4.48413 1.18838C5.07805 1.09926 5.85015 1.69345 5.85015 1.69345L4.95927 -2.26666e-07L0 0.980417Z" transform="translate(86.8418 55.522)" fill="#343642"/>
<path d="M6.94891 0.594193L6.2065 9.06665e-07C6.2065 9.06665e-07 5.70166 1.78258 3.77141 2.73328C2.76174 3.23835 1.81251e-06 3.23835 1.81251e-06 3.23835C1.81251e-06 3.23835 2.346 3.92167 4.30595 3.11951C5.73137 2.55503 6.2362 0.594193 6.2362 0.594193H6.94891Z" transform="translate(76.6265 63.0979)" fill="#343642"/>
<path d="M1.81251e-06 2.40648L0.504831 1.5449C0.504831 1.5449 2.76174 2.25793 3.35567 1.96083C3.94959 1.66374 3.77141 4.53333e-07 3.77141 4.53333e-07C3.77141 4.53333e-07 4.24656 2.34706 3.1478 2.49561C2.04904 2.64415 0.593925 1.99054 0.593925 1.99054L1.81251e-06 2.40648Z" transform="translate(88.5046 59.1168)" fill="#343642"/>
<path d="M-1.81251e-06 4.53333e-07C-1.81251e-06 4.53333e-07 0.0593923 1.66374 0.772101 2.4659C1.03937 2.76299 8.46341 9.41794 8.46341 9.41794C7.45374 10.4281 5.90954 10.9331 4.00898 11.1411C4.00898 11.1411 7.92888 11.8541 9.53247 9.50707C9.53247 9.50707 1.15815 2.52532 0.742403 1.90141C0.326656 1.2478 -1.81251e-06 4.53333e-07 -1.81251e-06 4.53333e-07Z" transform="translate(86.9607 58.9684)" fill="#DB775A"/>
<path d="M11.1361 -4.53333e-07C11.1361 -4.53333e-07 9.35429 2.04996 6.9786 2.40648C4.6326 2.76299 0.772101 1.66374 0.772101 1.66374L1.30663 0.713031L-1.81251e-06 2.13909L0.62362 1.96083C0.62362 1.96083 4.692 3.65428 7.8101 2.64416C10.8985 1.69345 11.1361 -4.53333e-07 11.1361 -4.53333e-07Z" transform="translate(84.4365 73.5853)" fill="#DB775A"/>
<path d="M2.15448 -4.53333e-07C2.006 0.178257 -0.458787 0.68332 0.0757442 1.06955C0.72906 1.5449 2.21387 0.148548 2.15448 -4.53333e-07Z" transform="translate(92.1711 76.8533)" fill="#DB775A"/>
<path d="M-3.62502e-06 0L1.15815 0.950707C1.15815 0.950707 0.148477 0.980417 -3.62502e-06 0Z" transform="translate(96.5823 80.9832)" fill="#DB775A"/>
<path d="M0 3.20864L4.95926 5.94193C4.95926 5.94193 7.42405 11.7056 14.4027 12.7751C14.4027 12.7751 16.9565 17.4395 16.9268 18.5091C16.719 23.6489 17.6989 24.4807 17.6989 24.4807C17.6989 24.4807 18.8868 19.9649 18.5601 18.0634C18.2632 16.162 17.7286 13.5773 17.7286 13.5773C17.7286 13.5773 19.8667 16.4591 19.6886 18.9844C19.3025 24.5699 20.3122 25.2235 20.3122 25.2235C20.3122 25.2235 21.2922 20.6185 21.2328 18.8062C21.1734 16.9939 20.1043 12.6266 20.1043 12.6266C20.1043 12.6266 22.6582 16.6671 22.4503 18.3605C21.411 26.3227 23.163 25.0749 23.163 25.0749C23.163 25.0749 24.2321 19.0439 24.2618 17.7069C24.2915 16.37 22.7176 13.1317 21.7673 10.9926C21.7673 10.9926 24.8557 15.3599 25.5981 16.8156C26.3108 18.2714 26.1326 21.7177 28.0629 23.3518C28.0629 23.3518 28.0035 18.004 27.2611 15.6867C26.5187 13.3693 23.2224 8.58607 21.7376 7.60566C20.2528 6.62524 5.16714 0.445648 1.06906 3.62666e-06L0 3.20864Z" transform="translate(58.4827 151.008)" fill="#ECA58C"/>
<path d="M62.3917 50.6252L61.4117 52.4969L60.1942 54.7845C41.5153 48.8426 12.1457 54.7548 9.44339 54.9925C2.64296 55.6461 0 52.1404 0 52.1404C0.148481 51.873 0.296962 51.6353 0.445443 51.3679C15.2935 25.2532 44.574 0 44.574 0C44.574 0 48.6721 0.831867 52.1168 5.02092C53.4828 6.68466 54.7301 8.85346 55.5913 11.7056C58.1154 19.9649 55.1458 29.2937 55.1458 29.2937C39.3177 30.6009 24.3806 40.9398 24.3806 40.9398H24.4103C36.9421 42.0688 62.3917 50.6252 62.3917 50.6252Z" transform="translate(2.05981 101.483)" fill="#F2EBC7"/>
<path d="M9.06256e-07 -9.06665e-07C9.06256e-07 -9.06665e-07 10.6312 15.5084 11.9379 20.054C11.9379 20.054 17.0456 12.2107 22.3612 10.6955L21.5297 3.86225L9.06256e-07 -9.06665e-07Z" transform="translate(73.5681 98.7193)" fill="#D9D2B0"/>
<path d="M3.62502e-06 5.8825C3.62502e-06 5.8825 4.51382 8.08101 7.09739 12.0324L4.78108 1.51519L1.09876 9.06665e-07L3.62502e-06 5.8825Z" transform="translate(96.553 103.206)" fill="#D9D2B0"/>
<path d="M22.8661 61.3206L19.5995 68.5104L19.5698 68.5698L14.2839 62.1822C13.6305 51.4273 5.10774 7.1006 3.94959 6.59553L0 3.29777L1.5442 0H6.83012L8.81977 2.19851L5.96893 6.38757C13.1257 26.1147 19.748 44.6833 22.8661 61.3206Z" transform="translate(90.9998 102.226)" fill="#962D3E"/>
<path d="M19.5995 68.5104L19.5698 68.5698L14.2839 62.1822C13.6305 51.4273 5.10774 7.1006 3.94959 6.59553L0 3.29777L1.54421 0H3.1181C5.13744 6.35786 9.38399 19.846 10.9282 25.9959C12.5318 32.1755 17.3723 56.9236 19.5995 68.5104Z" transform="translate(90.9998 102.226)" fill="#7D2534"/>
<path d="M2.88053 9.06665e-07C2.88053 9.06665e-07 0.979972 4.21877 -1.81251e-06 6.53612C-1.81251e-06 6.53612 10.364 19.4004 12.2051 25.4908C12.2051 25.4908 17.8177 13.1316 22.7473 11.1411V9.50708C22.7176 9.47737 8.46342 5.76366 2.88053 9.06665e-07Z" transform="translate(73.301 91.9164)" fill="#EBE4C1"/>
<path d="M1.42542 9.06665e-07C1.42542 9.06665e-07 2.96962 5.61512 -1.81251e-06 7.18973L0.445441 9.59621C0.445441 9.59621 4.692 10.5172 9.44339 21.0344C9.44339 21.0344 7.66162 11.1708 6.11741 7.27886C4.57321 3.35719 1.42542 9.06665e-07 1.42542 9.06665e-07Z" transform="translate(94.8306 93.8473)" fill="#F2EBC7"/>
<path d="M29.1914 82.6819L26.7266 83.1572C24.5588 77.0667 19.4807 62.7467 16.0359 52.3781C11.5815 38.8602 7.42405 2.61444 7.42405 2.61444L7.25005e-06 2.31735L3.0884 1.81333e-06C7.03799 0.0891307 9.53247 0.386225 9.71064 0.861579C10.1264 1.93112 11.9676 15.0628 14.3136 28.5212C14.7887 31.1951 15.2638 33.869 15.7687 36.4537C16.9565 42.6927 18.2335 48.4861 19.451 52.5266C23.757 66.8169 29.1914 82.6819 29.1914 82.6819Z" transform="translate(186.592 180.094)" fill="#444757"/>
<path d="M15.0263 1.93112C15.0263 2.07967 15.0263 2.22822 14.9966 2.37677C14.5808 2.13909 14.0166 1.96083 13.4821 2.19851C12.2942 2.73328 10.8688 4.12964 9.77005 4.3376C8.67129 4.54557 6.80043 2.40648 5.90954 2.7927C5.01866 3.17893 4.06838 4.6347 3.47445 5.31802C3.0884 5.76366 1.42542 5.64483 0.326659 5.52599C0.207874 4.90209 0.0890876 4.24847 -9.06256e-07 3.56515C-9.06256e-07 3.50573 9.04928e-07 3.47602 0.0296971 3.41661C1.06906 3.7137 2.3163 3.95138 2.82114 3.7137C3.71202 3.26806 5.25622 1.57461 6.91921 1.63403C8.5822 1.69345 10.2452 2.76299 11.1361 2.1688C11.8785 1.69345 13.8087 0.386225 14.9669 0C15.0263 0.653611 15.0263 1.33693 15.0263 1.93112Z" transform="translate(58.3936 58.2553)" fill="#444757"/>
<path d="M29.1365 1.93112C27.622 1.21809 25.8996 1.01013 24.2663 1.45577C22.4846 1.93112 21.8609 3.29777 20.5543 4.39702C19.604 5.16947 18.6241 5.22889 17.4659 5.34773C15.7138 5.49628 14.526 6.62524 13.16 7.60566C12.1206 8.3484 10.7546 9.2694 9.41824 9.15056C8.67584 9.09114 8.46796 8.58608 7.69586 8.91288C7.10194 9.18027 6.53771 9.56649 5.97348 9.92301C5.17168 10.4281 3.83536 11.3788 2.79599 11.1411C2.14267 10.9926 2.08328 10.5172 1.99419 10.0121C1.34088 10.4578 0.657862 10.9331 0.00454597 11.3788C-0.0251502 10.8737 0.0936372 10.3687 0.271814 9.8933C1.04392 9.35853 1.84571 8.82375 2.64751 8.28898C2.88508 8.11072 3.479 7.90276 3.62748 8.31869C3.80566 8.88317 3.59779 9.50708 4.34019 9.53679C4.96381 9.56649 5.97348 8.6455 6.47832 8.3484C7.22072 7.90276 8.34918 7.01147 9.26976 7.13031C10.22 7.24915 10.4873 7.78392 11.6751 7.24915C12.3582 6.95205 12.9818 6.41728 13.5757 5.97163C14.5557 5.22889 15.5653 4.51586 16.7532 4.09993C18.0004 3.65428 19.4259 4.04051 20.4058 3.03038C21.2967 2.10938 22.0688 1.18838 23.227 0.594192C23.7318 0.326806 24.2663 0.118838 24.8306 1.77083e-09C26.5529 0.148548 28.305 0.713031 29.1365 1.93112Z" transform="translate(61.418 43.3706)" fill="#444757"/>
<path d="M1.93112 0.130113C0.802664 0.991692 0.0899551 2.47717 0.000866579 3.87352C-0.0288296 4.28946 0.713575 3.84381 0.743271 3.54672C0.802664 2.41775 1.3075 1.16995 2.22808 0.456919C2.64383 0.159823 2.34687 -0.196692 1.93112 0.130113Z" transform="translate(63.7378 50.8758)" fill="#343642"/>
<path d="M0.683013 0.389673C0.326659 1.37009 0 2.3208 0 3.36063C0 3.77657 0.742404 3.33092 0.742404 3.03383C0.772101 2.0237 1.03937 1.16212 1.39572 0.211415C1.5442 -0.234229 0.772102 0.122286 0.683013 0.389673Z" transform="translate(64.8672 51.686)" fill="#343642"/>
<path d="M1.72232 0.0300615C0.267203 0.594544 -0.118846 3.29812 0.0296345 4.60534C0.0593307 4.81331 0.534467 4.51621 0.504771 4.30825C0.415682 3.71405 0.534467 3.06044 0.653252 2.46625C0.772036 1.87206 0.979911 0.653963 1.63323 0.416286C1.8708 0.327158 2.07867 -0.118487 1.72232 0.0300615Z" transform="translate(73.4795 47.7674)" fill="#343642"/>
<path d="M1.22228 0.0242913C-0.143748 0.85616 0.00473563 3.08438 0.00473563 4.48073C0.00473563 4.62928 0.242306 4.48073 0.242306 4.36189C0.242306 3.17351 0.0641271 0.91558 1.25197 0.202549C1.37076 0.11342 1.37076 -0.0648376 1.22228 0.0242913Z" transform="translate(74.4543 47.8029)" fill="#343642"/>
<path d="M2.44367 0.0106195C1.07765 0.485973 0.483721 2.03087 0.00858244 3.24897C-0.0508099 3.39752 0.216452 3.27868 0.246148 3.18955C0.661895 2.06058 1.19643 0.634521 2.41398 0.188877C2.53276 0.159168 2.62185 -0.0487997 2.44367 0.0106195Z" transform="translate(76.7373 47.0736)" fill="#343642"/>
<path d="M2.43509 0.00945611C1.5442 0.247133 1.30663 1.52465 1.21754 2.2971C1.15815 2.80216 1.06906 3.63403 1.18785 4.31735C0.71271 3.51519 0.920582 1.67319 1.30663 1.10871C1.72238 0.4551 0.742405 0.722487 0.504836 1.10871C0.0593933 1.76232 1.81251e-06 2.68332 1.81251e-06 3.45577C1.81251e-06 4.13909 0.0296971 5.06009 0.653317 5.47602C0.86119 5.59486 1.27694 5.32748 1.45511 5.06009C1.5442 5.17893 1.63329 5.29777 1.78177 5.3869C1.87086 5.44631 2.07873 5.23835 1.95995 5.17893C1.30663 4.76299 1.36603 3.51519 1.39572 2.83187C1.42542 2.17826 1.5442 0.455101 2.346 0.247134C2.43509 0.187715 2.61327 -0.0499631 2.43509 0.00945611Z" transform="translate(59.9971 59.6126)" fill="#343642"/>
<path d="M1.00967 4.81431C0.267266 4.39837 0.207871 3.2397 0.237568 2.49696C0.267264 1.6948 0.38605 0.744092 0.861189 0.090481C0.979974 -0.0580671 0.712709 0.00135214 0.653317 0.090481C0.118786 0.833221 1.81251e-06 1.90277 1.81251e-06 2.76434C1.81251e-06 3.53679 0.0593906 4.60634 0.831491 5.02228C0.890884 5.0817 1.09876 4.87373 1.00967 4.81431Z" transform="translate(62.0759 59.7097)" fill="#343642"/>
<path d="M2.23938 4.9178C1.61576 4.6207 1.64546 3.25406 1.61576 2.68958C1.58606 1.88742 1.52667 0.877294 1.82363 0.0751343C1.88303 -0.0734138 1.61576 0.0454249 1.58606 0.134554C1.25941 0.966423 1.3188 1.97655 1.37819 2.83813C1.40789 3.16493 1.40789 3.72942 1.52667 4.23448C1.02184 3.87797 0.992139 2.89755 0.992139 2.36277C0.962443 1.70916 0.932748 0.877294 1.22971 0.283102C1.49698 -0.31109 0.457607 0.164264 0.309126 0.491069C-0.0175318 1.23381 -0.0175318 2.18452 0.0121644 2.95697C0.0418605 3.67 0.130948 4.70983 0.81396 5.09606C1.05153 5.2149 1.49697 4.88809 1.64545 4.591C1.73454 4.79896 1.88303 4.97722 2.0612 5.06635C2.15029 5.18519 2.35816 4.97722 2.23938 4.9178Z" transform="translate(65.5083 58.4179)" fill="#343642"/>
<path d="M0.797681 4.1704C0.857073 4.02185 0.560112 3.45737 0.500719 3.27911C0.411631 2.9523 0.352237 2.59579 0.32254 2.23927C0.233452 1.52624 0.203759 0.753793 0.530417 0.0704718C0.58981 -0.0780762 0.352239 0.0407624 0.292847 0.129891C-0.241684 1.34799 -0.00411398 3.2494 0.678898 4.37836C0.708594 4.40807 0.767983 4.37836 0.767983 4.37836C0.94616 4.28923 0.975859 4.25952 1.03525 4.08127C1.09464 3.99214 0.857073 4.08127 0.797681 4.1704Z" transform="translate(67.4849 58.9868)" fill="#343642"/>
<path d="M0.588598 0.0492243C0.618294 -0.0696142 0.351028 0.0492247 0.351028 0.168063C0.0243699 1.505 -0.213199 2.90135 0.291636 4.20857C0.321333 4.32741 0.558898 4.14915 0.529202 4.06002C0.0243672 2.72309 0.26194 1.35645 0.588598 0.0492243Z" transform="translate(69.3569 58.592)" fill="#343642"/>
<path d="M1.5583 3.24547C1.26134 2.53244 0.637723 1.13609 1.17225 0.452765C1.32074 0.274508 1.29104 0.0368309 1.05347 0.00712134C0.786206 -0.0522979 0.489239 0.274508 0.370454 0.452765C-0.37195 1.43318 0.162584 2.85924 0.578331 3.89908C0.756508 4.2853 1.70678 3.60198 1.5583 3.24547Z" transform="translate(80.7705 45.4131)" fill="#343642"/>
<path d="M9.06256e-07 9.06665e-07C9.06256e-07 9.06665e-07 9.94822 6.71437 12.71 7.39769C15.4717 8.08101 20.2528 7.63537 20.2528 7.63537C20.2528 7.63537 17.2238 9.53679 15.8875 9.8933C14.6105 10.2498 6.44407 4.99121 9.06256e-07 9.06665e-07Z" transform="translate(74.0142 76.7644)" fill="#EC8F6F"/>
<path d="M12.798 23.0676C12.798 23.0676 12.7386 23.0676 12.6792 23.0378C12.6495 23.0378 12.5901 23.0081 12.5307 23.0081C12.4713 22.9784 12.3823 22.9487 12.2932 22.919C11.9368 22.8002 11.4617 22.5031 11.0459 21.998C10.6005 21.4929 10.1847 20.7799 9.88777 19.8886C9.73929 19.443 9.6502 18.9082 9.7096 18.3734C9.76899 17.8387 9.94717 17.3039 10.1847 16.7691C10.2441 16.6503 10.3332 16.5017 10.3926 16.3829L10.452 16.2938L10.5114 16.2046L10.6302 16.0264C10.8084 15.7887 10.9865 15.5213 11.1647 15.3133C11.5211 14.838 11.9071 14.3626 12.2041 13.8576C12.3526 13.5902 12.4713 13.3525 12.5307 13.0554C12.5901 12.788 12.6198 12.4909 12.5901 12.2235C12.5604 12.075 12.5604 11.9265 12.5307 11.8076C12.501 11.7185 12.501 11.6294 12.4713 11.5699L12.412 11.3917C12.2932 11.1243 12.1447 10.8569 11.9665 10.6489C11.5805 10.2033 11.0459 9.84678 10.452 9.69823C9.85808 9.51997 9.20476 9.54968 8.58114 9.69823C7.92783 9.84678 7.24481 10.0845 6.5321 10.2924C5.81939 10.5004 5.07699 10.7381 4.2158 10.7678C4.00793 10.7678 3.80005 10.7678 3.56248 10.7381L3.23583 10.6786L3.08735 10.6489L2.93887 10.5895L2.61221 10.4707C2.49342 10.441 2.40434 10.3816 2.31525 10.3221L2.16677 10.233L2.10737 10.2033L2.07767 10.1736H2.04798C2.07768 10.2033 1.98859 10.1439 1.98859 10.1439L1.75102 9.99533C1.00862 9.43084 0.533478 8.6881 0.266213 7.88595C-0.0010528 7.08379 -0.0604488 6.25192 0.0583359 5.42005C0.117728 5.00411 0.206817 4.61789 0.355298 4.23166C0.474083 3.84544 0.681952 3.48892 0.889826 3.16212C1.30557 2.50851 1.78072 1.91431 2.34495 1.43896C2.90917 0.933897 3.53279 0.517963 4.2752 0.250576C4.98791 -0.0168103 5.87879 -0.10594 6.65089 0.161446C7.42299 0.399123 8.0763 0.933897 8.46235 1.40925C8.58114 1.5578 8.69992 1.76577 8.78901 1.91431C8.8781 2.06286 8.96719 2.24112 9.02659 2.38967C9.08598 2.53822 9.14537 2.71647 9.17507 2.86502C9.20476 3.04328 9.26415 3.19183 9.26415 3.34037C9.35324 3.99399 9.29385 4.61789 9.11567 5.18237C8.9375 5.74685 8.61084 6.25192 8.22479 6.66785C7.83874 7.08379 7.36359 7.32146 6.97754 7.49972C6.5618 7.64827 6.20545 7.7374 5.76001 7.76711C5.55213 7.76711 5.31456 7.7374 5.07699 7.67798C4.9582 7.64827 4.83943 7.58885 4.72064 7.52943C4.60186 7.47001 4.51277 7.38088 4.42368 7.29175C4.2455 7.1135 4.12671 6.93524 4.03762 6.78669C3.97823 6.63814 3.91884 6.48959 3.91884 6.40046C3.88914 6.22221 3.85944 6.13308 3.85944 6.13308C3.82975 5.77656 4.06732 5.47947 4.42368 5.42005C4.75034 5.39034 5.07699 5.62802 5.10669 5.95482V6.01424C5.10669 6.01424 5.10669 6.04395 5.13638 6.13308C5.16608 6.1925 5.19578 6.31134 5.28487 6.40046C5.37395 6.48959 5.55213 6.54901 5.76001 6.54901C5.99758 6.54901 6.26483 6.48959 6.5321 6.40046C6.79937 6.28163 7.12603 6.13308 7.3636 5.86569C7.63086 5.59831 7.83874 5.2715 7.98722 4.85557C8.1357 4.43963 8.19509 3.99399 8.1357 3.51863C8.07631 3.04328 7.89813 2.53822 7.60116 2.12228C7.27451 1.70635 6.82907 1.34983 6.29453 1.17157C5.76 0.993316 5.13639 1.02303 4.57216 1.23099C3.97824 1.43896 3.4437 1.76577 2.93887 2.1817C2.43403 2.59764 1.98858 3.1027 1.63223 3.66718C0.889826 4.79615 0.62256 6.28163 1.03831 7.64827C1.24618 8.33159 1.63224 8.95549 2.19646 9.40113C2.76069 9.84678 3.4734 10.0845 4.1861 10.0845C5.64122 10.0547 7.00725 9.37143 8.43266 9.10404C9.14537 8.9852 9.88777 8.95549 10.5708 9.16346C11.2538 9.37143 11.8774 9.78736 12.2932 10.3518C12.7386 10.8866 12.9762 11.5699 13.0059 12.2533C13.0059 12.5801 12.9762 12.9069 12.8871 13.2337C12.798 13.5605 12.6495 13.8279 12.501 14.125C12.1744 14.6597 11.7586 15.1351 11.3726 15.5807C10.9865 16.0264 10.6599 16.5017 10.3926 16.9771C10.1253 17.4524 9.97686 17.9575 9.88777 18.4626C9.82838 18.9676 9.88777 19.443 10.0066 19.8589C10.2441 20.7205 10.6599 21.4038 11.0459 21.9089C11.4617 22.4139 11.9071 22.6813 12.2041 22.8002C12.2932 22.8299 12.3526 22.8596 12.412 22.8893C12.4713 22.8893 12.5307 22.919 12.5604 22.919C12.6495 22.9487 12.6792 22.9487 12.6792 22.9487C12.7089 22.9487 12.7386 23.0081 12.7386 23.0378C12.8871 23.0676 12.8277 23.0973 12.798 23.0676Z" transform="translate(102.078 56.9353)" fill="#3EA1B5"/>
<path d="M0.578945 14.6491C0.578945 14.6491 0.519548 14.56 0.371068 14.3817C0.252283 14.1738 0.044406 13.8767 0.0147098 13.431C-0.0446826 12.9854 0.0741076 12.4506 0.400766 11.9455C0.727424 11.4405 1.20256 10.9651 1.79648 10.5789C2.3904 10.1927 3.13281 9.89559 3.87521 9.6282C4.61762 9.36081 5.44912 9.09343 6.19152 8.7072C6.96362 8.32098 7.67632 7.7862 8.32964 7.1623C8.6563 6.83549 8.95326 6.50869 9.22053 6.12246C9.4581 5.73624 9.69567 5.35001 9.81445 4.90437C9.93323 4.48844 9.96293 4.01308 9.84415 3.59715C9.84415 3.47831 9.78476 3.38918 9.75506 3.27034L9.69567 3.12179C9.66597 3.06237 9.63628 3.03267 9.60658 2.97325L9.4581 2.67615L9.25022 2.40876C8.686 1.72544 7.8545 1.30951 7.02301 1.22038C6.19152 1.13125 5.36003 1.30951 4.73641 1.75515C4.08309 2.2008 3.69704 2.85441 3.57825 3.50802C3.54856 3.65657 3.51887 3.83482 3.54856 3.98337C3.54856 4.13192 3.57826 4.28047 3.63765 4.39931C3.75643 4.66669 3.93461 4.90437 4.14249 5.05292C4.35036 5.23118 4.55823 5.35002 4.7958 5.40944C4.85519 5.43914 4.91458 5.43914 4.94428 5.43914H4.97398H5.00367H5.09276C5.18185 5.43914 5.27093 5.43914 5.36002 5.40944C5.68668 5.32031 5.83517 5.05292 5.89456 4.87466C5.92426 4.78553 5.92426 4.6964 5.92426 4.6667C5.92426 4.60728 5.92426 4.57757 5.92426 4.57757V4.48844C5.92426 4.10221 6.25091 3.77541 6.63696 3.80512C7.02301 3.80512 7.34967 4.13192 7.31997 4.51815C7.31997 4.51815 7.31997 4.57757 7.31997 4.6964C7.31997 4.81524 7.29028 4.9935 7.23089 5.23118C7.17149 5.46885 7.02301 5.76595 6.78544 6.03334C6.54788 6.33043 6.16182 6.59782 5.68668 6.68695C5.44911 6.74637 5.24124 6.77608 4.94428 6.74637H4.85519L4.73641 6.71666L4.67701 6.68695C4.58793 6.65724 4.46914 6.62753 4.38005 6.59782C3.994 6.47898 3.60795 6.27101 3.28129 5.97392C2.95463 5.67682 2.65767 5.2906 2.4498 4.78553C2.39041 4.66669 2.36071 4.51815 2.33102 4.3696C2.30132 4.31018 2.30132 4.22105 2.30132 4.13192V3.98337C2.30132 3.92395 2.30132 3.92395 2.30132 3.89424V3.68628L2.33102 3.50802C2.33102 3.38918 2.36071 3.27034 2.3904 3.1515C2.47949 2.67615 2.68737 2.2008 2.98433 1.78486C3.04372 1.66602 3.13281 1.57689 3.2219 1.48777C3.2516 1.42835 3.31099 1.39864 3.37038 1.33922C3.42978 1.2798 3.48917 1.22038 3.51886 1.19067L3.57825 1.13125L3.60795 1.10154L3.63765 1.07183L3.66735 1.04212L3.81583 0.923282C3.90492 0.834153 4.0237 0.745026 4.14249 0.685607C5.03337 0.0914146 6.16182 -0.116552 7.20119 0.0617055C7.73572 0.150834 8.27026 0.329091 8.74539 0.596477C9.22053 0.863864 9.66597 1.22038 10.0223 1.72544L10.2302 2.05225L10.4381 2.43847C10.4678 2.49789 10.4975 2.55731 10.5272 2.61673L10.5866 2.8247C10.6162 2.97325 10.6756 3.09208 10.7053 3.24063C10.8241 3.83482 10.7647 4.42902 10.5866 4.93408C10.4381 5.46885 10.1411 5.94421 9.84415 6.33043C9.54719 6.74637 9.19083 7.10288 8.83448 7.42969C8.47813 7.75649 8.09208 8.05359 7.70603 8.32098C7.49816 8.43981 7.29028 8.58836 7.1121 8.67749C6.90423 8.79633 6.69636 8.91517 6.48848 9.0043C5.65699 9.39052 4.82549 9.6282 4.05339 9.86588C3.28129 10.1036 2.59828 10.3412 2.00436 10.6977C1.41043 11.0246 0.935293 11.4702 0.638331 11.9158C0.311673 12.3615 0.19289 12.8665 0.222587 13.2528C0.252283 13.6687 0.400764 13.9361 0.519548 14.1441C0.638333 14.3223 0.697727 14.4114 0.697727 14.4114C0.727424 14.4412 0.697726 14.5006 0.668029 14.5006C0.638333 14.7085 0.608641 14.6788 0.578945 14.6491Z" transform="translate(115.426 63.7788)" fill="#3EA1B5"/>
<path d="M48.9987 24.2728C33.1706 25.58 18.2335 35.9189 18.2335 35.9189H18.2632C8.22584 38.5631 2.26564e-07 43.1086 2.26564e-07 43.1086C10.0373 29.2343 38.902 5.67454 45.94 0C47.306 1.66374 48.5533 3.83254 49.4145 6.68466C51.9386 14.9439 48.9987 24.2728 48.9987 24.2728Z" transform="translate(8.20728 106.533)" fill="#E7E0BC"/>
<path d="M61.4117 5.08019L60.1942 7.36783C41.5153 1.42591 12.1457 7.33812 9.44339 7.5758C2.64296 8.22941 0 4.72367 0 4.72367C0.148481 4.45629 0.296962 4.21861 0.445443 3.95122C6.02833 2.46574 21.8564 -1.18854 36.1996 0.38607C46.8606 1.54474 55.8882 3.62442 61.4117 5.08019Z" transform="translate(2.05981 148.9)" fill="#E7E0BC"/>
</svg>
