<svg width="294" height="272" viewBox="0 0 234 286" fill="none" xmlns="http://www.w3.org/2000/svg">
<path d="M7.76157 0C6.56749 6.34271 5.3734 7.61125 0 9.51407C5.3734 11.4169 6.56749 12.6854 7.76157 19.0281C8.95566 12.6854 10.1498 11.4169 15.5231 9.51407C10.7468 7.61125 9.55271 6.34271 7.76157 0Z" transform="translate(0.210938 15.7257)" fill="white" fill-opacity="0.6"/>
<path d="M7.76159 0C6.5675 6.34271 5.3734 7.61125 0 9.51407C5.3734 11.4169 6.5675 12.6854 7.76159 19.0281C8.95568 12.6854 10.1497 11.4169 15.5231 9.51407C10.1497 7.61125 8.95568 6.34271 7.76159 0Z" transform="translate(218.229 62.9028)" fill="white"/>
<path opacity="0.3" d="M5.1744 0C4.37834 4.03627 3.58226 4.84353 0 6.05441C3.58226 7.26529 4.37834 8.07254 5.1744 12.1088C5.97045 8.07254 6.76649 7.26529 10.3488 6.05441C6.76649 4.84353 5.97045 4.03627 5.1744 0Z" transform="translate(183.254)" fill="white"/>
<path d="M54.0144 32.3509C54.0144 32.3509 51.7818 35.2765 48.617 39.0039C45.3439 42.8614 41.9624 46.5454 41.9624 46.5454L39.7947 47.629C39.7947 47.629 27.5042 41.8862 23.3206 37.9854C19.1154 34.0846 9.44774 20.4969 9.44774 20.4969C9.44774 20.4969 5.67605 18.1781 4.48385 17.0078C3.22661 15.7726 -0.284964 11.4167 0.0185059 10.0948C0.343652 8.77285 2.31621 4.22193 2.31621 4.22193C2.31621 4.22193 2.29453 2.94334 2.18615 1.92481C2.16447 1.81645 2.16447 1.7081 2.18615 1.59974C2.27285 0.711229 3.11823 -0.133938 4.11535 0.0177593C5.24252 0.169456 7.15004 3.37677 7.15004 3.37677C7.15004 3.37677 8.99254 3.39844 9.64283 3.35509C10.3148 3.33342 11.6587 7.12585 11.8755 7.99269C12.3524 9.76971 11.9189 13.0854 11.8755 14.9057L11.9189 16.1193C11.9622 17.3112 13.5012 19.1966 14.2382 20.1285C15.6689 21.9488 17.9882 24.5277 21.1097 26.9982C24.1443 29.4037 27.721 31.159 31.1675 32.8927C33.3351 33.9762 39.9464 40.4775 39.9464 40.4775C39.9464 40.4775 42.721 31.2457 43.5664 29.2086C44.7803 26.2614 49.3107 16.6828 49.3107 16.6828L50.7847 21.6238L54.0144 32.3509Z" transform="translate(27.7087 74.3635)" fill="#F7C8A4"/>
<path d="M50.7846 20.0023C47.2731 27.3271 43.7615 34.6736 40.2499 41.9984C33.747 38.076 27.3308 33.9368 21.6299 28.9308C15.929 23.9248 10.9217 17.9869 7.73531 11.1172C7.45351 10.4888 7.08502 9.83864 7.23675 9.1235C7.36681 8.47336 7.67028 7.75822 7.73531 7.1731C7.77866 6.8047 9.33936 4.57258 9.33936 4.57258L8.92751 3.83577C8.92751 3.83577 8.29889 4.03081 7.49687 4.00913C6.71652 3.96579 5.56767 3.48904 5.24252 3.12063C4.91737 2.75222 4.74396 1.97206 4.76564 1.86371C4.78732 1.73368 7.15004 1.77702 7.15004 1.77702L4.5272 1.60366C4.5272 1.60366 4.6139 2.79556 4.74396 3.14229C4.87402 3.5107 6.43472 4.18251 6.47808 4.31253C6.36969 4.07415 5.93617 4.09582 5.7194 3.98747C5.39426 3.83577 5.13414 3.57572 4.91737 3.29399C4.63558 2.92559 4.37546 2.53551 4.07199 2.1671C3.74685 1.77702 2.14279 0.47676 2.18615 -2.64539e-06C2.18615 0.108352 2.18615 0.216707 2.18615 0.325063C2.29453 1.3436 2.31621 2.62219 2.31621 2.62219C2.31621 2.62219 0.321976 7.19478 0.0185059 8.49504C-0.284964 9.81697 3.22661 14.1728 4.48385 15.4081C5.67605 16.5783 9.42607 18.9188 9.42607 18.9188C9.42607 18.9188 19.0937 32.5065 23.299 36.4073C27.5042 40.3081 39.773 46.0509 39.773 46.0509L41.9407 44.9674C41.9407 44.9674 45.3222 41.2616 48.5953 37.4258C51.7601 33.6984 53.9928 30.7728 53.9928 30.7728L50.7846 20.0023Z" transform="translate(27.7087 75.9414)" fill="#F4B09A"/>
<path d="M0.216764 0.390077L-2.06722e-08 1.32269e-06C0.0216764 0.0216723 0.0216764 0.0216684 0.0433529 0.0433394C0.108382 0.151694 0.173411 0.281722 0.216764 0.390077Z" transform="translate(28.7029 74.5979)" fill="#F4B09A"/>
<path d="M8.26889e-08 0.108358C0.0867057 2.14543 2.86129 3.46736 4.53037 2.36214C4.85551 2.14543 4.29193 2.14543 4.16187 2.1671C2.70955 2.57885 0.671969 1.51697 0.30347 2.64539e-06C0.30347 2.64539e-06 8.26889e-08 0.0650157 8.26889e-08 0.108358Z" transform="translate(32.1711 77.762)" fill="#F08D80"/>
<path d="M0.0514859 0.0650117C-0.0568961 0.346735 0.00813295 0.758488 0.224897 0.996869C0.26825 1.04021 0.615072 0.931856 0.593396 0.888514C0.550043 0.736817 0.441661 0.606791 0.376632 0.455094C0.311603 0.303397 0.289927 0.151698 0.311603 1.32269e-06C0.311603 0.0216723 0.0731623 0.0216697 0.0514859 0.0650117Z" transform="translate(36.2595 80.1247)" fill="#F08D80"/>
<path d="M1.81716 0.0650131C-0.393832 2.14543 -0.653949 7.23812 1.40531 9.44856C1.49202 9.55692 2.12063 9.36188 2.07728 9.23185C0.950105 6.47963 -0.112039 2.57885 2.07728 2.64539e-06C2.03393 0.0216737 1.86051 0.021671 1.81716 0.0650131Z" transform="translate(34.8408 80.9049)" fill="#F08D80"/>
<path d="M-4.13445e-08 0.0277363C0.780351 0.894577 1.69076 1.60972 2.51446 2.41155C3.35984 3.23505 3.81505 4.23192 4.46534 5.20711C4.55204 5.35881 5.07228 5.07709 5.0506 5.05541C4.29193 4.1669 3.68499 3.14837 2.81793 2.34654C1.9292 1.52304 0.932086 0.872911 0.0867057 0.00607053C0.0650293 -0.0156005 -4.13445e-08 0.0277363 -4.13445e-08 0.0277363Z" transform="translate(29.5913 81.2232)" fill="#F08D80"/>
<path d="M4.13445e-08 0.021671C0.715321 0.65013 1.5607 1.12689 2.2977 1.71201C2.90464 2.21044 3.88008 3.09895 3.66331 3.98746C3.61996 4.1825 4.37863 3.94413 4.3136 3.83577C4.05349 3.46736 3.92343 3.03394 3.64164 2.66554C3.33817 2.27546 2.94799 1.95039 2.53614 1.647C1.73411 1.06188 0.84538 0.606787 0.0650292 -1.32269e-06C0.0433528 -1.32269e-06 0.0216764 0.021671 4.13445e-08 0.021671Z" transform="translate(28.8542 83.873)" fill="#F08D80"/>
<path d="M-8.26889e-08 0.0216723C1.88585 1.4953 3.59828 2.92559 4.55205 5.20104C4.57372 5.26606 4.9639 5.13603 4.9639 5.09269C4.66043 3.87911 3.68499 2.90391 2.81793 2.0154C2.03758 1.21357 1.12717 0.325065 0.0433529 0C0.0216765 0.021671 -8.26889e-08 0.0433434 -8.26889e-08 0.0216723Z" transform="translate(30.5017 78.9106)" fill="#F08D80"/>
<path d="M-2.06722e-08 0.0365685C0.281793 0.231608 0.476881 0.51333 0.693645 0.773382C0.910409 1.01176 1.1922 1.25014 1.474 1.42351C1.51735 1.44518 1.86417 1.33683 1.84249 1.31516C1.66908 1.03343 1.1922 0.881737 0.932086 0.665027C0.671969 0.448316 0.433528 0.188264 0.130058 0.0148962C0.108382 -0.0284459 0.0216764 0.0365685 -2.06722e-08 0.0365685Z" transform="translate(29.2446 86.8708)" fill="#F08D80"/>
<path d="M0.30347 0.800797C0.758674 0.519074 1.32226 0.367376 1.84249 0.45406C2.14596 0.497402 2.3844 0.67077 2.68787 0.67077C2.81793 0.67077 3.38152 0.562414 3.31649 0.324032C3.20811 -0.217743 1.99423 0.0639829 1.66908 0.150667C1.08382 0.302364 0.498557 0.519072 0 0.865808C0.0433528 0.844137 0.23844 0.844139 0.30347 0.800797Z" transform="translate(32.1489 87.2333)" fill="#F08D80"/>
<path d="M0.15176 35.6271C-0.758649 32.0298 2.57952 30.2744 6.09109 28.4107C8.71394 27.0238 11.4452 25.5935 12.7241 23.2963C14.5666 20.024 13.4394 14.4762 12.3339 9.1235C11.6403 5.69948 10.9683 2.4705 11.1417 -3.30673e-07L11.4668 0.0216704C11.2934 2.42715 11.9654 5.65613 12.659 9.05848C13.7645 14.4762 14.9134 20.0674 13.0059 23.448C11.6619 25.8319 8.90903 27.2838 6.24283 28.6924C2.6879 30.5561 -0.390151 32.1815 0.455229 35.5405L0.15176 35.6271Z" transform="translate(61.2173 43.2835)" fill="#F8F7E1"/>
<path d="M1.32302e-06 1.01854C1.32302e-06 1.01854 0.715322 2.27546 0.802028 2.29713C0.888734 2.3188 4.27025 0.108355 4.37864 0L1.32302e-06 1.01854Z" transform="translate(65.8777 48.8965)" fill="#DDE7E9"/>
<path d="M31.084 16.47C29.5666 17.3802 27.4423 18.7454 25.4264 20.4574C22.175 23.2097 16.4741 25.5068 13.3743 26.8937C12.9191 27.0888 12.529 27.2838 12.1821 27.4355C11.7703 27.6305 11.2717 27.7822 10.7515 27.9123C9.40756 28.194 7.86853 28.194 6.63298 28.1506C6.32951 27.2405 6.06939 26.4603 5.91766 25.9185C5.15898 23.0796 3.20811 14.9747 2.44943 13.5877C1.71244 12.2008 -6.61511e-07 2.44883 -6.61511e-07 2.44883L10.1012 1.21358L20.0507 -1.32269e-06C20.0507 -1.32269e-06 20.3108 8.60339 23.5839 11.724C25.123 13.1976 27.9626 14.7363 31.084 16.47Z" transform="translate(77.6045 103.919)" fill="#F7C8A4"/>
<path d="M19.4654 14.5846C17.9481 15.4948 15.8238 16.86 13.8079 18.5721C10.5564 21.3243 4.85551 23.6214 1.75579 25.0083C2.18932 22.2345 3.12141 19.5256 3.66332 16.7734C4.16187 14.2812 4.03181 11.399 3.35984 8.73342C2.88296 6.86971 2.12429 5.11436 1.12717 3.64073C0.802027 3.16397 0.390173 2.6872 -2.64605e-06 2.23211C2.7529 1.71201 5.63586 0.931855 8.58385 1.32269e-06C8.86565 2.70888 9.66768 7.64987 11.9871 9.86031C13.5044 11.3123 16.344 12.8509 19.4654 14.5846Z" transform="translate(89.2229 105.805)" fill="#F4B09A"/>
<path d="M121.431 55.3075C120.868 55.5676 117.876 51.19 116.229 50.3882C114.928 49.7598 107.97 48.8279 104.502 48.0911C103.592 47.896 102.768 47.766 102.161 47.701C99.2129 47.4626 93.3603 47.766 76.4527 52.0786C66.5899 54.5924 60.3254 56.6945 56.467 58.2331C52.1751 59.9235 50.8529 60.8987 50.8529 60.8987L45.8022 64.4094C45.8022 64.4094 42.3774 63.4342 40.6433 61.8739C38.9091 60.3135 26.1417 51.4934 19.964 45.8373C11.1417 37.7757 -2.64605e-06 19.7454 -2.64605e-06 19.7454C-2.64605e-06 19.7454 16.6475 -4.28776 20.9394 0.674905C25.2097 5.63757 35.7227 35.912 38.0421 42.6517C40.3831 49.413 44.0465 54.2457 45.7589 53.8556C46.9728 53.5739 47.4713 51.6018 50.8312 49.0013C51.0696 48.8279 51.3081 48.6329 51.5898 48.4378C52.8688 47.5276 54.5162 46.5525 56.6404 45.5556C65.5278 41.4164 99.4947 44.1686 99.4947 44.1686C99.4947 44.1686 99.7548 43.1718 100.232 41.9365C101.034 39.7911 102.79 36.4538 104.459 36.9955C104.957 37.1689 105.391 37.3639 105.759 37.6023C107.363 38.5775 108.252 40.2245 109.683 41.6331C111.438 43.3885 114.516 44.9054 117.118 45.3822C119.719 45.859 121.951 50.5399 122.342 51.6235C123.187 54.094 121.973 55.0475 121.431 55.3075Z" transform="translate(95.1843 133.887)" fill="#F5BA9E"/>
<path d="M56.467 58.2331C52.1751 59.9235 50.8529 60.8987 50.8529 60.8987L45.8022 64.4094C45.8022 64.4094 42.3774 63.4342 40.6433 61.8739C38.9091 60.3135 26.1417 51.4934 19.964 45.8373C15.7587 42.0015 11.0333 35.912 7.23992 30.5592C3.05638 24.6864 -2.64605e-06 19.7454 -2.64605e-06 19.7454C-2.64605e-06 19.7454 16.6475 -4.28776 20.9394 0.674905C25.2097 5.63757 35.7227 35.912 38.0421 42.6517C40.3831 49.413 44.0465 54.2457 45.7589 53.8556C46.9728 53.5739 47.4713 51.6018 50.8312 49.0013C51.0696 48.8279 51.3081 48.6329 51.5898 48.4378C52.3702 49.5647 53.3673 51.1034 54.2994 52.8804C54.3211 52.9237 54.3427 52.9454 54.3644 52.9887C55.1448 54.5924 55.9251 56.3694 56.467 58.2331Z" transform="translate(95.1843 133.887)" fill="#1480A6"/>
<path d="M54.2777 52.902C51.8066 54.8091 49.3572 56.7378 46.8861 58.6449C46.2141 59.165 45.4337 59.7067 44.61 59.5767C44.0898 59.49 43.6563 59.1433 43.2661 58.8182C37.3701 54.0289 29.5233 46.8125 24.581 41.048C22.0449 38.1007 19.5521 34.9584 16.1706 33.0297C14.1764 31.9028 12.0954 31.4261 9.99282 31.036C9.08241 30.8843 8.17201 30.7326 7.23992 30.5592C5.07228 27.5253 3.20811 24.7297 1.90753 22.736C0.715323 20.894 -2.64605e-06 19.7454 -2.64605e-06 19.7454C-2.64605e-06 19.7454 16.6475 -4.28776 20.9394 0.674904C21.8498 1.73678 22.9336 3.86055 24.1042 6.61277C25.4481 9.79841 26.9004 13.8075 28.3311 17.99C31.4525 27.1569 36.7849 39.0109 38.0421 42.6517C40.3831 49.413 44.0465 54.2457 45.7589 53.8556C47.0595 53.5522 47.5364 51.3201 51.5898 48.4378C52.3702 49.6081 53.3456 51.125 54.2777 52.902Z" transform="translate(95.1843 133.887)" fill="#30749E"/>
<path d="M54.191 0.665393C53.3456 3.17923 49.5306 5.45469 49.7257 8.22858C42.7025 8.74869 35.6794 9.26879 28.6345 9.7889C23.8007 10.1573 18.9235 10.504 14.198 11.5226C11.5752 12.086 8.97403 12.8662 6.50292 13.9497C5.65754 14.3181 4.09685 15.4884 2.77459 16.0518C2.75291 16.0085 2.73122 15.9868 2.70955 15.9435C1.77746 14.1664 0.802022 12.6278 -5.29209e-06 11.5009C1.2789 10.5907 2.92632 9.61552 5.05061 8.61866C13.9379 4.47949 47.9049 7.23171 47.9049 7.23171C47.9049 7.23171 48.165 6.23484 48.6419 4.9996C49.4439 2.85417 51.1997 -0.483168 52.8688 0.0586074C53.389 0.231976 53.8225 0.427012 54.191 0.665393Z" transform="translate(146.731 170.845)" fill="#F19980"/>
<path d="M21.1345 18.6737C21.0478 18.7171 20.8744 18.6304 20.6576 18.4787C20.5926 18.4353 20.5276 18.3703 20.4625 18.3053C19.4004 17.3735 17.4495 14.9463 16.1706 14.3395C14.87 13.7111 7.76015 11.869 4.27025 11.1322L5.00725 8.64004C5.00725 8.64004 5.00724 8.64004 3.03469 6.71132C2.68787 6.38625 2.2977 6.08286 1.86417 5.84448C1.25723 5.49774 0.606934 5.21603 -5.29209e-06 4.99932C0.585258 3.46067 1.62573 1.31524 2.81793 0.426724C3.27313 0.0583164 3.7717 -0.0933833 4.24858 0.0583138C6.87142 0.925154 7.78182 2.65884 9.53761 4.4142C11.2934 6.16955 14.2197 6.77633 16.7342 7.6215C21.0478 9.09513 22.2183 12.5625 22.6085 13.646C23.4539 16.0949 21.6981 18.4137 21.1345 18.6737Z" transform="translate(195.394 170.868)" fill="#E32328"/>
<path d="M18.3382 18.6737C18.2515 18.7171 18.0781 18.6304 17.8614 18.4787C17.9264 18.392 18.0131 18.3053 18.0781 18.2186C19.1403 16.8967 19.3354 15.0113 18.7934 13.4077C18.2299 11.804 17.016 10.5037 15.5637 9.61524C12.8758 7.94657 9.47259 7.62151 6.91478 5.7578C5.57084 4.76093 4.55204 3.41732 3.31649 2.26876C2.49278 1.51027 1.53902 0.816799 0.455199 0.491734C0.346817 0.448392 0.195088 0.448395 0 0.426724C0.455204 0.0583164 0.953757 -0.0933833 1.43064 0.0583138C4.05348 0.925154 4.9639 2.65884 6.71969 4.4142C8.47547 6.16955 11.4018 6.77633 13.9163 7.6215C18.2299 9.09513 19.4004 12.5625 19.7906 13.646C20.6576 16.0949 18.9018 18.4137 18.3382 18.6737Z" transform="translate(198.19 170.868)" fill="#D9D5B9"/>
<path d="M26.4235 11.3922C25.9683 12.3024 25.4264 13.1909 24.8412 14.0144C23.2805 16.2031 21.3296 18.1319 19.1403 19.7138C15.8671 22.076 12.0521 23.7013 8.0853 24.4381C7.17489 24.2864 6.26448 24.1347 5.3324 23.9614C3.16476 20.9274 1.30058 18.1319 0 16.1381C4.05349 9.39844 10.2963 3.98069 17.5796 1.01176C19.0536 0.404971 20.6359 -0.09347 22.1966 0.0148851C23.5406 3.20052 25.0146 7.20966 26.4235 11.3922Z" transform="translate(97.0698 140.506)" fill="#41699B"/>
<path d="M87.7678 25.7452C86.077 32.6582 77.6015 39.2029 68.7792 46.3543C62.1463 51.7287 58.1795 56.0412 49.9641 63.4311C42.7676 69.889 38.584 73.9415 38.584 75.2634C38.584 75.6752 39.1476 76.4553 39.9279 77.4739C39.993 77.5606 40.058 77.6472 40.123 77.7339C40.1881 77.8206 40.2531 77.9073 40.3398 77.994C40.4915 78.1674 40.6433 78.3624 40.795 78.5574C40.9034 78.6875 41.0118 78.8391 41.1201 78.9908C41.5103 79.4893 41.9005 80.0094 42.2907 80.5512C42.3557 80.6378 42.4207 80.7245 42.4858 80.8112C42.5725 80.9412 42.6808 81.0713 42.7676 81.2013C42.8543 81.3313 42.941 81.4613 43.0277 81.613C43.0927 81.6997 43.1361 81.7864 43.2011 81.8731C43.2661 81.9598 43.3095 82.0465 43.3745 82.1331C43.4178 82.1982 43.4612 82.2632 43.5046 82.3499C43.6346 82.5449 43.743 82.7616 43.8514 82.9566C43.8947 83.0433 43.9381 83.13 43.9814 83.2167C44.0465 83.3251 44.0898 83.4334 44.1332 83.5418C44.1765 83.6284 44.2199 83.7151 44.2416 83.7801C44.2849 83.8668 44.3066 83.9318 44.3499 84.0185C44.3933 84.1269 44.4366 84.2136 44.48 84.3219C44.5233 84.4303 44.5667 84.517 44.5884 84.6253C44.6101 84.6903 44.6317 84.777 44.6534 84.842C44.6751 84.9287 44.7184 85.0371 44.7401 85.1238C44.7618 85.2104 44.7835 85.2971 44.8051 85.3838C44.8268 85.4705 44.8485 85.5572 44.8702 85.6439C45.0219 86.424 45.1736 87.2908 45.3037 88.2227C45.8673 92.0801 46.084 97.1078 43.8731 102.417C41.1201 109.027 32.688 128.704 27.7675 135.552C22.8469 142.4 24.1258 143.419 24.1258 143.419C24.4727 143.592 24.9279 143.982 25.4264 144.481C27.3556 146.409 30.0002 150.072 30.0002 150.072C29.9134 150.657 29.3499 151.502 28.2227 152.391C27.3123 153.106 26.055 153.864 24.3643 154.514C20.5709 155.966 19.3354 156.551 13.3743 162.056C7.41333 167.56 -3.30756e-07 162.706 -3.30756e-07 162.706C-3.30756e-07 162.706 0.368499 160.886 1.01879 160.235C1.66908 159.585 6.1561 157.613 7.36998 156.746C8.58386 155.88 16.2356 147.385 16.2356 147.385C16.2356 147.385 16.2573 147.341 16.279 147.255C16.5391 146.539 17.7963 143.05 19.0319 141.057C20.3975 138.846 22.9336 132.497 24.8628 125.627C27.1822 117.522 31.951 88.8945 31.951 88.8945V88.201L32.0161 79.2292L31.0623 74.6566L32.0161 72.7929C32.0161 72.7929 32.0594 72.6196 32.1244 72.3162C32.1461 72.2728 32.1461 72.2295 32.1678 72.1862C32.1895 72.1428 32.1895 72.0778 32.2111 72.0128C32.2111 71.9694 32.2328 71.9261 32.2545 71.8611C32.3195 71.5577 32.4062 71.1893 32.5146 70.7559C32.5363 70.6908 32.5363 70.6475 32.558 70.5825C32.558 70.5608 32.5796 70.5175 32.5796 70.4958C32.6013 70.4091 32.623 70.3224 32.6447 70.2358C32.7747 69.6723 32.9265 69.0438 33.0999 68.372C33.1216 68.2854 33.1432 68.177 33.1649 68.0903C33.2083 67.8953 33.2516 67.7002 33.3166 67.5052C33.3383 67.4185 33.36 67.3102 33.3817 67.2018C33.4901 66.8117 33.5768 66.4217 33.6851 66.0099C33.7068 65.9016 33.7502 65.7932 33.7718 65.6849C33.9669 64.9697 34.162 64.2329 34.3571 63.4744C34.4655 63.0627 34.5739 62.6509 34.7039 62.2392C34.7256 62.1958 34.7256 62.1525 34.7473 62.1091C34.8773 61.6324 35.0291 61.1339 35.1591 60.6572C35.1591 60.6355 35.1808 60.6138 35.1808 60.5922C35.3109 60.1371 35.4409 59.682 35.5927 59.2269C35.7444 58.7501 35.8745 58.295 36.0262 57.8399C36.0695 57.6882 36.1129 57.5365 36.1779 57.3849C36.4164 56.648 36.6548 55.9329 36.8932 55.2611C37.0233 54.871 37.175 54.4809 37.3051 54.1125C37.3701 53.9608 37.4352 53.8091 37.4785 53.6574C37.5652 53.4624 37.6302 53.2673 37.717 53.094C37.7603 53.0073 37.8037 52.8989 37.847 52.8123C37.8687 52.7689 37.8904 52.7256 37.912 52.6822C38.4973 51.3386 39.4944 49.2365 40.6866 46.7227C40.6866 46.7227 40.6866 46.701 40.7083 46.701C45.8239 36.624 50.4627 31.9864 53.3673 26.1136C54.2994 24.2065 52.8904 21.8227 52.8904 21.8227C52.8904 21.8227 50.441 15.5598 49.1187 11.6807C50.3543 11.7457 51.915 11.724 53.2373 11.4423C53.7575 11.3339 54.2561 11.1822 54.6679 10.9655C57.2474 9.68695 64.1838 7.15143 67.9122 3.98747C69.9281 2.27546 72.0524 0.888513 73.5697 1.32269e-06C77.1897 1.99373 81.1998 4.24752 83.9311 6.84804C88.9383 11.724 89.4802 18.8321 87.7678 25.7452Z" transform="translate(35.2053 120.324)" fill="#F7C8A4"/>
<path d="M37.4352 21.508C37.4135 21.8331 37.4135 22.1365 37.3918 22.3749C37.3701 22.6999 37.3484 23.025 37.2834 23.3284C37.2617 23.4801 37.2184 23.6535 37.175 23.8052C37.1534 23.9352 37.11 24.0869 37.0667 24.2169C36.1779 27.0775 33.6851 33.6221 32.8181 36.0059C32.6013 36.6127 32.3846 37.4579 32.1895 38.3681C32.1678 38.4331 32.1678 38.4981 32.1461 38.5631C31.5175 41.7054 31.1273 45.7146 31.1273 45.7146C31.1056 45.7146 31.084 45.7146 31.084 45.7362C30.8889 45.8012 30.6938 45.8663 30.4987 45.9313C27.6808 46.8198 24.9062 47.5783 22.2617 48.0984C22.1533 48.12 22.0232 48.1417 21.9149 48.1634C21.8715 48.1634 21.8498 48.1851 21.8065 48.1851C17.5579 48.9869 13.5911 49.1819 10.0795 48.4234L7.99859 36.9811C7.99859 36.9811 5.76592 36.3527 4.07516 35.6592C2.3844 34.9657 1.32302e-06 29.7213 1.32302e-06 29.7213C1.32302e-06 29.7213 4.29193 23.4801 5.15898 22.2232C6.02604 20.9446 10.9683 11.6044 11.4451 10.6725C11.922 9.74067 14.5449 7.09681 14.5449 7.09681C14.5449 7.09681 24.386 -0.314676 25.4264 0.0103893C25.9683 0.183757 28.136 1.33232 30.1085 2.41587C31.9077 3.41274 33.5334 4.34459 33.5334 4.34459C33.5334 4.34459 36.8499 10.2608 37.2617 12.6879C37.6302 14.3999 37.5219 18.9942 37.4352 21.508Z" transform="translate(67.2864 59.8947)" fill="#F2385A"/>
<path d="M35.3644 19.0705C35.3427 19.3956 35.3427 19.6989 35.3211 19.9373C35.2994 20.2624 35.2777 20.5875 35.2127 20.8909V20.9125C35.1693 21.1943 35.0826 21.4976 34.9959 21.7794C34.1072 24.6399 31.6144 31.1846 30.7473 33.5684C30.5523 34.0885 30.3788 34.7386 30.2271 35.4754C30.2054 35.5405 30.2054 35.6055 30.1838 35.6705C29.6418 38.2493 29.2517 41.6517 29.1216 42.8436C28.9265 42.9086 28.7314 42.9736 28.5363 43.0386C25.7184 43.9271 22.9438 44.6856 20.2993 45.2057C20.1909 45.2274 20.0609 45.2491 19.9525 45.2707C19.9091 45.2707 19.8875 45.2924 19.8441 45.2924C18.11 43.5154 16.3976 41.63 14.1432 40.8065C12.3441 40.1564 10.1114 40.1564 8.9192 38.6394C8.03047 37.5125 8.07382 35.9089 7.27179 34.717C5.97121 32.7449 3.06657 32.6799 1.22408 31.2279C0.18361 30.4044 -0.445008 28.8008 0.378696 27.7822C1.00731 27.0021 2.13449 26.9154 3.1316 26.8504C5.68942 26.6987 8.31226 26.2219 10.3715 24.705C14.0348 22.0177 14.8802 17.0117 16.2241 12.6775C17.4164 8.88511 19.2588 5.20104 22.2935 2.62219C23.9843 1.17024 25.9352 0.303394 28.0811 0C29.8803 0.996867 31.506 1.92872 31.506 1.92872C31.506 1.92872 34.8225 7.84491 35.2344 10.2721C35.5812 11.9841 35.4728 16.5783 35.3644 19.0705Z" transform="translate(69.2488 62.7659)" fill="#E53A66"/>
<path d="M56.7272 25.7885C55.0364 32.7016 46.5609 39.2462 37.7386 46.3976C31.1056 51.7721 27.1389 56.0846 18.9235 63.4744C11.7269 69.9324 7.54339 73.9848 7.54339 75.3068C7.54339 75.7185 8.10698 76.4987 8.88733 77.5172C8.95236 77.6039 9.01738 77.6906 9.08241 77.7773C9.14744 77.864 9.21247 77.9506 9.29918 78.0373C9.45091 78.2107 9.60265 78.4057 9.75438 78.6008C9.86277 78.7308 9.97115 78.8825 10.0795 79.0342C10.4697 79.5326 10.8599 80.0527 11.2501 80.5945C11.3151 80.6812 11.3801 80.7679 11.4451 80.8546C11.5318 80.9846 11.6402 81.1146 11.7269 81.2446C11.8136 81.3747 11.9003 81.5047 11.9871 81.6564C12.0521 81.7431 12.0954 81.8298 12.1605 81.9164C12.2255 82.0031 12.2688 82.0898 12.3339 82.1765C12.3772 82.2415 12.4206 82.3065 12.4639 82.3932C12.594 82.5882 12.7024 82.805 12.8108 83C12.8541 83.0867 12.8975 83.1733 12.9408 83.26C13.0058 83.3684 13.0492 83.4767 13.0925 83.5851C13.1359 83.6718 13.1793 83.7585 13.2009 83.8235C13.2443 83.9102 13.266 83.9752 13.3093 84.0619C13.3527 84.1702 13.396 84.2569 13.4394 84.3653C13.4827 84.4736 13.5261 84.5603 13.5478 84.6686C13.5694 84.7337 13.5911 84.8203 13.6128 84.8854C13.6345 84.972 13.6778 85.0804 13.6995 85.1671C13.7212 85.2538 13.7428 85.3404 13.7645 85.4271C13.7862 85.5138 13.8079 85.6005 13.8295 85.6872C13.9813 86.4673 14.133 87.3342 14.2631 88.266C11.792 88.7645 8.88732 89.2412 6.95812 89.4796H6.87142C6.74136 89.5013 6.63298 89.5013 6.50292 89.523C4.42199 89.7613 2.36273 88.9812 0.888731 88.201L0.953761 79.2292L6.61511e-07 74.6567L0.953761 72.7929C0.953761 72.7929 0.997114 72.6196 1.06214 72.3162C1.08382 72.2728 1.08382 72.2295 1.1055 72.1861C1.12717 72.1428 1.12717 72.0778 1.14885 72.0128C1.14885 71.9694 1.17053 71.9261 1.1922 71.8611C1.25723 71.5577 1.34394 71.1893 1.45232 70.7559C1.474 70.6909 1.47399 70.6475 1.49567 70.5825C1.49567 70.5608 1.51735 70.5175 1.51735 70.4958C1.53903 70.4091 1.5607 70.3224 1.58238 70.2358C1.71244 69.6723 1.86417 69.0439 2.03758 68.3721C2.05926 68.2854 2.08093 68.177 2.10261 68.0903C2.14596 67.8953 2.18932 67.7003 2.25435 67.5052C2.27602 67.4185 2.2977 67.3102 2.31938 67.2018C2.42776 66.8117 2.51446 66.4217 2.62284 66.0099C2.64452 65.9016 2.68787 65.7932 2.70955 65.6848C2.90464 64.9697 3.09973 64.2329 3.29481 63.4744C3.4032 63.0626 3.51158 62.6509 3.64164 62.2391C3.66331 62.1958 3.66331 62.1525 3.68499 62.1091C3.81505 61.6324 3.96678 61.1339 4.09684 60.6572C4.09684 60.6355 4.11852 60.6138 4.11852 60.5922C4.24858 60.1371 4.37863 59.682 4.53037 59.2269C4.6821 58.7501 4.81216 58.295 4.9639 57.8399C5.00725 57.6882 5.0506 57.5365 5.11563 57.3848C5.35407 56.648 5.59251 55.9329 5.83095 55.2611C5.98269 54.871 6.11275 54.4809 6.24281 54.1125C6.30784 53.9608 6.37286 53.8091 6.41621 53.6574C6.50292 53.4624 6.56795 53.2674 6.65466 53.094C6.69801 53.0073 6.74136 52.8989 6.78472 52.8123C6.80639 52.7689 6.82807 52.7256 6.84974 52.6822C7.78183 50.4935 8.71391 48.5214 9.62432 46.7227C9.62432 46.7227 9.62432 46.701 9.646 46.701C14.7616 36.624 19.4004 31.9864 22.305 26.1136C23.2371 24.2065 21.8281 21.8227 21.8281 21.8227C21.8281 21.8227 19.3787 15.5598 18.0564 11.6807C19.292 11.7457 20.8527 11.724 22.175 11.4423C22.6952 11.3339 23.1938 11.1822 23.6056 10.9655C26.1851 9.68694 33.1215 7.15143 36.8499 3.98746C38.8658 2.27545 40.9901 0.88851 42.5074 -1.32269e-06C46.1274 1.99373 50.1375 4.24752 52.8688 6.84804C57.8977 11.7674 58.4396 18.8755 56.7272 25.7885Z" transform="translate(66.2461 120.281)" fill="#078DAE"/>
<path d="M52.9709 22.0611C52.8191 23.2747 52.6024 24.4883 52.2989 25.7018C50.6081 32.6149 42.1327 39.1595 33.3104 46.311C28.2814 50.3634 24.7915 53.8308 19.8276 58.4901C18.2236 59.9854 16.4895 61.589 14.4736 63.3877C7.277 69.8457 3.09345 73.8982 3.09345 75.2201C3.09345 76.542 8.64261 81.613 9.40129 85.6222C9.55302 86.4023 9.70476 87.2692 9.83482 88.201C9.27123 88.3094 8.66429 88.4394 8.05735 88.5478C6.01977 88.9162 3.93883 89.2629 2.44316 89.4363C0.839106 83.9318 -0.678243 78.2107 0.318872 72.5762C1.1209 67.982 3.52698 63.8645 6.01977 59.9204C8.42585 56.1063 10.9186 52.3788 13.4114 48.6298C16.4461 44.0788 19.4808 39.5063 22.2554 34.7603C23.686 32.3332 24.4014 31.2713 25.767 28.8224C26.7641 27.0671 26.3522 24.7916 25.0517 23.2963C23.6644 21.671 19.1557 23.1446 18.1152 25.5501C18.9172 23.4047 20.1745 21.8444 20.2612 19.4822C20.3045 18.312 18.3103 13.111 17.9201 12.0274C17.8551 11.8757 17.7684 11.659 17.6383 11.4423C18.1586 11.3339 18.6571 11.1822 19.069 10.9655C21.6485 9.68695 28.5849 7.15144 32.3132 3.98747C34.3292 2.27546 36.4534 0.888509 37.9708 -2.64539e-06C38.7511 0.433418 39.5315 0.866838 40.3118 1.30026C43.2382 2.96893 46.1862 4.78929 48.3321 6.82637C50.0012 8.40835 51.1934 10.2504 51.9521 12.2441C53.166 15.2781 53.4044 18.6371 52.9709 22.0611Z" transform="translate(70.6743 120.367)" fill="#007EA5"/>
<path d="M15.0434 10.9439C12.9842 11.724 10.5347 10.7055 8.34541 10.6405C4.63875 10.5321 0.541907 9.25352 -2.64605e-06 7.34647C0.216761 4.4859 1.53902 2.64386 3.38152 -1.32269e-06C6.30783 1.66867 9.25582 3.48903 11.4018 5.52611C13.0925 7.12976 14.2631 8.95013 15.0434 10.9439Z" transform="translate(107.648 121.689)" fill="#3C78A3"/>
<path d="M55.1862 23.1902C55.1862 23.1902 54.2541 25.0755 52.9318 27.416C51.046 30.7317 49.4853 35.1959 46.9925 38.0781C44.2179 41.2638 39.6442 47.7868 36.8479 50.9291C34.3768 53.7029 34.095 55.6967 33.6182 58.969C33.5315 59.5108 33.3364 60.0092 33.0329 60.4643C32.3176 61.5045 31.017 63.3899 31.017 63.3899L31.2121 64.2567C31.3421 64.8635 31.1037 65.5136 30.5835 65.8604L29.543 66.5755C29.1095 66.8789 28.5892 67.0089 28.069 66.9439C27.9173 66.9223 27.7872 66.9006 27.6355 66.8573L23.1268 65.362L22.9967 65.427C22.8667 65.492 22.7366 65.5136 22.5849 65.5353C22.1297 65.5787 21.6528 65.4053 21.3493 65.0369C21.0892 64.7335 21.0458 64.3001 21.1976 63.9317L23.582 58.774C24.1239 57.8421 24.8609 57.062 25.7713 56.4768C27.6571 55.2633 30.8869 53.1828 31.2771 52.8578C31.819 52.4027 37.1297 41.9789 38.9506 37.4714C40.9014 32.6604 44.2396 28.4996 47.9246 24.4904C47.9246 24.4904 37.3682 20.9364 30.6051 19.7661C26.465 19.051 19.3117 17.9458 14.3695 17.209C14.2828 17.9241 14.1961 18.6176 14.1094 19.2027C13.9793 20.1996 13.871 20.893 13.871 20.893C13.4591 23.7103 9.81747 26.4842 8.06168 27.6977C6.30589 28.933 3.16281 25.769 1.45037 23.6236C-0.262063 21.4781 -0.132007 13.7199 0.214815 10.3176C0.453256 7.95544 2.7076 4.2497 4.07321 2.19095C4.83189 1.06406 6.00242 0.283899 7.303 0.0671892C7.49809 0.0238472 7.71485 0.00217551 7.93162 0.00217551C7.97497 0.00217551 8.01832 0.00217551 8.06168 0.00217551C9.34059 -0.0411665 10.5545 0.565625 11.3348 1.56249C11.8117 2.19095 12.3753 2.92776 12.8522 3.59957C17.4692 4.79147 25.7496 7.06693 32.556 9.60244C42.5055 13.3299 52.4333 20.8497 52.4983 20.9147C53.0619 21.4348 55.1862 23.1902 55.1862 23.1902Z" transform="translate(88.0762 63.8257)" fill="#F7C8A4"/>
<path d="M7.60575 47.3295C2.68521 54.1775 3.96412 55.1961 3.96412 55.1961C4.31094 55.3694 4.76614 55.7595 5.2647 56.258C7.1939 58.1867 9.83842 61.8491 9.83842 61.8491C9.75172 62.4342 9.18813 63.2794 8.06096 64.1679C7.43234 64.3412 6.78205 64.4929 6.15344 64.623C4.61441 64.9914 2.8803 65.3164 1.55804 64.4279C-0.0243426 63.3444 -0.132722 61.0906 0.0840421 59.1835C1.3196 48.6081 7.58408 39.3762 11.6592 29.5376C15.1275 21.1292 19.0292 12.0057 17.9888 2.96893C17.9237 2.42715 17.8587 1.84204 17.7937 1.21358C19.7229 0.975201 22.6275 0.498431 25.0986 -2.64539e-06C25.6622 3.85744 25.879 8.88511 23.668 14.1945C20.9584 20.8042 12.5263 40.4814 7.60575 47.3295Z" transform="translate(55.3887 208.569)" fill="#F3A88C"/>
<path d="M6.10352e-06 7.22643e-07C6.10352e-06 0.0236803 6.10352e-06 0.0236803 6.10352e-06 7.22643e-07V7.22643e-07Z" transform="translate(60.6755 47.4446)" fill="#F7C8A4"/>
<path d="M32.8831 38.4749C32.8831 38.4749 29.9785 39.6235 28.7429 40.8804C27.6591 41.9639 24.516 45.9731 22.3917 48.5086C22.0883 48.877 21.8065 49.202 21.5463 49.5054C19.5088 51.8459 15.2602 54.8148 15.2602 54.8148C15.2602 54.8148 20.2458 46.2548 20.5926 45.1929C20.9394 44.1527 20.5492 40.0569 19.7039 38.2148C19.1836 37.088 18.0564 35.4843 16.9943 34.4441C16.3223 33.7723 15.6937 33.3389 15.2819 33.4039C14.198 33.5339 10.5564 34.7258 9.55929 34.8342C9.40756 34.8558 9.2775 34.8125 9.16912 34.7692C8.47548 34.4007 8.21536 32.8404 8.17201 32.342C8.04195 31.3018 7.69513 30.9334 7.69513 30.9334C7.69513 30.9334 7.6301 30.9767 7.52171 31.0417C7.36998 31.1284 7.15321 31.1934 6.9798 31.1068C6.87142 31.0634 6.78472 30.9551 6.69801 30.8684C6.5246 30.6517 6.54627 30.3266 6.74136 30.1316C6.87142 30.0015 7.04483 29.8932 7.17489 29.7848C7.67345 29.2864 8.02027 28.7013 8.25871 28.1595C8.67056 27.2276 8.73559 26.4041 8.73559 26.4041C8.73559 26.4041 8.69224 26.4041 8.60553 26.4475C8.19368 26.5558 6.95813 26.9676 5.09396 28.1162C4.81216 28.2895 4.46534 27.9645 4.35696 27.8778C4.33528 27.8561 4.33528 27.8561 4.33528 27.8561L4.37863 27.0759C4.37863 27.0759 4.16187 26.5558 3.96678 26.0791C3.94511 25.9924 3.90175 25.9274 3.88008 25.8407C3.68499 25.3206 2.77458 25.5156 1.51735 25.3856C0.3685 25.2556 0.0433535 24.5404 6.61511e-07 24.4321L0.0216751 24.4104C0.281792 24.0853 1.88585 21.4632 2.90464 19.3394C3.4899 18.1041 3.01302 16.9989 2.53614 13.8783C2.42776 13.1848 2.3844 12.4047 2.40608 11.6462C2.42776 10.7577 2.49279 9.86916 2.60117 9.089C2.79626 7.55036 3.05637 6.38013 3.05637 6.38013C3.1214 6.27177 3.20811 6.16342 3.27314 6.05506C4.74713 3.97464 7.3483 2.15428 9.81941 1.07073C11.055 0.528953 12.2472 0.182217 13.266 0.052191C16.1056 -0.272874 22.2833 0.940703 25.0362 3.12947C25.3614 3.38953 25.6432 3.64958 25.86 3.9313C26.7487 5.07987 27.3773 6.61851 27.7241 8.28718C28.0493 9.89083 28.0926 11.6245 27.8108 13.3148C27.7024 13.965 27.5507 14.6151 27.3339 15.2652C26.0334 19.1877 23.8224 21.4632 23.7357 24.042C23.714 24.4971 23.8224 25.0822 23.9741 25.754C24.7328 28.8963 26.6837 31.4101 27.399 32.4504C28.2444 33.7073 32.8831 38.4749 32.8831 38.4749Z" transform="translate(60.7188 23.0554)" fill="#F7C8A4"/>
<path d="M23.107 38.4979C23.107 38.4979 20.2024 39.6464 18.9669 40.9034C17.883 41.9869 14.74 45.9961 12.6157 48.5316C13.0709 47.578 13.4827 46.6028 13.8295 45.5843C14.7616 42.6587 14.9784 39.4081 13.7428 36.5908C12.5723 33.947 10.2963 31.9749 8.4538 29.7428C5.18066 25.7987 3.25146 20.966 2.03758 16.025C1.30059 13.0561 0.390175 10.0655 0.173411 7.00989C0.086705 5.66629 0.433527 4.45271 0.281793 3.13078C0.216763 2.41564 0.0216751 1.74384 -1.32302e-06 1.07204C1.23555 0.53026 2.42776 0.183524 3.44655 0.0534975C6.6113 -0.31491 13.9596 1.2454 16.0189 3.93261C18.0781 6.64149 18.7934 11.3224 17.4929 15.2449C16.1923 19.1673 13.9813 21.4428 13.8946 24.0216C13.8295 26.6005 16.6908 31.1731 17.5579 32.4517C18.4683 33.7303 23.107 38.4979 23.107 38.4979Z" transform="translate(70.4944 23.0323)" fill="#F4B09A"/>
<path d="M0 1.19181L0.368498 1.97197C0.368498 1.97197 2.0159 1.14847 3.44655 0.801732C4.87719 0.454996 6.69801 1.17014 6.69801 1.17014C6.69801 1.17014 4.50869 -0.325161 2.62285 0.0649172C0.758675 0.476666 0 1.19181 0 1.19181Z" transform="translate(63.905 36.9992)" fill="#4F4F4F"/>
<path d="M6.61511e-07 0.65013C6.61511e-07 0.65013 0.867055 1.01854 1.32226 0.953525C1.77746 0.910183 4.33528 -3.30673e-07 4.33528 -3.30673e-07C4.33528 -3.30673e-07 3.53325 1.84204 2.38441 2.34047C1.79914 2.60052 1.69076 2.12376 1.69076 2.12376L1.30059 1.30026C1.30059 1.27859 0.455205 1.06188 6.61511e-07 0.65013Z" transform="translate(65.3796 39.9247)" fill="#515252"/>
<path d="M44.2967 3.7043C44.2967 4.48446 44.21 5.26462 44.0366 6.04477C42.866 5.37297 41.7172 4.70117 40.5466 4.02937C40.6334 4.91788 40.0698 5.82806 39.2244 6.13146C39.2894 6.34817 39.3761 6.54321 39.4412 6.75992C38.5307 6.52154 37.6203 6.30483 36.7099 6.06644C36.8183 6.54321 36.7099 7.06331 36.4281 7.47506C36.0813 7.38838 35.7562 7.28002 35.4093 7.19334C34.9758 7.06331 34.5206 6.95496 34.0871 6.82493C34.2171 7.62676 34.0437 8.47193 33.6752 9.18707C33.3501 9.81553 32.8949 10.3573 32.3096 10.7474C31.8761 8.53694 31.4642 6.80326 30.9874 6.30483C30.1636 5.45966 27.7359 5.41631 26.4353 5.61135C26.392 5.61135 26.3486 5.63302 26.3052 5.63302C26.2619 5.63302 26.2402 5.6547 26.1969 5.6547C25.9801 5.69804 25.8067 5.74138 25.6983 5.80639C25.2431 6.04477 24.376 7.47506 23.8125 8.42859C24.4411 8.92702 25.0263 9.44712 25.5249 10.0106C25.5682 10.0539 25.5899 10.0973 25.6333 10.1406C25.785 10.3356 25.9367 10.5307 26.0668 10.7257C26.1102 10.7907 26.1535 10.8557 26.1969 10.9208C26.1969 10.9208 26.1969 10.9208 26.1969 10.9424C26.2402 11.0074 26.2619 11.0724 26.3052 11.1375C26.3703 11.2458 26.4136 11.3325 26.457 11.4409C26.4787 11.4625 26.4787 11.5059 26.5003 11.5275C26.5003 11.5492 26.522 11.5709 26.522 11.5709C25.9584 11.6792 25.3515 11.7009 24.7662 11.7009C23.0971 11.6792 21.4064 11.5275 19.759 11.2458C19.5422 11.5059 19.3038 11.7659 19.0437 11.9826C19.3254 12.0693 19.6289 12.156 19.9107 12.221C21.1463 12.5677 22.4035 12.9145 23.6824 12.8711C24.7445 12.8495 25.785 12.5461 26.6954 12.0043C26.6954 12.026 26.7171 12.0693 26.7171 12.091C26.7388 12.1343 26.7388 12.1993 26.7605 12.2427C26.7605 12.2644 26.7821 12.3077 26.7821 12.3294C26.8038 12.3944 26.8038 12.4377 26.8038 12.5027C26.8255 12.7411 26.8255 13.0012 26.7821 13.2395C26.6087 14.1281 26.8688 15.4067 26.7821 16.0351C26.6954 16.6636 26.6737 18.0288 26.8472 19.4158C27.1723 21.7779 25.1781 24.2268 24.6362 24.8119C23.8125 25.7221 23.4873 28.4309 23.5957 29.3411C23.7041 30.2513 22.1217 30.9881 21.4064 31.0531C20.6911 31.1398 17.7214 26.0471 17.678 25.0503C17.6564 24.0534 18.8702 21.7996 18.7619 20.8027C18.6535 19.8059 18.1983 18.3756 16.4858 18.679C14.7734 18.9607 15.2503 21.5829 15.5104 23.0132C15.5754 23.3599 15.5754 23.75 15.5321 24.1401C15.5321 24.1834 15.5321 24.2268 15.5104 24.2918C15.4887 24.3785 15.4887 24.4868 15.467 24.5735C15.467 24.6168 15.4454 24.6818 15.4454 24.7252C15.402 24.9202 15.3587 25.1153 15.337 25.2886C15.3153 25.3753 15.2936 25.462 15.272 25.5487C15.2286 25.7004 15.1853 25.8521 15.1636 25.9821C15.1419 26.0688 15.1202 26.1338 15.0985 26.1988C15.0769 26.2422 15.0769 26.2638 15.0769 26.3072C15.0335 26.4155 15.0118 26.5239 14.9902 26.5889C14.9685 26.6322 14.9685 26.6756 14.9468 26.7189C14.9468 26.7406 14.9251 26.7623 14.9251 26.7839C14.9251 26.8056 14.9035 26.8056 14.9035 26.8273C14.9035 26.8273 14.9035 26.8056 14.9035 26.7839V26.7623C14.9251 26.6106 14.9902 26.2855 15.0118 25.8521C15.0118 25.7654 15.0118 25.7004 15.0335 25.6137C15.0335 25.5704 15.0335 25.527 15.0335 25.4837C15.0335 25.4403 15.0335 25.4187 15.0335 25.3753C15.0335 25.3103 15.0335 25.2453 15.0335 25.1803C15.0335 25.1153 15.0335 25.0503 15.0335 24.9636C15.0335 24.9419 15.0335 24.8986 15.0335 24.8769C15.0335 24.8552 15.0335 24.8119 15.0335 24.7902C14.9685 23.88 14.7517 22.8398 14.0798 22.0597C12.5841 20.3043 9.57106 16.3385 9.57106 16.3385C9.57106 16.3385 8.22713 14.3881 6.51469 13.7163C6.3196 13.6513 6.14619 13.5863 5.9511 13.5429C3.97855 13.1312 0.0767954 14.3881 0.0767954 14.3881C0.0767954 14.3881 -0.335055 11.8093 0.748765 10.1189C0.813795 10.0322 0.878822 9.94556 0.943852 9.8372C1.09559 9.64216 1.31235 9.42545 1.55079 9.20874C2.02767 8.77532 2.63461 8.32023 3.32826 7.86514C3.37161 7.84347 3.41496 7.80013 3.45832 7.77845C5.53925 6.45652 8.40054 5.13459 11.0451 4.61449C14.7517 3.87767 18.0249 4.87454 21.1463 6.65156C21.7749 5.93642 23.7691 3.79099 25.2865 3.07584C27.1506 2.23068 33.9137 -1.19334 39.7013 0.431981C41.4571 0.930414 42.9961 2.14399 44.2967 3.7043Z" transform="translate(63.1565 17.6915)" fill="#F7BC2C"/>
<path d="M44.415 16.47C44.415 18.8538 43.1144 25.1601 36.3297 27.7822C34.2704 28.5841 31.4958 29.1475 28.4828 29.4292C21.5463 30.101 13.3743 29.2992 9.88445 26.3086C5.26737 22.3211 1.62573 17.2935 1.32302e-06 12.6125C0.715323 11.0522 1.45232 9.51357 2.16764 7.95326C2.16764 7.93159 2.18932 7.90992 2.18932 7.88825C2.36273 7.54151 2.55782 7.17311 2.90464 7.02141C3.68499 6.653 4.57372 7.51984 5.37575 7.49817C5.50581 7.49817 5.65754 7.45483 5.7876 7.38982C5.7876 6.47963 5.85263 5.54778 5.98269 4.6376C6.02604 4.3342 6.09107 4.00914 6.32951 3.8141C6.6113 3.55405 7.08818 3.57572 7.41333 3.77076C7.73848 3.9658 7.97692 4.29086 8.21536 4.59425C8.10698 4.03081 7.99859 3.46736 8.0853 2.90392C8.15033 2.34047 8.43212 1.77702 8.93068 1.4953C9.42924 1.21358 10.1446 1.32193 10.4264 1.82037C10.2746 1.47363 10.1446 1.12689 10.1662 0.758486C10.1879 0.390079 10.448 0.0216713 10.8165 3.30673e-07C10.9899 3.30673e-07 11.1417 0.0433424 11.2934 0.108355C11.792 0.303395 12.3122 0.520105 12.8108 0.715144C14.1547 3.44569 15.0434 6.24125 15.4336 7.9966C16.3657 12.0274 22.5218 16.1882 25.7299 16.0149C28.9163 15.8415 33.7718 13.9995 33.9236 11.399C34.097 8.79843 33.36 5.9812 31.7559 5.61279C30.3253 5.28773 29.2848 5.59112 29.2848 5.59112L28.6779 5.65614C28.6779 5.65614 30.3903 3.8141 31.9293 3.61906C33.4684 3.44569 35.3759 4.78929 35.3759 4.78929L35.6794 3.46736C35.6794 3.46736 38.9525 3.18564 40.5132 6.39295C42.0739 9.62193 42.0089 12.2875 42.0089 12.2875C42.0089 12.2875 44.4366 14.0862 44.415 16.47Z" transform="translate(97.6335 25.3619)" fill="#F7BC2C"/>
<path d="M20.2891 0.628459C20.3108 0.86684 20.3108 1.12689 20.2674 1.36527C20.094 2.25379 20.3542 3.53237 20.2674 4.16083C20.1807 4.78929 20.1591 6.15457 20.3325 7.54151C20.6576 9.90365 18.6634 12.3525 18.1215 12.9376C17.2978 13.8478 16.9726 16.5567 17.081 17.4668C17.1894 18.377 15.607 19.1138 14.8917 19.1788C14.1764 19.2655 11.2067 14.1728 11.1634 13.176C11.1417 12.1791 12.3556 9.92532 12.2472 8.92846C12.1388 7.93159 11.6836 6.5013 9.97115 6.8047C8.25871 7.08642 8.73559 9.70861 8.99571 11.1389C9.06074 11.4856 9.06074 11.8757 9.01739 12.2658C9.01739 12.3091 9.01739 12.3525 8.99571 12.4175C8.97403 12.5042 8.97403 12.6125 8.95236 12.6992C8.95236 12.7426 8.93068 12.8076 8.93068 12.8509C8.88733 13.0459 8.84397 13.241 8.8223 13.4144C8.80062 13.501 8.77895 13.5877 8.75727 13.6744C8.71392 13.8261 8.67056 13.9778 8.64889 14.1078C8.62721 14.1945 8.60554 14.2595 8.58386 14.3245C8.56218 14.3679 8.56218 14.3896 8.56218 14.4329C8.51883 14.5412 8.49715 14.6496 8.47548 14.7146C8.4538 14.758 8.4538 14.8013 8.43212 14.8446C8.43212 14.8663 8.41045 14.888 8.41045 14.9097C8.41045 14.9313 8.38877 14.9313 8.38877 14.953C8.38877 14.953 8.38877 14.9313 8.38877 14.9097V14.888C8.41045 14.7363 8.47547 14.4112 8.49715 13.9778C8.49715 13.8911 8.49715 13.8261 8.51883 13.7394C8.51883 13.6961 8.51883 13.6527 8.51883 13.6094C8.51883 13.5661 8.51883 13.5444 8.51883 13.501C8.51883 13.436 8.51883 13.371 8.51883 13.306C8.51883 13.241 8.51883 13.176 8.51883 13.0893C8.51883 13.0676 8.51883 13.0243 8.51883 13.0026C8.51883 12.9809 8.51883 12.9376 8.51883 12.9159C8.4538 12.0057 8.23704 10.9655 7.56507 10.1854C6.0694 8.43002 3.05637 4.46423 3.05637 4.46423C3.05637 4.46423 1.71244 2.51384 -6.61512e-07 1.84204C1.5607 0.866841 3.72834 0.390078 5.20234 0.498433C7.21824 0.650131 9.29918 1.53864 11.2067 0.866841C11.7269 0.671802 12.1821 0.411749 12.5723 0.0650132C12.8541 0.151697 13.1576 0.238381 13.4394 0.303394C14.6749 0.65013 15.9322 0.996866 17.2111 0.953524C18.2732 0.931853 19.3137 0.628459 20.2241 0.0866839C20.2241 0.0650129 20.2024 0.0216713 20.2024 3.30673e-07C20.2024 0.0216713 20.2241 0.0650129 20.2241 0.0866839C20.2241 0.108355 20.2458 0.151697 20.2458 0.173368C20.2674 0.21671 20.2674 0.281723 20.2891 0.325066C20.2891 0.346737 20.3108 0.390078 20.3108 0.411749C20.2891 0.520104 20.2891 0.585117 20.2891 0.628459Z" transform="translate(69.6924 29.5872)" fill="#F5A503"/>
<path d="M15.6504 3.56483C15.2168 3.4348 14.7616 3.32644 14.3281 3.19642C14.4582 3.99825 14.2848 4.84342 13.9163 5.55856C13.5911 6.18702 13.1359 6.72879 12.5506 7.11887C12.1171 4.90843 11.7053 3.17475 11.2284 2.67631C10.4047 1.83114 7.97692 1.7878 6.67633 1.98284C6.63298 1.98284 6.58963 2.00451 6.54628 2.00451C6.50292 2.00451 6.48125 2.02618 6.43789 2.02618C6.22113 2.06953 6.04772 2.11287 5.93934 2.17788C5.48413 2.41626 4.61707 3.84655 4.05349 4.80007C4.6821 5.29851 5.26737 5.81861 5.76592 6.38206C5.80928 6.4254 5.83095 6.46874 5.87431 6.51208C6.02604 6.70712 6.17777 6.90216 6.30783 7.0972C6.35119 7.16221 6.39454 7.22723 6.43789 7.29224C6.43789 7.29224 6.43789 7.29224 6.43789 7.31391C6.48125 7.37892 6.50292 7.44394 6.54628 7.50895C6.6113 7.61731 6.65466 7.70399 6.69801 7.81234C6.71969 7.83401 6.71969 7.87736 6.74136 7.89903C6.74136 7.9207 6.76304 7.94237 6.76304 7.94237C6.19945 8.05073 5.59251 8.0724 5.00725 8.0724C3.33817 8.05072 1.64741 7.89903 6.61511e-07 7.61731C1.40897 5.88362 2.16764 3.30477 3.83672 1.70112C6.06939 -0.422641 9.75438 -0.444312 12.4639 1.00765C13.6995 1.65778 14.74 2.54629 15.6504 3.56483Z" transform="translate(82.9373 21.3203)" fill="#F5A503"/>
<path d="M40.7733 11.0956C40.9684 13.8911 39.4511 16.5783 37.3918 18.4854C37.2617 18.5937 37.1534 18.7021 37.0233 18.8104C35.0291 20.5224 32.623 21.6927 30.2603 22.8412C29.675 23.123 29.0681 23.4264 28.4828 23.7081C21.5464 24.3799 13.3743 23.5781 9.88444 20.5875C5.26736 16.6 1.62573 11.5723 2.64605e-06 6.89138C0.715324 5.33107 1.45232 3.79243 2.16764 2.23211C2.16764 2.21044 2.18931 2.18877 2.18931 2.1671C2.36273 1.82037 2.55782 1.45196 2.90464 1.30026C3.68499 0.931854 4.57372 1.79869 5.37575 1.77702C6.04772 3.38068 6.71969 5.006 7.52171 6.54465C10.0579 11.3556 14.6749 15.6031 20.1157 15.6681C19.4871 14.5412 18.8368 13.4144 18.2082 12.3091C22.0883 13.5444 26.3802 13.4794 30.2169 12.1141C29.8051 11.789 29.3715 11.4856 28.9597 11.1606C31.4091 10.077 33.8802 8.95013 35.8528 7.12976C37.8037 5.3094 39.1693 2.62219 38.7141 3.30673e-07C40.7733 4.24752 39.7545 9.75196 36.308 12.9809C37.7603 12.3308 39.2777 11.7023 40.7733 11.0956Z" transform="translate(97.655 31.1044)" fill="#F5A503"/>
<path d="M0.408105 0.00963123C1.23181 0.378038 2.14222 0.551407 2.85754 1.11485C3.57287 1.69997 4.11477 2.5018 4.5483 3.3253C5.32865 4.77726 5.80553 6.38091 5.82721 8.04958C5.84888 11.6686 3.68124 14.9193 0.213019 16.0679C-0.198833 16.1979 0.0612864 16.3712 0.364756 16.2846C3.76795 15.3961 6.13068 12.4921 6.52086 9.02477C6.71594 7.18274 6.28242 5.40571 5.45871 3.75872C5.02518 2.89188 4.46159 2.04671 3.76795 1.37491C2.83586 0.508065 1.66534 0.356367 0.494816 0.00963123C0.451463 -0.0120398 0.429781 0.00963123 0.408105 0.00963123Z" transform="translate(132.493 28.7538)" fill="#F5A503"/>
<path d="M16.2594 0.0866844C16.6063 3.53238 13.138 6.69634 10.6236 8.53838C7.52384 10.8138 3.96891 12.0924 0.283921 13.0026C0.00212813 13.0676 -0.171278 13.3277 0.26225 13.241C4.03395 12.4608 7.71893 11.0089 10.862 8.73342C13.4198 6.89138 17.1915 3.55405 16.5196 0C16.4979 0.021671 16.2378 0.0650134 16.2594 0.0866844Z" transform="translate(124.381 40.7696)" fill="#F5A503"/>
<path d="M-1.32302e-06 7.16587C1.01879 8.76953 1.66908 10.1781 3.46822 11.0883C5.02893 11.8685 6.87142 12.2369 8.60553 12.3886C11.5318 12.6486 14.6316 12.0635 17.0377 10.3298C19.4437 8.57449 21.0911 5.4972 19.7906 2.54995C18.7284 0.166135 16.0405 -0.592351 13.7862 0.469529C13.3743 0.664568 13.9596 0.664568 14.1113 0.621226C17.0593 -0.375641 19.5738 1.9865 19.6171 4.89041C19.6605 7.57762 17.6663 9.80974 15.4119 11.0233C12.6373 12.5186 9.25583 12.4753 6.24281 11.7818C4.81217 11.4567 3.38152 10.9583 2.23267 10.0264C1.27891 9.24629 0.758677 8.1194 0.0650319 7.1442C0.0650319 7.1442 -1.32302e-06 7.18754 -1.32302e-06 7.16587Z" transform="translate(113.956 28.554)" fill="#F5A503"/>
<path d="M7.23992 3.95246C6.91477 4.58092 6.45957 5.12269 5.87431 5.51277C5.44078 3.30233 5.02893 1.56865 4.55205 1.07022C3.72834 0.225046 1.30059 0.181704 1.32302e-06 0.376743C0.0650306 0.355072 0.108381 0.333401 0.17341 0.31173C1.40897 -0.186703 2.92632 -0.0783481 4.09684 0.571782C5.46246 1.33027 6.43789 2.58719 7.23992 3.95246Z" transform="translate(89.6135 22.9259)" fill="#F19B67"/>
<path d="M37.0233 16.6433C35.0291 18.3553 32.623 19.5256 30.2603 20.6741C29.675 20.9559 29.0681 21.2593 28.4828 21.541C21.5463 22.2128 13.3743 21.411 9.88444 18.4204C5.26736 14.4329 1.62573 9.40522 2.64605e-06 4.72428C0.715324 3.16397 1.45232 1.62533 2.16764 0.0650124C2.16764 0.0433414 2.18931 0.0216713 2.18931 3.30673e-07C4.48701 5.41775 6.69801 10.9222 11.0766 14.7146C15.2385 18.312 20.9611 19.8506 26.4452 19.4822C30.1302 19.2222 33.6851 18.2036 37.0233 16.6433Z" transform="translate(97.655 33.2714)" fill="#F19B67"/>
<path d="M11.8787 4.68094C11.3801 4.4859 10.8599 4.26919 10.3613 4.07415C10.2096 4.00914 10.0579 3.94412 9.88444 3.9658C9.51594 3.98747 9.25583 4.35587 9.23415 4.72428C9.21247 5.09269 9.34253 5.43942 9.49427 5.78616C9.21248 5.28773 8.49715 5.20104 7.99859 5.4611C7.50003 5.74282 7.23992 6.30626 7.15321 6.86971C7.08818 7.43316 7.19657 7.9966 7.28327 8.56005C7.04483 8.25666 6.80639 7.93159 6.48124 7.73655C6.13442 7.54151 5.67922 7.51984 5.39742 7.77989C5.18066 7.97493 5.09396 8.3 5.05061 8.60339C4.92055 9.51357 4.85551 10.4238 4.85551 11.3556C4.72545 11.4206 4.5954 11.4423 4.44366 11.464C3.92343 10.2287 3.40319 8.99347 2.81793 7.80156C2.05926 6.26292 1.12717 4.76762 -1.32302e-06 3.48903C0.325145 3.57572 0.67197 3.68407 1.01879 3.77076C1.30059 3.35901 1.38729 2.8389 1.30058 2.36214C2.21099 2.60052 3.1214 2.81723 4.03181 3.05561C3.96678 2.8389 3.88008 2.64386 3.81505 2.42715C4.66043 2.12376 5.22402 1.21358 5.13731 0.325065C6.30784 0.996866 7.45669 1.66867 8.62721 2.34047C8.8223 1.58198 8.909 0.780156 8.88733 -1.65337e-07C10.0579 1.3436 11.055 2.9906 11.8787 4.68094Z" transform="translate(98.5659 21.4388)" fill="#FFDAAD"/>
<path d="M6.19945 8.34334C5.39743 8.36501 4.50869 7.49817 3.72834 7.86658C3.38152 8.01828 3.18643 8.38668 3.01302 8.73342C2.27602 7.02141 1.53903 5.3094 0.715324 3.68407C0.49856 3.25065 0.260116 2.79556 -1.32302e-06 2.36214C0.368498 1.647 0.541908 0.801828 0.411849 0C0.845377 0.130026 1.27891 0.238381 1.73411 0.368407C2.86128 1.647 3.79337 3.1423 4.55204 4.68094C5.15898 5.87285 5.67922 7.10809 6.19945 8.34334Z" transform="translate(96.8315 24.517)" fill="#F6C863"/>
<path d="M4.33528 6.37128C4.3136 6.39295 4.31361 6.41462 4.31361 6.43629C3.59829 7.9966 2.86129 9.53525 2.14597 11.0956C2.01591 10.7272 1.88585 10.3371 1.79914 9.96867C1.04047 7.30313 0.498555 4.11749 -2.64605e-06 1.56031C0.563584 1.17024 1.04047 0.628459 1.36561 0C1.62573 0.43342 1.86417 0.888511 2.08093 1.32193C2.86128 2.94726 3.61996 4.65927 4.33528 6.37128Z" transform="translate(95.5095 26.9002)" fill="#F4AC6C"/>
<path d="M0.195089 4.76956C2.47111 2.1257 6.67633 -0.56151 10.2746 0.500369C13.461 1.43222 15.6287 4.09776 17.3411 6.78496C21.3513 13.0912 24.7761 19.8743 30.7588 24.5769C33.1649 26.4622 36.3513 28.6727 39.5378 27.5675C40.1447 27.3508 39.7328 26.9824 39.256 27.0907C37.5002 27.4591 35.5927 26.5056 34.1403 25.6171C32.6013 24.6852 31.149 23.5583 29.8267 22.3448C26.662 19.4192 24.1909 15.8001 21.8932 12.181C18.8585 7.41342 15.0868 -0.951589 8.12865 0.0886201C5.00725 0.543711 1.99423 2.45076 2.64605e-06 4.83457C0.0216791 4.76956 0.151736 4.8129 0.195089 4.76956Z" transform="translate(84.324 19.4868)" fill="#F5A503"/>
<path d="M0.0412979 0.130323C2.75085 -0.36811 5.4604 2.57915 6.91271 4.46453C8.99365 7.13006 10.2509 10.4241 11.5081 13.523C12.6786 16.4486 13.7841 19.6126 15.735 22.1047C17.5775 24.4452 20.3304 25.9622 23.2351 26.5473C26.183 27.1324 29.4995 26.5256 31.7105 24.4235C31.9273 24.2285 31.1469 24.3368 31.0386 24.4019C29.5212 25.4637 27.9822 26.2439 26.0963 26.3089C24.4706 26.3739 22.8449 25.9838 21.3275 25.3554C18.3579 24.1201 16.342 21.953 14.8463 19.1358C12.0717 13.8914 10.7278 7.62849 6.50086 3.25095C4.96184 1.62562 2.59911 -0.389781 0.14968 0.0653102C0.128004 0.0869812 -0.0887606 0.151994 0.0412979 0.130323Z" transform="translate(99.0227 18.2317)" fill="#F5A503"/>
<path d="M1.32302e-06 0.17836C1.58238 0.00499188 3.25146 -0.0816922 4.79049 0.438412C6.09107 0.871832 7.13154 1.82536 8.06362 2.82222C9.88444 4.77261 11.2067 7.06974 12.0738 9.58358C13.7428 14.4162 14.5015 19.7039 18.3599 23.4097C18.4249 23.4747 18.7067 23.3013 18.7067 23.323C16.7342 21.1776 15.4553 18.7287 14.5449 15.9765C13.6345 13.2243 13.0275 10.3421 11.8353 7.6982C10.6865 5.16269 8.84397 2.56217 6.48125 1.02353C4.5954 -0.211718 2.27602 -0.0816922 0.108383 0.156689C0.0867069 0.156689 0.0216777 0.17836 1.32302e-06 0.17836Z" transform="translate(95.249 18.1619)" fill="#F5A503"/>
<path d="M-1.32302e-06 0.281723C0.0867043 0.195039 0.173411 0.0866844 0.281793 3.30673e-07C0.195087 0.0866844 0.0867043 0.195039 -1.32302e-06 0.281723Z" transform="translate(64.7505 27.8537)" fill="#FFDAAD"/>
<path d="M7.65177 0.758485C6.74136 1.27859 5.7009 1.58198 4.63875 1.62533C3.35984 1.66867 2.10261 1.30026 0.867058 0.975196C0.585264 0.888512 0.281795 0.801828 1.32302e-06 0.736815C0.260118 0.520105 0.498556 0.260052 0.71532 0C2.36273 0.281723 4.03181 0.43342 5.72257 0.455091C6.30783 0.455091 6.91478 0.43342 7.47836 0.325065C7.52172 0.390078 7.54339 0.476762 7.56507 0.541775C7.58674 0.585117 7.60842 0.628459 7.60842 0.671801C7.6301 0.693472 7.6301 0.715143 7.65177 0.758485Z" transform="translate(82.2434 28.9591)" fill="#F6C863"/>
<path d="M18.62 4.18251C18.6851 4.20418 18.7501 4.20418 18.8368 4.22585C18.62 4.4859 18.3816 4.74595 18.1215 4.96266C17.1677 4.68094 16.1923 4.39922 15.2602 4.05248C13.2226 3.29399 11.0983 2.23211 9.01739 2.79556C9.1908 2.53551 9.34253 2.29713 9.51594 2.03708C7.50003 2.1671 5.50581 2.36214 3.51158 2.64386C3.59828 2.44882 3.68499 2.23211 3.75002 2.03708C2.47111 2.10209 1.1922 2.36214 0 2.86057C0.151735 2.66553 0.3685 2.44882 0.60694 2.23211C1.08382 1.79869 1.69076 1.3436 2.3844 0.888512C2.42776 0.866841 2.47111 0.823498 2.51446 0.801827C3.57661 0.498433 4.6821 0.303394 5.74425 0.130026C5.39742 0.281723 5.44078 0.84517 5.74425 1.08355C6.04772 1.32193 6.48125 1.30026 6.84975 1.27859C8.62721 1.12689 10.383 0.693473 12.0304 3.30673e-07C12.1388 0.888512 12.659 1.71201 13.396 2.18877C14.1547 2.66553 15.1085 2.77389 15.9538 2.4705C16.0839 3.01227 16.4957 3.46736 16.9943 3.72741C17.5145 3.9658 18.0781 4.07415 18.62 4.18251Z" transform="translate(64.1216 24.7112)" fill="#FFDAAD"/>
<path d="M0.0215438 0.0861588C0.0215438 0.0646191 -2.63001e-06 0.0215394 -2.63001e-06 -3.2867e-07C-2.63001e-06 0.0215394 -1.31469e-06 0.0430794 0.0215438 0.0861588Z" transform="translate(89.8735 29.6304)" fill="#FFDAAD"/>
<path d="M0.151735 6.16073C1.82082 2.99676 5.48413 0.807992 8.95236 0.266217C10.8165 -0.0155064 12.3989 0.374572 14.1113 1.08972C15.4119 1.63149 17.0593 2.69337 18.49 2.21661C18.5984 2.17327 18.8802 1.95656 18.5984 1.95656C17.3411 1.91321 16.1056 1.26308 14.9134 0.851334C13.8295 0.482927 12.7457 0.11452 11.6186 0.0278355C10.2096 -0.0805195 8.77895 0.13619 7.43501 0.526269C4.44367 1.41478 1.43064 3.32183 6.61511e-07 6.1824C0.0216771 6.16073 0.130058 6.1824 0.151735 6.16073Z" transform="translate(65.2708 22.9717)" fill="#F5A503"/>
<path d="M0.216764 4.35584C2.34105 2.57882 4.81216 1.1702 7.54339 0.541745C9.16912 0.173338 10.7732 0.108325 12.3989 0.476732C13.4177 0.715113 14.3931 1.10519 15.4336 1.23522C15.542 1.25689 16.1923 1.01851 15.9538 0.931824C13.2226 -0.0217011 10.5347 -0.303424 7.7168 0.368377C4.85552 1.06185 2.23267 2.49214 0 4.39919C0.0216764 4.39919 0.173411 4.39919 0.216764 4.35584Z" transform="translate(67.2649 24.0178)" fill="#F5A503"/>
<path d="M0.151735 4.79059C0.845381 3.79372 1.9292 3.25195 2.96967 2.6885C4.63875 1.82166 6.28616 1.10652 8.12865 0.694768C9.75438 0.348032 11.4451 0.174663 13.0925 0.434716C13.7862 0.543071 14.3715 0.73811 14.935 0.283019C15.2602 0.022967 14.6966 0.00129553 14.5449 0.0446376C13.8946 0.239677 12.7674 -0.0203756 12.0738 0.00129537C11.2934 0.0229664 10.5131 0.131322 9.73271 0.239677C8.38877 0.456387 7.06651 0.781452 5.80928 1.23654C4.66043 1.64829 3.59828 2.21174 2.51446 2.79686C1.5607 3.31696 0.563588 3.83706 1.32302e-06 4.81226C0.0216777 4.79059 0.130059 4.81226 0.151735 4.79059Z" transform="translate(69.6709 25.9453)" fill="#F5A503"/>
<path d="M0.281794 4.09851C2.73123 1.77971 5.74425 0.436105 9.14744 0.392763C10.5131 0.371092 11.6619 0.609473 12.9842 0.912867C13.6561 1.06456 14.6099 1.21626 15.0651 0.566131C15.3035 0.241065 14.5665 0.349421 14.4365 0.392763C13.8946 0.587802 13.2226 0.284407 12.7024 0.176052C12.1388 0.0460263 11.5752 0.0243555 10.9899 0.00268447C9.62432 -0.0189865 8.25871 0.0893687 6.91477 0.371092C4.27025 0.956209 1.9292 2.25647 0 4.16352C0.0216764 4.14185 0.216765 4.14185 0.281794 4.09851Z" transform="translate(69.1072 25.3158)" fill="#F29820"/>
<path d="M12.8594 0.188589C10.6267 -0.0281212 8.5241 -0.223161 6.39981 0.600338C4.10211 1.48885 1.71771 2.7241 0.0269454 4.54446C-0.146466 4.7395 0.568857 4.60948 0.698915 4.50112C2.19459 3.20086 3.75529 2.03062 5.55443 1.14211C6.78999 0.535325 8.11225 0.101904 9.49954 0.0585624C10.54 0.0368914 11.5805 0.145247 12.6209 0.231931C12.7076 0.253602 12.8377 0.188589 12.8594 0.188589Z" transform="translate(67.4546 24.8046)" fill="#F5A503"/>
<path d="M5.65817 0.0250235C4.70441 0.285076 3.88071 0.80518 3.10036 1.43364C1.97319 2.32215 0.390809 3.57907 0.000633547 5.00936C-0.0210429 5.11771 0.520867 5.03103 0.585896 4.901C1.47463 2.8856 3.55557 0.675154 5.70153 0.0250235C5.74488 -0.0183185 5.65817 0.00335252 5.65817 0.0250235Z" transform="translate(64.2947 24.166)" fill="#F5A503"/>
<path d="M5.50795 0.057922C4.25072 0.578026 3.18857 1.40152 2.12643 2.24669C1.28105 2.96184 0.283935 3.78534 0.00214182 4.89056C-0.041211 5.04225 0.587405 4.9339 0.652434 4.7822C1.51949 2.70179 3.66545 0.88142 5.72471 0.0145798C5.87645 -0.0287622 5.5513 0.036251 5.50795 0.057922Z" transform="translate(66.0273 24.654)" fill="#F5A503"/>
<path d="M8.91655 0.0375154C7.44256 -0.157524 5.68677 0.449265 4.32116 0.904356C2.76046 1.40279 1.30814 2.20462 0.0292273 3.24483C-0.144184 3.37485 0.506108 3.28817 0.61449 3.24483C1.56825 2.63804 2.52201 2.00958 3.5408 1.51114C4.97145 0.817672 7.16077 -0.00582626 8.72147 0.1242C8.76482 0.102529 8.8732 0.0375154 8.91655 0.0375154Z" transform="translate(74.2156 26.2128)" fill="#F29820"/>
<path d="M4.8191 0.0216713C2.99828 0.563447 1.45926 1.60366 0.00693934 2.8389C-0.0580899 2.90392 0.353761 2.8389 0.41879 2.77389C1.7844 1.647 3.19337 0.585117 4.90581 0.043342C5.12257 -0.021671 4.92748 3.30996e-07 4.8191 0.0216713Z" transform="translate(76.6008 26.5312)" fill="#F5A503"/>
<path d="M4.61799 0.0306471C4.85643 2.08939 4.40123 4.19148 3.5992 6.07686C2.79717 7.98391 1.32318 9.1108 0.000921276 10.6061C-0.0207551 10.6278 0.347742 10.5844 0.412772 10.5411C3.53417 7.98391 5.4417 4.1048 4.74805 0.00897643C4.76973 -0.0126946 4.61799 0.0089761 4.61799 0.0306471Z" transform="translate(83.3477 35.5597)" fill="#F29820"/>
<path d="M-1.32302e-06 10.408C1.45232 10.7764 2.5795 9.10775 3.20811 8.08921C4.57372 5.83542 5.4191 2.67146 4.79049 0.049263C4.74713 -0.0807631 4.16187 0.0709331 4.16187 0.22263C4.03181 2.34639 4.11852 4.40514 3.4032 6.46388C3.01302 7.59078 1.84249 10.6681 0.23844 10.343C0.151735 10.343 0.0216751 10.4297 -1.32302e-06 10.408Z" transform="translate(81.7661 34.1761)" fill="#F29820"/>
<path d="M1.91216 0C2.41071 1.40862 2.49742 2.90392 2.12892 4.35587C1.82545 5.61279 1.30522 7.23812 0.0263097 7.77989C-0.0820724 7.82324 0.178045 7.77989 0.199722 7.75822C1.34857 7.3248 1.84712 6.11123 2.19395 5.006C2.71418 3.33734 2.6058 1.60366 1.93383 0H1.91216Z" transform="translate(81.9353 36.5438)" fill="#E77726"/>
<path d="M1.82157 0.0650137C1.66983 1.19191 1.6048 2.21044 1.19295 3.27232C0.867806 4.11749 0.390925 4.91932 0.000749476 5.74282C-0.0209269 5.78616 0.434275 5.74282 0.499304 5.63446C1.06289 4.76762 1.56145 3.8141 1.82157 2.79556C2.06001 1.88538 1.9733 0.931854 2.03833 0C2.03833 0.021671 1.82157 0.0216717 1.82157 0.0650137Z" transform="translate(87.0981 36.4353)" fill="#F29820"/>
<path d="M6.61511e-07 3.57572C1.82082 4.03081 3.55493 1.60366 3.59828 6.61347e-07C3.59828 6.61347e-07 3.29481 0.0216703 3.29481 0.0866834C3.1214 1.47363 1.82082 3.87911 0.130057 3.53237C0.0867043 3.53237 0.0216771 3.59739 6.61511e-07 3.57572Z" transform="translate(75.1333 33.4667)" fill="#F29820"/>
<path d="M-1.32302e-06 2.78747C0.585262 3.09086 1.32226 2.72245 1.79914 2.37572C2.53614 1.85561 3.29481 0.923759 3.38152 0.0135767C3.38152 -0.0297653 2.88296 0.0352474 2.86129 0.143602C2.55782 1.16214 1.45232 3.11253 0.173411 2.74412C0.130058 2.72245 0.0216751 2.80914 -1.32302e-06 2.78747Z" transform="translate(75.9136 34.9699)" fill="#F29820"/>
<path d="M27.8759 2.709V7.47663L8.95236 6.21971L0.0650299 5.63459C6.58927e-07 4.26932 0 0.216838 0 0.216838C1.32226 0.065141 2.77458 0.000127984 4.3136 0.000127984C14.3931 -0.021543 27.8759 2.709 27.8759 2.709Z" transform="translate(62.3877 28.9802)" fill="#F08A21"/>
<path d="M30.0001 5.63445C29.8267 6.67466 28.1576 8.62505 24.3643 10.077C20.5709 11.529 19.3354 12.1141 13.3743 17.6185C7.41333 23.123 -1.65378e-07 18.2687 -1.65378e-07 18.2687C-1.65378e-07 18.2687 -3.35924e-07 17.6185 0.0650289 16.8601C0.0867053 16.665 0.130058 16.47 0.216764 16.2749C0.455204 15.6682 0.953762 15.0613 1.23556 14.8446C2.27602 13.9778 6.1561 13.176 7.36998 12.2875C8.58386 11.4206 16.2356 2.92558 16.2356 2.92558C16.2356 2.92558 16.2573 2.88224 16.279 2.79556L17.7747 3.18564C17.7747 3.18564 18.8151 3.92246 20.2458 3.94413C20.8744 3.94413 21.568 3.83576 22.2833 3.44569C23.7357 2.6872 24.7978 1.12688 25.4264 -1.05816e-05C26.7704 1.34359 28.4611 3.5107 29.3499 4.72428C29.7617 5.28773 30.0001 5.63445 30.0001 5.63445Z" transform="translate(35.2485 264.783)" fill="#F2385A"/>
<path d="M30.0001 0.888501C29.8267 1.92871 28.1576 3.8791 24.3643 5.33106C20.5709 6.78302 19.3354 7.36814 13.3743 12.8726C7.41333 18.377 -1.65378e-07 13.5227 -1.65378e-07 13.5227C-1.65378e-07 13.5227 -3.35924e-07 12.8726 0.0650289 12.1141C3.0347 13.6961 6.56795 14.4762 9.71103 13.371C14.068 11.8324 16.6041 7.17311 20.7877 5.17937C22.4784 4.37754 24.3643 4.05247 26.0767 3.27231C27.529 2.60051 28.8946 1.47362 29.3499 -5.29077e-06C29.7617 0.54177 30.0001 0.888501 30.0001 0.888501Z" transform="translate(35.2485 269.529)" fill="#D9D5B9"/>
<path d="M50.7343 -5.29077e-06C50.5826 1.21357 50.3658 2.42716 50.0624 3.64074C48.3716 10.5538 39.8961 17.0984 31.0738 24.2499C24.4408 29.6243 20.4741 33.9368 12.2587 41.3266C5.06214 47.7846 0.878594 51.8371 0.878594 53.159C0.878594 54.4809 6.42775 59.5519 7.18643 63.5611C7.33816 64.3412 7.4899 65.2081 7.61995 66.1399C7.05637 66.2483 6.44943 66.3783 5.84249 66.4867C2.80779 61.9141 -0.552052 57.2765 0.0765639 51.9237C0.575121 47.7196 3.93497 43.472 6.81793 40.3514C11.8035 34.9553 18.0463 30.9462 24.2458 27.0454C30.4669 23.1446 36.7747 19.2655 41.9554 14.0862C44.9034 11.1389 47.4612 7.71488 49.2387 3.92246C49.8456 2.66554 50.3442 1.3436 50.7343 -5.29077e-06Z" transform="translate(72.9109 142.428)" fill="#3C78A3"/>
<path d="M2.57949 0.368407C2.55781 0.693472 2.55782 0.996867 2.53614 1.23525C2.51446 1.56031 2.49279 1.88538 2.42776 2.18877C1.75579 2.18877 0.780349 2.05875 -1.32302e-06 1.99373C0.0867043 1.40862 0.173413 0.715141 0.260118 -2.64539e-06C0.303471 -2.64539e-06 0.368496 0.0216697 0.411849 0.0216697C0.628613 0.0433407 1.71243 0.195039 2.57949 0.368407Z" transform="translate(102.142 81.0344)" fill="#DA3B68"/>
<path d="M9.90774 1.06188C9.82103 1.77702 9.73432 2.4705 9.64762 3.05561C9.12739 2.9906 8.71553 2.96893 8.54212 2.96893C7.02477 3.09896 5.5291 3.48904 4.14181 4.07415C3.42649 4.37755 2.64614 4.74595 1.90915 4.52924C1.02041 4.26919 0.586885 3.29399 0.261739 2.40548C0.0666512 1.88538 -0.128439 1.27859 0.110001 0.780156C0.435147 0.108355 1.32388 -1.32269e-06 2.06088 -1.32269e-06C4.74875 -1.32269e-06 7.28489 0.628457 9.90774 1.06188Z" transform="translate(92.4946 79.9725)" fill="#F4B09A"/>
<path d="M47.8615 23.1902C47.8615 23.1902 46.9294 25.0755 45.6072 27.416C43.7213 30.7317 42.1606 35.1959 39.6678 38.0781C36.8932 41.2638 32.3195 47.7868 29.5233 50.9291C27.0522 53.7029 26.7704 55.6967 26.2935 58.969C26.2068 59.5108 26.0117 60.0092 25.7082 60.4643C24.9929 61.5045 23.6923 63.3899 23.6923 63.3899L23.8874 64.2567C24.0175 64.8635 23.779 65.5136 23.2588 65.8604L22.2183 66.5755C21.7848 66.8789 21.2646 67.0089 20.7443 66.9439C20.5276 66.3371 20.5926 65.5787 20.9177 64.9935C21.5247 63.9317 22.6302 63.2815 23.4105 62.3497C24.6677 60.7894 24.8412 58.6656 25.3831 56.7369C26.055 54.3314 27.3339 52.1643 28.6129 50.0189C33.7285 41.3721 38.8441 32.7254 43.9381 24.0787C40.1447 19.5711 34.2704 17.3823 28.5261 16.0821C22.7819 14.7818 16.8209 14.1967 11.3368 12.0729C7.50004 10.5993 3.98846 8.41053 0.520236 6.24343C1.30059 4.29304 1.10549 2.06092 0.108379 0.240558C0.0650266 0.175545 0.0433502 0.110531 -2.64605e-06 0.0671892C0.195085 0.0238472 0.411854 0.00217551 0.628618 0.00217551C0.671971 0.00217551 0.715319 0.00217551 0.758672 0.00217551C2.03758 -0.0411665 3.25146 0.565625 4.03181 1.56249C4.50869 2.19095 5.07228 2.92776 5.54916 3.59957C10.1662 4.79147 18.4466 7.06693 25.253 9.60244C35.2025 13.3299 45.1303 20.8497 45.1953 20.9147C45.7372 21.4348 47.8615 23.1902 47.8615 23.1902Z" transform="translate(95.4011 63.8257)" fill="#F4B09A"/>
<path d="M7.82518 2.37014C7.15322 1.69834 6.5246 1.26492 6.11275 1.32993C5.02893 1.45996 1.38729 2.65187 0.390175 2.76022C0.23844 2.78189 0.108381 2.73855 -6.61511e-07 2.69521C0.260116 2.63019 0.520235 2.60852 0.736999 2.52184C2.03758 2.11009 3.29481 1.5033 4.44366 0.766484C4.83384 0.506432 5.22401 0.246382 5.67922 0.0946851C6.11275 -0.057012 6.63298 -0.035343 7.02316 0.224709C7.43501 0.528103 7.58674 1.04821 7.7168 1.54664C7.78183 1.80669 7.84686 2.11009 7.82518 2.37014Z" transform="translate(69.9097 55.1512)" fill="#F4B09A"/>
<path d="M4.87719 0.553994C4.85551 0.727362 4.76881 0.900731 4.66043 1.05243C4.46534 1.35582 4.24858 1.61587 3.96678 1.83258C3.94511 1.7459 3.90175 1.68089 3.88008 1.5942C3.68499 1.0741 2.77458 1.26914 1.51735 1.13911C0.368498 1.00908 0.0433522 0.293942 -6.61511e-07 0.185587L0.0216771 0.163915L0.0433515 0.185587C0.563585 0.467311 0.888734 0.814047 1.60406 0.835718C2.38441 0.857389 3.14308 0.575664 3.83672 0.207256C4.09684 0.0555593 4.44366 -0.0961359 4.6821 0.0772323C4.83384 0.185587 4.89887 0.380626 4.87719 0.553994Z" transform="translate(60.697 47.2587)" fill="#F4B09A"/>
<path d="M4.24857 -6.61347e-07C3.83672 0.108354 2.60117 0.520103 0.736997 1.66867C0.455204 1.84203 0.108383 1.51697 6.61511e-07 1.43029C0.346823 0.823499 1.32226 0.585119 1.9292 0.411751C2.68787 0.19504 3.46822 0.108354 4.24857 -6.61347e-07Z" transform="translate(65.054 49.4814)" fill="#F19A90"/>
<path d="M1.65661 1.32269e-06C1.4832 0.736816 1.30979 1.47363 1.13638 2.23211C1.09302 2.44882 1.02799 2.68721 0.941289 2.90392C0.789555 2.9906 0.572791 3.05561 0.399379 2.96893C0.290997 2.92559 0.204291 2.81723 0.117585 2.73055C-0.0558259 2.51384 -0.0341501 2.18877 0.160937 1.99373C0.290996 1.86371 0.464407 1.75535 0.594466 1.647C1.09302 1.12689 1.43984 0.541777 1.65661 1.32269e-06Z" transform="translate(67.3206 51.1934)" fill="#F19A90"/>
<path d="M0 0H0.758674C0.715321 0 0.693645 0.0216707 0.650292 0.0216707C0.433528 -3.30996e-07 0.216764 0 0 0Z" transform="translate(62.7129 28.5255)" fill="#EE7823"/>
<path d="M23.5839 2.70966V7.47728L18.9885 7.17388L16.5174 7.02219L4.66043 6.24203C4.81216 6.13368 4.9639 6.02532 5.09396 5.91697C5.7876 5.37519 6.50292 4.59503 6.39454 3.66318C6.28616 2.753 5.46245 2.16788 4.6821 1.75613C3.18643 0.975975 1.60405 0.390857 6.61511e-07 0.00077868C4.03181 -0.0208923 8.62721 0.412529 12.6807 0.932633C16.6041 1.43107 20.029 2.03785 21.9365 2.38459C22.9987 2.57963 23.5839 2.70966 23.5839 2.70966Z" transform="translate(66.6794 28.9798)" fill="#EC784C"/>
<path d="M9.25583 1.45196C8.8223 3.31567 7.73848 5.006 6.30783 6.24125L3.81505 6.06788C3.4899 4.98433 3.1214 3.92245 2.60117 2.92559C1.97255 1.75535 1.1055 0.693472 -1.32302e-06 0C3.90175 0.498433 7.32663 1.08355 9.25583 1.45196Z" transform="translate(79.3821 29.9342)" fill="#EA5A53"/>
<path d="M29.2848 4.72427C28.8296 6.1979 27.4423 7.34648 26.0117 7.99661C24.2993 8.77677 22.4134 9.10182 20.7226 9.90365C16.5608 11.8974 14.003 16.5567 9.646 18.0953C6.48125 19.2005 2.96967 18.4204 -3.30756e-07 16.8384C0.0216761 16.6433 0.065029 16.4483 0.151735 16.2533C0.867056 13.9995 4.31361 18.5071 11.4668 13.5227C14.3281 11.529 13.2226 10.4021 18.4033 5.17938C18.9885 4.57259 19.4871 4.1825 20.1807 3.94412C20.8093 3.94412 21.503 3.83578 22.2183 3.4457C23.6706 2.68722 24.7328 1.1269 25.3614 5.29077e-06C26.7053 1.34361 28.3961 3.51069 29.2848 4.72427Z" transform="translate(35.3137 264.826)" fill="#DB4367"/>
<path d="M20.8527 17.7919C20.7877 17.8786 20.701 17.9653 20.6359 18.0519C20.5709 18.0086 20.5059 17.9436 20.4409 17.8786C20.5492 17.5752 20.6793 17.2935 20.766 17.0117C21.2646 15.4298 20.3758 13.6744 19.0536 12.6559C17.7313 11.6373 16.0622 11.2039 14.4582 10.8355C12.8324 10.4671 11.1633 10.0987 9.77606 9.21018C8.41044 8.32167 7.41333 6.97806 6.09107 6.02454C4.87719 5.1577 3.14308 4.68094 1.86417 5.41775C1.25723 5.07101 0.606942 4.7893 2.64605e-06 4.57259C0.585266 3.03395 1.62573 0.888509 2.81794 -2.64539e-06C3.01302 0.0216684 3.16475 0.0433367 3.27313 0.0650077C4.35695 0.390073 5.31072 1.08355 6.13442 1.84203C7.3483 2.9906 8.38876 4.33421 9.7327 5.33107C12.2905 7.19478 15.672 7.51984 18.3816 9.18851C19.8122 10.077 21.0478 11.3773 21.6114 12.9809C22.1316 14.5846 21.9365 16.47 20.8527 17.7919Z" transform="translate(195.416 171.294)" fill="#DB4367"/>
<path d="M1.58233 0.0433434C1.32222 0.19504 -0.28184 1.8637 0.0433062 2.03707C0.173365 2.12376 0.758624 2.03707 0.736947 1.82036C0.736947 1.77702 0.823653 1.58199 0.845329 1.51698C0.910358 1.32194 0.997067 1.1269 1.10545 0.931856C1.27886 0.606791 1.47395 0.216709 1.77742 -1.32269e-06C1.75574 -1.32269e-06 1.62569 1.32076e-06 1.58233 0.0433434Z" transform="translate(117.316 127.324)" fill="#E3938F"/>
<path d="M5.26737 0.606788L2.57949 12.5042L2.64605e-06 12.0491L2.90464 -6.61347e-07L5.26737 0.606788Z" transform="translate(109.252 70.2858)" fill="#007EA5"/>
<path d="M16.8254 4.38207L15.1997 10.775C15.0913 11.1651 14.7011 11.4035 14.311 11.2951L0.546437 7.82776C0.156261 7.7194 -0.0821846 7.32933 0.0261975 6.93925L1.65193 0.546298C1.76031 0.15622 2.15049 -0.0821602 2.54066 0.0261949L16.3052 3.49356C16.6737 3.60191 16.9121 3.99199 16.8254 4.38207Z" transform="translate(103.828 70.9962)" fill="#3C89A9"/>
<path d="M7.47661 0H0V13.2224H7.47661V0Z" transform="translate(104.883 78.6707) rotate(-75.8149)" fill="#2A5F6E"/>
<path d="M3.21305 -1.32269e-06L10.4963 1.84203L8.65383 9.10182L0.698588 7.08642C0.0482962 5.91619 -0.168469 4.65927 0.135 3.42402C0.525176 1.88538 1.65235 0.715142 3.21305 -1.32269e-06Z" transform="translate(109.053 72.8212)" fill="#1F4D5A"/>
<path d="M0.390081 0.780339C0.605519 0.780339 0.78017 0.605657 0.78017 0.390172C0.78017 0.174687 0.605519 0 0.390081 0C0.174644 0 0 0.174687 0 0.390172C0 0.605657 0.174644 0.780339 0.390081 0.780339Z" transform="translate(118.656 78.6988) rotate(-75.8149)" fill="#1F4D5A"/>
<path d="M1.14858 2.64601e-06H-2.64543e-06V0.151731H1.14858V2.64601e-06Z" transform="translate(105.073 75.3395) rotate(-75.8149)" fill="#1F4D5A"/>
<path d="M1.23555 0.6718C0.736996 0.541774 0.325149 0.455092 2.64605e-06 0.433421L0.0433515 6.61347e-07C0.390174 0.0216717 0.823702 0.108355 1.34394 0.260052L1.23555 0.6718Z" transform="translate(104.05 71.6077)" fill="#F8F7E1"/>
<path d="M25.4538 75.2418C19.5795 75.2418 13.9436 73.5948 9.54331 70.5608C4.47103 67.0718 0.959451 61.6324 0.157424 55.9762C-0.666279 50.1684 1.89154 44.6856 4.36265 39.3762C4.81785 38.401 5.29473 37.3825 5.72826 36.3856C8.69793 29.6676 12.9032 27.3271 16.6315 25.2684C19.146 23.8598 21.3353 22.6679 22.7876 20.3274C25.9523 15.2564 24.6301 8.86344 23.3512 2.68721C23.1778 1.82037 22.9827 0.931854 22.8309 0.0650137L23.1561 0C23.3295 0.866841 23.5029 1.75535 23.6763 2.62219C24.9552 8.86344 26.2992 15.3214 23.0694 20.5008C21.5737 22.9063 19.2543 24.1848 16.8049 25.5501C13.1416 27.5872 8.97972 29.906 6.05341 36.5157C5.61988 37.5125 5.143 38.5311 4.68779 39.5063C2.23836 44.7723 -0.297781 50.2117 0.525922 55.9329C1.32795 61.5023 4.7745 66.8551 9.78175 70.3008C14.3771 73.4647 20.3165 75.0901 26.4726 74.895C34.146 74.6566 41.2776 71.471 45.5261 66.3566C50.295 60.6138 51.2487 52.2055 47.8022 46.3543C47.347 45.5958 46.8267 44.8373 46.3065 44.1222C45.7212 43.2987 45.0926 42.4535 44.5941 41.5433C43.662 39.8747 42.7082 36.429 43.3585 34.5219C43.9654 32.7882 45.201 32.0081 47.0435 32.1598L47.0218 32.4848C45.3311 32.3331 44.2256 33.0266 43.6837 34.6303C43.0767 36.3856 43.9871 39.7446 44.8975 41.3916C45.3961 42.2801 46.003 43.1253 46.5883 43.9488C47.1085 44.664 47.6504 45.4224 48.1056 46.2026C51.6389 52.1621 50.6635 60.7439 45.8079 66.5734C41.4293 71.8394 34.4061 74.9817 26.5159 75.2201C26.1041 75.2418 25.7789 75.2418 25.4538 75.2418Z" transform="translate(57.0928 39.4693)" fill="#F8F7E1"/>
<path d="M1.21388 0.303392L0.108381 -1.32269e-06L-1.32302e-06 1.30026L0.736999 1.51697L1.21388 0.303392Z" transform="translate(61.0652 78.022)" fill="#F8F7E1"/>
<path d="M1.71632 0.417513C1.67296 -0.0159071 1.17441 -0.0375772 0.719201 0.0274359C0.285673 0.0707779 -0.0394736 0.482527 0.00387925 0.915947C0.0472321 1.34937 0.459085 1.67443 0.892613 1.63109C1.34782 1.58775 1.75967 0.872604 1.71632 0.417513Z" transform="translate(79.2266 38.6619)" fill="#F8F7E1"/>
<path d="M1.23556 2.62219L0.823705 2.73055L6.61512e-07 0.108354L0.736997 -6.61347e-07L1.23556 2.62219Z" transform="translate(79.6858 39.9462)" fill="#F8F7E1"/>
</svg>
