<svg width="294" height="272" viewBox="0 0 223 293" fill="none" xmlns="http://www.w3.org/2000/svg">
<path d="M7.76157 0C6.56749 6.34271 5.3734 7.61125 -5.69386e-07 9.51407C5.3734 11.4169 6.56749 12.6854 7.76157 19.0281C8.95566 12.6854 10.1498 11.4169 15.5231 9.51407C10.7468 7.61125 9.55271 6.34271 7.76157 0Z" transform="translate(199.336 58.9714)" fill="white" fill-opacity="0.6"/>
<path d="M7.76159 0C6.5675 6.34271 5.3734 7.61125 0 9.51407C5.3734 11.4169 6.5675 12.6854 7.76159 19.0281C8.95568 12.6854 10.1497 11.4169 15.5231 9.51407C10.1497 7.61125 8.95568 6.34271 7.76159 0Z" transform="translate(12.7444 29.4857)" fill="white"/>
<path opacity="0.3" d="M5.17439 0C4.37834 4.03627 3.58226 4.84353 0 6.05441C3.58226 7.26529 4.37834 8.07254 5.17439 12.1088C5.97045 8.07254 6.76649 7.26529 10.3488 6.05441C6.76649 4.84353 5.97045 4.03627 5.17439 0Z" transform="translate(126.664)" fill="white"/>
<path d="M5.4211 -2.06244e-06C2.4395 -2.06244e-06 4.13596e-06 2.43295 4.13596e-06 5.40655C4.13596e-06 8.38015 2.4395 10.8131 5.4211 10.8131C8.4027 10.8131 10.8422 8.38015 10.8422 5.40655C10.8422 2.43295 8.4027 -2.06244e-06 5.4211 -2.06244e-06ZM5.4211 8.65048C3.52371 8.65048 2.16843 7.02851 2.16843 5.40655C2.16843 3.78458 3.79477 2.16262 5.4211 2.16262C7.04742 2.16262 8.67374 3.78458 8.67374 5.40655C8.67374 7.02851 7.31848 8.65048 5.4211 8.65048Z" transform="translate(190.818 107.854)" fill="white"/>
<path d="M4.87898 -8.24974e-06C2.16844 -8.24974e-06 2.06798e-06 2.16262 2.06798e-06 4.8659C2.06798e-06 7.56917 2.16844 9.7318 4.87898 9.7318C7.58953 9.7318 9.75796 7.56917 9.75796 4.8659C9.75796 2.16262 7.58953 -8.24974e-06 4.87898 -8.24974e-06ZM4.87898 7.56917C3.25266 7.56917 1.89738 6.21754 1.89738 4.59557C1.89738 2.97361 3.25266 1.62197 4.87898 1.62197C6.50531 1.62197 7.86058 2.97361 7.86058 4.59557C7.86058 6.21754 6.50531 7.56917 4.87898 7.56917Z" transform="translate(42.458 161.657)" fill="white"/>
<path d="M2.16844 4.32524C3.36603 4.32524 4.33687 3.35701 4.33687 2.16263C4.33687 0.968246 3.36603 0 2.16844 0C0.970844 0 4.13596e-06 0.968246 4.13596e-06 2.16263C4.13596e-06 3.35701 0.970844 4.32524 2.16844 4.32524Z" transform="translate(163.549 242.114)" fill="white"/>
<path d="M2.16844 4.32524C3.36603 4.32524 4.33687 3.357 4.33687 2.16262C4.33687 0.968239 3.36603 0 2.16844 0C0.970843 0 -2.06798e-06 0.968239 -2.06798e-06 2.16262C-2.06798e-06 3.357 0.970843 4.32524 2.16844 4.32524Z" transform="translate(67.2168 47.5714)" fill="#FFDB45"/>
<path d="M15.7211 5.15609e-07H5.96323C4.87902 5.15609e-07 4.06582 0.810983 4.06582 1.89229C4.06582 2.9736 4.87902 3.78458 5.96323 3.78458H8.13164C8.40269 3.78458 8.40263 4.05491 8.40263 4.32524C8.40263 4.59557 8.13164 4.8659 8.13164 4.8659H1.89742C0.813197 4.8659 0 5.67688 0 6.75819C0 7.8395 0.813197 8.65048 1.89742 8.65048H7.5895C7.5895 8.65048 7.86065 8.92081 7.86065 9.46146V12.4351H9.21592V9.46146C9.21592 8.65048 8.94474 7.8395 8.40263 7.56917C7.86052 7.29884 7.58956 7.29884 7.31851 7.29884H1.62626C1.35521 7.29884 1.35527 7.02852 1.35527 6.75819C1.35527 6.48786 1.62626 6.21753 1.62626 6.21753H7.86065C8.94487 6.21753 9.7579 5.40655 9.7579 4.32524C9.7579 3.24393 8.94487 2.43295 7.86065 2.43295H5.69208C5.42103 2.43295 5.42109 2.16262 5.42109 1.89229C5.42109 1.62197 5.69208 1.35164 5.69208 1.35164H15.4501C15.7212 1.35164 16.2633 1.08131 16.2633 0.540655C16.5343 0.270328 15.9922 5.15609e-07 15.7211 5.15609e-07Z" transform="translate(54.2058 65.9536)" fill="#CCD9E2"/>
<path d="M20.3292 0H11.6554C5.15007 0 6.61754e-05 5.13622 6.61754e-05 11.6241V37.3052C6.61754e-05 43.7931 5.15007 48.9293 11.6554 48.9293H20.3292C26.8345 48.9293 31.9845 43.7931 31.9845 37.3052V11.6241C31.9845 5.40655 26.8345 0 20.3292 0Z" transform="translate(93.2383 30)" fill="#FCBB83"/>
<path d="M15.7212 0H6.61754e-05V29.1954H15.7212V0Z" transform="translate(109.501 64.0614)" fill="#FCBB83"/>
<path d="M3.30877e-05 1.08131V12.4351C3.30877e-05 15.9493 2.71048 19.1933 6.50524 19.4636V118.403H16.8055V19.4636H19.516V118.403H29.816V19.4636C33.3397 19.1933 36.3213 15.9493 36.3213 12.4351V1.08131V-2.06244e-06H0.271022V1.08131H3.30877e-05Z" transform="translate(99.4722 157.865)" fill="#393584"/>
<path d="M-3.30877e-05 8.38015H24.3949V-4.12487e-06H14.0948L-3.30877e-05 8.38015Z" transform="translate(91.6118 276.268)" fill="#716DCF"/>
<path d="M24.1239 -8.24974e-06H-3.30877e-05V1.35163H24.1239V-8.24974e-06Z" transform="translate(91.6118 284.648)" fill="#4E4A9B"/>
<path d="M-3.30877e-05 -4.12487e-06V8.38015H24.3949L10.3 -4.12487e-06H-3.30877e-05Z" transform="translate(118.717 276.268)" fill="#716DCF"/>
<path d="M24.1239 -8.24974e-06H-3.30877e-05V1.35163H24.1239V-8.24974e-06Z" transform="translate(118.717 284.648)" fill="#4E4A9B"/>
<path d="M1.08419 2.16262C1.68298 2.16262 2.16847 1.6785 2.16847 1.08131C2.16847 0.484118 1.68298 0 1.08419 0C0.485388 0 6.61754e-05 0.484118 6.61754e-05 1.08131C6.61754e-05 1.6785 0.485388 2.16262 1.08419 2.16262Z" transform="translate(97.3042 55.1407)" fill="#303941"/>
<path d="M1.08415 2.16262C1.68295 2.16262 2.16844 1.6785 2.16844 1.08131C2.16844 0.484118 1.68295 0 1.08415 0C0.485355 0 3.30877e-05 0.484118 3.30877e-05 1.08131C3.30877e-05 1.6785 0.485355 2.16262 1.08415 2.16262Z" transform="translate(110.315 55.1407)" fill="#303941"/>
<path d="M20.3292 0H11.6552C8.94467 0 6.23426 1.08131 4.33687 2.70327C3.25266 3.51426 2.43942 4.32524 1.89732 5.40655C0.813098 7.29884 6.61754e-05 9.46146 6.61754e-05 11.6241V16.2197H8.94467C11.9263 15.9493 14.6369 13.7867 15.45 11.0834C16.5343 14.057 19.2447 16.2197 22.4974 16.2197H26.2922V22.9778V25.1405V29.736H27.6475C27.3764 29.1954 27.3765 28.6547 27.3765 28.1141C27.3765 27.0327 27.9187 26.2218 28.4608 25.4108L28.7318 25.1405C29.2739 24.5998 30.0872 24.3295 30.9004 24.3295C31.1714 24.3295 31.4423 24.3295 31.7133 24.3295V15.9493V11.3538C31.9844 5.40655 26.8345 0 20.3292 0Z" transform="translate(93.2383 30)" fill="#953D33"/>
<path d="M0 9.73179C0 12.1647 1.89732 14.057 4.33681 14.057C6.7763 14.057 8.67378 12.1647 8.67378 9.73179V0H0.270988L0 9.73179Z" transform="translate(134.167 177.328)" fill="#EB174F"/>
<path d="M14.637 2.06244e-06H-3.30877e-05V18.9229H14.637V15.4087H20.6002V1.89229H14.637V2.06244e-06ZM17.8897 4.8659V12.7054H14.637V4.8659H17.8897Z" transform="translate(53.6641 76.4962)" fill="#F22534"/>
<path d="M4.33694 -2.06244e-06C1.89745 -2.06244e-06 -3.30877e-05 2.70328 -3.30877e-05 6.21753C-3.30877e-05 9.73179 1.89745 12.4351 4.33694 12.4351C6.77643 12.4351 8.67375 9.73179 8.67375 6.21753C8.13164 2.70328 6.23432 -2.06244e-06 4.33694 -2.06244e-06Z" transform="translate(73.9932 80.8217)" fill="#FCBB83"/>
<path d="M37.4055 3.2999e-05C37.1344 3.2999e-05 36.8636 3.2999e-05 36.5925 3.2999e-05H14.6368C14.3658 3.2999e-05 14.095 3.2999e-05 13.5529 3.2999e-05C6.23439 3.2999e-05 0.000132351 5.94724 0.000132351 13.5164V13.7867V21.3558H7.31847V67.5819H43.3689V21.3558H50.4162V13.7867V13.5164C50.9583 6.21757 44.995 3.2999e-05 37.4055 3.2999e-05Z" transform="translate(91.6118 90.0127)" fill="#F22534"/>
<path d="M18.1607 39.4678C18.1607 42.1711 15.9921 44.3337 13.2815 44.3337C10.571 44.3337 8.40276 42.1711 8.40276 39.4678V6.59979e-05H0.000132351V39.4678C0.000132351 39.4678 0.000132351 39.4678 0.000132351 39.7381C0.271187 47.0369 6.23412 52.7139 13.2815 52.7139C20.329 52.7139 26.5633 46.7666 26.5633 39.7381C26.5633 39.7381 26.5633 39.7381 26.5633 39.4678V18.1119H18.1607V39.4678Z" transform="translate(73.9929 93.2565)" fill="#F7941D"/>
<path d="M3.52378 -6.59979e-05C2.1685 -6.59979e-05 0.813098 0.81095 -6.61754e-05 1.89226H7.04729C5.96307 0.540622 4.87905 -6.59979e-05 3.52378 -6.59979e-05Z" transform="translate(74.8059 82.9843)" fill="#29ABE2"/>
<path d="M9.48698 -2.06244e-06H4.33687C1.89738 -2.06244e-06 6.61754e-05 1.89229 6.61754e-05 4.32524C6.61754e-05 6.75819 1.89738 8.65048 4.33687 8.65048H5.15V12.7054H13.5528V6.21753V3.78459C13.2817 1.62197 11.3844 -2.06244e-06 9.48698 -2.06244e-06Z" transform="translate(68.8433 80.8217)" fill="#FCBB83"/>
<path d="M9.28637 0.28128C8.74426 -0.259375 7.66001 0.0109542 7.38895 0.821937C4.94946 4.60652 1.96792 4.06587 1.69687 4.06587C0.883706 3.79554 0.0704432 4.33619 0.0704432 5.14718C-0.200611 5.95816 0.341564 6.76914 1.15473 6.76914C1.15473 6.76914 1.69684 7.03947 2.51 7.03947C4.13633 7.03947 7.38902 6.49881 9.82851 2.4439C10.3706 1.63292 10.0995 0.821935 9.28637 0.28128Z" transform="translate(103.196 65.9426)" fill="#F8AE72"/>
<path d="M4.60786 -0.000131996L6.61754e-05 7.56917L11.9265 17.3009L24.124 7.56917L19.2449 -0.000131996H4.60786Z" transform="translate(105.436 104.881)" fill="#FFDB45"/>
<path d="M1.89738 1.89216C2.16844 1.62183 2.43956 1.35164 2.98167 1.35164C3.25272 1.35164 3.25259 1.35164 3.52364 1.35164C3.7947 1.35164 3.79463 1.35157 3.79463 1.6219L4.06595 1.89216C4.06595 2.16249 4.06595 2.16269 4.06595 2.43301H5.42122C5.42122 2.16269 5.42096 1.89223 5.14991 1.6219C5.14991 1.35157 4.87898 1.08144 4.60793 0.811115C4.33687 0.540787 4.06569 0.540589 3.79463 0.270262C3.52358 0.270262 3.25279 0 2.71068 0C2.43962 0 1.89745 -6.6002e-05 1.62639 0.270262C1.35534 0.540589 1.08415 0.540787 0.813098 0.811115C0.542043 1.08144 0.271121 1.35151 0.271121 1.89216C0.271121 2.16249 0.000132351 2.70314 0.000132351 3.2438V3.78465C0.000132351 4.32531 6.61795e-05 4.59563 0.271121 5.13629C0.271121 5.40662 0.542043 5.94734 0.813098 6.21767C1.08415 6.48799 1.35534 6.75819 1.62639 6.75819C1.89745 7.02852 2.43962 7.02845 2.71068 7.02845C2.98173 7.02845 3.52358 7.02852 3.79463 6.75819C4.06569 6.75819 4.33687 6.48799 4.60793 6.21767C4.87898 5.94734 4.87885 5.67688 5.14991 5.40655C5.14991 5.13622 5.42122 4.86576 5.42122 4.59544H4.06595C4.06595 4.86576 4.06595 4.86596 4.06595 5.13629C4.06595 5.40662 3.79463 5.40655 3.79463 5.40655L3.52364 5.67681C3.52364 5.67681 3.25272 5.67681 2.98167 5.67681C2.71061 5.67681 2.43936 5.67681 2.43936 5.67681C2.1683 5.67681 2.16837 5.40655 2.16837 5.40655C2.16837 5.40655 1.89738 5.13635 1.89738 4.86603C1.89738 4.5957 1.89738 4.32524 1.89738 4.05491V3.51439C1.35527 2.70341 1.62633 2.16249 1.89738 1.89216Z" transform="translate(111.941 108.395)" fill="#F22534"/>
<path d="M4.06582 -0.000131996H3.25252L2.98153 1.89236H2.16857L2.43956 -0.000131996H1.62626L1.35527 1.89236H0.270988V2.70314H1.35527L1.08428 4.05478H0V4.8659H1.08428L0.813296 6.75806H1.62626L1.89725 4.8659H2.71055L2.43956 6.75806H3.25252L3.52384 4.8659H4.6078V4.05478H3.52384L3.79483 2.70314H4.87912V1.89236H3.79483L4.06582 -0.000131996ZM2.71055 3.78452H1.89725L2.16857 2.43288H2.98153L2.71055 3.78452Z" transform="translate(117.905 108.935)" fill="#F22534"/>
<path d="M8.40263 0H0V65.6896H8.40263V0Z" transform="translate(134.167 111.369)" fill="#F7941D"/>
<path d="M0 9.73179C0 12.1647 1.89732 14.057 4.33681 14.057C6.7763 14.057 8.67378 12.1647 8.67378 9.73179V0H0.270988L0 9.73179Z" transform="translate(134.167 177.328)" fill="#FCBB83"/>
<path d="M4.33694 8.10983C4.06589 8.10983 3.7948 8.38015 3.7948 8.65048C3.7948 9.46146 3.25269 10.0021 2.43952 10.0021C1.62636 10.0021 1.08425 9.46146 1.08425 8.65048V0.540655C1.08425 0.270327 0.813164 0 0.542109 0C0.271055 0 -3.30877e-05 0.270327 -3.30877e-05 0.540655V8.65048C-3.30877e-05 10.0021 1.08425 11.0834 2.43952 11.0834C3.7948 11.0834 4.87892 10.0021 4.87892 8.65048C5.14997 8.38015 4.87905 8.10983 4.33694 8.10983Z" transform="translate(103.809 54.3295)" fill="#F8AE72"/>
<path d="M17.6185 1.03122e-06C15.45 1.03122e-06 13.5527 1.62197 13.2817 3.78459H8.67371C8.40266 1.62197 6.50534 1.03122e-06 4.33691 1.03122e-06C1.89742 1.03122e-06 -6.61754e-05 1.89229 -6.61754e-05 4.32524C-6.61754e-05 6.75819 1.89742 8.65048 4.33691 8.65048C6.50534 8.65048 8.40266 7.02851 8.67371 4.86589H13.2817C13.5527 7.02851 15.45 8.65048 17.6185 8.65048C20.058 8.65048 21.9555 6.75819 21.9555 4.32524C21.9555 1.89229 19.7869 1.03122e-06 17.6185 1.03122e-06ZM4.60789 7.29884C2.98157 7.29884 1.62636 5.94721 1.62636 4.32524C1.62636 2.70327 2.98157 1.35164 4.60789 1.35164C6.23422 1.35164 7.5896 2.70327 7.5896 4.32524C7.5896 5.94721 6.23422 7.29884 4.60789 7.29884ZM17.6185 7.29884C15.9922 7.29884 14.6369 5.94721 14.6369 4.32524C14.6369 2.70327 15.9922 1.35164 17.6185 1.35164C19.2448 1.35164 20.6002 2.70327 20.6002 4.32524C20.6002 5.94721 18.9738 7.29884 17.6185 7.29884Z" transform="translate(93.78 51.8965)" fill="#953D33"/>
<path d="M8.94484 0H6.61754e-05V1.35164H8.94484V0Z" transform="translate(114.923 55.4108)" fill="#953D33"/>
<path d="M4.33691 1.03122e-06C4.06585 1.03122e-06 3.79483 1.03122e-06 3.52378 1.03122e-06C2.71061 1.03122e-06 1.89732 0.270326 1.35521 0.810982C1.08415 0.810982 1.08422 1.08131 1.08422 1.08131C0.271055 1.89229 -6.61754e-05 2.70328 -6.61754e-05 3.78459C-6.61754e-05 4.32524 3.30796e-05 4.8659 0.271088 5.40655C0.813197 6.75819 2.16844 7.56917 3.79476 7.56917C5.9632 7.56917 7.5896 5.94721 7.5896 3.78459C7.31854 1.89229 6.23429 0.270329 4.33691 1.03122e-06Z" transform="translate(120.886 54.5999)" fill="#FCBB83"/>
<path d="M19.5225 41.9008C24.9436 41.9008 29.8226 39.4678 33.0752 35.9536C36.599 32.4393 38.4963 27.5734 38.4963 22.1669C38.4963 20.2746 38.2253 18.3823 37.4121 16.49L49.6096 0L32.2621 8.10983C28.7384 4.8659 23.8594 2.9736 18.7094 2.9736C7.86717 3.24393 -0.264473 12.1647 0.00658186 22.7075C0.277636 33.7909 9.22244 42.1711 19.5225 41.9008Z" transform="translate(0.259766 93.527)" fill="#FFDB45"/>
<path d="M31.7135 -8.24974e-06C25.2082 -8.24974e-06 19.2446 3.24393 15.7209 7.83949L0.000264702 4.0549L11.6551 17.0306C11.384 18.1119 11.3844 19.4636 11.3844 20.5449C11.3844 31.8987 20.6003 41.0898 31.7135 41.0898C42.8268 41.0898 52.0426 31.8987 52.0426 20.5449C52.3137 9.19114 42.8268 -8.24974e-06 31.7135 -8.24974e-06Z" transform="translate(135.794 45.4082)" fill="#FFDB45"/>
<path d="M17.3472 8.92081C17.6183 8.92081 17.8899 8.65051 17.8899 8.10986L17.6185 7.02848C17.6185 6.75816 17.3474 6.48788 16.8053 6.48788H15.45C15.1789 6.48788 14.6367 6.21752 14.6367 5.94719L14.0947 4.8659C13.8237 4.59557 13.8237 4.05493 14.0947 3.7846L14.908 2.70331C15.1791 2.43298 14.9077 2.1626 14.6367 1.89228L13.824 1.35167C13.553 1.08134 13.2818 1.08134 13.0108 1.35167L11.9261 2.43296C11.6551 2.70329 11.3846 2.70331 11.1135 2.70331L10.0289 2.43296C9.75783 2.43296 9.48665 2.1626 9.21559 1.89228L8.94493 0.540639C8.94493 0.270311 8.67375 3.2999e-05 8.13164 3.2999e-05L7.04768 0.270295C6.77663 0.270295 6.50505 0.540655 6.50505 0.810983V2.16262C6.50505 2.43295 6.23412 2.97357 5.96307 2.97357L4.87912 3.51426C4.60806 3.78459 4.06555 3.78459 3.7945 3.51426L2.71055 2.70331C2.43949 2.43298 2.1683 2.70324 1.89725 2.97357L1.35527 3.7846C1.08422 4.05493 1.08422 4.32522 1.35527 4.59555L2.43923 5.40658C2.71028 5.67691 2.71055 5.94721 2.71055 6.21753L2.43923 7.29883C2.43923 7.56915 2.1683 7.83953 1.89725 8.10986L0.541977 8.38012C0.270922 8.38012 0 8.6505 0 9.19115L0.271319 10.2724C0.271319 10.5428 0.542242 10.8131 0.813296 10.8131H2.16857C2.43962 10.8131 2.98187 11.0834 2.98187 11.3537L3.52384 12.435C3.7949 12.7054 3.7949 13.2461 3.52384 13.5164L2.71055 14.5977C2.43949 14.868 2.71081 15.1383 2.98187 15.4087L3.7945 15.9493C4.06555 16.2197 4.33674 16.2197 4.6078 15.9493L5.42109 14.868C5.69215 14.5977 5.96333 14.5977 6.23439 14.5977L7.58966 14.868C7.86072 14.868 8.1319 15.1383 8.40296 15.4087L8.67362 16.7603C8.67362 17.0306 8.9448 17.301 9.48691 17.301L10.5709 17.0306C10.8419 17.0306 11.1135 16.7603 11.1135 16.4899V15.1383C11.1135 14.868 11.3844 14.3274 11.6555 14.3274L12.7394 13.7867C13.0105 13.5163 13.553 13.5163 13.824 13.7867L14.908 14.3274C15.1791 14.5977 15.4502 14.3273 15.7213 14.057L16.2633 13.2461C16.5343 12.9757 16.5343 12.7054 16.2633 12.435L15.1793 11.6241C14.9083 11.3538 14.908 11.0835 14.908 10.8131L15.1793 9.4615C15.1793 9.19117 15.4502 8.92079 15.7213 8.65046L17.3472 8.92081ZM9.48691 12.7054C7.31847 12.9757 5.42083 11.6241 5.14977 9.73176C4.87872 7.56914 6.23426 5.67691 8.13164 5.40658C10.3001 5.13626 12.1977 6.48783 12.4688 8.38012C13.0109 10.5427 11.6553 12.4351 9.48691 12.7054Z" transform="translate(150.43 54.8674)" fill="white"/>
<path d="M9.75823 18.2239C9.48718 18.2239 9.21599 17.9536 8.94493 17.6833L8.67362 16.3317C8.67362 16.0613 8.40269 15.791 8.13164 15.791L6.77637 15.5206C6.50531 15.5206 6.23412 15.5206 5.96307 15.791L5.14977 16.8723C4.87872 17.1426 4.33687 17.1426 4.06582 16.8723L3.25252 16.3317C2.98147 16.0613 2.98187 15.7909 2.98187 15.2503L3.7945 14.169C4.06555 13.8987 3.7945 13.6284 3.7945 13.358L3.25252 12.2767C3.25252 12.0064 2.71028 11.7361 2.43923 11.7361H1.08395C0.812899 11.7361 0.271319 11.4657 0.271319 11.1954L0 10.1141C0 9.84375 0.270922 9.30313 0.541977 9.30313L1.89725 9.03278C2.1683 9.03278 2.43923 8.76242 2.43923 8.49209L2.71055 7.4108C2.71055 7.14047 2.71028 6.87018 2.43923 6.59985L1.35527 5.78882C1.08422 5.51849 1.08422 4.97785 1.35527 4.70753L1.89725 3.89658C2.1683 3.62625 2.16817 3.62623 2.43923 3.62623C2.71028 3.62623 2.71055 3.62623 2.71055 3.62623L3.7945 4.43718C4.06555 4.43718 4.33674 4.43718 4.6078 4.43718L5.69241 3.89658C5.96347 3.89658 6.23439 3.35587 6.23439 3.08554V1.73391C6.23439 1.46358 6.50531 0.922956 6.77637 0.922956L7.86032 0.652612C8.13137 0.652612 8.67362 0.922973 8.67362 1.1933L8.94493 2.54494C8.94493 2.81527 9.21586 3.08554 9.48691 3.08554L10.5709 3.35589H10.8422C11.1132 3.35589 11.3842 3.35587 11.3842 3.08554L12.4688 2.00425C12.7398 1.73392 13.2817 1.73392 13.5527 2.00425L14.366 2.54494C14.6371 2.81527 14.9077 3.08558 14.6367 3.62623L13.824 4.70753C13.553 4.97785 13.824 5.24823 13.824 5.51856L14.366 6.59985C14.366 6.87018 14.9083 7.14046 15.1793 7.14046H16.5346C16.8057 7.14046 17.3472 7.41082 17.3472 7.68114L17.6185 8.76244C17.6185 9.03277 17.3476 9.57347 17.0766 9.57347L15.7213 9.84373C15.4502 9.84373 15.1793 10.1141 15.1793 10.3844L14.908 11.7361C14.908 12.0064 14.9083 12.2767 15.1793 12.547L16.2633 13.358C16.5343 13.6284 16.5343 14.169 16.2633 14.4393L15.7213 15.2503C15.4502 15.5206 15.4504 15.5206 15.1793 15.5206C14.9083 15.5206 14.908 15.5206 14.908 15.5206L13.824 14.98C13.553 14.98 13.2818 14.98 13.0108 14.98L11.9261 15.791C11.6551 15.791 11.3842 16.3316 11.3842 16.6019V17.9536C11.3842 18.2239 11.1132 18.7646 10.8422 18.7646L9.75823 18.2239ZM6.50505 15.2503L8.13164 15.5206C8.40269 15.5206 8.94493 15.791 8.94493 16.3317L9.21559 17.6833C9.21559 17.9536 9.48718 18.2239 9.75823 17.9536L10.8422 17.6833C11.1132 17.6833 11.3842 17.4129 11.3842 17.1426V15.791C11.3842 15.5206 11.6551 14.98 11.9261 14.98L13.0108 14.4393C13.2818 14.169 13.8237 14.169 14.0947 14.4393L15.1793 14.98C15.4504 14.98 15.7209 14.98 15.992 14.7097L16.5346 13.8986C16.8057 13.6283 16.5346 13.358 16.5346 13.0877L15.45 12.2767C15.1789 12.0064 15.1793 11.4657 15.1793 11.1954L15.45 9.84373C15.45 9.5734 15.7212 9.03278 16.2633 9.03278L17.6185 8.76244C17.8896 8.76244 18.1609 8.49216 17.8899 8.22183L17.6185 7.14046C17.6185 6.87013 17.3476 6.59985 17.0766 6.59985H15.7213C15.4502 6.59985 14.908 6.32949 14.908 6.05916L14.366 4.97787C14.095 4.70754 14.095 4.1669 14.366 3.89658L15.1793 2.81528C15.1793 2.54495 15.1791 2.27458 14.908 2.00425L14.0947 1.46364C13.8237 1.19332 13.5525 1.46364 13.2814 1.46364L12.1975 2.54494C11.9264 2.81527 11.6552 2.81528 11.3842 2.81528H11.1135L10.0289 2.54494C9.75783 2.54494 9.21559 2.27456 9.21559 1.73391L8.94493 0.382268C8.94493 0.11194 8.67401 -0.158321 8.40296 0.112006L7.31834 0.382268C7.04729 0.382268 6.77637 0.652628 6.77637 0.922956V2.27459C6.77637 2.54492 6.50544 3.08554 6.23439 3.08554L5.14977 3.62623C4.87872 3.89656 4.33687 3.89656 4.06582 3.62623L2.98187 2.81528C2.71081 2.81528 2.43962 2.81522 2.16857 3.08554L1.62659 3.89658C1.35554 4.1669 1.62659 4.4372 1.62659 4.70753L2.71055 5.51856C2.9816 5.78888 2.98187 6.32952 2.98187 6.59985L2.71055 7.68114C2.71055 7.95147 2.43936 8.49209 1.89725 8.49209L0.541977 8.76244C0.270922 8.76244 0.000264698 9.0328 0.271319 9.30313L0.541977 10.3844C0.541977 10.6547 0.812899 10.9251 1.08395 10.9251H2.43923C2.71028 10.9251 3.25252 11.1954 3.25252 11.4657L3.7945 12.547C4.06555 12.8173 4.06555 13.3581 3.7945 13.6284L2.98187 14.7097C2.98187 14.98 2.98147 15.2503 3.25252 15.5206L4.06582 16.0613C4.33687 16.3316 4.60806 16.0613 4.87912 16.0613L5.69241 14.98C5.96347 15.2503 6.23399 15.2503 6.50505 15.2503ZM8.94493 13.0877C7.04755 13.0877 5.42083 11.736 5.14977 9.84373C4.87872 7.68111 6.23452 5.78888 8.40296 5.51856C8.67401 5.51856 8.94493 5.51856 8.94493 5.51856C10.8423 5.51856 12.4684 6.87015 12.7394 8.76244C13.0105 10.9251 11.6553 12.8174 9.48691 13.0877C9.48691 13.0877 9.21599 13.0877 8.94493 13.0877ZM8.94493 5.51856C8.67388 5.51856 8.67401 5.51856 8.40296 5.51856C6.50558 5.78888 5.15004 7.68118 5.42109 9.57347C5.69215 11.4658 7.31861 12.547 8.94493 12.547C9.21599 12.547 9.21586 12.547 9.48691 12.547C11.3843 12.2767 12.7398 10.3844 12.4688 8.49209C12.1977 6.87013 10.8423 5.51856 8.94493 5.51856Z" transform="translate(150.43 54.7581)" fill="white"/>
<path d="M15.4501 9.73179C15.7212 9.73179 15.9921 9.46143 15.9921 9.1911V8.38015C15.9921 8.10983 15.7212 7.83953 15.4501 7.5692L14.3662 7.29886C14.0951 7.29886 13.8235 7.02848 13.8235 6.48783L13.5529 5.67688C13.5529 5.40655 13.5525 4.86593 13.8235 4.86593L14.6368 4.0549C14.9079 3.78457 14.9079 3.51427 14.6368 3.24395L14.0948 2.70326C13.8238 2.43293 13.5526 2.43291 13.2815 2.43291L12.1976 2.9736C11.9265 3.24393 11.384 2.9736 11.113 2.9736L10.3003 2.43291C10.0293 2.43291 9.7577 1.89229 9.7577 1.62197V0.540672C9.7577 0.270344 9.48678 -1.64995e-05 9.21572 -1.64995e-05H8.40243C8.13137 -1.64995e-05 7.86085 0.270344 7.58979 0.540672L7.31847 1.62197C7.31847 1.89229 7.04729 2.16265 6.50518 2.16265L5.69188 2.43291C5.42083 2.43291 4.87925 2.43298 4.87925 2.16265L4.06595 1.35162C3.7949 1.08129 3.52371 1.08129 3.25266 1.35162L2.71068 1.89231C2.43962 2.16264 2.43936 2.43293 2.43936 2.70326L2.98134 3.51429C3.25239 3.78462 2.98134 4.32526 2.98134 4.59558L2.43936 5.40653C2.43936 5.67686 1.89712 5.94722 1.62606 5.94722H0.542109C0.271055 5.94722 0.000132351 6.2175 0.000132351 6.48783V7.29886C0.000132351 7.56919 0.271055 7.83948 0.542109 8.10981L1.62606 8.38015C1.89712 8.38015 2.1687 8.65045 2.1687 9.1911L2.43936 10.2725C2.43936 10.5428 2.43976 11.0834 2.1687 11.0834L1.35541 11.8944C1.08435 12.1647 1.08435 12.4351 1.35541 12.7054L1.89738 13.246C2.16844 13.5163 2.43962 13.5164 2.71068 13.5164L3.52397 12.9758C3.79503 12.7054 4.33687 12.9758 4.60793 12.9758L5.42122 13.5164C5.69228 13.5164 5.9632 14.0571 5.9632 14.3274V15.4087C5.9632 15.679 6.23412 15.9493 6.50518 15.9493H7.31847C7.58953 15.9493 7.86072 15.679 8.13177 15.4087L8.40243 14.3274C8.40243 14.0571 8.67362 13.7867 9.21572 13.7867L10.3003 13.5164C10.5714 13.5164 11.113 13.5164 11.113 13.7867L11.9263 14.5977C12.1973 14.868 12.4685 14.868 12.7396 14.5977L13.2815 14.057C13.5526 13.7867 13.5529 13.5163 13.5529 13.246L13.0109 12.4351C12.7398 12.1647 13.0109 11.6241 13.0109 11.3538L13.5529 10.5427C13.5529 10.2724 14.0951 10.0021 14.3662 10.0021L15.4501 9.73179ZM8.13177 10.8131C6.23439 10.5428 5.15017 8.92081 5.42122 7.02852C5.69228 5.13622 7.31834 4.05491 9.21572 4.32524C11.1131 4.59557 12.1973 6.21752 11.9263 8.10981C11.3842 10.0021 10.0292 11.0834 8.13177 10.8131Z" transform="translate(163.441 64.8722)" fill="#0165AF"/>
<path d="M0.576345 4.69692C0.30529 2.5343 1.66043 0.641995 3.82887 0.371667C4.64203 0.10134 5.45559 0.3717 6.26876 0.912355C5.45559 0.101373 4.37111 -0.168922 3.28689 0.101406C1.11845 0.371733 -0.236687 2.26396 0.0343678 4.42658C0.305422 5.50789 0.847399 6.5892 1.93162 7.12986C1.11845 6.5892 0.576345 5.77823 0.576345 4.69692Z" transform="translate(155.817 60.175)" fill="#E6E6E6"/>
<path d="M0.583062 4.05491C0.312007 2.16262 1.66728 0.540672 3.29361 0.270344C4.10677 0.270344 4.92007 0.270295 5.46218 0.81095C4.64901 0.270295 3.83585 0 2.75163 0C0.854249 0.270328 -0.22997 1.89228 0.0410849 3.78457C0.312139 4.86588 0.854513 5.67685 1.66768 6.2175C1.39662 5.67685 0.854116 4.8659 0.583062 4.05491Z" transform="translate(168.55 69.1971)" fill="#2C3E50"/>
<path d="M-0.000132351 -8.24974e-06C-0.000132351 0.810974 0.541977 1.35163 1.35514 1.35163C2.1683 1.35163 2.71041 0.810974 2.71041 -8.24974e-06H-0.000132351Z" transform="translate(172.656 60.2764)" fill="url(#paint0_linear)"/>
<path d="M5.42096 3.78458C5.42096 4.32524 4.87872 4.59558 4.60766 4.59558H0.813164C0.271055 4.59558 -0.000132351 4.05491 -0.000132351 3.78458V0.810987C-0.000132351 0.270332 0.542109 -4.12487e-06 0.813164 -4.12487e-06H4.60766C5.14977 -4.12487e-06 5.42096 0.540659 5.42096 0.810987V3.78458Z" transform="translate(171.301 55.9514)" fill="url(#paint1_linear)"/>
<path d="M0.813296 4.05491C0.813296 4.32524 0.542242 4.32524 0.813296 4.05491L0.271319 4.32524C0.000264698 4.32524 0 4.05491 0 4.05491V0.270323C0 -4.1289e-06 0.271319 0 0.271319 0H0.541977C0.813031 0 0.813296 0.270323 0.813296 0.270323V4.05491Z" transform="translate(173.47 36.7581)" fill="#F7941D"/>
<path d="M3.72687 2.90601C3.99792 3.17634 3.99792 3.17635 3.72687 3.44668L3.45621 3.717C3.18516 3.98733 3.18463 3.98733 2.91357 3.717L0.203026 1.01373C-0.0680284 0.743401 -0.0680284 0.743409 0.203026 0.473081L0.474346 0.202737C0.7454 -0.0675901 0.745268 -0.0675901 1.01632 0.202737L3.72687 2.90601Z" transform="translate(164.863 39.7991)" fill="#F7941D"/>
<path d="M4.06595 1.0813C4.33701 1.0813 4.33661 1.35164 4.33661 1.62197V1.89229C4.33661 2.16262 4.06569 2.16262 3.79463 2.16262L0.27079 1.0813C-0.000264698 1.0813 0.000132351 0.810983 0.000132351 0.540655V0.270332C0.000132351 4.1289e-06 0.271055 8.24974e-06 0.542109 8.24974e-06L4.06595 1.0813Z" transform="translate(162.086 47.0308)" fill="#F7941D"/>
<path d="M0.271319 1.0813C0.000264698 1.0813 0 1.35164 0 1.62197V1.89229C0 2.16262 0.270922 2.16262 0.541977 2.16262L4.06582 1.0813C4.33687 1.0813 4.33714 0.810983 4.33714 0.540655V0.270332C4.33714 4.1289e-06 4.06555 8.24974e-06 3.7945 8.24974e-06L0.271319 1.0813Z" transform="translate(181.602 47.0308)" fill="#F7941D"/>
<path d="M0.203026 2.90601C-0.0680284 3.17634 -0.0680284 3.17635 0.203026 3.44668L0.474346 3.717C0.7454 3.98733 0.745268 3.98733 1.01632 3.717L3.72687 1.01373C3.99792 0.743401 3.99792 0.743409 3.72687 0.473081L3.45621 0.202737C3.18516 -0.0675901 3.18463 -0.0675901 2.91357 0.202737L0.203026 2.90601Z" transform="translate(178.416 39.7991)" fill="#F7941D"/>
<path d="M11.3842 5.67688C11.3842 2.43295 8.94507 8.24974e-06 5.69241 8.24974e-06C2.43976 8.24974e-06 0 2.43295 0 5.67688C0 6.75819 0.271187 7.8395 0.813296 8.65048C1.08435 9.19114 2.16857 11.3537 2.16857 11.8944V12.4351C2.16857 13.2461 2.71068 13.7867 3.52384 13.7867H4.06582H7.04768H7.58966C8.40283 13.7867 8.94493 13.2461 8.94493 12.4351C8.94493 12.4351 8.94493 12.4351 8.94493 11.8944C8.94493 11.3537 10.5709 8.10983 10.5709 8.10983C11.384 7.56918 11.3842 6.75819 11.3842 5.67688Z" transform="translate(168.049 42.976)" fill="#F7941D"/>
<path d="M3.25252 1.62196C2.1683 1.89229 1.89765 2.16261 1.62659 3.24392C1.35554 2.16261 1.08422 1.89229 0 1.62196C1.08422 1.35163 1.35554 1.08131 1.62659 0C2.1687 1.08131 2.43936 1.35163 3.25252 1.62196Z" transform="translate(169.404 46.2197)" fill="#E9E9E9"/>
<path d="M14.908 29.7359C23.1415 29.7359 29.816 23.0793 29.816 14.8679C29.816 6.6565 23.1415 -0.000131996 14.908 -0.000131996C6.67454 -0.000131996 0 6.6565 0 14.8679C0 23.0793 6.67454 29.7359 14.908 29.7359Z" transform="translate(13.5481 202.198)" fill="#FFDB45"/>
<path d="M3.79478 1.6221L1.89737 9.73192C1.89737 10.0022 1.89735 10.2724 1.62629 10.2724C1.62629 10.5428 1.62636 10.543 1.35531 10.543C1.35531 10.543 1.08422 10.543 0.813164 10.543C0.271055 10.543 3.30877e-05 10.2722 3.30877e-05 10.0019C3.30877e-05 10.0019 -3.30998e-05 9.73205 0.271022 9.1914L2.16844 1.08157C2.16844 0.540919 2.43951 0.27046 2.43951 0.27046C2.43951 0.000131984 2.71051 -0.000131996 2.98157 -0.000131996C3.25262 -0.000131996 3.52371 0.000131984 3.52371 0.27046C3.52371 0.540787 3.79478 0.540655 3.79478 0.810983C3.79478 0.810983 3.79478 1.08144 3.79478 1.6221Z" transform="translate(26.2881 211.66)" fill="#FFFCF5"/>
<path d="M6.7764 7.68101L0.271022 4.43721C-3.30998e-05 4.43721 3.30877e-05 4.16702 3.30877e-05 3.89669C3.30877e-05 3.62636 0.271022 3.35617 0.271022 3.35617L6.50533 0.111709C6.77638 -0.158618 7.31847 0.111973 7.58953 0.382301C7.86058 0.652628 7.58951 1.19302 7.31846 1.46335L2.43951 4.16662L7.31846 6.8699C7.58951 7.14023 7.86058 7.41095 7.58953 7.9516C7.31847 7.41095 7.04745 7.68101 6.7764 7.68101Z" transform="translate(18.1562 213.441)" fill="#FFFCF5"/>
<path d="M0.654417 8.22167C0.383362 8.22167 0.112274 7.95174 0.112274 7.95174C-0.15878 7.68141 0.112291 7.14036 0.383346 6.87003L5.2623 4.16675L0.383346 1.46348C0.112291 1.19315 -0.15878 0.923088 0.112274 0.382433C0.383329 0.112105 0.654367 -0.158486 1.19648 0.111841L7.43078 3.35564C7.70184 3.35564 7.70177 3.6265 7.70177 3.89682C7.70177 4.16715 7.43078 4.43735 7.43078 4.43735L1.19648 7.68114C0.925422 7.95147 0.925471 8.22167 0.654417 8.22167Z" transform="translate(31.0547 212.9)" fill="#FFFCF5"/>
<path d="M8.94482 24.5997C9.21587 23.7887 9.21586 22.7074 9.48692 21.6261C9.48692 20.5448 9.4869 18.9229 9.21585 17.5712C8.94479 17.0306 8.9448 16.2197 8.67375 15.6791C8.67375 15.4087 8.40268 15.4085 8.40268 15.1382C8.40268 14.8679 8.13165 14.868 8.13165 14.5977L7.86058 14.3274L7.58955 13.7866C7.04744 12.9756 6.50531 12.1646 5.9632 11.0833C5.69215 10.2723 5.4211 9.191 5.4211 8.38002C5.4211 6.48773 5.69216 4.8659 6.23427 3.78459C6.77638 2.43295 7.31847 1.62197 7.86058 1.08131C8.13163 0.810983 8.40268 0.540523 8.40268 0.270196C8.67373 -0.000132004 8.67375 -6.59979e-05 8.67375 -6.59979e-05C3.79476 -6.59979e-05 8.27193e-06 5.67701 8.27193e-06 12.7055C8.27193e-06 19.734 3.79476 25.4108 8.67375 25.4108C8.67375 25.4108 8.67375 25.4109 8.67375 25.1405C8.9448 25.1405 8.94482 24.87 8.94482 24.5997Z" transform="translate(10.2952 103.259)" fill="#953D33"/>
<path d="M0.813164 -6.59979e-05C0.813164 0.540589 0.813147 0.810983 0.542093 1.08131C0.271038 1.89229 0.271046 2.97354 -8.27193e-06 4.05485C-8.27193e-06 5.13616 8.25981e-06 6.75812 0.271063 8.10976C0.542117 8.65041 0.542109 9.4616 0.813164 10.0023C1.08422 10.5429 1.35526 11.0835 1.89737 11.6241L2.43951 12.1647C2.71056 12.435 2.71055 12.7055 2.98161 12.9758C2.98161 13.2461 3.25264 13.5163 3.25264 13.5163C3.25264 13.7866 3.52371 14.0571 3.52371 14.3274C3.79476 15.1384 4.06581 16.2197 4.06581 17.0307C4.06581 18.923 3.79475 20.5448 3.25264 21.6261C2.71053 22.9778 2.16845 23.7888 1.62634 24.3294C1.35528 24.5997 1.08423 24.8702 1.08423 25.1405C0.81318 25.4109 0.813164 25.4108 0.813164 25.4108C5.69215 25.4108 9.4869 19.734 9.4869 12.7055C9.4869 5.67701 5.69215 -6.59979e-05 0.813164 -6.59979e-05Z" transform="translate(18.1555 103.259)" fill="#953D33"/>
<path d="M65.8663 31.3581C56.9215 31.3581 49.0609 35.6833 44.1819 42.4415L-0.000132351 -0.000131996L38.7608 57.3095C38.7608 57.8502 38.7608 58.1205 38.7608 58.6611C38.7608 73.7995 50.9583 85.9642 65.8663 85.9642C81.0453 85.9642 92.9717 73.7995 92.9717 58.6611C92.9717 43.5228 80.7743 31.3581 65.8663 31.3581Z" transform="translate(129.288 117.045)" fill="#FFDB45"/>
<path d="M40.6579 27.3032C40.6579 28.1142 40.1158 28.6549 39.3027 28.6549H1.35501C0.541844 28.6549 -0.000264702 28.1142 -0.000264702 27.3032V1.35151C-0.000264702 0.540523 0.541844 -0.000131996 1.35501 -0.000131996H39.3027C40.1158 -0.000131996 40.6579 0.540523 40.6579 1.35151V27.3032Z" transform="translate(174.554 146.781)" fill="#666666"/>
<path d="M36.0503 22.9779C36.0503 23.2482 35.7793 23.5184 35.5083 23.5184H0.541844C0.27079 23.5184 -0.000132351 23.2482 -0.000132351 22.9779V0.540589C-0.000132351 0.270261 0.27079 6.59979e-05 0.541844 6.59979e-05H35.5083C35.7793 6.59979e-05 36.0503 0.270261 36.0503 0.540589V22.9779Z" transform="translate(176.723 148.674)" fill="white"/>
<path d="M40.6579 17.8416V1.35164C40.6579 0.540655 40.1158 0 39.3027 0H1.35501C0.541844 0 -0.000264702 0.540655 -0.000264702 1.35164V16.7602C4.87872 22.7074 12.4688 26.7625 20.8715 26.7625C28.732 26.7625 35.7789 23.5184 40.6579 17.8416Z" transform="translate(174.554 175.977)" fill="#E6E6E6"/>
<path d="M13.0105 -0.000131996H0.271055C0 -0.000131996 -0.000264702 0.000131984 -0.000264702 0.27046V7.83943C2.16817 8.38009 4.60793 8.65055 7.04742 8.65055C9.21586 8.65055 11.1134 8.38009 13.2818 7.83943L13.0105 -0.000131996C13.2815 -0.000131996 13.2815 -0.000131996 13.0105 -0.000131996Z" transform="translate(188.106 194.089)" fill="#95A5A6"/>
<path d="M36.0503 14.5977C36.0503 14.868 35.7793 15.1382 35.5083 15.1382H0.541844C0.27079 15.1382 -0.000132351 14.868 -0.000132351 14.5977V0.540787C-0.000132351 0.27046 0.27079 -6.59979e-05 0.541844 -6.59979e-05H35.5083C35.7793 -6.59979e-05 36.0503 0.27046 36.0503 0.540787V14.5977Z" transform="translate(176.723 177.599)" fill="#B3B3B3"/>
<path d="M32.2554 0.000131996H31.4421H30.6294H0.27079C0.27079 0.000131996 0.000132351 6.6002e-05 0.000132351 0.270394V1.35177C0.000132351 1.35177 -0.000264698 1.62203 0.27079 1.62203H30.6294H31.4421H32.2554C32.2554 1.62203 32.5267 1.6221 32.5267 1.35177L32.2554 0.000131996C32.5264 0.000131996 32.5264 0.000131996 32.2554 0.000131996Z" transform="translate(178.349 175.437)" fill="#4D4D4D"/>
<path d="M2.16857 1.08144C2.16857 1.35177 2.16857 1.35177 2.16857 1.08144L0.271319 1.3517C0.271319 1.3517 0 1.35177 0 1.08144V0.270328C0 0.270328 0.000264698 6.59979e-05 0.271319 6.59979e-05H2.16857C2.16857 6.59979e-05 2.43923 0 2.43923 0.270328L2.16857 1.08144Z" transform="translate(177.536 178.41)" fill="#4D4D4D"/>
<path d="M2.1683 1.08144C2.1683 1.35177 2.1683 1.35177 2.1683 1.08144L0.271055 1.3517C0.271055 1.3517 -0.000264702 1.35177 -0.000264702 1.08144V0.270328C-0.000264702 0.270328 0 6.59979e-05 0.271055 6.59979e-05H2.1683C2.1683 6.59979e-05 2.43962 0 2.43962 0.270328L2.1683 1.08144Z" transform="translate(179.975 178.41)" fill="#4D4D4D"/>
<path d="M2.1687 1.08144C2.1687 1.35177 2.1687 1.35177 2.1687 1.08144L0.27079 1.3517C0.27079 1.3517 0.000132351 1.35177 0.000132351 1.08144V0.270328C0.000132351 0.270328 -0.000264698 6.59979e-05 0.27079 6.59979e-05H2.1687C2.1687 6.59979e-05 2.43936 0 2.43936 0.270328L2.1687 1.08144Z" transform="translate(182.415 178.41)" fill="#4D4D4D"/>
<path d="M2.1687 1.08144C2.1687 1.35177 1.89765 1.35177 2.1687 1.08144L0.27079 1.3517C0.27079 1.3517 0.000132351 1.35177 0.000132351 1.08144V0.270328C0.000132351 0.270328 -0.000264698 6.59979e-05 0.27079 6.59979e-05H2.1687C2.1687 6.59979e-05 2.43936 0 2.43936 0.270328L2.1687 1.08144Z" transform="translate(185.125 178.41)" fill="#4D4D4D"/>
<path d="M2.16844 1.08144C2.16844 1.35177 2.16844 1.35177 2.16844 1.08144L0.271187 1.3517C0.271187 1.3517 -0.000132351 1.35177 -0.000132351 1.08144V0.270328C-0.000132351 0.270328 0.000132339 6.59979e-05 0.271187 6.59979e-05H2.16844C2.16844 6.59979e-05 2.43976 0 2.43976 0.270328L2.16844 1.08144Z" transform="translate(187.565 178.41)" fill="#4D4D4D"/>
<path d="M2.16817 1.08144C2.16817 1.35177 2.16817 1.35177 2.16817 1.08144L0.270922 1.3517C0.270922 1.3517 0.000264702 1.35177 0.000264702 1.08144V0.270328C0.000264702 0.270328 -0.000132359 6.59979e-05 0.270922 6.59979e-05H2.16817C2.16817 6.59979e-05 2.43949 0 2.43949 0.270328L2.16817 1.08144Z" transform="translate(190.005 178.41)" fill="#4D4D4D"/>
<path d="M2.16857 1.08144C2.16857 1.35177 2.16857 1.35177 2.16857 1.08144L0.271319 1.3517C0.271319 1.3517 0 1.35177 0 1.08144V0.270328C0 0.270328 0.000264698 6.59979e-05 0.271319 6.59979e-05H2.16857C2.16857 6.59979e-05 2.43923 0 2.43923 0.270328L2.16857 1.08144Z" transform="translate(192.444 178.41)" fill="#4D4D4D"/>
<path d="M2.1683 1.08144C2.1683 1.35177 2.1683 1.35177 2.1683 1.08144L0.271055 1.3517C0.271055 1.3517 -0.000264702 1.35177 -0.000264702 1.08144V0.270328C-0.000264702 0.270328 0 6.59979e-05 0.271055 6.59979e-05H2.1683C2.1683 6.59979e-05 2.43962 0 2.43962 0.270328L2.1683 1.08144Z" transform="translate(194.883 178.41)" fill="#4D4D4D"/>
<path d="M2.1683 1.08144C2.1683 1.35177 1.89725 1.35177 2.1683 1.08144L0.271055 1.3517C0.271055 1.3517 -0.000264702 1.35177 -0.000264702 1.08144V0.270328C-0.000264702 0.270328 0 6.59979e-05 0.271055 6.59979e-05H2.1683C2.1683 6.59979e-05 2.43962 0 2.43962 0.270328L2.1683 1.08144Z" transform="translate(197.593 178.41)" fill="#4D4D4D"/>
<path d="M2.1687 1.08144C2.1687 1.35177 2.1687 1.35177 2.1687 1.08144L0.27079 1.3517C0.27079 1.3517 0.000132351 1.35177 0.000132351 1.08144V0.270328C0.000132351 0.270328 -0.000264698 6.59979e-05 0.27079 6.59979e-05H2.1687C2.1687 6.59979e-05 2.43936 0 2.43936 0.270328L2.1687 1.08144Z" transform="translate(200.034 178.41)" fill="#4D4D4D"/>
<path d="M2.16844 1.08144C2.16844 1.35177 2.16844 1.35177 2.16844 1.08144L0.271187 1.3517C0.271187 1.3517 -0.000132351 1.35177 -0.000132351 1.08144V0.270328C-0.000132351 0.270328 0.000132339 6.59979e-05 0.271187 6.59979e-05H2.16844C2.16844 6.59979e-05 2.43976 0 2.43976 0.270328L2.16844 1.08144Z" transform="translate(202.473 178.41)" fill="#4D4D4D"/>
<path d="M2.16857 1.08144C2.16857 1.35177 2.16857 1.35177 2.16857 1.08144L0.271319 1.3517C0.271319 1.3517 0 1.35177 0 1.08144V0.270328C0 0.270328 0.000264698 6.59979e-05 0.271319 6.59979e-05H2.16857C2.16857 6.59979e-05 2.43923 0 2.43923 0.270328L2.16857 1.08144Z" transform="translate(204.641 178.41)" fill="#4D4D4D"/>
<path d="M2.16857 1.08144C2.16857 1.35177 1.89751 1.35177 2.16857 1.08144L0.271319 1.3517C0.271319 1.3517 0 1.35177 0 1.08144V0.270328C0 0.270328 0.000264698 6.59979e-05 0.271319 6.59979e-05H2.16857C2.16857 6.59979e-05 2.43923 0 2.43923 0.270328L2.16857 1.08144Z" transform="translate(207.352 178.41)" fill="#4D4D4D"/>
<path d="M2.1683 1.08144C2.1683 1.35177 2.1683 1.35177 2.1683 1.08144L0.271055 1.3517C0.271055 1.3517 -0.000264702 1.35177 -0.000264702 1.08144V0.270328C-0.000264702 0.270328 0 6.59979e-05 0.271055 6.59979e-05H2.1683C2.1683 6.59979e-05 2.43962 0 2.43962 0.270328L2.1683 1.08144Z" transform="translate(209.791 178.41)" fill="#4D4D4D"/>
<path d="M2.16857 1.89216C2.16857 2.16249 1.89751 2.16249 2.16857 1.89216L0.271319 2.16275C0.271319 2.16275 0 2.16249 0 1.89216V0.270262C0 0.270262 0.000264698 0 0.271319 0H1.89725C1.89725 0 2.16857 -6.6002e-05 2.16857 0.270262V1.89216Z" transform="translate(177.536 180.032)" fill="#4D4D4D"/>
<path d="M2.16844 1.89216C2.16844 2.16249 2.16844 2.16249 2.16844 1.89216L0.271187 2.16275C0.271187 2.16275 -0.000132351 2.16249 -0.000132351 1.89216V0.270262C-0.000132351 0.270262 0.000132339 0 0.271187 0H1.89712C1.89712 0 2.16844 -6.6002e-05 2.16844 0.270262V1.89216Z" transform="translate(205.183 180.032)" fill="#4D4D4D"/>
<path d="M2.1683 1.89216C2.1683 2.16249 2.1683 2.16249 2.1683 1.89216L0.271055 2.16275C0.271055 2.16275 -0.000264702 2.16249 -0.000264702 1.89216V0.270262C-0.000264702 0.270262 0 0 0.271055 0H1.89765C1.89765 0 2.1683 -6.6002e-05 2.1683 0.270262V1.89216Z" transform="translate(203.015 180.032)" fill="#4D4D4D"/>
<path d="M2.16817 1.89216C2.16817 2.16249 1.89712 2.16249 2.16817 1.89216L0.270922 2.16275C0.270922 2.16275 0.000264702 2.16249 0.000264702 1.89216V0.270262C0.000264702 0.270262 -0.000132359 0 0.270922 0H1.89751C1.89751 0 2.16817 -6.6002e-05 2.16817 0.270262V1.89216Z" transform="translate(200.847 180.032)" fill="#4D4D4D"/>
<path d="M2.16844 1.89216C2.16844 2.16249 2.16844 2.16249 2.16844 1.89216L0.271187 2.16275C0.271187 2.16275 -0.000132351 2.16249 -0.000132351 1.89216V0.270262C-0.000132351 0.270262 0.000132339 0 0.271187 0H1.89712C1.89712 0 2.16844 -6.6002e-05 2.16844 0.270262V1.89216Z" transform="translate(198.407 180.032)" fill="#4D4D4D"/>
<path d="M2.1687 1.89216C2.1687 2.16249 2.1687 2.16249 2.1687 1.89216L0.27079 2.16275C0.27079 2.16275 0.000132351 2.16249 0.000132351 1.89216V0.270262C0.000132351 0.270262 -0.000264698 0 0.27079 0H1.89738C1.89738 0 2.1687 -6.6002e-05 2.1687 0.270262V1.89216Z" transform="translate(195.968 180.032)" fill="#4D4D4D"/>
<path d="M2.16857 1.89216C2.16857 2.16249 2.16857 2.16249 2.16857 1.89216L0.271319 2.16275C0.271319 2.16275 0 2.16249 0 1.89216V0.270262C0 0.270262 0.000264698 0 0.271319 0H1.89725C1.89725 0 2.16857 -6.6002e-05 2.16857 0.270262V1.89216Z" transform="translate(193.799 180.032)" fill="#4D4D4D"/>
<path d="M2.16817 1.89216C2.16817 2.16249 2.16817 2.16249 2.16817 1.89216L0.270922 2.16275C0.270922 2.16275 0.000264702 2.16249 0.000264702 1.89216V0.270262C0.000264702 0.270262 -0.000132359 0 0.270922 0H1.89751C1.89751 0 2.16817 -6.6002e-05 2.16817 0.270262V1.89216Z" transform="translate(191.36 180.032)" fill="#4D4D4D"/>
<path d="M2.1687 1.89216C2.1687 2.16249 1.89765 2.16249 2.1687 1.89216L0.27079 2.16275C0.27079 2.16275 0.000132351 2.16249 0.000132351 1.89216V0.270262C0.000132351 0.270262 -0.000264698 0 0.27079 0H1.89738C1.89738 0 2.1687 -6.6002e-05 2.1687 0.270262V1.89216Z" transform="translate(189.191 180.032)" fill="#4D4D4D"/>
<path d="M2.1683 1.89216C2.1683 2.16249 2.1683 2.16249 2.1683 1.89216L0.271055 2.16275C0.271055 2.16275 -0.000264702 2.16249 -0.000264702 1.89216V0.270262C-0.000264702 0.270262 0 0 0.271055 0H1.89765C1.89765 0 2.1683 -6.6002e-05 2.1683 0.270262V1.89216Z" transform="translate(186.751 180.032)" fill="#4D4D4D"/>
<path d="M2.16857 1.89216C2.16857 2.16249 2.16857 2.16249 2.16857 1.89216L0.271319 2.16275C0.271319 2.16275 0 2.16249 0 1.89216V0.270262C0 0.270262 0.000264698 0 0.271319 0H1.89725C1.89725 0 2.16857 -6.6002e-05 2.16857 0.270262V1.89216Z" transform="translate(184.312 180.032)" fill="#4D4D4D"/>
<path d="M2.16844 1.89216C2.16844 2.16249 1.89738 2.16249 2.16844 1.89216L0.271187 2.16275C0.271187 2.16275 -0.000132351 2.16249 -0.000132351 1.89216V0.270262C-0.000132351 0.270262 0.000132339 0 0.271187 0H1.89712C1.89712 0 2.16844 -6.6002e-05 2.16844 0.270262V1.89216Z" transform="translate(182.144 180.032)" fill="#4D4D4D"/>
<path d="M2.1687 1.89216C2.1687 2.16249 2.1687 2.16249 2.1687 1.89216L0.27079 2.16275C0.27079 2.16275 0.000132351 2.16249 0.000132351 1.89216V0.270262C0.000132351 0.270262 -0.000264698 0 0.27079 0H1.89738C1.89738 0 2.1687 -6.6002e-05 2.1687 0.270262V1.89216Z" transform="translate(179.704 180.032)" fill="#4D4D4D"/>
<path d="M2.16844 1.89223L0.271187 2.16249C0.271187 2.16249 -0.000132351 2.16255 -0.000132351 1.89223V0.270328C-0.000132351 0.270328 0.000132339 6.59979e-05 0.271187 6.59979e-05H1.89712C1.89712 6.59979e-05 2.16844 0 2.16844 0.270328V1.89223Z" transform="translate(180.788 182.465)" fill="#4D4D4D"/>
<path d="M2.16817 1.89223L0.270922 2.16249C0.270922 2.16249 0.000264702 2.16255 0.000264702 1.89223V0.270328C0.000264702 0.270328 -0.000132359 6.59979e-05 0.270922 6.59979e-05H1.89751C1.89751 6.59979e-05 2.16817 0 2.16817 0.270328V1.89223Z" transform="translate(206.268 182.465)" fill="#4D4D4D"/>
<path d="M2.1687 1.89223L0.27079 2.16249C0.27079 2.16249 0.000132351 2.16255 0.000132351 1.89223V0.270328C0.000132351 0.270328 -0.000264698 6.59979e-05 0.27079 6.59979e-05H1.89738C1.89738 6.59979e-05 2.1687 0 2.1687 0.270328V1.89223Z" transform="translate(204.099 182.465)" fill="#4D4D4D"/>
<path d="M2.16857 1.89223C2.16857 1.89223 1.89751 1.89223 2.16857 1.89223L0.271319 2.16249C0.271319 2.16249 0 2.16255 0 1.89223V0.270328C0 0.270328 0.000264698 6.59979e-05 0.271319 6.59979e-05H1.89725C1.89725 6.59979e-05 2.16857 0 2.16857 0.270328V1.89223Z" transform="translate(201.931 182.465)" fill="#4D4D4D"/>
<path d="M2.16817 1.89223L0.270922 2.16249C0.270922 2.16249 0.000264702 2.16255 0.000264702 1.89223V0.270328C0.000264702 0.270328 -0.000132359 6.59979e-05 0.270922 6.59979e-05H1.89751C1.89751 6.59979e-05 2.16817 0 2.16817 0.270328V1.89223Z" transform="translate(199.492 182.465)" fill="#4D4D4D"/>
<path d="M2.16844 1.89223L0.271187 2.16249C0.271187 2.16249 -0.000132351 2.16255 -0.000132351 1.89223V0.270328C-0.000132351 0.270328 0.000132339 6.59979e-05 0.271187 6.59979e-05H1.89712C1.89712 6.59979e-05 2.16844 0 2.16844 0.270328V1.89223Z" transform="translate(197.052 182.465)" fill="#4D4D4D"/>
<path d="M2.1683 1.89223L0.271055 2.16249C0.271055 2.16249 -0.000264702 2.16255 -0.000264702 1.89223V0.270328C-0.000264702 0.270328 0 6.59979e-05 0.271055 6.59979e-05H1.89765C1.89765 6.59979e-05 2.1683 0 2.1683 0.270328V1.89223Z" transform="translate(194.883 182.465)" fill="#4D4D4D"/>
<path d="M2.16857 1.89223L0.271319 2.16249C0.271319 2.16249 0 2.16255 0 1.89223V0.270328C0 0.270328 0.000264698 6.59979e-05 0.271319 6.59979e-05H1.89725C1.89725 6.59979e-05 2.16857 0 2.16857 0.270328V1.89223Z" transform="translate(192.444 182.465)" fill="#4D4D4D"/>
<path d="M2.16844 1.89223C2.16844 1.89223 1.89738 1.89223 2.16844 1.89223L0.271187 2.16249C0.271187 2.16249 -0.000132351 2.16255 -0.000132351 1.89223V0.270328C-0.000132351 0.270328 0.000132339 6.59979e-05 0.271187 6.59979e-05H1.89712C1.89712 6.59979e-05 2.16844 0 2.16844 0.270328V1.89223Z" transform="translate(190.275 182.465)" fill="#4D4D4D"/>
<path d="M2.1687 1.89223L0.27079 2.16249C0.27079 2.16249 0.000132351 2.16255 0.000132351 1.89223V0.270328C0.000132351 0.270328 -0.000264698 6.59979e-05 0.27079 6.59979e-05H1.89738C1.89738 6.59979e-05 2.1687 0 2.1687 0.270328V1.89223Z" transform="translate(187.836 182.465)" fill="#4D4D4D"/>
<path d="M2.1683 1.89223L0.271055 2.16249C0.271055 2.16249 -0.000264702 2.16255 -0.000264702 1.89223V0.270328C-0.000264702 0.270328 0 6.59979e-05 0.271055 6.59979e-05H1.89765C1.89765 6.59979e-05 2.1683 0 2.1683 0.270328V1.89223Z" transform="translate(185.396 182.465)" fill="#4D4D4D"/>
<path d="M2.16817 1.89223L0.270922 2.16249C0.270922 2.16249 0.000264702 2.16255 0.000264702 1.89223V0.270328C0.000264702 0.270328 -0.000132359 6.59979e-05 0.270922 6.59979e-05H1.89751C1.89751 6.59979e-05 2.16817 0 2.16817 0.270328V1.89223Z" transform="translate(183.228 182.465)" fill="#4D4D4D"/>
<path d="M2.16817 1.89229C2.16817 1.89229 2.16817 2.16262 2.16817 1.89229L0.270922 2.16255C0.270922 2.16255 0.000264702 2.16262 0.000264702 1.89229V0.270394C0.000264702 0.270394 -0.000132359 0.000131996 0.270922 0.000131996H1.89751C1.89751 0.000131996 2.16817 6.6002e-05 2.16817 0.270394V1.89229Z" transform="translate(181.873 184.898)" fill="#4D4D4D"/>
<path d="M2.16857 1.89229C2.16857 1.89229 2.16857 2.16262 2.16857 1.89229L0.271319 2.16255C0.271319 2.16255 0 2.16262 0 1.89229V0.270394C0 0.270394 0.000264698 0.000131996 0.271319 0.000131996H1.89725C1.89725 0.000131996 2.16857 6.6002e-05 2.16857 0.270394V1.89229Z" transform="translate(207.352 184.898)" fill="#4D4D4D"/>
<path d="M2.16844 1.89229C2.16844 1.89229 1.89738 2.16262 2.16844 1.89229L0.271187 2.16255C0.271187 2.16255 -0.000132351 2.16262 -0.000132351 1.89229V0.270394C-0.000132351 0.270394 0.000132339 0.000131996 0.271187 0.000131996H1.89712C1.89712 0.000131996 2.16844 6.6002e-05 2.16844 0.270394V1.89229Z" transform="translate(205.183 184.898)" fill="#4D4D4D"/>
<path d="M2.1683 1.89229C2.1683 1.89229 2.1683 2.16262 2.1683 1.89229L0.271055 2.16255C0.271055 2.16255 -0.000264702 2.16262 -0.000264702 1.89229V0.270394C-0.000264702 0.270394 0 0.000131996 0.271055 0.000131996H1.89765C1.89765 0.000131996 2.1683 6.6002e-05 2.1683 0.270394V1.89229Z" transform="translate(203.015 184.898)" fill="#4D4D4D"/>
<path d="M2.16857 1.89229C2.16857 1.89229 2.16857 2.16262 2.16857 1.89229L0.271319 2.16255C0.271319 2.16255 0 2.16262 0 1.89229V0.270394C0 0.270394 0.000264698 0.000131996 0.271319 0.000131996H1.89725C1.89725 0.000131996 2.16857 6.6002e-05 2.16857 0.270394V1.89229Z" transform="translate(200.576 184.898)" fill="#4D4D4D"/>
<path d="M2.16844 1.89229C2.16844 1.89229 1.89738 2.16262 2.16844 1.89229L0.271187 2.16255C0.271187 2.16255 -0.000132351 2.16262 -0.000132351 1.89229V0.270394C-0.000132351 0.270394 0.000132339 0.000131996 0.271187 0.000131996H1.89712C1.89712 0.000131996 2.16844 6.6002e-05 2.16844 0.270394V1.89229Z" transform="translate(198.407 184.898)" fill="#4D4D4D"/>
<path d="M2.1687 1.89229C2.1687 1.89229 2.1687 2.16262 2.1687 1.89229L0.27079 2.16255C0.27079 2.16255 0.000132351 2.16262 0.000132351 1.89229V0.270394C0.000132351 0.270394 -0.000264698 0.000131996 0.27079 0.000131996H1.89738C1.89738 0.000131996 2.1687 6.6002e-05 2.1687 0.270394V1.89229Z" transform="translate(195.968 184.898)" fill="#4D4D4D"/>
<path d="M2.16857 1.89229C2.16857 1.89229 1.89751 2.16262 2.16857 1.89229L0.271319 2.16255C0.271319 2.16255 0 2.16262 0 1.89229V0.270394C0 0.270394 0.000264698 0.000131996 0.271319 0.000131996H1.89725C1.89725 0.000131996 2.16857 6.6002e-05 2.16857 0.270394V1.89229Z" transform="translate(193.799 184.898)" fill="#4D4D4D"/>
<path d="M2.16817 1.89229C2.16817 1.89229 2.16817 2.16262 2.16817 1.89229L0.270922 2.16255C0.270922 2.16255 0.000264702 2.16262 0.000264702 1.89229V0.270394C0.000264702 0.270394 -0.000132359 0.000131996 0.270922 0.000131996H1.89751C1.89751 0.000131996 2.16817 6.6002e-05 2.16817 0.270394V1.89229Z" transform="translate(191.36 184.898)" fill="#4D4D4D"/>
<path d="M2.16844 1.89229C2.16844 1.89229 2.16844 2.16262 2.16844 1.89229L0.271187 2.16255C0.271187 2.16255 -0.000132351 2.16262 -0.000132351 1.89229V0.270394C-0.000132351 0.270394 0.000132339 0.000131996 0.271187 0.000131996H1.89712C1.89712 0.000131996 2.16844 6.6002e-05 2.16844 0.270394V1.89229Z" transform="translate(188.92 184.898)" fill="#4D4D4D"/>
<path d="M2.1683 1.89229C2.1683 1.89229 1.89725 2.16262 2.1683 1.89229L0.271055 2.16255C0.271055 2.16255 -0.000264702 2.16262 -0.000264702 1.89229V0.270394C-0.000264702 0.270394 0 0.000131996 0.271055 0.000131996H1.89765C1.89765 0.000131996 2.1683 6.6002e-05 2.1683 0.270394V1.89229Z" transform="translate(186.751 184.898)" fill="#4D4D4D"/>
<path d="M2.16857 1.89229C2.16857 1.89229 2.16857 2.16262 2.16857 1.89229L0.271319 2.16255C0.271319 2.16255 0 2.16262 0 1.89229V0.270394C0 0.270394 0.000264698 0.000131996 0.271319 0.000131996H1.89725C1.89725 0.000131996 2.16857 6.6002e-05 2.16857 0.270394V1.89229Z" transform="translate(184.312 184.898)" fill="#4D4D4D"/>
<path d="M2.1683 1.89236L0.271055 2.16262C0.271055 2.16262 -0.000264702 2.16269 -0.000264702 1.89236V0.27046C-0.000264702 0.27046 0 -0.000131996 0.271055 -0.000131996H1.89765C1.89765 -0.000131996 2.1683 0.000131984 2.1683 0.27046V1.89236Z" transform="translate(182.685 187.33)" fill="#4D4D4D"/>
<path d="M5.96307 1.89236C5.96307 1.89236 5.69201 1.89236 5.96307 1.89236L0.271319 2.16262C0.271319 2.16262 0 2.16269 0 1.89236V0.27046C0 0.27046 0.000264698 -0.000131996 0.271319 -0.000131996H5.69241C5.69241 -0.000131996 5.96307 0.000131984 5.96307 0.27046V1.89236Z" transform="translate(205.996 187.33)" fill="#4D4D4D"/>
<path d="M2.1687 1.89236L0.27079 2.16262C0.27079 2.16262 0.000132351 2.16269 0.000132351 1.89236V0.27046C0.000132351 0.27046 -0.000264698 -0.000131996 0.27079 -0.000131996H1.89738C1.89738 -0.000131996 2.1687 0.000131984 2.1687 0.27046V1.89236Z" transform="translate(201.389 187.33)" fill="#4D4D4D"/>
<path d="M2.16844 1.89236L0.271187 2.16262C0.271187 2.16262 -0.000132351 2.16269 -0.000132351 1.89236V0.27046C-0.000132351 0.27046 0.000132339 -0.000131996 0.271187 -0.000131996H1.89712C1.89712 -0.000131996 2.16844 0.000131984 2.16844 0.27046V1.89236Z" transform="translate(203.828 187.33)" fill="#4D4D4D"/>
<path d="M2.16857 1.89236C2.16857 1.89236 1.89751 1.89236 2.16857 1.89236L0.271319 2.16262C0.271319 2.16262 0 2.16269 0 1.89236V0.27046C0 0.27046 0.000264698 -0.000131996 0.271319 -0.000131996H1.89725C1.89725 -0.000131996 2.16857 0.000131984 2.16857 0.27046V1.89236Z" transform="translate(199.22 187.33)" fill="#4D4D4D"/>
<path d="M2.16817 1.89236L0.270922 2.16262C0.270922 2.16262 0.000264702 2.16269 0.000264702 1.89236V0.27046C0.000264702 0.27046 -0.000132359 -0.000131996 0.270922 -0.000131996H1.89751C1.89751 -0.000131996 2.16817 0.000131984 2.16817 0.27046V1.89236Z" transform="translate(196.781 187.33)" fill="#4D4D4D"/>
<path d="M2.1687 1.89236C2.1687 1.89236 1.89765 1.89236 2.1687 1.89236L0.27079 2.16262C0.27079 2.16262 0.000132351 2.16269 0.000132351 1.89236V0.27046C0.000132351 0.27046 -0.000264698 -0.000131996 0.27079 -0.000131996H1.89738C1.89738 -0.000131996 2.1687 0.000131984 2.1687 0.27046V1.89236Z" transform="translate(194.612 187.33)" fill="#4D4D4D"/>
<path d="M2.1683 0.811115C2.1683 0.811115 1.89725 1.08144 2.1683 0.811115L0.271055 1.08138C0.271055 1.08138 -0.000264702 1.08144 -0.000264702 0.811115V0.270262C-0.000264702 0.270262 0 0 0.271055 0H1.89765C1.89765 0 2.1683 -6.6002e-05 2.1683 0.270262V0.811115Z" transform="translate(209.791 190.845)" fill="#4D4D4D"/>
<path d="M2.16857 0.811115C2.16857 0.811115 2.16857 1.08144 2.16857 0.811115L0.271319 1.08138C0.271319 1.08138 0 1.08144 0 0.811115V0.270262C0 0.270262 0.000264698 0 0.271319 0H1.89725C1.89725 0 2.16857 -6.6002e-05 2.16857 0.270262V0.811115Z" transform="translate(207.352 190.845)" fill="#4D4D4D"/>
<path d="M2.16857 0.811049L0.271319 1.08131C0.271319 1.08131 0 1.08138 0 0.811049V0.270196C0 0.270196 0.000264698 -6.59979e-05 0.271319 -6.59979e-05H1.89725C1.89725 -6.59979e-05 2.16857 -0.000132004 2.16857 0.270196V0.811049Z" transform="translate(207.352 189.764)" fill="#4D4D4D"/>
<path d="M2.16817 0.811115C2.16817 0.811115 2.16817 1.08144 2.16817 0.811115L0.270922 1.08138C0.270922 1.08138 0.000264702 1.08144 0.000264702 0.811115V0.270262C0.000264702 0.270262 -0.000132359 0 0.270922 0H1.89751C1.89751 0 2.16817 -6.6002e-05 2.16817 0.270262V0.811115Z" transform="translate(204.913 190.845)" fill="#4D4D4D"/>
<path d="M2.1683 1.89242C2.1683 1.89242 1.89725 2.16275 2.1683 1.89242L0.271055 2.16269C0.271055 2.16269 -0.000264702 2.16275 -0.000264702 1.89242V0.270196C-0.000264702 0.270196 0 -6.59979e-05 0.271055 -6.59979e-05H1.89765C1.89765 -6.59979e-05 2.1683 -0.000132004 2.1683 0.270196V1.89242Z" transform="translate(203.015 189.764)" fill="#4D4D4D"/>
<path d="M2.16857 1.89242C2.16857 1.89242 2.16857 2.16275 2.16857 1.89242L0.271319 2.16269C0.271319 2.16269 0 2.16275 0 1.89242V0.270196C0 0.270196 0.000264698 -6.59979e-05 0.271319 -6.59979e-05H1.89725C1.89725 -6.59979e-05 2.16857 -0.000132004 2.16857 0.270196V1.89242Z" transform="translate(200.576 189.764)" fill="#4D4D4D"/>
<path d="M2.1683 1.89236L0.271055 2.16262C0.271055 2.16262 -0.000264702 2.16269 -0.000264702 1.89236V0.27046C-0.000264702 0.27046 0 -0.000131996 0.271055 -0.000131996H1.89765C1.89765 -0.000131996 2.1683 0.000131984 2.1683 0.27046V1.89236Z" transform="translate(192.173 187.33)" fill="#4D4D4D"/>
<path d="M2.16857 1.89236L0.271319 2.16262C0.271319 2.16262 0 2.16269 0 1.89236V0.27046C0 0.27046 0.000264698 -0.000131996 0.271319 -0.000131996H1.89725C1.89725 -0.000131996 2.16857 0.000131984 2.16857 0.27046V1.89236Z" transform="translate(189.733 187.33)" fill="#4D4D4D"/>
<path d="M2.16844 1.89236C2.16844 1.89236 1.89738 1.89236 2.16844 1.89236L0.271187 2.16262C0.271187 2.16262 -0.000132351 2.16269 -0.000132351 1.89236V0.27046C-0.000132351 0.27046 0.000132339 -0.000131996 0.271187 -0.000131996H1.89712C1.89712 -0.000131996 2.16844 0.000131984 2.16844 0.27046V1.89236Z" transform="translate(187.565 187.33)" fill="#4D4D4D"/>
<path d="M2.1687 1.89236L0.27079 2.16262C0.27079 2.16262 0.000132351 2.16269 0.000132351 1.89236V0.27046C0.000132351 0.27046 -0.000264698 -0.000131996 0.27079 -0.000131996H1.89738C1.89738 -0.000131996 2.1687 0.000131984 2.1687 0.27046V1.89236Z" transform="translate(185.125 187.33)" fill="#4D4D4D"/>
<path d="M2.16857 1.89242C2.16857 1.89242 2.16857 2.16275 2.16857 1.89242L0.271319 2.16269C0.271319 2.16269 0 2.16275 0 1.89242V0.270196C0 0.270196 0.000264698 -6.59979e-05 0.271319 -6.59979e-05H1.89725C1.89725 -6.59979e-05 2.16857 -0.000132004 2.16857 0.270196V1.89242Z" transform="translate(177.536 189.764)" fill="#4D4D4D"/>
<path d="M2.16817 1.89242C2.16817 1.89242 1.89712 2.16275 2.16817 1.89242L0.270922 2.16269C0.270922 2.16269 0.000264702 2.16275 0.000264702 1.89242V0.270196C0.000264702 0.270196 -0.000132359 -6.59979e-05 0.270922 -6.59979e-05H1.89751C1.89751 -6.59979e-05 2.16817 -0.000132004 2.16817 0.270196V1.89242Z" transform="translate(184.584 189.764)" fill="#4D4D4D"/>
<path d="M13.5525 1.89242C13.5525 1.89242 13.5525 2.16275 13.5525 1.89242L0.271055 2.16269C0.271055 2.16269 -0.000264702 2.16275 -0.000264702 1.89242V0.270196C-0.000264702 0.270196 0 -6.59979e-05 0.271055 -6.59979e-05H13.2818C13.2818 -6.59979e-05 13.5525 -0.000132004 13.5525 0.270196V1.89242Z" transform="translate(186.751 189.764)" fill="#4D4D4D"/>
<path d="M2.16844 1.89242C2.16844 1.89242 2.16844 2.16275 2.16844 1.89242L0.271187 2.16269C0.271187 2.16269 -0.000132351 2.16275 -0.000132351 1.89242V0.270196C-0.000132351 0.270196 0.000132339 -6.59979e-05 0.271187 -6.59979e-05H1.89712C1.89712 -6.59979e-05 2.16844 -0.000132004 2.16844 0.270196V1.89242Z" transform="translate(182.144 189.764)" fill="#4D4D4D"/>
<path d="M2.1687 1.89242C2.1687 1.89242 2.1687 2.16275 2.1687 1.89242L0.27079 2.16269C0.27079 2.16269 0.000132351 2.16275 0.000132351 1.89242V0.270196C0.000132351 0.270196 -0.000264698 -6.59979e-05 0.27079 -6.59979e-05H1.89738C1.89738 -6.59979e-05 2.1687 -0.000132004 2.1687 0.270196V1.89242Z" transform="translate(179.704 189.764)" fill="#4D4D4D"/>
<path d="M4.33674 1.89216C4.33674 2.16249 4.33674 2.16249 4.33674 1.89216L0.270922 2.16275C0.270922 2.16275 0.000264702 2.16249 0.000264702 1.89216V0.270262C0.000264702 0.270262 -0.000132359 0 0.270922 0H4.33674C4.33674 0 4.60806 -6.6002e-05 4.60806 0.270262L4.33674 1.89216Z" transform="translate(207.623 180.032)" fill="#4D4D4D"/>
<path d="M3.25292 1.89223L0.271055 2.16249C0.271055 2.16249 -0.000264702 2.16255 -0.000264702 1.89223V0.270328C-0.000264702 0.270328 0 6.59979e-05 0.271055 6.59979e-05H2.9816C2.9816 6.59979e-05 3.25292 0 3.25292 0.270328V1.89223Z" transform="translate(177.265 182.465)" fill="#4D4D4D"/>
<path d="M4.33714 1.89229C4.33714 1.89229 4.33714 2.16262 4.33714 1.89229L0.271319 2.16255C0.271319 2.16255 0 2.16262 0 1.89229V0.270394C0 0.270394 0.000264698 0.000131996 0.271319 0.000131996H4.06582C4.06582 0.000131996 4.33714 6.6002e-05 4.33714 0.270394V1.89229Z" transform="translate(177.536 184.898)" fill="#4D4D4D"/>
<path d="M5.14977 1.89236L0.271319 2.16262C0.271319 2.16262 0 2.16269 0 1.89236V0.27046C0 0.27046 0.000264698 -0.000131996 0.271319 -0.000131996H4.87912C4.87912 -0.000131996 5.14977 0.000131984 5.14977 0.27046V1.89236Z" transform="translate(177.536 187.33)" fill="#4D4D4D"/>
<path d="M3.25252 0.270328C3.25252 0 3.25252 0 3.25252 0.270328L0.271319 6.59979e-05C0.271319 6.59979e-05 0 0 0 0.270328V1.89223C0 1.89223 0.000264698 2.16249 0.271319 2.16249H1.35527V4.5955C1.35527 4.5955 1.35554 4.86576 1.62659 4.86576H3.25252C3.25252 4.86576 3.52384 4.86583 3.52384 4.5955V2.16249L3.25252 0.270328Z" transform="translate(208.707 182.465)" fill="#4D4D4D"/>
<path d="M36.0503 0H-0.000132351V23.2481H36.0503V0Z" transform="translate(176.723 148.944)" fill="white"/>
<path d="M36.0503 0H-0.000132351V2.16275H36.0503V0Z" transform="translate(176.723 148.944)" fill="#DDDDDD"/>
<path d="M11.3842 6.59979e-05H0V0.810851H11.3842V6.59979e-05Z" transform="translate(178.891 152.729)" fill="#CCCCCC"/>
<path d="M6.77623 -0.000131996H-0.000132351V0.810983H6.77623V-0.000131996Z" transform="translate(179.433 154.891)" fill="#95CC1B"/>
<path d="M4.06608 -0.000131996H0.000264702V0.810983H4.06608V-0.000131996Z" transform="translate(187.294 154.891)" fill="#B3B3B3"/>
<path d="M4.87872 -0.000131996H0.000264702V0.810983H4.87872V-0.000131996Z" transform="translate(192.716 154.891)" fill="#B3B3B3"/>
<path d="M6.7765 -0.000131996H0.000132351V0.810983H6.7765V-0.000131996Z" transform="translate(198.678 154.891)" fill="#EE6C24"/>
<path d="M5.1503 0H-0.000132351V0.811115H5.1503V0Z" transform="translate(179.433 161.109)" fill="#95CC1B"/>
<path d="M7.31834 0H0V0.811115H7.31834V0Z" transform="translate(185.667 161.109)" fill="#B3B3B3"/>
<path d="M5.42136 0H0.000264702V0.811115H5.42136V0Z" transform="translate(194.071 161.109)" fill="#0165AF"/>
<path d="M3.7945 0H0V0.811115H3.7945V0Z" transform="translate(180.247 157.054)" fill="#95CC1B"/>
<path d="M5.96347 0H-0.000264702V0.811115H5.96347V0Z" transform="translate(185.396 157.054)" fill="#B3B3B3"/>
<path d="M3.7945 0H0V0.811115H3.7945V0Z" transform="translate(192.444 157.054)" fill="#95CC1B"/>
<path d="M3.7945 0.000131996H0V0.810917H3.7945V0.000131996Z" transform="translate(180.247 163.272)" fill="#EE6C24"/>
<path d="M5.96347 0.000131996H-0.000264702V0.810917H5.96347V0.000131996Z" transform="translate(185.396 163.272)" fill="#B3B3B3"/>
<path d="M6.50505 0.000131996H0V0.810917H6.50505V0.000131996Z" transform="translate(192.444 163.272)" fill="#B3B3B3"/>
<path d="M5.69215 0.000131996H-0.000264702V0.810917H5.69215V0.000131996Z" transform="translate(200.304 163.272)" fill="#95CC1B"/>
<path d="M3.7945 -0.000131996H0V0.810983H3.7945V-0.000131996Z" transform="translate(180.247 169.759)" fill="#0165AF"/>
<path d="M5.96347 -0.000131996H-0.000264702V0.810983H5.96347V-0.000131996Z" transform="translate(185.396 169.759)" fill="#B3B3B3"/>
<path d="M6.50505 -0.000131996H0V0.810983H6.50505V-0.000131996Z" transform="translate(192.444 169.759)" fill="#B3B3B3"/>
<path d="M5.69215 -0.000131996H-0.000264702V0.810983H5.69215V-0.000131996Z" transform="translate(200.304 169.759)" fill="#95CC1B"/>
<path d="M3.79476 -6.59979e-05H0.000264702V0.811049H3.79476V-6.59979e-05Z" transform="translate(181.873 165.434)" fill="#95CC1B"/>
<path d="M5.96307 -6.59979e-05H0V0.811049H5.96307V-6.59979e-05Z" transform="translate(187.023 165.434)" fill="#B3B3B3"/>
<path d="M2.16817 -6.59979e-05H0.000264702V0.811049H2.16817V-6.59979e-05Z" transform="translate(194.071 165.434)" fill="#B3B3B3"/>
<path d="M3.79463 -6.59979e-05H0.000132351V0.811049H3.79463V-6.59979e-05Z" transform="translate(197.323 165.434)" fill="#0165AF"/>
<path d="M5.69241 -0.000263992H0V0.810851H5.69241V-0.000263992Z" transform="translate(182.957 167.596)" fill="#EE6C24"/>
<path d="M8.1319 -0.000263992H0.000264702V0.810851H8.1319V-0.000263992Z" transform="translate(190.005 167.596)" fill="#B3B3B3"/>
<path d="M3.7945 -0.000263992H0V0.810851H3.7945V-0.000263992Z" transform="translate(199.22 167.596)" fill="#95CC1B"/>
<path d="M4.6078 -0.000131996H0V0.810983H4.6078V-0.000131996Z" transform="translate(180.247 158.946)" fill="#0165AF"/>
<path d="M7.04729 -0.000131996H0.000264702V0.810983H7.04729V-0.000131996Z" transform="translate(185.939 158.946)" fill="#B3B3B3"/>
<path d="M4.06608 -0.000131996H0.000264702V0.810983H4.06608V-0.000131996Z" transform="translate(194.071 158.946)" fill="#95CC1B"/>
<path d="M3.25279 -0.000131996H0.000264702V0.810983H3.25279V-0.000131996Z" transform="translate(177.808 149.485)" fill="#B3B3B3"/>
<path d="M3.25252 -0.000131996H0V0.810983H3.25252V-0.000131996Z" transform="translate(181.602 149.485)" fill="#B3B3B3"/>
<path d="M3.25292 -0.000131996H-0.000264702V0.810983H3.25292V-0.000131996Z" transform="translate(185.396 149.485)" fill="#B3B3B3"/>
<path d="M3.25292 -0.000131996H-0.000264702V0.810983H3.25292V-0.000131996Z" transform="translate(189.462 149.485)" fill="#B3B3B3"/>
<path d="M3.25266 -0.000131996H0.000132351V0.810983H3.25266V-0.000131996Z" transform="translate(193.258 149.485)" fill="#B3B3B3"/>
<path d="M4.13596e-06 -1.03122e-06V0.540656V0.810985C4.13596e-06 0.810985 1.89738 4.8659 7.86058 4.8659C11.9264 4.8659 15.7212 2.9736 15.9922 0.810985V-1.03122e-06H4.13596e-06Z" transform="translate(109.501 89.2019)" fill="#FCBB83"/>
<rect width="97" height="8" rx="4" transform="translate(66.2598 285)" fill="#504B97"/>
<defs>
<linearGradient id="paint0_linear" x2="1" gradientUnits="userSpaceOnUse" gradientTransform="translate(-0.22999 1.40078) scale(2.91519 1.33093) rotate(-90)">
<stop stop-color="#2C3E50"/>
<stop offset="1" stop-color="#374D63"/>
</linearGradient>
<linearGradient id="paint1_linear" x2="1" gradientUnits="userSpaceOnUse" gradientTransform="translate(-0.0205324 4.729) scale(5.73321 4.72933) rotate(-90)">
<stop stop-color="#ACADAC"/>
<stop offset="1" stop-color="#AAABA9"/>
</linearGradient>
</defs>
</svg>
