<svg width="294" height="272" viewBox="0 0 294 272" fill="none" xmlns="http://www.w3.org/2000/svg">
<path d="M7.77929 0C6.58248 6.34271 5.38566 7.61125 -5.70686e-07 9.51407C5.38566 11.4169 6.58248 12.6854 7.77929 19.0281C8.97611 12.6854 10.1729 11.4169 15.5586 9.51407C10.7713 7.61125 9.57452 6.34271 7.77929 0Z" transform="translate(143.096 8.64941)" fill="white" fill-opacity="0.6"/>
<path d="M7.77931 0C6.5825 6.34271 5.38566 7.61125 0 9.51407C5.38566 11.4169 6.5825 12.6854 7.77931 19.0281C8.97613 12.6854 10.1729 11.4169 15.5586 9.51407C10.1729 7.61125 8.97613 6.34271 7.77931 0Z" transform="translate(278.417 62.9029)" fill="white"/>
<path opacity="0.3" d="M5.18621 0C4.38833 4.03627 3.59044 4.84352 0 6.05441C3.59044 7.26529 4.38833 8.07254 5.18621 12.1088C5.98408 8.07254 6.78194 7.26529 10.3724 6.05441C6.78194 4.84352 5.98408 4.03627 5.18621 0Z" transform="translate(243.363)" fill="white"/>
<path d="M11.0916 11.8445C11.4197 14.5328 11.9732 16.5742 11.9322 18.3125C11.9322 18.3125 10.3535 22.4359 10.0255 22.0518C9.38993 21.3242 9.61545 18.6561 9.61545 18.6561C9.61545 18.6561 9.61545 18.6359 9.61545 18.5753C9.57445 17.9891 9.14392 13.9062 5.47405 7.96373C4.9615 7.15523 2.8908 5.94249 1.00108e-05 4.28506C0.123022 4.12336 0.266522 3.96166 0.369032 3.79996C0.410036 3.73932 0.471557 3.67868 0.512561 3.61804C0.533064 3.57761 0.574048 3.53719 0.59455 3.49677C0.656056 3.39571 0.717567 3.31485 0.779073 3.21379C0.799575 3.17336 0.840584 3.13294 0.861086 3.09252C0.881588 3.05209 0.922598 3.01167 0.9431 2.97125C1.00461 2.87019 1.0661 2.78933 1.1071 2.68827C1.16861 2.58721 1.20962 2.50635 1.27113 2.40529C1.33263 2.30423 1.37363 2.22337 1.41463 2.12231C1.45564 2.04146 1.49666 1.98083 1.53766 1.89998C1.55817 1.87976 1.55816 1.85954 1.57866 1.83933C1.64016 1.69784 1.70168 1.57657 1.76318 1.43508C1.78368 1.37444 1.82469 1.3138 1.8452 1.23295C2.00921 0.828703 2.15272 0.404245 2.27573 -4.93469e-06C4.75648 2.34465 6.27363 3.86058 6.27363 3.86058C6.9707 3.5776 7.56527 3.47655 8.09832 3.51698C9.9025 3.63825 10.7636 5.23504 10.7636 5.23504L16.4222 9.58073L10.8866 7.31694C10.8456 9.01479 10.9481 10.5105 11.0916 11.8445Z" transform="translate(225.915 249.172)" fill="#FFD596"/>
<path d="M98.1639 41.8803C92.7923 50.4504 70.4861 87.0148 67.6158 85.6C64.5405 84.084 55.8681 72.7852 50.4966 64.9832C45.125 57.1812 37.3138 38.424 37.3138 38.424C34.382 44.2048 25.4021 57.6259 15.8481 72.0576C10.6816 79.8596 9.57446 83.8415 9.57446 83.8415C9.57446 83.8415 17.1397 82.4266 23.6184 83.5383C31.4502 84.8925 50.6811 103.043 59.0459 111.007C58.9229 111.432 58.7794 111.836 58.6154 112.24C58.5949 112.301 58.5539 112.361 58.5334 112.442C58.4719 112.584 58.4104 112.705 58.3489 112.846C58.3284 112.867 58.3284 112.887 58.3079 112.907C58.2669 112.988 58.2258 113.049 58.1848 113.129C58.1438 113.23 58.0823 113.332 58.0413 113.412C58.0003 113.513 57.9388 113.594 57.8773 113.695C57.8158 113.796 57.7748 113.877 57.7133 113.978C57.6928 114.019 57.6723 114.059 57.6313 114.1C57.6108 114.14 57.5903 114.18 57.5493 114.221C57.4878 114.322 57.4263 114.403 57.3648 114.504C57.3443 114.544 57.3033 114.585 57.2828 114.625C57.2418 114.686 57.2007 114.746 57.1392 114.807C57.0162 114.969 56.8932 115.13 56.7702 115.292C41.2912 106.5 5.00539e-06 87.3382 5.00539e-06 87.3382C5.00539e-06 87.3382 6.58117 46.1047 10.1485 34.6038C11.7477 29.4698 15.028 23.3454 18.1443 18.1306C22.0192 11.6626 25.6891 6.6297 25.6891 6.6297C26.0171 6.54885 33.4799 4.44676 39.897 2.62763C44.8175 1.23297 49.1434 4.93469e-06 49.1434 4.93469e-06C49.1434 4.93469e-06 50.8656 2.00104 53.1413 5.05313C55.4171 8.10522 58.2463 12.2084 60.4401 16.3519C61.9162 19.1615 63.1054 22.0114 63.6384 24.5784C64.8275 30.3188 62.8798 49.0153 64.848 61.3045C66.3652 70.7842 68.4154 74.948 68.4154 74.948C68.4154 74.948 69.0714 63.3864 74.9965 56.8174C79.589 51.744 89.0814 43.1133 94.576 38.2219C94.822 38.3836 95.068 38.5453 95.2936 38.707C95.3961 38.7676 95.4781 38.8484 95.5601 38.9091C95.6421 38.9697 95.7241 39.0303 95.8061 39.091C95.8676 39.1516 95.9496 39.2123 96.0111 39.2729C96.1137 39.3538 96.1957 39.4346 96.2777 39.5155C96.3392 39.5761 96.4007 39.6367 96.4622 39.6974C96.5442 39.7782 96.6262 39.8591 96.7082 39.9399C96.7492 39.9803 96.8107 40.041 96.8517 40.1016C96.9543 40.2229 97.0568 40.3442 97.1593 40.4452C97.2413 40.5463 97.3233 40.6473 97.4258 40.7686C97.4873 40.8495 97.5488 40.9303 97.6103 41.0314C97.6718 41.1122 97.7333 41.2133 97.7948 41.2942C97.9383 41.5367 98.0613 41.6984 98.1639 41.8803Z" transform="translate(169.145 138.166)" fill="#696153"/>
<path d="M22.4908 7.37757C22.0192 7.47863 19.682 6.99353 19.0874 6.87225C19.0054 6.85204 18.9439 6.85205 18.9439 6.85205C15.8686 7.53927 14.0644 8.32755 11.4196 9.56051C8.40584 10.9754 7.81128 11.4403 4.67447 15.6041C4.53095 15.786 4.14141 16.3923 3.56735 17.3221C3.46484 17.1402 3.34184 16.9583 3.21882 16.7764C3.15732 16.6955 3.09581 16.5945 3.0343 16.5136C2.97279 16.4328 2.91128 16.3519 2.84978 16.2509C2.76777 16.1498 2.68578 16.0487 2.58326 15.9275C2.48075 15.8062 2.37824 15.6849 2.27573 15.5838C2.23473 15.5232 2.17321 15.4828 2.1322 15.4221C2.0502 15.3413 1.9682 15.2604 1.88619 15.1796C1.82468 15.119 1.76317 15.0583 1.70167 14.9977C1.61966 14.9168 1.51716 14.836 1.43515 14.7551C1.37365 14.6945 1.29164 14.6339 1.23013 14.5732C1.14813 14.5126 1.0661 14.4519 0.984094 14.3913C0.902086 14.3307 0.79959 14.2498 0.717582 14.1892C0.492059 14.0275 0.246035 13.8658 1.00108e-05 13.7041C2.48076 11.4807 4.16191 10.0254 4.16191 10.0254C4.16191 10.0254 3.52634 8.8935 3.56735 7.53926C3.58785 6.71055 3.89539 5.80099 4.75648 5.05313L8.69286 0L6.39664 5.43717C7.46275 5.98291 8.81588 6.26587 10.6406 6.18502C11.9527 6.12439 13.5108 5.88184 15.356 5.39674C19.9075 4.24463 23.0238 7.2765 22.4908 7.37757Z" transform="translate(263.741 162.743)" fill="#FFD596"/>
<path d="M20.6046 2.24166C20.133 2.34272 17.7958 1.85762 17.2012 1.73635C17.1192 1.71613 17.0577 1.71614 17.0577 1.71614C13.9824 2.40336 12.1782 3.19164 9.53346 4.42461C6.51966 5.83948 5.92509 6.30438 2.78828 10.4682C2.64476 10.6501 2.25522 11.2564 1.68116 12.1862C1.57865 12.0043 1.45565 11.8224 1.33263 11.6405C1.27113 11.5596 1.20962 11.4586 1.14811 11.3777C1.0866 11.2969 1.02509 11.216 0.963587 11.115C0.881579 11.0139 0.799585 10.9128 0.697075 10.7915C0.594565 10.6703 0.492054 10.549 0.389544 10.4479C0.34854 10.3873 0.287019 10.3469 0.246015 10.2862C0.164006 10.2054 0.0820082 10.1245 0 10.0437C1.08661 9.03306 1.80419 8.36605 1.80419 8.36605C1.80419 8.36605 4.65396 5.27354 7.19622 2.64591C7.72927 2.07996 8.26233 1.53421 8.73387 1.04911C9.20542 1.0289 9.69748 0.988487 10.21 0.907637C10.3125 0.887424 10.4151 0.887422 10.5381 0.867209C11.2351 0.766147 11.9937 0.604444 12.8138 0.422532C12.9163 0.402319 13.0188 0.382102 13.1213 0.341677C13.2443 0.321464 13.3468 0.281046 13.4698 0.260834C18.0213 -0.891279 21.1376 2.1406 20.6046 2.24166Z" transform="translate(265.627 167.878)" fill="#FFB56E"/>
<path d="M94.9383 39.2325C89.5668 47.8026 67.2605 84.367 64.3902 82.9522C61.3149 81.4362 52.6426 70.1374 47.271 62.3354C41.8995 54.5334 34.0882 35.7761 34.0882 35.7761C31.1564 41.5569 22.1765 54.978 12.6226 69.4098C7.45605 77.2118 6.34893 81.1937 6.34893 81.1937C6.34893 81.1937 13.9142 79.7788 20.3928 80.8905C28.2246 82.2447 47.4556 100.396 55.8204 108.359C55.6974 108.784 55.5539 109.188 55.3899 109.592C55.3694 109.653 55.3284 109.714 55.3078 109.794C55.2463 109.936 55.1848 110.057 55.1233 110.199C55.1028 110.219 55.1028 110.239 55.0823 110.259C55.0413 110.34 55.0003 110.401 54.9593 110.482C47.8246 105.59 28.4706 90.8957 19.9828 88.45C10.4288 85.701 0.669871 84.5287 0.0548091 83.9224C-0.539751 83.3362 3.84768 68.0151 6.22592 58.0099C8.62466 48.0047 16.9895 28.9443 18.7732 25.4071C18.7732 25.4071 16.7435 18.4338 14.9188 15.503C18.7937 9.035 22.4636 4.00208 22.4636 4.00208C22.7916 3.92123 30.2543 1.81913 36.6715 0C39.0087 1.96061 43.2731 3.61804 43.2731 3.61804C43.2731 3.61804 46.41 3.0723 49.9158 2.4255C52.1915 5.47759 55.0208 9.58074 57.2145 13.7243C56.989 14.6339 56.825 15.1796 56.825 15.1796C56.825 15.1796 54.2417 23.2242 54.4263 26.3773C54.6313 29.5103 53.0321 52.4919 56.415 61.3248C59.7978 70.1576 64.9848 81.1532 65.1693 80.5671C65.3744 79.9809 68.3472 67.2066 71.5455 61.7088C74.7233 56.211 82.4936 48.3483 84.5028 45.8015C85.9174 44.0026 90.6124 39.5357 93.2367 37.0698C93.3187 37.1506 93.4007 37.2314 93.4827 37.3123C93.5237 37.3527 93.5852 37.4134 93.6262 37.474C93.7287 37.5953 93.8312 37.7165 93.9337 37.8176C94.0157 37.9187 94.0977 38.0197 94.2002 38.141C94.2617 38.2219 94.3233 38.3027 94.3848 38.4038C94.4463 38.4846 94.5078 38.5857 94.5693 38.6665C94.7128 38.8889 94.8358 39.0506 94.9383 39.2325Z" transform="translate(172.37 140.812)" fill="#5C5348"/>
<path d="M9.51295 10.1265C9.55395 10.7328 9.61547 11.2988 9.67697 11.8445C8.87739 10.753 8.03681 9.66159 7.21672 8.63075C5.26903 6.22546 3.40335 4.20419 2.07071 3.45633C1.59917 3.19357 0.902101 2.72868 1.00108e-05 2.12231C0.0410141 2.04146 0.0820132 1.98083 0.123017 1.89998C0.143519 1.87976 0.143509 1.85954 0.164011 1.83933C0.225518 1.69784 0.287029 1.57657 0.348535 1.43508C0.369037 1.37444 0.410046 1.3138 0.430548 1.23295C0.594565 0.828703 0.738074 0.404245 0.861086 -4.9347e-06C3.34184 2.34465 4.85899 3.86058 4.85899 3.86058C5.55606 3.5776 6.15062 3.47655 6.68368 3.51698C8.48786 3.63825 9.34894 5.23504 9.34894 5.23504L15.0075 9.58073L9.47195 7.31694C9.45145 7.94353 9.45145 8.57012 9.47195 9.13607C9.47195 9.25734 9.47195 9.37861 9.49245 9.47967C9.49245 9.56052 9.49244 9.64136 9.51295 9.702C9.49244 9.8637 9.49244 9.98497 9.51295 10.1265Z" transform="translate(227.35 249.172)" fill="#FFB56E"/>
<path d="M14.2489 6.47082C14.2489 6.47082 5.55606 8.83568 3.40334 10.6952C1.25063 12.5548 5.00538e-06 23.3685 5.00538e-06 23.3685C5.00538e-06 23.3685 0.963602 20.8419 2.9728 19.7302C2.9728 19.7302 1.31213 23.1259 1.25063 24.6217C0.963597 31.7567 7.93429 33.5758 7.93429 33.5758C7.93429 33.5758 9.69747 28.8461 11.4606 27.7344C11.4606 27.7344 8.81588 32.9492 9.82048 35.4353C10.8251 37.9215 18.7799 43.015 25.7096 40.5289C32.6393 38.0428 45.125 37.0524 47.6468 34.93C50.1685 32.8077 44.3254 33.0098 44.2024 29.2705C44.0794 25.5514 47.2162 18.4164 48.0363 11.8271C48.4669 8.37079 46.7037 4.59105 43.2388 2.12513C41.5782 0.932587 35.5506 0.144299 34.669 0.00281177C33.7874 -0.118463 22.6958 3.72192 22.6958 3.72192L14.2489 6.47082Z" transform="translate(181.445 59.3326)" fill="#696153"/>
<path d="M45.4326 65.4279L44.1819 66.5598L43.6284 67.0449C43.6284 67.0449 35.2636 68.2172 30.6301 70.2789C25.9966 72.3406 12.4038 69.5513 12.4038 69.5513C8.8774 69.7332 4.65397 68.0353 2.15272 66.8428C0.840589 66.2162 5.00539e-06 65.7109 5.00539e-06 65.7109C1.35314 64.5386 9.41044 52.7547 9.41044 52.7547L8.95939 51.2792L11.3581 49.6622C11.8912 48.6111 8.69287 41.1325 8.69287 41.1325L8.61087 41.0314C8.61087 41.0314 8.56987 41.3144 8.50836 41.5771C8.01631 40.8091 7.01171 39.4346 6.04811 38.141C4.85899 36.5442 3.75188 35.0889 3.75188 35.0889L3.44435 33.2294L3.34184 32.6432C5.10502 28.6816 7.03221 24.3359 7.17573 23.9518C7.48326 23.2242 10.3125 17.8679 11.2146 17.4232C12.1167 16.9785 21.0761 11.0967 21.0761 11.0967C20.7686 11.3999 31.5937 7.2765 34.2794 6.08396C35.3866 5.59886 38.3184 4.22442 43.6489 2.46735e-06C43.6079 0.848928 43.4849 1.92019 43.3414 3.0723C42.9313 6.22545 42.2957 9.88392 42.4598 10.9552C42.5623 11.5818 44.3049 12.8552 45.043 13.9466C43.7104 15.7658 41.6192 18.1306 39.897 20.2125C38.9129 21.3848 38.0723 22.4763 37.5188 23.3252C29.2974 36.14 33.6439 48.51 33.6439 48.51L45.4326 65.4279Z" transform="translate(186.161 88.0977)" fill="#95CCBE"/>
<path d="M25.6653 12.4188L26.0343 17.1485C26.0343 17.1485 24.6402 21.0091 24.0252 21.6155C23.3896 22.2421 22.139 21.373 22.139 21.373C20.7858 24.4453 18.3666 26.0825 18.3666 26.0825C13.6101 31.0548 19.6377 36.6536 19.6377 36.6536C19.6377 36.6536 12.954 40.5142 9.79673 44.2333C6.63942 47.9524 1.4729 57.1491 1.4729 57.1491C1.4729 57.1491 1.16536 56.0981 0.837332 54.7438C0.345283 52.7024 -0.208275 49.9737 0.0787536 49.0843C0.591305 47.5886 4.99925 43.1216 4.99925 43.1216C4.99925 43.1216 5.10177 43.0408 5.26578 42.8993C6.08587 42.1514 8.66911 39.6046 9.09966 37.1185C9.61221 34.1271 7.48 26.6888 7.48 26.6888C7.48 26.6888 5.88084 22.9495 5.14276 20.9485C4.13816 18.2198 5.98336 12.6209 5.98336 12.6209L6.94694 6.39548C7.82853 3.66679 7.86953 3.2019 11.6624 1.20086C15.4348 -0.779963 19.5147 -0.0118868 22.672 1.36256C25.8293 2.73702 27.0185 5.70825 27.1415 7.56781C27.2645 9.40715 25.6653 12.4188 25.6653 12.4188Z" transform="translate(199.962 58.7414)" fill="#FFD596"/>
<path d="M30.7736 2.92625C30.7736 2.92625 27.0012 0.197561 23.8439 0.0762856C20.6866 -0.0449894 16.6682 -0.287538 14.0029 1.81456C11.3581 3.93688 5.16652 6.74641 3.40334 6.98896L5.00539e-06 8.88894C5.00539e-06 8.88894 4.982 13.2548 7.62676 12.891C10.2715 12.5272 17.5087 6.74642 19.641 5.99855C21.7937 5.25069 29.7895 7.6964 29.7895 7.6964C29.7895 7.6964 29.1744 13.4974 30.056 15.1144C30.9376 16.7314 31.3682 19.4399 31.3682 19.4399C31.3682 19.4399 32.8443 24.4121 31.7167 26.5345C30.5891 28.6568 26.1606 34.2152 26.1606 34.2152C26.1606 34.2152 32.7828 28.5759 33.5414 23.2398C34.2999 17.9037 35.9196 9.83893 35.038 8.10065C34.1974 6.38259 30.7736 2.92625 30.7736 2.92625Z" transform="translate(194.054 58.4698)" fill="#696153"/>
<path d="M0 1.23367e-06C0 1.23367e-06 0.902088 1.67764 1.49665 1.96061C2.09121 2.2638 3.8954 2.84997 4.98201 2.34465C6.06862 1.85955 10.5176 0.08085 10.5176 0.08085C10.5176 0.08085 4.28493 5.39674 2.78828 5.19461C1.29162 4.99249 0 1.23367e-06 0 1.23367e-06Z" transform="translate(207.299 84.9437)" fill="#FDC490"/>
<path d="M5.00539e-06 -1.23367e-06L1.29163 2.7489L4.18243 3.43613L7.85228 1.37445L5.00539e-06 -1.23367e-06Z" transform="translate(208.303 79.2448)" fill="#FFF3EA"/>
<path d="M0 0C0 0 0.123007 2.14252 0.738069 2.5872C1.33263 3.03187 3.42385 3.53719 4.07991 3.25422C4.73598 2.95103 6.43765 0.990412 6.43765 0.990412C6.43765 0.990412 3.23933 2.02125 2.54226 1.87976C1.82469 1.73827 0 0 0 0Z" transform="translate(208.734 80.2767)" fill="#F37121"/>
<path d="M0 0.646803L2.46025 0L3.19832 0.646803L4.14141 0.282974C4.14141 0.282974 6.47866 1.617 7.03222 1.81913L3.89539 1.27339L2.9728 1.53615L2.15272 1.01063L0 0.646803Z" transform="translate(208.836 78.7585)" fill="#F37121"/>
<path d="M0.841204 0.141593L5.00907e-06 -1.23458e-06C5.00907e-06 -1.23458e-06 0.451373 1.13273 0.451373 1.0316C0.451373 0.93046 0.348787 0.262959 0.348787 0.262959L0.841204 0.141593Z" transform="translate(208.303 79.2448)" fill="#A64306"/>
<path d="M0.389836 -1.23458e-06L0.984813 0.161822L5.00907e-06 0.809095L0.348787 0.262959L0.389836 -1.23458e-06Z" transform="translate(215.171 80.4564)" fill="#A64306"/>
<path d="M-5.00538e-06 1.33402L0.451055 6.16837e-07C3.34185 0.586164 5.61756 1.33403 7.27823 2.20316C7.25772 2.22338 3.0343 1.2936 -5.00538e-06 1.33402Z" transform="translate(216.238 68.7154)" fill="#696153"/>
<path d="M6.13011 0.933364L5.88409 2.34824C5.88409 2.34824 3.23932 0.145074 -2.50269e-06 0.0440116C0.0204996 0.0440116 2.89078 -0.299599 6.13011 0.933364Z" transform="translate(206.13 67.0739)" fill="#696153"/>
<path d="M0.00227801 -6.16837e-07L3.85668 0.768075L3.3236 0.990414C3.3236 0.990414 2.48302 2.24359 0.740347 1.71806C-0.0797353 1.4553 0.00227801 -6.16837e-07 0.00227801 -6.16837e-07Z" transform="translate(216.932 72.5336)" fill="#696153"/>
<path d="M0 -6.16837e-07C0.143514 -6.16837e-07 3.23932 0.848924 3.23932 0.848924C3.23932 0.848924 2.50125 2.56699 1.08661 2.00104C0.471545 1.75849 0.410041 0.687226 0.410041 0.687226L0 -6.16837e-07Z" transform="translate(207.299 70.007)" fill="#696153"/>
<path d="M0 -1.23367e-06L0.369047 0.626588L1.72218 0.929775L2.91128 0.303186C2.91128 0.303186 1.55815 2.04146 0.963587 2.04146C0.369027 2.06168 0 0.889349 0 -1.23367e-06Z" transform="translate(211.502 75.7071)" fill="#FDC490"/>
<path d="M2.1322 6.16837e-07C2.1322 6.16837e-07 2.17322 3.98187 1.35314 5.45738C0.533058 6.93289 1.00108e-05 7.9233 1.00108e-05 7.9233L3.58787 3.234L2.1322 6.16837e-07Z" transform="translate(222.532 70.8375)" fill="#696153"/>
<path d="M17.3449 35.3131C17.1603 35.9801 16.6478 37.2131 15.4177 39.5779C13.2444 43.7417 7.83191 49.4619 5.28966 52.0491C5.18714 52.1501 5.08463 52.2512 5.00262 52.3522C4.55158 52.7969 4.22355 53.1203 4.05953 53.282C3.58798 53.7469 2.7884 53.7065 2.07083 53.5044C1.23024 53.2618 0.47167 52.8373 0.47167 52.8373C0.47167 52.8373 1.25075 44.0449 4.57208 30.1185C5.7612 25.1462 6.54028 15.8889 6.54028 14.5953C6.54028 14.4942 6.54028 14.4336 6.54028 14.4336C6.54028 14.4336 2.41937 12.291 0.717698 10.6336C0.205146 10.1485 -0.0818879 9.68363 0.0206224 9.34002C0.471668 7.86451 0.758692 2.08373 0.758692 2.08373C0.758692 2.08373 1.88631 0.32524 2.33735 0.0220522C2.74739 -0.24071 4.38756 1.92203 4.7361 2.38692C4.7771 2.44756 4.7976 2.46777 4.7976 2.46777L7.17585 3.45818L7.21684 3.6401L8.98003 12.3315C9.7386 16.758 9.24655 33.0089 9.24655 33.0089C9.24655 33.0089 9.26706 32.9482 9.32856 32.8067C9.6566 32.0589 10.8662 29.3302 12.1783 26.3792L12.1989 26.5004L12.5884 28.8047C12.5679 28.8249 16.2378 33.6152 17.3449 35.3131Z" transform="translate(177.345 94.3625)" fill="#FFD596"/>
<path d="M40.0247 0.909563C40.0247 0.909563 40.0247 0.929776 40.0042 0.970201C39.9837 1.05105 39.9016 1.21275 39.8196 1.43509C39.7991 1.49573 39.7786 1.53615 39.7581 1.59679C39.7376 1.65743 39.6966 1.73828 39.6761 1.81913C37.6054 7.1148 27.1699 33.674 23.3975 38.0602C20.1992 41.7793 13.0849 48.0249 2.60839 61.3854C1.87032 60.2737 0.107148 59.0205 0.0251396 58.3939C-0.138877 57.3025 0.537691 53.4419 0.947732 50.2483C1.07074 49.1972 1.19377 48.227 1.21427 47.4388C8.80003 41.3952 18.887 35.2708 18.887 35.2708C18.887 35.2708 21.4498 25.3465 25.6322 18.6561C34.1201 5.09355 36.8059 1.21275 37.4824 0.282975C37.6259 0.0808503 37.6874 0 37.6874 0L38.5895 0.343612L39.9427 0.869138L40.0247 0.909563Z" transform="translate(228.616 40.6576)" fill="#FFD596"/>
<path d="M7.0937 6.16482C6.62216 6.64992 6.0891 7.19565 5.55605 7.7616C4.85898 7.9233 4.26443 8.02437 3.85439 8.02437C2.41925 8.0648 0.881584 7.74139 -5.00539e-06 7.53927C0.0204971 6.71055 0.328038 5.80099 1.18912 5.05313L5.12551 2.46735e-06L2.82929 5.43716C3.9159 5.96269 5.28952 6.24567 7.0937 6.16482Z" transform="translate(267.288 162.781)" fill="#302B2F"/>
<path d="M13.3673 2.22969C12.8958 2.33076 10.5586 1.84566 9.964 1.72438C9.79999 1.29992 9.51295 0.895669 9.08241 0.713756C8.15981 0.309506 3.03431 1.96693 1.00108e-05 2.65415C0.533063 2.0882 1.06612 1.54247 1.53766 1.05737C2.00921 1.03716 2.50125 0.996732 3.0138 0.915882C3.11631 0.895669 3.21882 0.895667 3.34183 0.875454C4.0389 0.774392 4.79747 0.612689 5.61755 0.430776C5.72006 0.410564 5.82257 0.390359 5.92508 0.349934C6.0481 0.329721 6.15062 0.289291 6.27363 0.269079C10.7841 -0.903247 13.9004 2.12863 13.3673 2.22969Z" transform="translate(272.864 167.891)" fill="#0F080D"/>
<path d="M3.32133 9.70201C3.32133 9.70201 1.74267 13.8254 1.41463 13.4413C0.779068 12.7137 1.00459 10.0456 1.00459 10.0456C1.00459 10.0456 1.00459 10.0254 1.00459 9.96476C1.55815 9.8637 2.11172 9.66157 2.15273 9.17647C2.25524 8.30733 0.635574 2.26381 1.00108e-05 9.86939e-06C0.820092 1.01064 1.66068 2.10209 2.46026 3.21378C2.80879 5.92226 3.36234 7.94353 3.32133 9.70201Z" transform="translate(234.525 257.802)" fill="#0F080D"/>
<path d="M2.84208 6.62969C2.88309 7.23607 2.9446 7.80202 3.00611 8.34776C2.20653 7.25628 1.36594 6.16483 0.545862 5.13399C0.484356 4.91165 0.42284 4.72972 0.381836 4.58823C0.0127987 3.31485 -0.0281904 0.949993 0.0128137 4.93469e-06C1.817 0.12128 2.67808 1.71807 2.67808 1.71807L8.33665 6.06376L2.80109 3.79994C2.78059 4.42653 2.78059 5.05312 2.80109 5.61907C2.80109 5.74034 2.80108 5.86163 2.82159 5.9627C2.82159 6.04355 2.82158 6.12439 2.84208 6.18503C2.82158 6.36694 2.82158 6.48821 2.84208 6.62969Z" transform="translate(234.021 252.668)" fill="#302B2F"/>
<path d="M10.2305 6.42758C10.2305 6.468 10.2305 6.54885 10.1895 6.64992C9.9025 7.55948 8.03682 10.2882 7.9138 10.7328C7.8523 10.9552 5.9046 12.6126 4.8385 13.502C4.81799 13.5222 4.79749 13.5424 4.75648 13.5626C4.67447 13.6434 4.59247 13.7041 4.53096 13.7445C4.44896 13.8051 4.38745 13.8658 4.32594 13.9062C4.26444 13.9466 4.22342 13.9871 4.18241 14.0275L2.72677 13.8456L1.84518 13.7243L2.27574 12.5318C2.27574 12.5318 2.25522 12.4913 2.23472 12.4105C1.92719 11.5616 -1.00108e-05 6.26588 -1.00108e-05 5.94248C-1.00108e-05 5.59887 0.861091 3.47655 0.861091 3.47655L3.21883 2.22338C3.21883 2.22338 4.53095 1.92762e-08 4.79748 1.92762e-08C5.064 1.92762e-08 6.49916 0.606375 6.49916 0.606375L6.45814 2.08189C6.45814 2.08189 6.51966 2.14253 6.60167 2.24359C7.31924 2.97124 10.169 5.96269 10.2305 6.42758Z" transform="translate(263.823 28.5121)" fill="#FFD596"/>
<path d="M42.0292 63.5279L41.4757 64.013C41.4757 64.013 33.1108 65.1854 28.4774 67.247C23.8439 69.3087 10.251 66.5194 10.251 66.5194C6.72467 66.7013 2.50125 65.0034 0 63.8109C2.33723 60.8397 7.89329 54.1291 8.20082 53.5025C8.59036 52.7142 9.00041 49.9653 9.00041 49.9653L12.7933 46.8324L8.0163 37.9995L3.89539 35.1091C2.70627 33.5123 1.59916 32.057 1.59916 32.057L1.29163 30.1975L2.84979 29.1464L7.83179 25.2252L10.8251 15.9881L12.0142 27.5699L17.9803 19.9093C17.9803 19.9093 23.9464 11.0765 26.9397 8.91372C29.2974 7.21586 37.7033 2.1021 41.1681 2.46735e-06C40.7581 3.15315 40.1225 6.81162 40.2865 7.88288C40.389 8.50947 42.1317 9.78286 42.8698 10.8743C41.5372 12.6935 39.446 15.0583 37.7238 17.1402C34.8945 18.7572 32.6393 20.1721 32.1062 20.8795C30.5071 23.0423 23.9464 43.0729 24.5409 43.0729C25.1355 43.0729 28.9284 42.6888 28.9284 42.6888C28.9284 42.6888 24.746 46.8122 26.1401 47.1962C27.2677 47.5398 38.0723 59.2227 42.0292 63.5279Z" transform="translate(188.334 91.1301)" fill="#7AC3B5"/>
<path d="M6.52295 13.4836L5.84638 14.6155C5.84638 14.6155 5.84637 14.6155 5.82587 14.5953C5.82587 14.4942 5.82587 14.4336 5.82587 14.4336C5.82587 14.4336 1.70497 12.291 0.00329546 10.6336C-0.0172066 10.0879 0.0647991 9.40066 0.0647991 9.40066L2.01249 9.2996L2.34052 7.94536L0.24931 7.76345L2.23801 7.64217C2.23801 7.64217 2.54554 5.94432 2.54554 5.84326C2.54554 5.72198 0.35182 5.84326 0.35182 5.84326L2.44303 5.58049L2.62756 3.74116L0.35182 3.37733L1.84848 2.48798L1.64346 0.0220522C2.0535 -0.24071 3.69366 1.92203 4.04219 2.38692L2.77107 6.71239C2.77107 6.71239 3.63215 7.21771 3.93968 6.71239C4.24721 6.18687 4.26772 4.83263 4.26772 4.83263L5.00579 5.56028C5.00579 5.56028 4.32923 7.92514 4.37023 8.73364C4.39073 9.54214 6.52295 13.4836 6.52295 13.4836Z" transform="translate(178.06 94.3625)" fill="#FDC490"/>
<path d="M7.17572 29.389C7.17572 29.389 7.19623 29.3284 7.25773 29.1869C7.03221 32.2592 6.54015 38.808 6.17111 40.2229C5.86358 41.4559 4.28493 45.6601 3.21883 48.409C2.62427 49.0153 2.19372 49.4398 1.9887 49.6419C1.51715 50.1068 0.717572 50.0664 0 49.8643C0.10251 48.4494 0.410041 45.9026 0.615062 45.2962C0.922593 44.4473 3.56736 36.9687 4.05941 34.4017C4.55145 31.8145 5.74058 23.3657 5.84309 20.9604C5.9456 18.5753 6.02761 10.9754 5.88409 10.652C5.74058 10.3286 4.57196 10.4297 4.57196 10.4297C4.57196 10.4297 6.02761 9.39882 6.25313 8.95414C6.45815 8.5701 5.41254 1.73828 5.14601 1.23367e-06L6.9092 8.69138C7.66777 13.1381 7.17572 29.389 7.17572 29.389Z" transform="translate(179.416 97.9812)" fill="#FDC490"/>
<path d="M12.3422 8.79244C12.1577 9.45945 11.6452 10.6924 10.415 13.0573C8.24182 17.2211 2.82929 22.9412 0.287031 25.5284C0.184521 25.6295 0.0820057 25.7305 -2.50269e-06 25.8316C0.246022 24.1337 0.881584 20.3944 0.881584 20.3944C0.881584 20.3944 6.56065 11.0765 6.82718 9.41903C7.0527 8.02437 7.15522 1.9404 7.19623 -1.23367e-06L7.58576 2.30422C7.56526 2.30422 11.2351 7.09459 12.3422 8.79244Z" transform="translate(182.348 120.883)" fill="#FDC490"/>
<path d="M5.24528 1.23367e-06C3.97415 1.87977 1.12436 6.20524 1.08335 7.35736C1.04235 8.20628 0.919348 10.268 0.83734 11.8647C0.34529 9.82328 -0.208268 7.09459 0.0787611 6.20524C0.591312 4.70951 4.99925 0.242548 4.99925 0.242548C4.99925 0.242548 5.08126 0.141489 5.24528 1.23367e-06Z" transform="translate(199.983 101.62)" fill="#FDC490"/>
<path d="M40.0247 0.24255C40.0247 0.24255 40.0247 0.262763 40.0042 0.303188C39.9837 0.384038 39.9016 0.545738 39.8196 0.768075C39.7991 0.828713 39.7786 0.869138 39.7581 0.929776C39.7376 0.990413 39.6966 1.07126 39.6761 1.15211C37.6054 6.44779 27.1699 33.007 23.3975 37.3932C20.1992 41.1123 13.0849 47.3579 2.60839 60.7184C1.87032 59.6067 0.107148 58.3535 0.0251396 57.7269C-0.138877 56.6355 0.537691 52.7749 0.947732 49.5813C4.92513 46.7515 19.5431 36.3017 20.1992 35.4123C20.9372 34.3815 26.4728 20.8997 29.2406 16.2711C31.4958 12.4711 36.3138 4.00208 37.995 1.05105C38.282 0.525525 38.487 0.181912 38.5485 0.0606372C38.569 0.0202122 38.569 6.16837e-07 38.569 6.16837e-07L39.9221 0.202126L40.0247 0.24255Z" transform="translate(228.616 41.3249)" fill="#FDC490"/>
<path d="M3.15731 11.4201C3.13681 11.5818 3.13682 11.7233 3.11631 11.8647C3.11631 11.885 3.11631 11.885 3.11631 11.9052C3.0343 11.986 2.9523 12.0467 2.8908 12.0871C2.87029 12.1477 2.82928 12.2286 2.80878 12.3094L2.68577 12.2488L1.57866 11.7637C1.57866 11.7637 1.61967 11.5413 1.66067 11.1977C1.68117 11.0967 1.68116 10.9754 1.70167 10.8339C1.80418 9.8435 1.88619 8.26692 1.47615 7.27651C0.840584 5.72014 0.10252 4.10314 0.10252 4.10314C0.10252 4.10314 0.430553 3.5574 0.410051 3.29464C0.369047 3.03188 1.00108e-05 2.40529 1.00108e-05 2.40529L0.553556 2.84996C0.553556 2.84996 1.9067 2.32444 2.05022 2.12231C2.19373 1.89998 2.68577 0.3234 2.68577 0.3234L1.59916 0.586163L3.13681 7.71046e-08C3.13681 7.71046e-08 2.8498 1.89998 2.66528 2.36486C2.64478 2.38508 2.64476 2.40529 2.64476 2.4255L2.62426 2.44571C2.43974 2.64784 1.27113 3.17336 1.16862 3.21379C1.16862 3.21379 1.55816 3.8808 1.9887 4.66909C2.41924 5.41695 2.89078 6.28609 3.15731 6.79141C3.46484 7.51906 3.28032 10.0052 3.15731 11.4201Z" transform="translate(265.484 30.1701)" fill="#FDC490"/>
<path d="M2.39874 1.63721L1.00108e-05 3.49676L2.27573 1.92762e-08L2.23471 1.47551C2.23471 1.47551 2.29623 1.51594 2.39874 1.63721Z" transform="translate(268.046 29.1173)" fill="#FDC490"/>
<path d="M7.42175 3.05209C7.13472 3.96165 5.26904 6.69034 5.14603 7.13502C5.08452 7.35735 3.13683 9.01478 2.07072 9.90413C1.68118 10.0254 1.41464 10.1265 1.41464 10.1265C1.41464 10.1265 3.64937 7.92331 3.9569 7.21587C4.26443 6.50843 4.22343 5.15419 4.22343 5.15419L0.184514 2.28401L-1.00108e-05 1.2936L1.78368 0.262763C1.9067 0.40425 2.9113 1.43509 2.9113 1.43509L4.1004 1.54209e-07L3.0548 1.65743L4.18242 2.64784L5.35105 1.21275L4.42845 2.95103L5.28953 3.84038L7.23723 2.62763C7.21673 2.60741 7.29874 2.80954 7.42175 3.05209Z" transform="translate(266.591 32.1099)" fill="#FDC490"/>
<path d="M0.0728266 13.8698C1.13893 11.1816 3.12763 8.938 5.71089 7.54333C8.60168 5.96676 11.5745 6.1891 14.7728 6.10825C20.2264 5.98697 25.6184 3.66253 29.6368 0.064705C29.6573 0.0444925 29.6778 -0.0161457 29.6368 0.00406684C27.2176 2.12638 24.3883 3.76359 21.272 4.67316C18.0121 5.64336 14.7933 5.52208 11.4515 5.74442C6.36696 6.06782 1.83601 9.0997 0.011323 13.8496C-0.0296811 13.9507 0.0523246 13.9305 0.0728266 13.8698Z" transform="translate(182.275 64.9911)" fill="#4E473D"/>
<path d="M0.0153815 4.44825C4.56684 1.31531 10.0614 -0.200627 15.5969 0.102561C15.6174 0.102561 15.6379 0.0419229 15.6174 0.0419229C10.0614 -0.281477 4.56684 1.27489 0.0153815 4.40783C-0.00512051 4.42804 -0.00512051 4.46846 0.0153815 4.44825Z" transform="translate(184.915 68.3888)" fill="#4E473D"/>
<path d="M0.0223607 24.1519C3.87675 22.0094 7.58762 18.9977 8.63322 14.551C9.12527 12.4286 8.92024 10.2861 7.85414 8.36592C7.17757 7.13296 6.35749 5.98085 5.98845 4.6064C5.57841 3.11067 5.66042 1.57452 6.11146 0.0787946C6.15246 -0.0829055 5.96794 0.0383671 5.94743 0.13943C5.29137 2.07983 5.31189 4.18193 6.07047 6.08191C6.97256 8.34571 8.4897 10.1042 8.57171 12.651C8.71522 17.9467 4.28678 21.6658 0.0428578 24.0913C0.00185367 24.0913 -0.0186434 24.1721 0.0223607 24.1519Z" transform="translate(218.204 66.8751)" fill="#4E473D"/>
<path d="M0.635038 17.9198C-1.16914 12.9475 1.88567 7.99545 6.2116 5.50931C8.2413 4.33699 10.4555 3.91253 12.6287 3.12424C14.2689 2.53808 15.8066 1.64873 16.6677 0.112576C16.7292 0.0115132 16.6471 -0.049125 16.5856 0.0519376C14.966 2.63914 11.7062 2.98275 9.06139 3.99338C7.07269 4.74124 5.166 5.8125 3.58734 7.24759C0.655545 9.95607 -0.902609 14.1401 0.553037 17.9804C0.57354 18.0411 0.635038 17.9602 0.635038 17.9198Z" transform="translate(185.506 72.5443)" fill="#4E473D"/>
<path d="M17.355 0.150162C11.0199 -0.638126 4.91024 1.74695 0.0512501 5.66818C-0.010256 5.7086 -0.0307506 5.89052 0.0717597 5.80967C4.86924 1.96929 11.0609 -0.537066 17.3345 0.210797C17.3345 0.210797 17.3755 0.150162 17.355 0.150162Z" transform="translate(198.452 59.4283)" fill="#4E473D"/>
<path d="M0.030423 2.67032C1.26055 2.12458 2.49068 1.59905 3.7413 1.15438C4.33586 0.93204 4.93041 0.729914 5.54547 0.527789C5.70948 0.467151 6.14005 0.204387 6.28356 0.406512C6.34507 0.487362 5.93502 1.17459 5.89402 1.25544C5.87352 1.31608 5.8325 1.47778 5.95551 1.43735C6.61157 1.27565 7.28816 1.09374 7.94422 0.932039C8.08774 0.891614 8.74381 0.649062 8.84632 0.7097C9.11285 0.851187 8.88731 1.07353 8.7848 1.3565C8.7643 1.41714 8.76431 1.5182 8.84632 1.53841C10.548 1.96288 12.2701 1.05331 13.9513 1.61926C14.0948 1.65969 14.2999 1.33629 14.1769 1.27565C13.2953 0.932038 12.4137 1.01289 11.4706 1.11395C10.9785 1.17459 10.4865 1.23523 10.0149 1.21501C9.87141 1.21501 9.48188 1.23523 9.37937 1.15438C9.11284 0.93204 9.35885 0.60864 9.44086 0.345877C9.46136 0.265027 9.46136 0.143751 9.33835 0.184177C8.66178 0.366089 8.00573 0.548001 7.32916 0.729914C7.18565 0.770339 6.48857 1.0331 6.42707 0.972463C6.18104 0.810763 6.46807 0.305451 6.55007 0.123538C6.57058 0.103326 6.59109 -0.0179504 6.50908 0.00226207C4.33586 0.770337 2.16264 1.59905 0.0714296 2.56925C0.00992342 2.56925 -0.0310832 2.69053 0.030423 2.67032Z" transform="translate(205.279 60.9502)" fill="#786F5F"/>
<path d="M0.183337 0.0750177C-0.0216837 0.822881 -0.308718 2.39946 0.921406 2.50052C1.43396 2.54094 1.37245 2.17712 1.55696 2.72286C1.72098 3.28881 2.04902 3.77391 2.54107 4.11752C2.64358 4.17816 2.80761 3.9154 2.7256 3.83455C2.15154 3.30902 1.8235 2.80371 1.72099 2.03563C1.72099 1.95478 1.61847 1.99521 1.57746 2.01542C1.02391 2.52073 0.449854 2.09627 0.224331 1.57075C0.0193103 1.06543 0.162835 0.539906 0.285847 0.0345933C0.285847 -0.0462567 0.183337 0.0345927 0.183337 0.0750177Z" transform="translate(225.444 66.739)" fill="#786F5F"/>
<path d="M0.0137957 0.0840693C2.35103 0.852145 4.79077 1.31703 7.27152 1.25639C7.43553 1.25639 7.62006 0.852142 7.45604 0.852142C4.93429 0.892567 2.49455 0.670227 0.0548023 0.00321435C0.0343002 -0.0169982 -0.0272084 0.0638568 0.0137957 0.0840693Z" transform="translate(204.968 120.659)" fill="#68B0AE"/>
<path d="M0.0873121 6.07016C3.61367 4.27125 7.11952 2.41169 10.5434 0.430864C10.6869 0.350014 10.8304 -0.114874 10.5844 0.0266134C7.14002 2.04786 3.65467 3.98827 0.107809 5.82761C0.0258009 5.86803 -0.0767044 6.15101 0.0873121 6.07016Z" transform="translate(199.974 136.237)" fill="#68B0AE"/>
<path d="M0.00573807 0.04455C1.89193 2.0658 3.79862 4.08705 5.82833 5.96681C5.86933 6.00724 5.97184 5.86575 5.93084 5.80512C3.98314 3.8445 1.97394 1.96474 0.0262476 0.00412254C0.0262476 -0.01609 -0.014764 0.04455 0.00573807 0.04455Z" transform="translate(200.179 169.873)" fill="#4C453B"/>
<path d="M0.0339664 12.6229C4.79044 8.92398 9.19838 4.73999 13.0118 0.0911115C13.0528 0.0506865 13.0323 -0.0503736 12.9708 0.0304765C9.05488 4.61872 4.79045 8.84314 0.0134694 12.5824C-0.00703269 12.5824 -0.0070377 12.6633 0.0339664 12.6229Z" transform="translate(172.268 207.645)" fill="#7F7465"/>
<path d="M0.00558768 0.0647007C2.95788 1.39873 5.68466 3.09659 8.20641 5.07741C8.24742 5.11784 8.32943 4.97634 8.28843 4.95613C5.76667 2.95509 2.99889 1.31788 0.0465943 0.00406561C0.0260922 -0.0161469 -0.0149144 0.0444882 0.00558768 0.0647007Z" transform="translate(186.586 164.72)" fill="#7F7465"/>
<path d="M0.00849473 2.02299C3.73987 2.00278 7.38924 1.37619 10.8951 0.16344C10.9566 0.143227 11.0181 -0.0184706 10.9361 0.00174193C7.40974 1.2347 3.76037 1.90172 0.0289918 1.96236C0.00848973 1.96236 -0.0120073 2.02299 0.00849473 2.02299Z" transform="translate(203.948 134.301)" fill="#95CCBE"/>
<path d="M2.50454e-06 0.0404554C0.0205197 0.283184 0.143618 0.62705 0.430858 0.647277C0.471892 0.647277 0.553966 0.525914 0.512931 0.505686C0.410346 0.445004 0.307755 0.404547 0.225686 0.323638C0.1231 0.242728 0.0615565 0.141593 0.0410393 1.23458e-06C0.0205222 1.23458e-06 2.50454e-06 0.020228 2.50454e-06 0.0404554Z" transform="translate(207.135 69.6854)" fill="#696153"/>
<path d="M1.17989 1.23458e-06C0.831103 0.121366 0.441292 0.0809102 0.0924999 0.141592C0.0514655 0.141592 -0.0511303 0.303412 0.0309383 0.303412C0.441282 0.404549 0.810586 0.202273 1.17989 0.0202268C1.17989 0.0404542 1.20041 1.23458e-06 1.17989 1.23458e-06Z" transform="translate(219.979 73.1198)" fill="#696153"/>
<path d="M32.3112 9.05521C31.6757 10.5711 30.3636 12.5924 27.7598 14.7956C27.7598 14.7956 21.6502 29.8337 17.1807 37.757C13.3058 44.609 3.73137 54.3919 3.38284 54.6748C3.0343 54.9578 0.553558 55.4429 0.553558 55.4429L0.164014 46.3675L0 42.5878C0 42.5878 5.43305 37.8985 9.06191 34.1794C12.6908 30.4603 24.3359 15.0987 25.033 13.2998C25.033 13.2998 23.3108 4.97228 23.7824 4.50739C24.2744 4.02229 29.0924 0 29.0924 0L30.9171 1.49573L30.7531 3.27443L32.9263 6.26588C32.9263 6.26588 33.0288 7.35735 32.3112 9.05521Z" transform="translate(167.832 27.52)" fill="#FFD596"/>
<path d="M5.00539e-06 1.83934L4.61297 1.51594L3.17782 1.11169L3.28033 7.71046e-08L5.00539e-06 1.83934Z" transform="translate(193.234 29.5617)" fill="#FFB56E"/>
<path d="M32.1472 4.64888C31.5117 6.16482 30.1995 8.18607 27.5958 10.3892C27.5958 10.3892 21.4862 25.4273 17.0167 33.3507C13.1418 40.2027 3.56736 49.9855 3.21882 50.2685C2.87029 50.5515 0.389542 51.0366 0.389542 51.0366L-2.50269e-06 41.9612C4.22342 38.3229 11.6452 31.8549 13.9209 29.1869C17.1397 25.4273 25.7711 9.58073 25.7711 9.58073C25.7711 9.58073 27.9033 6.87226 28.1698 5.57865C28.4364 4.28505 26.5707 1.73828 26.5707 1.73828L26.9397 0.869138C26.9397 0.869138 29.2769 1.51594 29.8715 0.525525L30.1995 -1.54209e-07L30.0765 1.17233L29.1539 1.37445L30.7941 4.08293L32.0447 4.26484L32.1472 4.64888Z" transform="translate(167.996 31.9275)" fill="#FFB56E"/>
<path d="M41.3936 41.1931C41.3936 41.1931 33.5824 38.8889 28.4363 34.24C23.7004 29.9549 12.1372 17.5242 10.333 15.5838C10.169 15.4221 10.087 15.3211 10.087 15.3211C8.07781 15.3413 3.85439 12.4509 3.85439 12.4509L3.66987 12.5318L2.93179 12.8349C2.93179 12.8349 1.9682 12.3296 1.16862 11.7435C0.738074 11.4201 0.348535 11.0765 0.164016 10.7531C-0.123012 10.2275 0.348535 4.81058 0.451045 3.67868C0.471547 3.53719 0.471547 3.47655 0.471547 3.47655L0 1.96061L0.0820082 1.81913L1.25063 6.16837e-07L7.74978 1.617C8.48785 3.77974 13.0803 12.9966 13.0803 12.9966C16.0121 17.5445 38.7489 30.4198 38.7489 30.4198L39.7535 34.4825L41.3936 41.1931Z" transform="translate(0.843018 70.0277)" fill="#FFD596"/>
<path d="M40.225 37.0091C40.225 37.0091 32.4138 34.7049 27.2677 30.056C22.5318 25.771 10.9686 13.3403 9.16442 11.3999C9.0004 11.2382 8.9184 11.1371 8.9184 11.1371C6.90919 11.1573 2.68577 8.26692 2.68577 8.26692L2.50125 8.34776L1.76318 8.65095C1.76318 8.65095 0.79958 8.14564 -3.91046e-08 7.55948L1.57866 1.63721L2.54226 0C2.46025 0.24255 1.0046 4.22441 0.902091 4.44675C0.79958 4.66909 1.86569 4.5276 2.52175 4.28505C3.19832 4.02229 4.22342 1.65743 4.22342 1.65743L6.06861 2.62763C6.06861 2.62763 6.17112 5.6595 6.86819 6.83183C7.56526 8.00415 10.0665 9.60094 10.0665 9.60094C10.0665 9.60094 22.1832 20.9199 27.3292 24.5178C30.6506 26.8422 35.5506 29.0454 38.5849 30.2985L40.225 37.0091Z" transform="translate(2.01196 74.2131)" fill="#FFB56E"/>
<path d="M1.80418 0.222836C1.80418 0.222836 0.0820084 -0.14099 0.0615063 0.0611349C0.0410043 0.26326 -7.82091e-08 1.51644 -7.82091e-08 1.51644L1.80418 0.222836Z" transform="translate(4.61548 72.0885)" fill="#FFB56E"/>
<path d="M3.44435 2.82975L3.0138 3.61804L0.471548 1.85955C0.49205 1.71806 0.49205 1.65743 0.49205 1.65743L0 0.141488L0.0820083 6.16837e-07C0.943095 0.626588 3.44435 2.82975 3.44435 2.82975Z" transform="translate(0.843018 71.8473)" fill="#FFB56E"/>
<path d="M7.9548 10.4499C9.30793 9.6818 10.1895 8.36797 10.7226 7.29671C10.5586 7.25628 10.3945 7.23607 10.251 7.19564C6.80668 6.30629 3.19832 -4.93469e-06 3.19832 -4.93469e-06L0 1.09148C0 1.09148 3.89539 7.4382 3.28033 10.7126C3.25983 10.8339 3.23933 10.9754 3.21883 11.0967C4.34644 11.2786 6.27363 11.3999 7.9548 10.4499Z" transform="translate(148.15 248.766)" fill="#696153"/>
<path d="M22.2357 0.00775063C21.8257 -0.174162 18.7094 2.89814 18.2378 3.54494C17.7663 4.17153 11.1441 4.69707 7.55623 3.98963C7.02318 5.06089 6.14159 6.3747 4.78846 7.14278C3.10729 8.09277 1.1801 7.97148 0.0524848 7.78957C-0.337054 10.9427 1.56963 14.0554 1.56963 14.0554L7.65874 10.8821L6.57214 9.10338C8.51983 7.89063 14.896 7.22363 14.896 7.22363C14.896 7.22363 18.7709 5.48535 19.5294 4.9194C21.9487 3.10027 22.6458 0.169451 22.2357 0.00775063Z" transform="translate(151.317 252.098)" fill="#302B2F"/>
<path d="M1.10711 2.5872C0.225522 3.86059 0.0205027 5.41696 6.25673e-07 6.60949C0.164017 6.56907 0.328034 6.52864 0.471549 6.50843C3.9569 5.82121 9.9845 9.96477 9.9845 9.96477L12.3832 7.62012C12.3832 7.62012 6.08911 3.57762 5.16652 0.384043C5.12551 0.262768 5.08451 0.121275 5.04351 0C3.9774 0.282975 2.19372 1.03084 1.10711 2.5872Z" transform="translate(30.0176 180.023)" fill="#696153"/>
<path d="M0.539855 21.5263C0.9909 21.5061 2.42604 17.403 2.59006 16.6147C2.73357 15.8668 8.45365 12.5115 12.0005 11.6222C12.0005 10.4297 12.226 8.87329 13.1076 7.5999C14.1942 6.04354 15.9779 5.29568 17.085 4.99249C16.0394 2.00104 12.9436 2.46735e-06 12.9436 2.46735e-06L8.86369 5.45738L10.6269 6.58928C9.39674 8.50946 3.9637 11.8647 3.9637 11.8647C3.9637 11.8647 1.23692 15.0987 0.826884 15.9275C-0.546754 18.5955 0.109311 21.5263 0.539855 21.5263Z" transform="translate(18.0171 175.01)" fill="#302B2F"/>
<path d="M118.727 113.756L116.39 115.656L112.454 118.85C112.454 118.85 110.855 112.179 108.927 107.268C107.021 102.356 89.0199 74.5438 89.0199 74.5438L88.4459 67.4087C87.7283 64.7003 59.456 42.4463 59.456 42.4463C59.456 42.4463 59.456 42.4463 56.1961 49.7834C52.9363 57.1206 38.6874 81.8405 37.8878 81.5171C34.3615 80.082 20.8096 65.913 16.2171 62.5173C10.169 58.0503 -6.25673e-07 52.5121 -6.25673e-07 52.5121L0.410041 51.7036L3.28033 46.1654C3.28033 46.1654 12.7728 52.8961 19.723 56.6153C26.6937 60.3344 35.4891 65.3269 35.4891 65.3269C35.4891 65.3269 36.0631 66.6407 36.1656 67.0651C36.2681 67.4896 37.6418 56.2312 37.8468 51.2589C38.0313 46.6303 40.7581 30.9251 41.1476 28.7624C41.1681 28.6007 41.1886 28.5199 41.1886 28.5199C40.9221 28.0348 40.4916 26.5997 40.0815 24.821C39.3845 21.8295 38.7489 17.8679 39.0359 15.8062C39.5075 12.5116 44.8995 0.38404 45.084 2.46735e-06L63.2283 2.66806L77.1492 4.70952C77.1492 4.70952 76.8212 6.6297 75.9806 10.9956C75.14 15.3615 70.5476 24.922 70.5476 24.922C83.0743 39.5761 95.7651 62.4567 95.7651 62.4567C95.7651 62.4567 102.264 76.8278 104.93 85.3979C107.697 93.968 118.727 113.756 118.727 113.756Z" transform="translate(36.1472 137.822)" fill="#696153"/>
<path d="M77.3821 115.656L73.4457 118.85C73.4457 118.85 71.8465 112.179 69.9193 107.268C68.0126 102.356 50.0118 74.5438 50.0118 74.5438L49.4378 67.4087C48.7202 64.7003 20.4479 42.4463 20.4479 42.4463L2.18055 28.7422C2.20105 28.5805 2.22155 28.4997 2.22155 28.4997C1.50398 27.1858 -0.382214 19.0806 0.0688317 15.8062C0.540379 12.5116 5.93242 0.38404 6.11694 2.46735e-06L24.2613 2.66806L24.0152 4.2042C23.8307 4.74994 19.6278 20.3136 19.6278 20.3136L11.8575 21.9306C11.8575 21.9306 21.473 21.587 23.8102 22.0923L20.6119 23.1838C20.6119 23.1838 41.9135 44.508 47.2031 52.3706C52.4926 60.2333 53.9277 62.8609 53.9277 62.8609C53.9277 62.8609 57.2081 78.4448 61.698 87.217C65.3064 94.1095 73.9378 109.511 77.3821 115.656Z" transform="translate(75.1558 137.821)" fill="#5C5147"/>
<path d="M61.6292 11.2179L60.0915 16.8976L48.8769 20.6976C48.8769 20.6976 44.0794 36.7665 41.6807 42.5069C39.2819 48.2472 36.8627 52.8759 36.8627 52.8759C36.8627 52.8759 19.3334 39.1314 14.9665 36.0793C12.0142 34.0176 4.53095 29.5507 -1.25135e-06 26.8826L2.87029 21.3444C2.87029 21.3444 12.3627 28.0752 19.3129 31.7943C26.2836 35.5134 35.079 40.5059 35.079 40.5059C35.079 40.5059 35.6531 41.8197 35.7556 42.2441C35.8581 42.6686 37.2317 31.4102 37.4368 26.438C37.6213 21.8093 40.348 6.10418 40.7376 3.94144C40.7581 3.77974 40.7786 3.69889 40.7786 3.69889C40.5121 3.21379 40.0815 1.7787 39.6715 0L61.6292 11.2179Z" transform="translate(36.5989 162.64)" fill="#5C5147"/>
<path d="M132.842 17.0103C132.596 17.2932 128.885 18.506 128.557 18.6879C128.229 18.8698 123.985 21.174 123.985 21.174L123.309 20.4868C123.309 20.4868 119.967 23.2963 114.021 26.7931C108.076 30.2899 93.3758 38.1728 93.3758 38.1728C93.3553 38.2132 93.3348 38.2738 93.3143 38.3142C91.8996 41.3663 87.4302 53.0694 82.9607 61.6597C78.4093 70.3915 76.4411 74.2723 76.4411 74.2723C76.9946 75.1617 75.8875 77.7691 75.8875 77.7691C75.8875 77.7691 75.867 77.7691 75.8465 77.7691C75.2929 77.7691 68.2607 77.8701 62.8687 76.9606C57.2511 76.0106 43.3302 71.5638 43.3302 71.5638C43.3302 71.5638 42.3256 70.917 41.7106 70.4319C41.485 70.25 41.3005 70.0883 41.2595 70.0075C41.075 69.6841 42.7357 64.5299 42.8177 62.7512C42.8382 62.165 42.4897 59.3555 41.9976 55.8587C41.034 48.7843 39.5374 38.9004 39.5374 38.9004C39.5374 38.9004 33.1407 39.5472 28.0972 40.3153C23.0537 41.0834 7.96418 43.2057 7.96418 43.2057L7.84117 44.4386C7.84117 44.4386 2.1826 45.045 2.1621 45.3482C2.14159 45.6514 1.1985 41.0834 0.439924 39.143C-0.134134 37.6877 -0.0111218 33.4835 0.0708864 31.4622C0.0913885 30.7952 0.132393 30.3707 0.132393 30.3707C0.132393 30.3707 2.67465 30.2899 3.53574 30.1686C4.39682 30.0473 7.47213 28.7739 7.47213 28.7739L7.80016 29.8452C7.80016 29.8452 10.0144 28.9154 15.3654 27.0154C20.7165 25.1357 37.3231 15.3528 37.3231 15.3528C37.3231 15.3528 37.4256 12.2401 38.2867 11.8965C39.1683 11.5731 57.6202 10.1784 57.6202 10.1784L62.4997 4.94338C62.4997 4.94338 76.318 5.48912 77.8557 5.95401C79.3933 6.4189 81.8946 11.088 81.8946 11.088C81.8946 11.088 85.1544 12.2603 91.2025 11.0678C97.2301 9.87524 96.7586 10.3401 96.7586 10.3401L96.8611 12.5433C96.8611 12.5433 96.8611 12.5433 97.5582 11.8763C98.2552 11.2093 99.0138 13.2709 99.0138 13.2709C99.0138 13.2709 105.492 11.8965 108.937 11.1891C112.381 10.4816 119.434 6.56039 119.434 6.56039C119.434 6.56039 119.68 3.97319 120.274 3.40724C120.849 2.84128 124.887 2.6998 124.887 2.6998C124.887 2.6998 127.553 0.254083 128.434 0.0115327C129.008 -0.150167 130.546 1.4062 131.592 3.56894C132.125 4.66041 132.514 5.91358 132.596 7.16676C132.801 10.9667 133.068 16.7273 132.842 17.0103Z" transform="translate(38.8445 67.9323)" fill="white"/>
<path d="M132.822 13.3807C132.576 13.6637 128.865 14.8764 128.537 15.0583C128.209 15.2402 123.965 17.5445 123.965 17.5445L123.288 16.8572C123.288 16.8572 119.946 19.6668 114.001 23.1635C108.055 26.6603 93.3552 34.5432 93.3552 34.5432C93.3347 34.5836 93.3142 34.6442 93.2937 34.6847L92.7197 34.6038L84.3343 45.4984C84.3343 45.4984 78.2452 60.3343 77.0561 62.3152C75.867 64.296 70.803 67.2672 70.803 67.2672L75.0264 67.3885C75.0264 67.3885 72.3201 69.2076 72.7507 69.1066C73.0582 69.0459 75.0264 71.5725 75.8465 74.1193C75.2929 74.1193 68.2607 74.2203 62.8687 73.3108C57.2511 72.3608 43.3302 67.914 43.3302 67.914C43.3302 67.914 42.3256 67.2672 41.7106 66.7821C43.5147 65.7513 44.8269 64.8417 44.9089 64.3768C45.0524 63.5683 43.5763 57.8684 41.9976 52.2291C41.034 45.1547 39.5373 35.2708 39.5373 35.2708C39.5373 35.2708 33.1407 35.9176 28.0972 36.6857C23.0537 37.4538 7.96418 39.5761 7.96418 39.5761L7.84117 40.8091C7.84117 40.8091 2.1826 41.4154 2.1621 41.7186C2.14159 42.0218 1.1985 37.4538 0.439925 35.5134C-0.134132 34.0581 -0.0111205 29.8539 0.0708877 27.8326C0.952476 28.9847 1.85457 30.0156 2.08009 29.8943C2.53114 29.6518 6.57004 27.1252 6.57004 27.1252L7.75916 29.3284C7.75916 29.3284 15.1194 27.5294 21.516 25.488C27.8717 23.4869 36.1955 17.6051 36.1955 17.6051L37.6512 12.7339L38.2457 16.6753C38.2457 16.6753 44.9909 12.5924 48.3532 12.7743C51.7156 12.9562 57.5997 11.8445 57.5997 11.8445C57.5997 11.8445 63.5453 7.13502 64.1398 6.91268C64.7344 6.69034 78.7578 7.31693 78.7578 7.31693L84.2318 13.2594C84.2318 13.2594 94.8929 10.7935 95.5285 11.5616C96.164 12.3094 96.5126 15.8264 96.5126 15.8264L98.6653 11.036L95.8155 25.8922C95.9795 25.4678 101.146 11.8243 102.294 11.3796C103.463 10.935 111.274 10.2882 115.087 8.71159C118.901 7.13502 120.52 5.05313 120.52 5.05313C120.52 5.05313 121.997 1.43509 122.776 2.08189C123.555 2.70848 127.491 2.95103 127.491 2.95103L131.489 -1.23367e-06C132.022 1.09147 132.412 2.34465 132.494 3.59783C132.781 7.33714 133.047 13.0977 132.822 13.3807Z" transform="translate(38.8647 71.5622)" fill="#E8F4FF"/>
<path d="M2.50269e-06 2.77057C0.594562 2.40675 3.28033 -0.524064 3.91589 0.0823108C4.55145 0.708899 8.30333 7.03541 8.30333 7.03541C8.40584 7.11626 6.21212 6.83329 6.21212 6.83329C6.21212 6.83329 3.85438 1.71952 3.19832 1.55782C2.35773 1.33548 2.50269e-06 2.77057 2.50269e-06 2.77057Z" transform="translate(114.465 86.7794)" fill="#E6871C"/>
<path d="M11.2966 2.12312C11.2966 2.12312 9.28744 -0.42366 8.54936 0.0614399C7.79079 0.54654 0 8.28793 0 8.28793L2.9933 7.88368C2.9933 7.88368 7.62676 0.829515 8.73387 1.07207C9.84098 1.27419 11.2966 2.12312 11.2966 2.12312Z" transform="translate(98.0227 86.6813)" fill="#E6871C"/>
<path d="M14.0299 0.376656C14.0299 0.376656 16.6542 -0.169082 17.1052 0.0532556C17.5563 0.275593 19.4629 7.73401 19.4629 7.73401C19.4629 7.73401 20.5291 13.8786 20.7341 14.4041C20.9391 14.9499 22.4768 18.8105 22.5793 19.7807C22.6818 20.7509 22.7433 29.3614 22.7433 29.3614C22.7433 29.3614 23.5839 32.0497 23.3788 32.6358C23.1533 33.222 20.9596 33.7273 20.9596 33.7273L20.7136 39.4474C20.7136 39.4474 22.5793 47.4516 15.342 55.2536C15.342 55.2536 5.0705 43.7123 4.27092 41.5698C3.47134 39.4272 4.25041 26.5519 3.49184 23.2976C3.49184 23.2976 1.66716 22.0849 1.29812 21.2966C0.929082 20.5083 -0.383054 17.2945 0.108995 16.6882C0.601045 16.0818 0.60105 16.0818 0.60105 16.0818C0.60105 16.0818 0.539542 7.47125 1.29812 6.70317C2.05669 5.9351 14.0299 0.376656 14.0299 0.376656Z" transform="translate(97.0527 35.5103)" fill="#FFD596"/>
<path d="M1.53275 19.1067C1.53275 19.1067 3.52145 18.4801 3.80848 19.0864C4.075 19.6928 5.77668 24.6247 5.77668 24.6247L6.43274 23.8364C6.43274 23.8364 4.23902 15.1046 4.58755 14.4376C4.93609 13.7705 6.67876 12.2344 6.67876 12.2344L6.00219 8.85891L4.75157 8.98018C6.08421 8.8387 6.96579 7.68658 8.35993 7.5451C9.85658 7.40361 11.5993 7.82807 12.9319 6.87808C13.629 6.39298 14.0595 5.56427 14.8181 5.16002C16.2532 4.37173 19.1645 4.31109 19.3285 2.16857C19.4105 1.13773 18.3444 -0.095234 17.2783 0.00582861C16.6018 0.0664662 16.1917 0.207954 15.4126 0.127104C14.5311 0.0462537 13.711 0.531354 13.0344 1.0973C12.3783 1.66325 11.8043 2.37069 10.9637 2.61324C10.1436 2.85579 9.15951 2.85579 8.29843 3.11856C6.65826 3.60366 5.14111 4.55364 3.99299 5.82703C3.27542 6.63553 2.66036 7.3834 1.84028 8.05041C1.40973 8.41424 1.28672 8.33338 1.22522 8.89933C1.22522 8.95997 1.36873 9.62699 1.34823 9.6472C-0.148421 10.678 -0.353443 13.3663 0.507644 14.862C0.712664 15.2259 0.979188 15.5493 1.18421 15.9131C1.30722 16.2163 1.77877 19.046 1.53275 19.1067Z" transform="translate(95.9775 32.5872)" fill="#696153"/>
<path d="M0 -1.23367e-06C0.143514 0.303186 3.85438 9.49988 4.94099 10.7531C6.0276 12.0062 14.3719 11.036 14.3719 11.036C14.3719 11.036 10.8866 14.1083 9.38994 13.9466C7.89329 13.7849 3.71087 11.2988 3.58786 10.9956C3.44435 10.6924 0 -1.23367e-06 0 -1.23367e-06Z" transform="translate(103.148 58.4237)" fill="#FFB56E"/>
<path d="M-5.00539e-06 11.1371C-5.00539e-06 11.1371 3.9364 12.3903 4.22343 12.1679L0.799581 1.67764L1.31213 -6.16837e-07L1.12761 1.83934L5.0025 12.4913C5.0025 12.4913 3.11631 13.6232 2.54226 13.2594C1.9887 12.9158 -5.00539e-06 11.1371 -5.00539e-06 11.1371Z" transform="translate(111.677 45.0431)" fill="#FFB56E"/>
<path d="M2.21752 3.08418e-07C2.21752 3.08418e-07 -0.099206 0.141488 0.00330424 1.03084C0.0238063 1.2936 0.618371 2.64784 1.41795 2.46593C2.17653 2.28401 2.21752 3.08418e-07 2.21752 3.08418e-07Z" transform="translate(106.118 49.1264)" fill="#696153"/>
<path d="M2.21753 -3.08418e-07C2.21753 -3.08418e-07 -0.099211 0.141487 0.00329924 1.03084C0.0238013 1.2936 0.618366 2.64784 1.41795 2.46593C2.19702 2.28401 2.21753 -3.08418e-07 2.21753 -3.08418e-07Z" transform="translate(114.442 46.9442)" fill="#696153"/>
<path d="M6.74518 0.00337272L5.9866 1.53952C5.9866 1.53952 4.20292 1.29697 3.32134 1.60016C2.43975 1.92356 0 3.70226 0 3.70226L0.533055 2.12569C0.553557 2.10547 3.83389 -0.0976898 6.74518 0.00337272Z" transform="translate(103.558 44.4347)" fill="#696153"/>
<path d="M0.164016 0.687284L2.50269e-06 2.44577C2.50269e-06 2.44577 1.74267 0.950048 2.17321 0.909623C2.58326 0.869198 3.19832 1.29366 3.19832 1.29366L2.84978 5.96746e-05C2.84978 5.96746e-05 0.943094 -0.0201541 0.164016 0.687284Z" transform="translate(113.338 42.7393)" fill="#696153"/>
<path d="M9.61547 0C8.07782 0.687226 4.51045 1.19254 0 1.617C0 1.617 3.38284 4.60845 3.9979 4.72973C5.65857 5.03291 7.8728 4.12335 7.8728 4.12335C7.8728 4.12335 9.18493 0.464888 9.61547 0Z" transform="translate(108.786 59.2537)" fill="#EEF6E3"/>
<path d="M0.0338924 0.279353C0.915481 -0.266384 1.38703 2.26018 1.57155 2.66443C1.65356 2.82613 1.85857 2.44209 1.85857 2.36124C1.81757 1.75487 0.976986 -0.630209 0.0133891 0.158079C0.0133891 0.198504 -0.0276138 0.319778 0.0338924 0.279353Z" transform="translate(97.9065 52.7286)" fill="#FFB56E"/>
<path d="M2.48075 -6.16837e-07L-2.50269e-06 0.181914L1.64016 1.4553L0.676563 0.424463L2.48075 -6.16837e-07Z" transform="translate(108.438 60.5063)" fill="#FFB56E"/>
<path d="M-2.50269e-06 0.646801L1.64016 1.23367e-06C1.64016 1.23367e-06 0.615067 2.12231 0.635569 1.98082C0.656071 1.83934 0.963597 0.687225 0.963597 0.687225L-2.50269e-06 0.646801Z" transform="translate(116.844 59.0711)" fill="#FFB56E"/>
<path d="M3.02505 1.23367e-06C3.02505 1.23367e-06 -0.214273 0.3234 0.0112495 0.4851C0.257274 0.626588 1.17987 1.27339 3.02505 1.23367e-06Z" transform="translate(113.552 64.6302)" fill="#FFB56E"/>
<path d="M1.71294 0.0285848C1.44641 0.695598 0.995354 1.22112 0.216276 1.22112C0.0932635 1.22112 -0.0912524 1.56474 0.0522619 1.56474C0.954352 1.62537 1.48741 0.736023 1.73343 0.0083726C1.75393 -0.0118399 1.73344 0.0083723 1.71294 0.0285848Z" transform="translate(107.565 51.5464)" fill="#FFB56E"/>
<path d="M0.00559018 0.08085C0.415631 0.384038 1.03069 0.545737 1.52273 0.3234C1.58424 0.303187 1.70726 0.0606375 1.56374 0.08085C1.01019 0.202125 0.57965 0.282975 0.0465968 -3.08418e-07C0.0260947 -3.08418e-07 -0.0149119 0.0606375 0.00559018 0.08085Z" transform="translate(115.382 50.5829)" fill="#FFB56E"/>
<path d="M0.102513 1.28223C0.246027 0.877985 1.0251 0.635434 1.41464 0.514159C1.82468 0.392884 2.21423 0.493946 2.60377 0.413096C2.70628 0.392884 2.91129 0.0896971 2.74727 0.0492721C2.09121 -0.112428 1.45564 0.150335 0.902086 0.453522C0.512547 0.655647 0.143517 0.877984 2.50269e-06 1.30245C2.50269e-06 1.40351 0.0820107 1.32266 0.102513 1.28223Z" transform="translate(105.957 48.8559)" fill="#696153"/>
<path d="M0.0679403 1.24017C0.724006 0.512519 1.54409 0.371033 2.48718 0.451883C2.6307 0.472095 2.85622 0.0880577 2.6717 0.0476327C1.6671 -0.174705 0.600991 0.411458 0.0269337 1.17953C-0.0140704 1.21996 -0.0140679 1.32102 0.0679403 1.24017Z" transform="translate(114.09 46.8363)" fill="#696153"/>
<path d="M0.331508 0.0320492C0.228923 0.254551 0.0853074 0.477052 0.00323881 0.719781C-0.0172784 0.800691 0.0647903 0.780463 0.105825 0.719781C0.228928 0.49728 0.290477 0.254551 0.372545 0.0320492C0.393062 -0.028633 0.331508 0.0118218 0.331508 0.0320492Z" transform="translate(108.578 48.5292)" fill="#696153"/>
<path d="M0.184657 0.0202268C0.123105 0.182046 0.0410318 0.364093 -2.50454e-06 0.525912C-2.50454e-06 0.566366 0.0205172 0.566367 0.0410343 0.566367C0.0820687 0.566367 0.102591 0.505685 0.123108 0.46523C0.184659 0.323639 0.184652 0.161819 0.205169 -3.08646e-07C0.225686 -3.08646e-07 0.184657 0.0202268 0.184657 0.0202268Z" transform="translate(116.639 46.5413)" fill="#696153"/>
<path d="M0.0363649 0.190486C0.0363649 0.190486 0.056823 0.190486 0.0363649 0.190486C0.056823 0.190486 0.0568305 0.210655 0.0568305 0.210655C0.0772886 0.150148 0.0772836 0.129979 0.0772836 0.170318C0.0363674 0.250994 0.056833 0.230825 0.0977492 0.150149C0.056833 0.210656 -0.0250043 0.432515 0.118202 0.432515C0.261409 0.432515 0.343244 0.230824 0.363702 0.129978C0.363702 0.109809 0.363702 0.0896409 0.363702 0.0694718C0.363702 0.0291335 0.343246 0.00896376 0.30233 0.00896376C0.281872 0.00896376 0.261404 0.00896376 0.240946 0.00896376C0.220488 0.00896376 0.200032 -0.0112054 0.179574 0.00896376C0.1182 0.00896376 0.0772811 0.0493023 0.0363649 0.0896406C0.0363649 0.0493023 -0.0454674 0.190486 0.0363649 0.190486Z" transform="translate(106.618 50.3714)" fill="white"/>
<path d="M0.205796 0.154783C0.205796 0.174953 0.185343 0.174952 0.185343 0.195121C0.226259 0.174952 0.246717 0.134613 0.287633 0.114444C0.267175 0.114444 0.267173 0.114444 0.246715 0.134613C0.205798 0.154782 0.205798 0.154782 0.246715 0.134613C0.267173 0.134613 0.267175 0.154783 0.287633 0.154783C0.267175 0.114445 0.287633 0.0942759 0.287633 0.0539377C0.267175 -0.0469081 0.144422 0.013599 0.103506 0.0741065C0.0216733 0.195121 -0.060149 0.356475 0.0625994 0.477489C0.0830575 0.497659 0.123966 0.47749 0.144424 0.457321C0.226257 0.416982 0.287636 0.336306 0.328552 0.255629C0.34901 0.215291 0.369468 0.134613 0.328552 0.114444C0.328552 0.114444 0.308091 0.0942753 0.287633 0.0942753C0.267175 0.0942753 0.226254 0.134614 0.205796 0.154783Z" transform="translate(114.956 48.0436)" fill="white"/>
<path d="M1.25135e-06 0.0647044C0.0615074 4.57209 0.389536 9.38268 1.68117 13.7284C1.72217 13.8294 1.84519 13.6677 1.84519 13.5869C1.43515 11.3231 0.902092 9.0997 0.615063 6.81568C0.328034 4.55188 0.143513 2.28808 0.0615049 0.00406931C0.0615049 -0.0161432 1.25135e-06 0.0444919 1.25135e-06 0.0647044Z" transform="translate(96.6082 80.2905)" fill="#E6871C"/>
<path d="M2.50269e-06 0.00898087C1.51715 3.80893 1.9477 7.85144 1.29163 11.8939C1.25063 12.0961 1.53765 11.8535 1.55815 11.7322C2.21422 7.75037 1.66067 3.68766 2.50269e-06 0.00898087C0.0205046 -0.0112316 2.50269e-06 0.00898087 2.50269e-06 0.00898087Z" transform="translate(121.642 81.3364)" fill="#E6871C"/>
<path d="M11.2022 0.0750189C10.7512 7.10897 10.3001 14.1429 9.39805 21.1365C8.49596 28.1098 7.26583 35.0022 4.12902 41.3692C2.57086 44.5425 0.848688 47.6755 0.00810377 51.1318C-0.0534024 51.4148 0.254127 51.2127 0.295131 51.051C1.09471 47.817 2.63237 44.8457 4.10851 41.8745C5.56416 38.9437 6.73278 35.9724 7.51186 32.7789C9.17252 26.0481 9.93109 19.095 10.5052 12.2025C10.8537 8.13981 11.0792 4.09731 11.2842 0.0345915C11.2842 -0.0462586 11.2022 0.0345939 11.2022 0.0750189Z" transform="translate(101.315 92.3265)" fill="#E6871C"/>
<path d="M0.00418534 0.0540222C0.660251 6.36033 1.11129 12.6868 1.60334 19.0134C1.62385 19.2559 1.99289 18.8517 1.97238 18.69C1.68536 12.4443 0.967778 6.19863 0.0451857 0.0136008C0.0451857 -0.0268242 -0.0163167 0.0338097 0.00418534 0.0540222Z" transform="translate(76.5122 87.781)" fill="#E6871C"/>
<path d="M-2.50269e-06 0.117735C1.14811 3.99854 2.58326 7.8187 4.46945 11.3963C4.53096 11.5176 4.73598 11.2346 4.69497 11.1336C2.89079 7.53573 1.29163 3.87726 0.123011 0.0166727C0.102509 -0.0439649 -2.50269e-06 0.0773102 -2.50269e-06 0.117735Z" transform="translate(72.3542 92.5259)" fill="#E6871C"/>
<path d="M6.25673e-07 0.110428C0.246025 4.01144 0.328034 7.93267 0.615062 11.8337C0.635565 12.056 0.9841 11.672 0.9841 11.5103C0.88159 7.66991 0.471548 3.82953 0.102511 0.00936515C0.0820089 -0.0310599 6.25673e-07 0.0700027 6.25673e-07 0.110428Z" transform="translate(46.3167 98.3343)" fill="#E6871C"/>
<path d="M0.16541 0.0233406C-0.367643 1.7414 0.513944 3.6818 1.0265 5.31901C1.62106 7.19878 2.29762 9.03812 3.34323 10.6955C3.40473 10.7966 3.58925 10.5541 3.52775 10.4732C2.68716 8.97748 1.99009 7.44133 1.41603 5.84454C0.821474 4.18712 -0.326639 1.80204 0.16541 0.0233406C0.206414 -0.0170844 0.185912 0.00312812 0.16541 0.0233406Z" transform="translate(41.3948 99.2726)" fill="#E6871C"/>
<path d="M3.02761 0.0750214C2.9866 3.06647 2.69958 6.05792 2.20753 9.00895C1.69497 12.061 0.833886 14.9918 0.0138036 17.9833C-0.0682047 18.2663 0.239331 18.0439 0.300837 17.9025C2.43305 12.2834 3.10962 5.99728 3.13012 0.0345939C3.10962 -0.0462561 3.02761 0.0345964 3.02761 0.0750214Z" transform="translate(132.514 87.5164)" fill="#E6871C"/>
<path d="M0.0032654 0.11043C2.05347 4.21357 2.05347 8.6199 2.3815 13.0666C2.402 13.3092 2.75053 12.9049 2.75053 12.7432C2.64802 8.43798 2.11497 3.89017 0.0852661 0.00936701C0.0647641 -0.031058 -0.0172367 0.0700045 0.0032654 0.11043Z" transform="translate(159.054 74.7675)" fill="#E6871C"/>
<path d="M0.00270082 0.117732C1.80688 3.47301 2.13491 7.31338 1.0483 10.9314C0.986794 11.1335 1.21232 10.9719 1.25332 10.8708C2.44244 7.25275 1.9709 3.31131 0.105211 0.016669C0.084709 -0.0439686 -0.0178012 0.0773065 0.00270082 0.117732Z" transform="translate(165.451 70.4348)" fill="#FDB515"/>
<path d="M0.0205046 9.7711C0.57406 7.56794 1.82468 5.54669 2.87028 3.52544C3.23932 2.818 4.85899 0.715903 3.71088 0.00846539C3.60837 -0.0521721 3.42384 0.230802 3.52635 0.291439C4.32593 0.958452 3.19832 2.57545 2.80878 3.32331C2.41924 4.09139 2.0297 4.85946 1.64016 5.62754C0.963592 6.96156 0.307526 8.29559 -5.00539e-06 9.75089C-5.00539e-06 9.79131 0.0205046 9.7711 0.0205046 9.7711Z" transform="translate(135.972 82.1055)" fill="#FDB515"/>
<path d="M0.895425 0.127987C1.03894 2.27051 0.710909 4.29176 0.0138385 6.31301C-0.0681697 6.57578 0.239359 6.37365 0.280363 6.23216C0.977433 4.23112 1.18246 2.12902 1.01844 0.0269242C0.997943 -0.0539258 0.895425 0.0673492 0.895425 0.127987Z" transform="translate(117.998 79.358)" fill="#FCB316"/>
<path d="M0.00412635 0.0840681C1.09074 2.26702 2.32086 4.57124 3.96102 6.39037C4.06353 6.49143 4.24805 6.22867 4.18654 6.12761C2.7309 4.10636 1.25475 2.20638 0.06563 0.00321929C0.045128 -0.0169932 -0.0163757 0.0638556 0.00412635 0.0840681Z" transform="translate(101.607 79.7049)" fill="#FCB316"/>
<path d="M2.50269e-06 0.0375119C0.799583 4.80766 2.0297 9.49697 3.9569 13.9639C3.9774 14.0246 4.07991 13.8831 4.05941 13.8427C2.35774 9.33527 0.922591 4.74703 0.0410029 0.0172982C0.0410029 -0.0231268 2.50269e-06 0.0172994 2.50269e-06 0.0375119Z" transform="translate(71.9238 87.657)" fill="#FCB316"/>
<path d="M6.25673e-07 0.0717981C0.451046 2.19411 1.0456 4.276 1.82468 6.29726C1.86569 6.39832 2.05021 6.17598 2.0092 6.07492C1.20962 4.09409 0.553555 2.09305 0.0820076 0.0111631C0.0615055 -0.029262 6.25673e-07 0.0515856 6.25673e-07 0.0717981Z" transform="translate(41.9084 99.1637)" fill="#FCB316"/>
<path d="M0.0767715 12.6855C4.44371 7.6728 9.54871 3.69094 15.1868 0.173961C15.2483 0.133536 15.3098 -0.0483777 15.2073 0.0122599C9.42571 3.1452 4.30019 7.6728 0.0357649 12.6046C-0.0257413 12.6653 -0.0052367 12.7866 0.0767715 12.6855Z" transform="translate(138.52 78.3419)" fill="#FCB316"/>
<path d="M0.00559019 7.23435C11.4867 7.11307 23.3779 5.90032 33.6085 0.321667C33.711 0.261029 33.834 -0.0825837 33.629 0.0184789C23.3779 5.59713 11.5687 6.95137 0.0465906 7.15349C0.0260885 7.15349 -0.0149119 7.23435 0.00559019 7.23435Z" transform="translate(84.0144 130.281)" fill="#FCB316"/>
<path d="M0.0254792 2.18748C4.84346 1.92472 9.68195 1.35878 14.3769 0.226878C14.4589 0.206666 14.5614 -0.0358918 14.4384 0.0045332C9.70245 0.994946 4.94597 1.76303 0.0869829 2.046C0.0254767 2.02579 -0.036027 2.18748 0.0254792 2.18748Z" transform="translate(100.191 137.229)" fill="#FCB316"/>
<path d="M2.50269e-06 0.0606425C2.68577 2.40529 5.41255 4.6893 8.20083 6.89247C10.9891 9.09563 13.7774 11.3594 16.7297 13.32C16.8117 13.3605 16.9347 13.1583 16.8732 13.1179C14.0849 10.9148 11.1531 8.87329 8.36484 6.67012C5.55606 4.48717 2.78828 2.2638 0.0410029 -4.93469e-06C0.0205008 -4.93469e-06 2.50269e-06 0.04043 2.50269e-06 0.0606425Z" transform="translate(77.7666 166.4)" fill="#736A5B"/>
<path d="M0.022352 0.983618C5.59891 -0.12807 11.2165 0.0134098 16.752 1.16552C16.8545 1.18574 17.0186 0.902768 16.8955 0.882555C11.36 -0.350408 5.55791 -0.249355 0.0428553 0.92297C0.00185117 0.943183 -0.0186521 1.00383 0.022352 0.983618Z" transform="translate(87.3596 158.705)" fill="#736A5B"/>
<path d="M0.00849098 2.943C3.0428 1.44727 6.32313 0.557922 9.70597 0.315372C12.9248 0.0930342 15.9386 0.57813 19.0549 1.34621C19.1369 1.36642 19.2804 1.12388 19.1984 1.10366C13.0478 -0.978224 5.74907 0.0323942 0.0289943 2.90257C0.00849223 2.88236 -0.0120111 2.943 0.00849098 2.943Z" transform="translate(87.1279 160.405)" fill="#736A5B"/>
<path d="M0.742686 0.0824441C0.865699 3.35687 0.640169 6.61108 0.00460492 9.84509C-0.0363992 10.0068 0.209625 9.80466 0.209625 9.72381C0.783683 6.51003 0.988709 3.27602 0.80419 0.0218091C0.824692 -0.0388285 0.742686 0.0420191 0.742686 0.0824441Z" transform="translate(126.229 198.576)" fill="#736A5B"/>
<path d="M4.06676 0.0600596C3.04166 3.71852 2.87764 7.74083 0.0688617 10.6312C-0.0336486 10.7323 -0.0336561 11.0355 0.150862 10.8535C3.14416 8.08443 3.14416 3.6781 4.14876 0.039852C4.18977 -0.0409981 4.08727 0.0196346 4.06676 0.0600596Z" transform="translate(125.365 201.206)" fill="#736A5B"/>
<path d="M1.25135e-06 0.127991C0.0205033 3.18008 0.348534 6.31301 1.29163 9.24383C1.33263 9.3651 1.59916 9.08212 1.57866 8.96085C0.779075 6.00982 0.184516 3.09923 0.143512 0.0269279C0.12301 -0.0539221 1.25135e-06 0.067353 1.25135e-06 0.127991Z" transform="translate(72.2109 205.547)" fill="#736A5B"/>
<path d="M0.00323642 0.110431C0.802817 2.17211 1.6434 4.23378 2.54549 6.25503C3.42708 8.23585 4.26766 10.3986 5.43628 12.2379C5.49779 12.3188 5.6208 12.1167 5.6003 12.056C4.75971 10.0348 3.6116 8.09437 2.70951 6.09333C1.78692 4.09229 0.925829 2.05083 0.105747 0.00936885C0.0647426 -0.0310562 -0.0172656 0.0700064 0.00323642 0.110431Z" transform="translate(67.1638 202.895)" fill="#736A5B"/>
<path d="M0.0113236 0.117728C4.52178 4.60491 8.7862 9.31443 12.9481 14.125C13.0096 14.2059 13.1736 14.0037 13.1121 13.9431C9.03223 9.07188 4.62429 4.46342 0.0728304 0.0166653C0.0523284 -0.0439723 -0.0296805 0.0773028 0.0113236 0.117728Z" transform="translate(44.7676 190.134)" fill="#736A5B"/>
<path d="M0.0132792 4.05481C1.16139 4.37821 2.37101 4.15588 3.53963 3.95375C4.93377 3.7112 6.30741 3.40802 7.68105 3.02398C10.2438 2.31654 12.7246 1.36655 15.0823 0.153802C15.1438 0.133589 15.1848 -0.0483257 15.1028 0.0123118C12.7246 1.18464 10.2848 2.15484 7.74255 2.86228C6.55343 3.2059 5.36431 3.46866 4.13419 3.71121C2.82206 3.95376 1.40742 4.29737 0.0952862 3.91334C0.03378 3.91334 -0.0277249 4.0346 0.0132792 4.05481Z" transform="translate(77.8557 181.344)" fill="#736A5B"/>
<path d="M0.016987 5.04517C4.21991 4.21646 8.40233 2.61968 11.9082 0.173962C11.9492 0.133537 12.0312 -0.0483727 11.9287 0.0122648C8.21781 2.29628 4.34292 4.01433 0.0579873 4.94411C0.0169832 4.96432 -0.0240172 5.06539 0.016987 5.04517Z" transform="translate(80.0054 143.102)" fill="#736A5B"/>
<path d="M2.24063 0.0911214C2.17913 2.25386 1.99461 4.39638 1.62557 6.5187C1.23603 8.76228 0.559461 10.9048 0.00590526 13.1282C-0.0350989 13.2899 0.149418 13.1888 0.190423 13.108C1.76908 9.04525 2.26114 4.35595 2.34314 0.030474C2.34314 -0.050376 2.24063 0.0506964 2.24063 0.0911214Z" transform="translate(105.397 147.772)" fill="#736A5B"/>
</svg>
