<svg width="294" height="272" viewBox="0 0 242 276" fill="none" xmlns="http://www.w3.org/2000/svg">
<path d="M7.76157 0C6.56749 6.34271 5.3734 7.61125 -5.69386e-07 9.51407C5.3734 11.4169 6.56749 12.6854 7.76157 19.0281C8.95566 12.6854 10.1498 11.4169 15.5231 9.51407C10.7468 7.61125 9.55271 6.34271 7.76157 0Z" transform="translate(186.866 53.0743) scale(-1 1)" fill="white" fill-opacity="0.6"/>
<path d="M7.76159 0C6.5675 6.34271 5.3734 7.61125 0 9.51407C5.3734 11.4169 6.5675 12.6854 7.76159 19.0281C8.95568 12.6854 10.1497 11.4169 15.5231 9.51407C10.1497 7.61125 8.95568 6.34271 7.76159 0Z" transform="translate(29.7358 55.04) scale(-1 1)" fill="white"/>
<path opacity="0.3" d="M5.17439 0C4.37834 4.03627 3.58226 4.84353 0 6.05441C3.58226 7.26529 4.37834 8.07254 5.17439 12.1088C5.97045 8.07254 6.76649 7.26529 10.3488 6.05441C6.76649 4.84353 5.97045 4.03627 5.17439 0Z" transform="translate(106.337) scale(-1 1)" fill="white"/>
<path d="M0.827966 13.1256C-0.984406 11.312 0.409739 8.80077 2.77976 8.66126L32.1959 0.151033C34.566 -0.546526 36.2389 1.26713 35.5419 3.63883L28.153 34.6105C27.5953 37.1217 25.5041 37.6797 23.6917 35.8661L0.827966 13.1256Z" transform="translate(205.328 85.793)" fill="#894D4D"/>
<path d="M6.93066 130.252C3.86357 130.252 1.07531 128.299 0.238826 125.23C-0.737067 121.603 1.35413 117.836 5.11829 116.859L45.4087 105.14L79.8438 71.3784C80.8197 70.4018 82.2138 69.7042 83.6079 69.4252L117.625 64.2633L151.92 39.1511C153.175 38.314 154.569 37.756 156.103 37.756L187.889 38.314L221.191 2.18289C223.84 -0.607347 228.161 -0.74686 230.95 1.90387C233.738 4.55459 233.877 8.87946 231.228 11.6697L195.836 49.8935C194.441 51.2886 192.629 52.1257 190.677 51.9862L158.194 51.4282L124.317 76.4008C123.48 77.0984 122.365 77.5169 121.25 77.6564L87.7904 82.6788L53.7735 116.022C52.937 116.859 51.9611 117.417 50.7064 117.696L8.74303 129.973C8.18538 130.252 7.62773 130.252 6.93066 130.252Z" transform="translate(0.273682 94.444)" fill="#894D4D"/>
<path d="M6.93066 130.252C3.86357 130.252 1.07531 128.299 0.238826 125.23C-0.737067 121.603 1.35413 117.836 5.11829 116.859L45.4087 105.14L79.8438 71.3784C80.8197 70.4018 82.2138 69.7042 83.6079 69.4252L117.625 64.2633L151.92 39.1511C153.175 38.314 154.569 37.756 156.103 37.756L187.889 38.314L221.191 2.18289C223.84 -0.607349 228.161 -0.746858 230.95 1.90387C233.738 4.5546 233.877 8.87947 231.228 11.6697L195.836 49.8935C194.441 51.2886 192.629 52.1257 190.677 51.9862L158.194 51.4282L124.317 76.2613C123.48 76.9588 122.365 77.3774 121.25 77.5169L87.7904 82.5393L53.7735 115.883C52.937 116.72 51.9611 117.278 50.7064 117.557L8.74303 129.834C8.18538 130.113 7.62773 130.252 6.93066 130.252Z" transform="translate(0.273682 92.7699)" fill="#C93A47"/>
<path d="M1.07294 13.0143C-0.739437 11.2006 -0.18178 9.24747 2.18825 8.54991L31.8833 0.179197C34.3927 -0.518363 35.7868 0.876758 35.2292 3.38797L27.7009 33.104C27.1432 35.6152 25.052 36.1733 23.2396 34.3596L1.07294 13.0143Z" transform="translate(205.501 85.9043)" fill="#C93A47"/>
<path d="M17.1478 34.3199C26.6183 34.3199 34.2957 26.6372 34.2957 17.16C34.2957 7.68278 26.6183 0 17.1478 0C7.67734 0 8.50911e-06 7.68278 8.50911e-06 17.16C8.50911e-06 26.6372 7.67734 34.3199 17.1478 34.3199Z" transform="translate(205.995 19.9237)" fill="white"/>
<path d="M1.53355 1.67414C1.53355 0.976584 1.1153 0.558047 -8.50911e-06 -5.32196e-07C-8.50911e-06 0.976583 -8.50911e-06 1.95317 -8.50911e-06 3.06926C0.975884 2.92975 1.53355 2.51122 1.53355 1.67414Z" transform="translate(222.446 38.4788)" fill="#FFCD73"/>
<path d="M0.139405 26.2282C7.38889 26.2282 13.2443 20.3687 13.2443 13.1141C13.2443 5.8595 7.38889 -1.33049e-07 0.139405 -1.33049e-07C0.139405 1.25561 0.139405 2.51122 0.139405 3.90633H1.25471V5.8595C2.78826 5.8595 3.76416 6.27804 4.46122 6.55706L3.76416 9.06828C3.2065 8.78925 2.09119 8.37072 0.557649 8.37072C0.418235 8.37072 0.278831 8.37072 4.25455e-06 8.37072C4.25455e-06 9.20779 4.25455e-06 10.1844 4.25455e-06 11.0214C0.278831 11.161 0.697062 11.3005 1.25471 11.5795C3.90357 12.5561 5.01887 13.8117 5.01887 15.7648C5.01887 17.718 3.62474 19.5317 0.975893 19.9502V22.1824H4.25455e-06C0.139417 23.5775 0.139405 24.9726 0.139405 26.2282Z" transform="translate(222.306 24.109)" fill="#FFC359"/>
<path d="M-8.50911e-06 1.25561C-8.50911e-06 1.81366 0.418231 2.23219 1.39412 2.65073C1.39412 1.81366 1.39412 0.837072 1.39412 5.32196e-07C0.278818 0.139512 -8.50911e-06 0.69756 -8.50911e-06 1.25561Z" transform="translate(221.051 32.4794)" fill="#FFCD73"/>
<path d="M11.8501 22.1824V20.0897C10.3166 20.0897 8.92245 19.6712 8.08597 19.1131L8.78304 16.4624C9.75893 17.0205 11.0136 17.439 12.5472 17.439C12.6866 17.439 12.9654 17.439 13.1048 17.439C13.1048 16.4624 13.1048 15.4858 13.1048 14.3697C12.826 14.2302 12.5472 14.2302 12.2684 14.0907C9.89834 13.2536 8.22537 12.1375 8.22537 9.90535C8.22537 7.95218 9.61952 6.41755 11.9895 5.8595V3.90633H13.1048C13.1048 2.51122 13.1048 1.1161 13.1048 -1.33049e-07C5.85535 -1.33049e-07 0 5.8595 0 13.1141C0 20.3687 5.85535 26.2282 13.1048 26.2282C13.1048 24.9726 13.1048 23.717 13.1048 22.3219H11.8501V22.1824Z" transform="translate(209.341 24.109)" fill="#FFC359"/>
<path d="M4.46122 19.2533C4.46122 11.081 11.1531 4.4324 19.3784 4.4324C19.3784 2.49323 19.3784 0.831076 19.3784 2.064e-09C8.64361 2.064e-09 0 8.7263 0 19.3918C0 30.0572 8.64361 38.645 19.3784 38.7835C19.3784 37.6754 19.3784 36.1518 19.3784 34.3511C11.1531 34.0741 4.46122 27.4255 4.46122 19.2533Z" transform="translate(203.067 17.6914)" fill="#FFC359"/>
<path d="M18.9602 15.3463C18.8208 14.7883 18.6814 14.0907 18.4026 13.5327C17.5661 10.7424 16.0325 8.2312 14.0807 6.13853C10.5954 2.3717 5.57652 0 -8.50911e-06 0C-8.50911e-06 0.976584 -8.50911e-06 2.51121 -8.50911e-06 4.46438C8.22537 4.46438 14.9172 11.161 14.9172 19.3922C14.9172 27.6234 8.22537 34.3199 -8.50911e-06 34.3199C-8.50911e-06 36.1336 -8.50911e-06 37.6682 -8.50911e-06 38.7843C6.69183 38.7843 12.5472 35.436 16.0325 30.2741C17.2872 28.3209 18.2631 26.2282 18.8208 23.8565C18.9602 23.2985 19.0996 22.7404 19.0996 22.1824C19.239 21.2058 19.3784 20.2292 19.3784 19.2526C19.5179 17.997 19.239 16.6019 18.9602 15.3463Z" transform="translate(222.446 17.6914)" fill="#FFC359"/>
<path d="M22.0273 4.25757e-06H5.15829C2.37003 4.25757e-06 -1.06364e-06 2.23219 -1.06364e-06 5.16194V46.1784H27.1856V5.16194C27.1856 2.3717 24.8156 4.25757e-06 22.0273 4.25757e-06Z" transform="translate(23.7947 229.021)" fill="#F3BC5A"/>
<path d="M22.0273 0H5.1583C2.37003 0 0 2.23219 0 5.16194V91.9384H27.1856V5.16194C27.1856 2.23219 24.8156 0 22.0273 0Z" transform="translate(93.2219 183.262)" fill="#F3BC5A"/>
<path d="M22.0273 -4.25757e-06H5.15829C2.37003 -4.25757e-06 4.25455e-06 2.37171 4.25455e-06 5.16194V119.562H27.1856V5.16194C27.1856 2.37171 24.955 -4.25757e-06 22.0273 -4.25757e-06Z" transform="translate(162.511 155.638)" fill="#F3BC5A"/>
<path d="M4.97927 0L4.06617 0.30625C4.06617 0.30625 3.00088 -1.1865e-06 2.39214 0.459372C1.78341 0.918745 1.63122 1.37812 1.63122 1.37812C1.63122 1.37812 -0.499353 2.29687 0.109383 3.36874C0.71812 4.44061 0.718116 4.44061 0.718116 4.44061C0.718116 4.44061 0.870303 5.0531 1.32685 5.35935C1.78341 5.6656 2.08778 6.12497 2.39214 6.2781C2.69651 6.43122 3.00088 6.43122 3.45743 6.43122C3.91399 6.43122 4.06617 6.2781 4.52272 5.81873C4.97927 5.51248 5.58801 4.59373 5.7402 3.52186C6.04456 2.44999 6.95767 1.53124 6.95767 1.53124C7.26203 1.53124 4.97927 0 4.97927 0Z" transform="translate(56.1677 78.1134)" fill="#FFC4A2"/>
<path d="M-2.32214e-06 5.3893L0.304373 4.47055C0.304373 4.47055 -0.152189 3.39868 0.152179 2.78618C0.456547 2.17369 1.06529 1.86744 1.06529 1.86744C1.06529 1.86744 1.67402 -0.276304 2.8915 0.0299443C4.10897 0.336193 4.10897 0.336193 4.10897 0.336193C4.10897 0.336193 4.71771 0.336193 5.02208 0.795566C5.47863 1.25494 5.78299 1.40806 6.08736 1.71431C6.39173 2.02056 6.39174 2.32681 6.39174 2.78618C6.39174 3.24556 6.23955 3.55181 5.93518 4.01118C5.63081 4.47055 4.86988 5.23617 3.95678 5.69555C3.04368 6.15492 2.28276 7.07366 2.13058 7.22679C1.82621 7.37991 -2.32214e-06 5.3893 -2.32214e-06 5.3893Z" transform="translate(149.718 32.9115)" fill="#FFC4A2"/>
<path d="M61.3302 0L50.3729 36.903L9.13104 50.0717L0 61.4029L6.54391 45.7842L39.2635 32.1561L45.3509 3.67499L61.3302 0Z" transform="translate(40.7544 90.3634)" fill="#242728"/>
<path d="M8.52231 0.459372L9.43541 22.9687L-4.64429e-06 32.4624L1.97839 5.84123e-07L8.52231 0.459372Z" transform="translate(112.585 57.5946)" fill="#3C4144"/>
<path d="M1.52184 15.0062L17.9577 17.6093L33.1761 -5.84123e-07L36.0676 1.37812L19.1752 24.4999L-4.64429e-06 22.9687L1.52184 15.0062Z" transform="translate(116.39 38.1478)" fill="#3C4144"/>
<path d="M1.97839 39.1998L-2.32214e-06 42.5686L26.1757 39.8123L33.0239 2.44999L23.7407 5.84123e-07L1.97839 39.1998Z" transform="translate(86.5618 50.704)" fill="#F2F1ED"/>
<path d="M4.41334 10.1062L10.9573 3.52186V-1.46031e-07L6.08736 2.90936L2.32214e-06 9.95308L4.10897 19.1405L7.30483 14.5468L4.41334 10.1062Z" transform="translate(102.237 26.2041)" fill="#5D5D5D"/>
<path d="M13.8487 9.18746L6.84828 1.46031e-07L0.304373 6.58435L3.19586 11.025L-2.32214e-06 15.6187L0.152179 18.8343L0.304373 19.2937L13.0878 22.3562L12.6313 19.2937L15.9793 19.1405L14.3053 14.2406L11.8704 13.3218L14.0009 12.8624L12.7835 9.79996L13.8487 9.18746Z" transform="translate(106.346 29.726)" fill="#FFC4A2"/>
<path d="M1.67571 5.20103C2.60119 5.20103 3.35143 4.03674 3.35143 2.60051C3.35143 1.16429 2.60119 0 1.67571 0C0.750241 0 0 1.16429 0 2.60051C0 4.03674 0.750241 5.20103 1.67571 5.20103Z" transform="matrix(0.913977 -0.405885 0.401722 0.915815 105.311 38.73)" fill="#FFC4A2"/>
<path d="M2.13057 -5.84123e-07L4.64429e-06 0.612498H1.06529L2.13057 -5.84123e-07Z" transform="translate(118.064 38.9133)" fill="#E8AF92"/>
<path d="M4.26115 1.37812L4.64429e-06 0L0.913107 1.53124L4.26115 1.37812Z" transform="translate(118.064 47.4884)" fill="#E8AF92"/>
<path d="M28.154 1.16825e-06L33.6327 1.225L24.9582 34.1467L-2.32214e-06 49.306L28.154 1.16825e-06Z" transform="translate(78.1921 50.0914)" fill="#3C4144"/>
<path d="M46.5683 -1.16825e-06L27.3931 2.75624L0 27.2561L2.28276 29.8592L29.2193 9.49371L45.6552 13.7812L46.5683 -1.16825e-06Z" transform="translate(60.5381 51.0104)" fill="#3C4144"/>
<path d="M0.304368 2.44999L1.97839 2.60311L3.19587 0.765621L4.64429e-06 -1.16825e-06L0.304368 2.44999Z" transform="translate(115.021 51.7761)" fill="#A62935"/>
<path d="M13.0878 3.52186L0.152179 1.16825e-06L-2.32214e-06 1.53124L7.91358 3.36874L13.24 4.59373L13.0878 3.52186Z" transform="translate(106.346 48.5601)" fill="#E8E5D2"/>
<path d="M100.289 11.4843L87.201 21.2843L57.9817 1.37812L5.47818 1.16825e-06C5.47818 1.16825e-06 -1.52229 3.36873 0.303918 12.0968C2.13013 20.8249 29.5233 14.5468 29.5233 14.5468L57.2208 10.2593L84.3095 26.3374L89.636 29.2468L100.289 11.4843Z" transform="translate(85.3452 89.1382)" fill="#3C4144"/>
<path d="M37.5895 11.7756H38.9591C38.9591 11.7756 37.5895 20.6568 31.3499 17.7474C24.9582 14.838 19.1752 6.4162 15.675 5.03808C12.1747 3.65996 4.26115 8.40682 4.26115 8.40682L2.32214e-06 8.86619L0.608741 4.27246C0.608741 4.27246 9.43542 -2.92438 16.5881 1.3631C23.5885 5.65058 28.154 12.3881 30.8934 14.5318C33.0239 16.2162 35.0023 17.1349 37.5895 11.7756Z" transform="translate(77.8877 42.9098)" fill="#A62935"/>
<path d="M1.36966 0.459373C0.304373 0.918746 2.32214e-06 2.44999 2.32214e-06 2.44999C2.32214e-06 2.44999 0.608741 1.53124 1.36966 1.07187C2.13058 0.765622 3.19586 0.459373 3.19586 0.459373L3.04368 2.92062e-07C3.04368 2.92062e-07 2.43495 -1.82538e-07 1.36966 0.459373Z" transform="translate(112.89 33.4009)" fill="#4F4F4F"/>
<path d="M1.97839 0.612497C1.97839 0.612497 2.13058 0.918746 1.67402 0.918746C1.06529 1.07187 2.32214e-06 0.612497 2.32214e-06 0.612497C2.32214e-06 0.612497 1.52184 0.153125 1.67402 5.84123e-07L1.97839 0.612497Z" transform="translate(114.412 35.3915)" fill="#515252"/>
</svg>
